<svg width="12" height="11" viewBox="0 0 12 11" fill="none" xmlns="http://www.w3.org/2000/svg">
<path d="M6.0382 1.18L2.4082 5.35L11.3932 5.35L11.3932 6.235L2.3932 6.235L6.0382 10.405L4.8832 10.405L0.758201 5.8L4.8832 1.18L6.0382 1.18Z" fill="#00AA0A"/>
<path d="M6.0382 1.18L6.18905 1.31132L6.47746 0.98L6.0382 0.98L6.0382 1.18ZM2.4082 5.35L2.25735 5.21869L1.96894 5.55L2.4082 5.55L2.4082 5.35ZM11.3932 5.35L11.5932 5.35L11.5932 5.15L11.3932 5.15L11.3932 5.35ZM11.3932 6.235L11.3932 6.435L11.5932 6.435L11.5932 6.235L11.3932 6.235ZM2.3932 6.235L2.3932 6.035L1.95275 6.035L2.24262 6.36662L2.3932 6.235ZM6.0382 10.405L6.0382 10.605L6.47866 10.605L6.18878 10.2734L6.0382 10.405ZM4.8832 10.405L4.73423 10.5384L4.79385 10.605L4.8832 10.605L4.8832 10.405ZM0.758202 5.8L0.609014 5.6668L0.489889 5.80022L0.609229 5.93345L0.758202 5.8ZM4.8832 1.18L4.8832 0.98L4.79365 0.98L4.73401 1.0468L4.8832 1.18ZM5.88735 1.04868L2.25735 5.21869L2.55905 5.48132L6.18905 1.31132L5.88735 1.04868ZM2.4082 5.55L11.3932 5.55L11.3932 5.15L2.4082 5.15L2.4082 5.55ZM11.1932 5.35L11.1932 6.235L11.5932 6.235L11.5932 5.35L11.1932 5.35ZM11.3932 6.035L2.3932 6.035L2.3932 6.435L11.3932 6.435L11.3932 6.035ZM2.24262 6.36662L5.88762 10.5366L6.18878 10.2734L2.54378 6.10338L2.24262 6.36662ZM6.0382 10.205L4.8832 10.205L4.8832 10.605L6.0382 10.605L6.0382 10.205ZM5.03217 10.2716L0.907173 5.66656L0.609229 5.93345L4.73423 10.5384L5.03217 10.2716ZM0.907389 5.9332L5.03239 1.3132L4.73401 1.0468L0.609014 5.6668L0.907389 5.9332ZM4.8832 1.38L6.0382 1.38L6.0382 0.98L4.8832 0.98L4.8832 1.38Z" fill="#00AA0A"/>
</svg>
