<svg width="11" height="10" viewBox="0 0 11 10" fill="none" xmlns="http://www.w3.org/2000/svg">
<path d="M5.23311 1.156L2.08711 4.77L9.87411 4.77L9.87411 5.537L2.07411 5.537L5.23311 9.151L4.23211 9.151L0.657108 5.16L4.23211 1.156L5.23311 1.156Z" fill="white"/>
<path d="M5.23311 1.156L5.45938 1.35298L5.892 0.856L5.23311 0.856L5.23311 1.156ZM2.08711 4.77L1.86083 4.57303L1.42821 5.07L2.08711 5.07L2.08711 4.77ZM9.87411 4.77L10.1741 4.77L10.1741 4.47L9.87411 4.47L9.87411 4.77ZM9.87411 5.537L9.87411 5.837L10.1741 5.837L10.1741 5.537L9.87411 5.537ZM2.07411 5.537L2.07411 5.237L1.41343 5.237L1.84823 5.73444L2.07411 5.537ZM5.23311 9.151L5.23311 9.451L5.89379 9.451L5.45898 8.95356L5.23311 9.151ZM4.23211 9.151L4.00865 9.35117L4.09808 9.451L4.23211 9.451L4.23211 9.151ZM0.657107 5.16L0.433327 4.9602L0.254639 5.16033L0.43365 5.36017L0.657107 5.16ZM4.23211 1.156L4.23211 0.856001L4.09779 0.856001L4.00833 0.956195L4.23211 1.156ZM5.00683 0.959026L1.86083 4.57303L2.31338 4.96698L5.45938 1.35298L5.00683 0.959026ZM2.08711 5.07L9.87411 5.07L9.87411 4.47L2.08711 4.47L2.08711 5.07ZM9.57411 4.77L9.57411 5.537L10.1741 5.537L10.1741 4.77L9.57411 4.77ZM9.87411 5.237L2.07411 5.237L2.07411 5.837L9.87411 5.837L9.87411 5.237ZM1.84823 5.73444L5.00724 9.34844L5.45898 8.95356L2.29998 5.33956L1.84823 5.73444ZM5.23311 8.851L4.23211 8.851L4.23211 9.451L5.23311 9.451L5.23311 8.851ZM4.45557 8.95083L0.880566 4.95983L0.43365 5.36017L4.00865 9.35117L4.45557 8.95083ZM0.880889 5.35981L4.45589 1.35581L4.00833 0.956195L0.433327 4.9602L0.880889 5.35981ZM4.23211 1.456L5.23311 1.456L5.23311 0.856L4.23211 0.856001L4.23211 1.456Z" fill="white"/>
</svg>
