<svg width="7" height="11" viewBox="0 0 7 11" fill="none" xmlns="http://www.w3.org/2000/svg">
<path fill-rule="evenodd" clip-rule="evenodd" d="M6.03822 4.93685L1.72605 0.697656C1.62631 0.59953 1.49318 0.545471 1.35122 0.545471C1.20925 0.545471 1.07612 0.59953 0.976382 0.697656L0.65882 1.00977C0.452181 1.21315 0.452181 1.5437 0.65882 1.74677L4.27986 5.30658L0.654802 8.87035C0.555067 8.96847 0.5 9.09928 0.5 9.23877C0.5 9.37841 0.555067 9.50922 0.654802 9.60742L0.972364 9.91946C1.07218 10.0176 1.20524 10.0716 1.3472 10.0716C1.48916 10.0716 1.6223 10.0176 1.72203 9.91946L6.03822 5.6764C6.13819 5.57796 6.1931 5.44653 6.19279 5.30681C6.1931 5.16656 6.13819 5.0352 6.03822 4.93685Z" fill="#00AA0A"/>
</svg>
