<?xml version="1.0" encoding="utf-8"?>
<!-- Generator: Adobe Illustrator 21.0.2, SVG Export Plug-In . SVG Version: 6.00 Build 0)  -->
<svg version="1.1" id="Layer_1" xmlns="http://www.w3.org/2000/svg" xmlns:xlink="http://www.w3.org/1999/xlink" x="0px" y="0px"
	 viewBox="0 0 10 10" style="enable-background:new 0 0 10 10;" xml:space="preserve">
<style type="text/css">
	.st0{fill:#FCFCFC;}
</style>
<g>
	<g>
		<path class="st0" d="M5,0.3C2.4,0.3,0.3,2.4,0.3,5S2.4,9.7,5,9.7S9.7,7.6,9.7,5C9.7,2.4,7.6,0.3,5,0.3z M5,9.1
			C2.8,9.1,0.9,7.2,0.9,5c0-2.2,1.8-4.1,4.1-4.1c2.2,0,4.1,1.8,4.1,4.1C9.1,7.2,7.2,9.1,5,9.1z"/>
		<path class="st0" d="M5,1.9c-0.2,0-0.3,0.2-0.3,0.3v2.4H2.3C2.1,4.7,1.9,4.8,1.9,5c0,0.2,0.2,0.3,0.3,0.3H5c0.2,0,0.3-0.2,0.3-0.3
			V2.3C5.3,2.1,5.2,1.9,5,1.9z"/>
	</g>
</g>
</svg>
