<svg width="10" height="10" viewBox="0 0 10 10" fill="none" xmlns="http://www.w3.org/2000/svg">
<g clip-path="url(#clip0)">
<path d="M4.74846 0C2.12596 0 0 2.12596 0 4.74846C0 7.37096 2.12596 9.49691 4.74846 9.49691C7.37096 9.49691 9.49691 7.37096 9.49691 4.74846C9.49413 2.12713 7.3698 0.00280218 4.74846 0ZM4.74846 8.81857C2.50059 8.81857 0.678345 6.99632 0.678345 4.74846C0.678345 2.50059 2.50059 0.678345 4.74846 0.678345C6.99632 0.678345 8.81857 2.50059 8.81857 4.74846C8.81614 6.99532 6.99532 8.81614 4.74846 8.81857Z" fill="#00AA0A"/>
<path d="M4.74851 1.69592C4.56118 1.69592 4.40932 1.84778 4.40932 2.03511V4.40934H2.03511C1.84778 4.40934 1.69592 4.5612 1.69592 4.74853C1.69592 4.93586 1.84778 5.08769 2.03511 5.08769H4.74851C4.93584 5.08769 5.08769 4.93584 5.08769 4.74851V2.03511C5.08769 1.84778 4.93584 1.69592 4.74851 1.69592Z" fill="#00AA0A"/>
</g>
<defs>
<clipPath id="clip0">
<rect width="9.49693" height="9.49693" fill="white"/>
</clipPath>
</defs>
</svg>
