<svg width="18" height="18" viewBox="0 0 18 18" fill="none" xmlns="http://www.w3.org/2000/svg">
<path opacity="0.4" d="M12.2549 1.49988H5.75238C3.20988 1.49988 1.49988 3.28488 1.49988 5.93988V12.0674C1.49988 14.7149 3.20988 16.4999 5.75238 16.4999H12.2549C14.7974 16.4999 16.4999 14.7149 16.4999 12.0674V5.93988C16.4999 3.28488 14.7974 1.49988 12.2549 1.49988Z" fill="white"/>
<path d="M11.2617 10.3278L9.9275 8.99425L11.261 7.66075C11.5175 7.405 11.5175 6.98875 11.261 6.733C11.0045 6.475 10.5897 6.47575 10.3332 6.73225L8.999 8.06575L7.66475 6.73075C7.40825 6.47425 6.99275 6.47575 6.73625 6.73075C6.4805 6.98725 6.4805 7.4035 6.73625 7.65925L8.07125 8.99425L6.73925 10.3255C6.48275 10.582 6.48275 10.9983 6.73925 11.2533C6.8675 11.3823 7.03475 11.446 7.20275 11.446C7.3715 11.446 7.53875 11.3823 7.667 11.254L8.999 9.922L10.334 11.2563C10.4622 11.3845 10.6295 11.4483 10.7975 11.4483C10.9655 11.4483 11.1335 11.3838 11.2617 11.2563C11.5182 10.9998 11.5182 10.5843 11.2617 10.3278Z" fill="white"/>
</svg>
