<svg width="13" height="13" viewBox="0 0 13 13" fill="none" xmlns="http://www.w3.org/2000/svg">
<path d="M7.48357 6.3729L12.3344 11.2239C12.6501 11.5394 12.6501 12.0496 12.3344 12.3652C12.0189 12.6807 11.5087 12.6807 11.1932 12.3652L6.34216 7.51416L1.4913 12.3652C1.17562 12.6807 0.665583 12.6807 0.350046 12.3652C0.0343598 12.0496 0.0343598 11.5394 0.350046 11.2239L5.20091 6.3729L0.350046 1.5219C0.0343598 1.20637 0.0343598 0.696187 0.350046 0.38065C0.507297 0.22325 0.71406 0.144181 0.920674 0.144181C1.12729 0.144181 1.3339 0.22325 1.4913 0.38065L6.34216 5.23165L11.1932 0.38065C11.3506 0.22325 11.5572 0.144181 11.7638 0.144181C11.9704 0.144181 12.177 0.22325 12.3344 0.38065C12.6501 0.696187 12.6501 1.20637 12.3344 1.5219L7.48357 6.3729Z" fill="white"/>
</svg>
