<svg width="7" height="7" viewBox="0 0 7 7" fill="none" xmlns="http://www.w3.org/2000/svg">
<g clip-path="url(#clip0)">
<path d="M4.14131 3.49429L6.86698 6.22003C7.04436 6.39732 7.04436 6.68399 6.86698 6.86129C6.68968 7.03859 6.40301 7.03859 6.22571 6.86129L3.49996 4.13555L0.7743 6.86129C0.596919 7.03859 0.310335 7.03859 0.133036 6.86129C-0.0443454 6.68399 -0.0443454 6.39732 0.133036 6.22003L2.8587 3.49429L0.133036 0.768544C-0.0443454 0.591246 -0.0443454 0.30458 0.133036 0.127282C0.221395 0.0388398 0.337573 -0.00558853 0.453668 -0.00558853C0.569764 -0.00558853 0.685859 0.0388398 0.7743 0.127282L3.49996 2.85302L6.22571 0.127282C6.31415 0.0388398 6.43025 -0.00558853 6.54634 -0.00558853C6.66244 -0.00558853 6.77853 0.0388398 6.86698 0.127282C7.04436 0.30458 7.04436 0.591246 6.86698 0.768544L4.14131 3.49429Z" fill="#737373"/>
</g>
<defs>
<clipPath id="clip0">
<rect width="7" height="7" fill="white" transform="matrix(1 0 0 -1 0 7)"/>
</clipPath>
</defs>
</svg>
