<svg width="15" height="15" viewBox="0 0 15 15" fill="none" xmlns="http://www.w3.org/2000/svg">
<path d="M5.84733 7.5L0.238673 1.8911C0.0843945 1.7367 -0.000732422 1.53071 -0.000976562 1.31106C-0.000976562 1.09129 0.0841503 0.885058 0.238673 0.730901L0.730169 0.239528C0.884691 0.0847616 1.09068 0 1.31057 0C1.5301 0 1.73609 0.0847616 1.89061 0.239528L7.49927 5.84806L13.1082 0.239528C13.2624 0.0847616 13.4686 0 13.6883 0C13.9079 0 14.114 0.0847616 14.2682 0.239528L14.76 0.730901C15.08 1.05092 15.08 1.57144 14.76 1.8911L9.1512 7.5L14.76 13.1087C14.9144 13.2633 14.9994 13.4693 14.9994 13.6889C14.9994 13.9086 14.9144 14.1146 14.76 14.2691L14.2684 14.7605C14.1141 14.9151 13.9079 15 13.6885 15C13.4687 15 13.2626 14.9151 13.1083 14.7605L7.49939 9.15181L1.89073 14.7605C1.73621 14.9151 1.53022 15 1.31069 15H1.31045C1.0908 15 0.884813 14.9151 0.730291 14.7605L0.238796 14.2691C0.0845175 14.1147 -0.000610352 13.9086 -0.000610352 13.6889C-0.000610352 13.4693 0.0845175 13.2633 0.238796 13.1088L5.84733 7.5Z" fill="#00AA0A"/>
</svg>
