<svg width="17" height="17" viewBox="0 0 17 17" fill="none" xmlns="http://www.w3.org/2000/svg">
<g clip-path="url(#clip0)">
<path d="M13.9641 8.49997C13.6288 8.49997 13.3569 8.7718 13.3569 9.10712V15.1784C13.3569 15.5138 13.0851 15.7856 12.7498 15.7856H1.8214C1.48608 15.7856 1.21426 15.5138 1.21426 15.1784L1.21426 3.03576C1.21426 2.70044 1.48608 2.42861 1.8214 2.42861L9.10702 2.42861C9.44235 2.42861 9.71417 2.15679 9.71417 1.82147C9.71417 1.48614 9.44235 1.21436 9.10702 1.21436L1.8214 1.21436C0.81547 1.21436 0 2.02983 0 3.03576L0 15.1784C0 16.1844 0.81547 16.9998 1.8214 16.9998H12.7498C13.7558 16.9998 14.5712 16.1844 14.5712 15.1784V9.10708C14.5712 8.7718 14.2994 8.49997 13.9641 8.49997Z" fill="white"/>
<path d="M16.3194 0.680953C15.8835 0.244954 15.2922 6.05272e-05 14.6757 0.000131676C14.0588 -0.00164704 13.4669 0.243673 13.0322 0.681344L5.03496 8.67788C4.96861 8.74472 4.91856 8.82598 4.88864 8.91527L3.67438 12.5581C3.5684 12.8762 3.74041 13.22 4.05855 13.3259C4.12027 13.3465 4.18491 13.357 4.24994 13.3571C4.31511 13.357 4.37989 13.3465 4.44179 13.3261L8.0846 12.1119C8.17407 12.082 8.25536 12.0317 8.32199 11.9649L16.3192 3.96777C17.2269 3.0602 17.227 1.58863 16.3194 0.680953ZM15.4607 3.10986L7.56792 11.0026L5.2098 11.7901L5.99482 9.43497L13.8906 1.54224C14.3247 1.10902 15.0278 1.10973 15.4611 1.54381C15.668 1.75117 15.7846 2.03189 15.7855 2.32484C15.7862 2.61936 15.6693 2.90196 15.4607 3.10986Z" fill="white"/>
</g>
<defs>
<clipPath id="clip0">
<rect width="17" height="17" fill="white"/>
</clipPath>
</defs>
</svg>
