<svg width="11" height="6" viewBox="0 0 11 6" fill="none" xmlns="http://www.w3.org/2000/svg">
<path d="M10.3897 2.49057C9.45218 1.74559 7.55119 0.49585 5.35355 0.49585C3.15592 0.49585 1.25493 1.74572 0.316696 2.49118C0.115457 2.65223 0 2.8923 0 3.15013C0 3.40796 0.115457 3.64803 0.314751 3.8074C0.611288 4.05001 0.978529 4.31049 1.37666 4.56081C1.48946 4.63162 1.63846 4.59772 1.70939 4.48492C1.78033 4.37199 1.7463 4.22312 1.6335 4.15218C1.25202 3.91234 0.901677 3.66394 0.618294 3.43219C0.53203 3.36318 0.482573 3.2604 0.482573 3.15013C0.482573 3.03986 0.53203 2.93695 0.617583 2.86854C1.50588 2.16267 3.30249 0.978548 5.35355 0.978548C7.40461 0.978548 9.20123 2.16279 10.0889 2.86806C10.1751 2.93707 10.2245 3.03986 10.2245 3.15025C10.2245 3.26052 10.1751 3.36331 10.0895 3.43184C9.20123 4.13759 7.40449 5.32171 5.35355 5.32171C5.22036 5.32171 5.11227 5.4298 5.11227 5.56299C5.11227 5.69618 5.22036 5.80428 5.35355 5.80428C7.55108 5.80428 9.45218 4.55466 10.3903 3.80885C10.5917 3.64778 10.7071 3.4077 10.7071 3.15C10.7071 2.8923 10.5917 2.6521 10.3897 2.49057Z" fill="#00AA0A"/>
<path d="M5.35386 0.49585C3.89033 0.49585 2.69971 1.68647 2.69971 3.15C2.69971 4.61353 3.89033 5.80415 5.35386 5.80415C5.48705 5.80415 5.59515 5.69605 5.59515 5.56286C5.59515 5.42967 5.48705 5.32158 5.35386 5.32158C4.15648 5.32158 3.18228 4.34737 3.18228 3.15C3.18228 1.95262 4.15648 0.978422 5.35386 0.978422C6.55124 0.978422 7.52544 1.95262 7.52544 3.15C7.52544 3.28319 7.63353 3.39128 7.76672 3.39128C7.89992 3.39128 8.00801 3.28319 8.00801 3.15C8.00801 1.68647 6.81739 0.49585 5.35386 0.49585Z" fill="#00AA0A"/>
</svg>
