<svg width="17" height="15" viewBox="0 0 17 15" fill="none" xmlns="http://www.w3.org/2000/svg">
<path fill-rule="evenodd" clip-rule="evenodd" d="M8.51935 3.13547L8.33559 3.13263C5.67702 3.13263 3.2811 4.85293 1.95317 7.66769C1.90103 7.77822 1.90103 7.9034 1.95317 8.01393L2.04519 8.20381C3.35629 10.8382 5.62204 12.4692 8.14928 12.5462L8.33303 12.549C10.9916 12.549 13.3875 10.8287 14.7155 8.01393C14.7683 7.90201 14.7676 7.77513 14.7135 7.66369L14.6241 7.47924C13.3098 4.83988 11.0431 3.21235 8.51935 3.13547ZM8.61616 3.72116L8.76956 3.72418L8.94099 3.73236C10.9937 3.86559 12.8815 5.2608 14.022 7.55225L14.016 7.56639C12.8469 9.90714 10.894 11.3107 8.77659 11.3811L8.61295 11.3834L8.4479 11.3813L8.27692 11.3732C6.28799 11.244 4.45415 9.92712 3.30671 7.76447L3.19811 7.55225L3.29864 7.35633C4.5086 5.06518 6.48623 3.72166 8.61616 3.72116ZM8.33403 5.5535C6.947 5.5535 5.82307 6.57734 5.82307 7.84093C5.82307 9.10406 6.94712 10.1278 8.33403 10.1278C9.72102 10.1278 10.8456 9.10399 10.8456 7.84093C10.8456 6.5774 9.72114 5.5535 8.33403 5.5535ZM8.33403 6.43058C9.18932 6.43058 9.8826 7.06185 9.8826 7.84093C9.8826 8.6195 9.18924 9.2507 8.33403 9.2507C7.47899 9.2507 6.78611 8.61966 6.78611 7.84093C6.78611 7.06169 7.47892 6.43058 8.33403 6.43058Z" fill="white"/>
</svg>
