<?xml version="1.0" encoding="utf-8"?>
<!-- Generator: Adobe Illustrator 21.0.2, SVG Export Plug-In . SVG Version: 6.00 Build 0)  -->
<svg version="1.1" id="Layer_1" xmlns="http://www.w3.org/2000/svg" xmlns:xlink="http://www.w3.org/1999/xlink" x="0px" y="0px"
	 viewBox="0 0 16.6 16" style="enable-background:new 0 0 16.6 16;" xml:space="preserve">
<style type="text/css">
	.st0{clip-path:url(#SVGID_2_);}
	.st1{fill:#FFFFFF;}
	.st2{clip-path:url(#SVGID_4_);}
	.st3{clip-path:url(#SVGID_6_);}
	.st4{clip-path:url(#SVGID_8_);}
	.st5{clip-path:url(#SVGID_10_);}
</style>
<g>
	<defs>
		<rect id="SVGID_1_" y="0.1" width="16.6" height="15.8"/>
	</defs>
	<clipPath id="SVGID_2_">
		<use xlink:href="#SVGID_1_"  style="overflow:visible;"/>
	</clipPath>
	<g class="st0">
		<path class="st1" d="M2.1,15.9h6.2v-5.4H6.2V8h2.1V6c0-1.6,1.4-3,3.1-3h2.1v2.5h-1c-0.6,0-1-0.1-1,0.5v2H14l-1,2.5h-1.6v5.4h3.1
			c1.1,0,2.1-0.9,2.1-2V2.1c0-1.1-0.9-2-2.1-2H2.1C0.9,0.1,0,1,0,2.1v11.9C0,15,0.9,15.9,2.1,15.9z"/>
	</g>
</g>
<g>
	<defs>
		<rect id="SVGID_3_" x="42.6" y="0.1" width="16.6" height="15.8"/>
	</defs>
	<clipPath id="SVGID_4_">
		<use xlink:href="#SVGID_3_"  style="overflow:visible;"/>
	</clipPath>
	<g class="st2">
		<path class="st1" d="M57.5,4.8c0.7-0.5,1.2-1,1.7-1.7v0c-0.6,0.3-1.3,0.4-2,0.5c0.7-0.4,1.2-1,1.5-1.8c-0.7,0.4-1.4,0.6-2.2,0.8
			c-0.6-0.6-1.5-1-2.5-1c-1.9,0-3.4,1.5-3.4,3.2c0,0.3,0,0.5,0.1,0.7c-2.8-0.1-5.3-1.4-7-3.4c-0.3,0.5-0.5,1-0.5,1.6
			c0,1.1,0.6,2.1,1.5,2.7c-0.5,0-1.1-0.2-1.5-0.4v0c0,1.6,1.2,2.9,2.7,3.2c-0.3,0.1-0.6,0.1-0.9,0.1c-0.2,0-0.4,0-0.6-0.1
			c0.4,1.3,1.7,2.2,3.2,2.3C46.5,12.5,45,13,43.4,13c-0.3,0-0.5,0-0.8,0c1.5,0.9,3.3,1.5,5.2,1.5C53.9,14.4,57.8,9.7,57.5,4.8z"/>
	</g>
</g>
<g>
	<defs>
		<rect id="SVGID_5_" x="85.2" y="0.1" width="15.8" height="15.8"/>
	</defs>
	<clipPath id="SVGID_6_">
		<use xlink:href="#SVGID_5_"  style="overflow:visible;"/>
	</clipPath>
	<g class="st3">
		<path class="st1" d="M101.1,15.9L101.1,15.9L101.1,15.9l0-5.8c0-2.8-0.6-5-3.9-5c-1.6,0-2.7,0.9-3.1,1.7h0V5.3h-3.1v10.6h3.3v-5.2
			c0-1.4,0.3-2.7,2-2.7c1.7,0,1.7,1.6,1.7,2.8v5.1H101.1z"/>
		<path class="st1" d="M85.5,5.3h3.3v10.6h-3.3V5.3z"/>
		<path class="st1" d="M87.1,0.1c-1,0-1.9,0.9-1.9,1.9c0,1,0.9,1.9,1.9,1.9C88.2,3.9,89,3,89,2C89,0.9,88.2,0.1,87.1,0.1L87.1,0.1z"
			/>
	</g>
</g>
<g>
	<defs>
		<rect id="SVGID_7_" x="127.1" y="0.1" width="16.6" height="15.8"/>
	</defs>
	<clipPath id="SVGID_8_">
		<use xlink:href="#SVGID_7_"  style="overflow:visible;"/>
	</clipPath>
	<g class="st4">
		<path class="st1" d="M143.3,4l0,0.1c-0.2-0.7-0.7-1.2-1.4-1.4l0,0c-1.3-0.3-6.5-0.3-6.5-0.3s-5.2,0-6.5,0.3
			c-0.7,0.2-1.2,0.7-1.4,1.4l0,0c-0.5,2.4-0.5,5.3,0,7.9l0-0.1c0.2,0.7,0.7,1.2,1.4,1.4l0,0c1.3,0.3,6.5,0.3,6.5,0.3s5.2,0,6.5-0.3
			c0.7-0.2,1.2-0.7,1.4-1.4l0,0c0.2-1.1,0.3-2.4,0.3-3.7c0,0,0-0.1,0-0.1c0,0,0-0.1,0-0.2C143.7,6.5,143.6,5.2,143.3,4z M133.7,10.4
			V5.6l4.3,2.4L133.7,10.4z"/>
	</g>
</g>
<g>
	<defs>
		<rect id="SVGID_9_" x="169.7" y="0.1" width="16.6" height="15.8"/>
	</defs>
	<clipPath id="SVGID_10_">
		<use xlink:href="#SVGID_9_"  style="overflow:visible;"/>
	</clipPath>
	<g class="st5">
		<path class="st1" d="M176.2,10.1l-0.3,3.7c0.4,0,0.6-0.2,0.8-0.4l1.8-1.7l3.8,2.7c0.7,0.4,1.2,0.2,1.4-0.6l2.5-11.2v0
			c0.2-1-0.4-1.4-1.1-1.1l-14.7,5.4c-1,0.4-1,0.9-0.2,1.1l3.8,1.1l8.8-5.2c0.4-0.3,0.8-0.1,0.5,0.1L176.2,10.1z"/>
	</g>
</g>
</svg>
