<?xml version="1.0" encoding="utf-8"?>
<!-- Generator: Adobe Illustrator 21.0.2, SVG Export Plug-In . SVG Version: 6.00 Build 0)  -->
<svg version="1.1" id="Layer_1" xmlns="http://www.w3.org/2000/svg" xmlns:xlink="http://www.w3.org/1999/xlink" x="0px" y="0px"
	 viewBox="0 0 16.6 16" style="enable-background:new 0 0 16.6 16;" xml:space="preserve">
<style type="text/css">
	.st0{fill:#00AA00;}
	.st1{clip-path:url(#SVGID_2_);}
	.st2{fill:#FFFFFF;}
	.st3{clip-path:url(#SVGID_4_);}
	.st4{clip-path:url(#SVGID_6_);}
</style>
<g>
	<g>
		<g>
			<path class="st0" d="M2.1,16h6.2v-5.4H6.2V8h2.1V6c0-1.6,1.4-3,3.1-3h2.1v2.5h-1c-0.6,0-1-0.1-1,0.5v2H14l-1,2.5h-1.6V16h3.1
				c1.1,0,2.1-0.9,2.1-2V2c0-1.1-0.9-2-2.1-2H2.1C1,0,0,0.9,0,2v12C0.1,15.1,1,16,2.1,16z"/>
		</g>
	</g>
</g>
<g>
	<g>
		<defs>
			<rect id="SVGID_1_" x="10" y="-24.4" width="16.6" height="15.8"/>
		</defs>
		<clipPath id="SVGID_2_">
			<use xlink:href="#SVGID_1_"  style="overflow:visible;"/>
		</clipPath>
		<g class="st1">
			<path class="st2" d="M24.9-19.7c0.7-0.5,1.2-1,1.7-1.7l0,0c-0.6,0.3-1.3,0.4-2,0.5c0.7-0.4,1.2-1,1.5-1.8
				c-0.7,0.4-1.4,0.6-2.2,0.8c-0.6-0.6-1.5-1-2.5-1c-1.9,0-3.4,1.5-3.4,3.2c0,0.3,0,0.5,0.1,0.7c-2.8-0.1-5.3-1.4-7-3.4
				c-0.3,0.5-0.5,1-0.5,1.6c0,1.1,0.6,2.1,1.5,2.7c-0.5,0-1.1-0.2-1.5-0.4l0,0c0,1.6,1.2,2.9,2.7,3.2c-0.3,0.1-0.6,0.1-0.9,0.1
				c-0.2,0-0.4,0-0.6-0.1c0.4,1.3,1.7,2.2,3.2,2.3c-1.2,0.9-2.6,1.4-4.2,1.4c-0.3,0-0.5,0-0.8,0c1.5,0.9,3.3,1.5,5.2,1.5
				C21.3-10.1,25.2-14.9,24.9-19.7z"/>
		</g>
	</g>
</g>
<g>
	<g>
		<defs>
			<rect id="SVGID_3_" x="54.5" y="-32.3" width="15.8" height="15.8"/>
		</defs>
		<clipPath id="SVGID_4_">
			<use xlink:href="#SVGID_3_"  style="overflow:visible;"/>
		</clipPath>
		<g class="st3">
			<path class="st2" d="M70.3-16.5L70.3-16.5L70.3-16.5v-5.8c0-2.8-0.6-5-3.9-5c-1.6,0-2.7,0.9-3.1,1.7l0,0V-27H60v10.6h3.3v-5.2
				c0-1.4,0.3-2.7,2-2.7c1.7,0,1.7,1.6,1.7,2.8v5.1h3.3V-16.5z"/>
			<path class="st2" d="M54.7-27.1H58v10.6h-3.3V-27.1z"/>
			<path class="st2" d="M56.4-32.3c-1,0-1.9,0.9-1.9,1.9s0.9,1.9,1.9,1.9s1.9-0.9,1.9-1.9C58.3-31.5,57.4-32.3,56.4-32.3L56.4-32.3z
				"/>
		</g>
	</g>
</g>
<g>
	<g>
		<defs>
			<rect id="SVGID_5_" x="169.7" y="0.1" width="16.6" height="15.8"/>
		</defs>
		<clipPath id="SVGID_6_">
			<use xlink:href="#SVGID_5_"  style="overflow:visible;"/>
		</clipPath>
		<g class="st4">
			<path class="st2" d="M176.2,10.1l-0.3,3.7c0.4,0,0.6-0.2,0.8-0.4l1.8-1.7l3.8,2.7c0.7,0.4,1.2,0.2,1.4-0.6l2.5-11.2l0,0
				c0.2-1-0.4-1.4-1.1-1.1l-14.7,5.4c-1,0.4-1,0.9-0.2,1.1l3.8,1.1l8.8-5.2c0.4-0.3,0.8-0.1,0.5,0.1L176.2,10.1z"/>
		</g>
	</g>
</g>
</svg>
