<svg width="221" height="26" viewBox="0 0 221 26" fill="none" xmlns="http://www.w3.org/2000/svg">
<g filter="url(#filter0_d)">
<g clip-path="url(#clip0)">
<path d="M6.33581 21.7966H13.3432V15.679H11.0074V12.8983H13.3432V10.6737C13.3432 8.8303 14.9113 7.33686 16.8469 7.33686H19.1827V10.1176H18.0148C17.3701 10.1176 16.8469 10.0597 16.8469 10.6737V12.8983H19.7667L18.5988 15.679H16.8469V21.7966H20.3506C21.6384 21.7966 22.6864 20.7985 22.6864 19.572V6.22458C22.6864 4.99735 21.6384 4 20.3506 4H6.33581C5.04722 4 4 4.99735 4 6.22458V19.572C4 20.7985 5.04722 21.7966 6.33581 21.7966Z" fill="#00AA0A"/>
</g>
<g clip-path="url(#clip1)">
<path d="M69.4529 9.2745C70.2128 8.76062 70.8521 8.1192 71.373 7.38064V7.3799C70.6777 7.66983 69.938 7.86263 69.1656 7.95606C69.9598 7.50447 70.5663 6.79483 70.8513 5.93986C70.1109 6.3603 69.2933 6.65691 68.4221 6.82301C67.719 6.10966 66.7169 5.66846 65.6238 5.66846C63.5029 5.66846 61.7954 7.30797 61.7954 9.3175C61.7954 9.6067 61.8211 9.88477 61.8841 10.1495C58.6997 10.0012 55.8811 8.5478 53.9876 6.33286C53.6574 6.87937 53.4628 7.50447 53.4628 8.17704C53.4628 9.4406 54.1456 10.5603 55.1648 11.2091C54.5489 11.198 53.9455 11.0275 53.434 10.7598V10.7998C53.434 12.5728 54.7615 14.0455 56.5032 14.3851C56.191 14.4667 55.8515 14.5052 55.4988 14.5052C55.2536 14.5052 55.006 14.4919 54.774 14.4429C55.2699 15.8874 56.6792 16.95 58.3532 16.9849C57.0498 17.9555 55.3945 18.5406 53.6029 18.5406C53.2892 18.5406 52.9878 18.5272 52.6865 18.4909C54.3839 19.5328 56.3942 20.1282 58.5634 20.1282C65.324 20.1282 69.7301 14.7566 69.4529 9.2745Z" fill="#00AA0A"/>
</g>
<g clip-path="url(#clip2)">
<path d="M119.165 21.7968V21.796H119.17V15.2691C119.17 12.0761 118.482 9.61646 114.75 9.61646C112.955 9.61646 111.751 10.6012 111.259 11.5348H111.207V9.91455H107.668V21.796H111.353V15.9127C111.353 14.3637 111.647 12.8658 113.565 12.8658C115.455 12.8658 115.484 14.6336 115.484 16.0121V21.7968H119.165Z" fill="#00AA0A"/>
<path d="M101.667 9.91528H105.357V21.7967H101.667V9.91528Z" fill="#00AA0A"/>
<path d="M103.51 4C102.33 4 101.373 4.95731 101.373 6.13708C101.373 7.31684 102.33 8.29417 103.51 8.29417C104.69 8.29417 105.647 7.31684 105.647 6.13708C105.646 4.95731 104.689 4 103.51 4V4Z" fill="#00AA0A"/>
</g>
<g clip-path="url(#clip3)">
<path d="M167.442 8.39627L167.466 8.54161C167.24 7.77858 166.63 7.18981 165.855 6.97551L165.839 6.9718C164.382 6.5951 158.52 6.5951 158.52 6.5951C158.52 6.5951 152.673 6.58769 151.201 6.9718C150.412 7.18981 149.801 7.77858 149.579 8.52604L149.576 8.54161C149.031 11.2489 149.027 14.502 149.6 17.4006L149.576 17.2538C149.801 18.0168 150.411 18.6056 151.186 18.8199L151.202 18.8236C152.657 19.201 158.521 19.201 158.521 19.201C158.521 19.201 164.367 19.201 165.84 18.8236C166.63 18.6056 167.241 18.0168 167.462 17.2694L167.466 17.2538C167.714 15.9947 167.856 14.5457 167.856 13.0657C167.856 13.0115 167.856 12.9566 167.855 12.9018C167.856 12.8514 167.856 12.7913 167.856 12.7312C167.856 11.2504 167.714 9.80146 167.442 8.39627ZM156.65 15.6054V10.1974L161.529 12.9055L156.65 15.6054Z" fill="#00AA0A"/>
</g>
<g clip-path="url(#clip4)">
<path d="M205.188 15.2571L204.879 19.3978C205.321 19.3978 205.513 19.2169 205.742 18.9996L207.816 17.1124L212.112 20.1089C212.9 20.5272 213.455 20.3069 213.668 19.4186L216.488 6.83341L216.489 6.83266C216.739 5.72334 216.067 5.28955 215.3 5.56169L198.723 11.6059C197.592 12.0241 197.609 12.6247 198.531 12.8969L202.769 14.1523L212.613 8.28605C213.076 7.99389 213.497 8.15555 213.151 8.44771L205.188 15.2571Z" fill="#00AA0A"/>
</g>
</g>
<defs>
<filter id="filter0_d" x="0" y="0" width="220.542" height="25.7966" filterUnits="userSpaceOnUse" color-interpolation-filters="sRGB">
<feFlood flood-opacity="0" result="BackgroundImageFix"/>
<feColorMatrix in="SourceAlpha" type="matrix" values="0 0 0 0 0 0 0 0 0 0 0 0 0 0 0 0 0 0 127 0"/>
<feOffset/>
<feGaussianBlur stdDeviation="2"/>
<feColorMatrix type="matrix" values="0 0 0 0 0 0 0 0 0 0.666667 0 0 0 0 0.0392157 0 0 0 1 0"/>
<feBlend mode="normal" in2="BackgroundImageFix" result="effect1_dropShadow"/>
<feBlend mode="normal" in="SourceGraphic" in2="effect1_dropShadow" result="shape"/>
</filter>
<clipPath id="clip0">
<rect width="18.6864" height="17.7966" fill="white" transform="translate(4 4)"/>
</clipPath>
<clipPath id="clip1">
<rect width="18.6864" height="17.7966" fill="white" transform="translate(52.6865 4)"/>
</clipPath>
<clipPath id="clip2">
<rect width="17.7966" height="17.7966" fill="white" transform="translate(101.373 4)"/>
</clipPath>
<clipPath id="clip3">
<rect width="18.6864" height="17.7966" fill="white" transform="translate(149.169 4)"/>
</clipPath>
<clipPath id="clip4">
<rect width="18.6864" height="17.7966" fill="white" transform="translate(197.856 4)"/>
</clipPath>
</defs>
</svg>
