<?xml version="1.0" encoding="utf-8"?>
<!-- Generator: Adobe Illustrator 21.0.2, SVG Export Plug-In . SVG Version: 6.00 Build 0)  -->
<svg version="1.1" id="Layer_1" xmlns="http://www.w3.org/2000/svg" xmlns:xlink="http://www.w3.org/1999/xlink" x="0px" y="0px"
	 viewBox="0 0 16.6 16" style="enable-background:new 0 0 16.6 16;" xml:space="preserve">
<style type="text/css">
	.st0{fill:#00AA00;}
	.st1{clip-path:url(#SVGID_2_);}
	.st2{fill:#FFFFFF;}
</style>
<g>
	<g>
		<g>
			<path class="st0" d="M16.2,15.8L16.2,15.8L16.2,15.8V10c0-2.8-0.6-5-3.9-5c-1.6,0-2.7,0.9-3.1,1.7l0,0V5.3H5.9v10.6h3.3v-5.2
				c0-1.4,0.3-2.7,2-2.7c1.7,0,1.7,1.6,1.7,2.8v5.1h3.3V15.8z"/>
			<path class="st0" d="M0.6,5.3h3.3v10.6H0.6V5.3z"/>
			<path class="st0" d="M2.3,0.1C1.3,0.1,0.4,1,0.4,2s0.9,1.9,1.9,1.9S4.2,3,4.2,2C4.2,0.9,3.3,0.1,2.3,0.1L2.3,0.1z"/>
		</g>
	</g>
</g>
<g>
	<g>
		<defs>
			<rect id="SVGID_1_" x="169.7" y="0.1" width="16.6" height="15.8"/>
		</defs>
		<clipPath id="SVGID_2_">
			<use xlink:href="#SVGID_1_"  style="overflow:visible;"/>
		</clipPath>
		<g class="st1">
			<path class="st2" d="M176.2,10.1l-0.3,3.7c0.4,0,0.6-0.2,0.8-0.4l1.8-1.7l3.8,2.7c0.7,0.4,1.2,0.2,1.4-0.6l2.5-11.2l0,0
				c0.2-1-0.4-1.4-1.1-1.1l-14.7,5.4c-1,0.4-1,0.9-0.2,1.1l3.8,1.1l8.8-5.2c0.4-0.3,0.8-0.1,0.5,0.1L176.2,10.1z"/>
		</g>
	</g>
</g>
</svg>
