<svg width="10" height="10" viewBox="0 0 10 10" fill="none" xmlns="http://www.w3.org/2000/svg">
<g clip-path="url(#clip0)">
<path d="M8.68204 0H1.22016C0.658199 0 0.202637 0.455562 0.202637 1.01753V8.4794C0.202637 9.04137 0.658199 9.49693 1.22016 9.49693H8.68204C9.24401 9.49693 9.69957 9.04137 9.69957 8.4794V1.01753C9.69957 0.455562 9.24401 0 8.68204 0ZM9.0212 8.4794C9.0212 8.66673 8.86935 8.81859 8.68202 8.81859H1.22016C1.03284 8.81859 0.880982 8.66673 0.880982 8.4794V1.01753C0.880982 0.830199 1.03284 0.678345 1.22016 0.678345H8.68204C8.86937 0.678345 9.02122 0.830199 9.02122 1.01753V8.4794H9.0212Z" fill="white"/>
<path d="M3.25539 2.03516H2.23786C2.05054 2.03516 1.89868 2.18701 1.89868 2.37434C1.89868 2.56167 2.05054 2.71352 2.23786 2.71352H3.25539C3.44272 2.71352 3.59457 2.56167 3.59457 2.37434C3.59457 2.18701 3.44272 2.03516 3.25539 2.03516Z" fill="white"/>
<path d="M7.66447 2.03516H4.61189C4.42456 2.03516 4.27271 2.18701 4.27271 2.37434C4.27271 2.56167 4.42456 2.71352 4.61189 2.71352H7.66447C7.85179 2.71352 8.00365 2.56167 8.00365 2.37434C8.00365 2.18701 7.85177 2.03516 7.66447 2.03516Z" fill="white"/>
<path d="M3.25539 4.40918H2.23786C2.05054 4.40918 1.89868 4.56103 1.89868 4.74836C1.89868 4.93569 2.05054 5.08752 2.23786 5.08752H3.25539C3.44272 5.08752 3.59457 4.93567 3.59457 4.74834C3.59457 4.56101 3.44272 4.40918 3.25539 4.40918Z" fill="white"/>
<path d="M7.66447 4.40918H4.61189C4.42456 4.40918 4.27271 4.56103 4.27271 4.74836C4.27271 4.93569 4.42456 5.08752 4.61189 5.08752H7.66447C7.85179 5.08752 8.00365 4.93567 8.00365 4.74834C8.00365 4.56101 7.85177 4.40918 7.66447 4.40918Z" fill="white"/>
<path d="M3.25539 6.78345H2.23786C2.05054 6.78345 1.89868 6.9353 1.89868 7.12263C1.89868 7.30996 2.05054 7.46181 2.23786 7.46181H3.25539C3.44272 7.46181 3.59457 7.30996 3.59457 7.12263C3.59457 6.9353 3.44272 6.78345 3.25539 6.78345Z" fill="white"/>
<path d="M7.66447 6.78345H4.61189C4.42456 6.78345 4.27271 6.9353 4.27271 7.12263C4.27271 7.30996 4.42456 7.46181 4.61189 7.46181H7.66447C7.85179 7.46181 8.00365 7.30996 8.00365 7.12263C8.00365 6.9353 7.85177 6.78345 7.66447 6.78345Z" fill="white"/>
</g>
<defs>
<clipPath id="clip0">
<rect width="9.49693" height="9.49693" fill="white" transform="translate(0.202637)"/>
</clipPath>
</defs>
</svg>
