<svg width="11" height="10" viewBox="0 0 11 10" fill="none" xmlns="http://www.w3.org/2000/svg">
<g clip-path="url(#clip0)">
<path d="M9.17899 0H1.71711C1.15515 0 0.699585 0.455562 0.699585 1.01753V8.4794C0.699585 9.04137 1.15515 9.49693 1.71711 9.49693H9.17899C9.74096 9.49693 10.1965 9.04137 10.1965 8.4794V1.01753C10.1965 0.455562 9.74096 0 9.17899 0ZM9.51815 8.4794C9.51815 8.66673 9.3663 8.81859 9.17897 8.81859H1.71711C1.52978 8.81859 1.37793 8.66673 1.37793 8.4794V1.01753C1.37793 0.830199 1.52978 0.678345 1.71711 0.678345H9.17899C9.36632 0.678345 9.51817 0.830199 9.51817 1.01753V8.4794H9.51815Z" fill="#00AA0A"/>
<path d="M3.75222 2.03503H2.73469C2.54736 2.03503 2.39551 2.18689 2.39551 2.37422C2.39551 2.56155 2.54736 2.7134 2.73469 2.7134H3.75222C3.93954 2.7134 4.0914 2.56155 4.0914 2.37422C4.0914 2.18689 3.93954 2.03503 3.75222 2.03503Z" fill="#00AA0A"/>
<path d="M8.16154 2.03503H5.10896C4.92163 2.03503 4.76978 2.18689 4.76978 2.37422C4.76978 2.56155 4.92163 2.7134 5.10896 2.7134H8.16154C8.34886 2.7134 8.50072 2.56155 8.50072 2.37422C8.50072 2.18689 8.34885 2.03503 8.16154 2.03503Z" fill="#00AA0A"/>
<path d="M3.75222 4.40927H2.73469C2.54736 4.40927 2.39551 4.56113 2.39551 4.74845C2.39551 4.93578 2.54736 5.08762 2.73469 5.08762H3.75222C3.93954 5.08762 4.0914 4.93576 4.0914 4.74843C4.0914 4.56111 3.93954 4.40927 3.75222 4.40927Z" fill="#00AA0A"/>
<path d="M8.16154 4.40927H5.10896C4.92163 4.40927 4.76978 4.56113 4.76978 4.74845C4.76978 4.93578 4.92163 5.08762 5.10896 5.08762H8.16154C8.34886 5.08762 8.50072 4.93576 8.50072 4.74843C8.50072 4.56111 8.34885 4.40927 8.16154 4.40927Z" fill="#00AA0A"/>
<path d="M3.75222 6.78348H2.73469C2.54736 6.78348 2.39551 6.93533 2.39551 7.12266C2.39551 7.30999 2.54736 7.46184 2.73469 7.46184H3.75222C3.93954 7.46184 4.0914 7.30999 4.0914 7.12266C4.0914 6.93533 3.93954 6.78348 3.75222 6.78348Z" fill="#00AA0A"/>
<path d="M8.16154 6.78348H5.10896C4.92163 6.78348 4.76978 6.93533 4.76978 7.12266C4.76978 7.30999 4.92163 7.46184 5.10896 7.46184H8.16154C8.34886 7.46184 8.50072 7.30999 8.50072 7.12266C8.50072 6.93533 8.34885 6.78348 8.16154 6.78348Z" fill="#00AA0A"/>
</g>
<defs>
<clipPath id="clip0">
<rect width="9.49693" height="9.49693" fill="white" transform="translate(0.699585)"/>
</clipPath>
</defs>
</svg>
