<?xml version="1.0" encoding="utf-8"?>
<!-- Generator: Adobe Illustrator 21.0.2, SVG Export Plug-In . SVG Version: 6.00 Build 0)  -->
<svg version="1.1" id="Layer_1" xmlns="http://www.w3.org/2000/svg" xmlns:xlink="http://www.w3.org/1999/xlink" x="0px" y="0px"
	 viewBox="0 0 55.3 55.3" style="enable-background:new 0 0 55.3 55.3;" xml:space="preserve">
<style type="text/css">
	.st0{fill:#00AA0A;}
</style>
<g>
	<path class="st0" d="M48.1,32.7c-0.2,0.3-1.2,1.4-2.1,2.3c-5.1,5.7-18.6,14.9-25.6,17.8c-1.1,0.5-3.8,1.4-5.2,1.5
		c-1.4,0-2.7-0.3-4-1c-1.6-0.9-2.8-2.3-3.5-4c-0.4-1.2-1.1-4.6-1.1-4.7c-0.7-3.8-1.1-10-1.1-16.8c0-6.5,0.4-12.4,0.9-16.3
		C6.6,11.3,7.3,7,8,5.5c1.4-2.7,4.1-4.4,7-4.4h0.2c1.9,0.1,5.8,1.7,5.8,1.8c6.6,2.8,19.8,11.7,25,17.5c0,0,1.5,1.5,2.1,2.4
		c1,1.4,1.5,3,1.5,4.7C49.7,29.5,49.2,31.2,48.1,32.7z"/>
</g>
</svg>
