<svg width="8" height="8" viewBox="0 0 8 8" fill="none" xmlns="http://www.w3.org/2000/svg">
<g clip-path="url(#clip0)">
<path d="M2.44841 3.83997C2.33238 3.83997 2.21971 3.77961 2.15837 3.67163C2.06737 3.51197 2.1234 3.30829 2.28307 3.21692L5.37602 1.45362C5.53569 1.36194 5.73937 1.41797 5.83074 1.57825C5.92174 1.73792 5.86571 1.94159 5.70604 2.03296L2.61302 3.79627C2.56102 3.82593 2.50438 3.83997 2.44841 3.83997Z" fill="#00AA0A"/>
<path d="M5.54095 6.59028C5.48492 6.59028 5.42828 6.57624 5.37627 6.54658L2.28327 4.78327C2.1236 4.69226 2.06763 4.48859 2.15863 4.32855C2.24927 4.16858 2.45325 4.11224 2.61328 4.20392L5.70629 5.96723C5.86596 6.05823 5.92193 6.26191 5.83092 6.42194C5.76928 6.52992 5.65661 6.59028 5.54095 6.59028Z" fill="#00AA0A"/>
<path d="M7.4115 1.33331C7.4115 1.93164 6.92651 2.41669 6.32819 2.41669C5.72986 2.41669 5.24487 1.93164 5.24487 1.33331C5.24487 0.735046 5.72986 0.25 6.32819 0.25C6.92651 0.25 7.4115 0.735046 7.4115 1.33331Z" fill="#00AA0A"/>
<path d="M6.32819 2.66669C5.59283 2.66669 4.99487 2.06866 4.99487 1.33331C4.99487 0.598022 5.59283 0 6.32819 0C7.06354 0 7.6615 0.598022 7.6615 1.33331C7.6615 2.06866 7.06354 2.66669 6.32819 2.66669ZM6.32819 0.5C5.86853 0.5 5.49487 0.874023 5.49487 1.33331C5.49487 1.79266 5.86853 2.16669 6.32819 2.16669C6.78784 2.16669 7.1615 1.79266 7.1615 1.33331C7.1615 0.874023 6.78784 0.5 6.32819 0.5Z" fill="#00AA0A"/>
<path d="M7.4115 6.66675C7.4115 7.26502 6.92651 7.75006 6.32819 7.75006C5.72986 7.75006 5.24487 7.26502 5.24487 6.66675C5.24487 6.06842 5.72986 5.58337 6.32819 5.58337C6.92651 5.58337 7.4115 6.06842 7.4115 6.66675Z" fill="#00AA0A"/>
<path d="M6.32819 8.00006C5.59283 8.00006 4.99487 7.40204 4.99487 6.66675C4.99487 5.9314 5.59283 5.33337 6.32819 5.33337C7.06354 5.33337 7.6615 5.9314 7.6615 6.66675C7.6615 7.40204 7.06354 8.00006 6.32819 8.00006ZM6.32819 5.83337C5.86853 5.83337 5.49487 6.2074 5.49487 6.66675C5.49487 7.12604 5.86853 7.50006 6.32819 7.50006C6.78784 7.50006 7.1615 7.12604 7.1615 6.66675C7.1615 6.2074 6.78784 5.83337 6.32819 5.83337Z" fill="#00AA0A"/>
<path d="M2.74481 3.99994C2.74481 4.59827 2.25977 5.08325 1.66144 5.08325C1.06317 5.08325 0.578125 4.59827 0.578125 3.99994C0.578125 3.40161 1.06317 2.91663 1.66144 2.91663C2.25977 2.91663 2.74481 3.40161 2.74481 3.99994Z" fill="#00AA0A"/>
<path d="M1.66144 5.33325C0.926147 5.33325 0.328125 4.73529 0.328125 3.99994C0.328125 3.26459 0.926147 2.66663 1.66144 2.66663C2.39679 2.66663 2.99481 3.26459 2.99481 3.99994C2.99481 4.73529 2.39679 5.33325 1.66144 5.33325ZM1.66144 3.16663C1.20178 3.16663 0.828125 3.54059 0.828125 3.99994C0.828125 4.45929 1.20178 4.83325 1.66144 4.83325C2.12115 4.83325 2.49481 4.45929 2.49481 3.99994C2.49481 3.54059 2.12115 3.16663 1.66144 3.16663Z" fill="#00AA0A"/>
</g>
<defs>
<clipPath id="clip0">
<rect width="8" height="8" fill="white"/>
</clipPath>
</defs>
</svg>
