<?xml version="1.0" encoding="utf-8"?>
<!-- Generator: Adobe Illustrator 21.0.2, SVG Export Plug-In . SVG Version: 6.00 Build 0)  -->
<svg version="1.1" id="Layer_1" xmlns="http://www.w3.org/2000/svg" xmlns:xlink="http://www.w3.org/1999/xlink" x="0px" y="0px"
	 viewBox="0 0 8 8" style="enable-background:new 0 0 8 8;" xml:space="preserve">
<style type="text/css">
	.st0{fill:#FFFFFF;}
</style>
<g>
	<g>
		<path class="st0" d="M2.4,3.8c-0.1,0-0.2-0.1-0.3-0.2c-0.1-0.2,0-0.4,0.1-0.5l3.1-1.8c0.2-0.1,0.4,0,0.5,0.1
			c0.1,0.2,0,0.4-0.1,0.5L2.6,3.8C2.6,3.8,2.5,3.8,2.4,3.8z"/>
		<path class="st0" d="M5.5,6.6c-0.1,0-0.1,0-0.2,0L2.3,4.8C2.1,4.7,2.1,4.5,2.2,4.3c0.1-0.2,0.3-0.2,0.5-0.1L5.7,6
			c0.2,0.1,0.2,0.3,0.1,0.5C5.8,6.5,5.7,6.6,5.5,6.6z"/>
		<path class="st0" d="M7.4,1.3c0,0.6-0.5,1.1-1.1,1.1c-0.6,0-1.1-0.5-1.1-1.1c0-0.6,0.5-1.1,1.1-1.1C6.9,0.3,7.4,0.7,7.4,1.3z"/>
		<path class="st0" d="M6.3,2.7C5.6,2.7,5,2.1,5,1.3C5,0.6,5.6,0,6.3,0c0.7,0,1.3,0.6,1.3,1.3C7.7,2.1,7.1,2.7,6.3,2.7z M6.3,0.5
			c-0.5,0-0.8,0.4-0.8,0.8c0,0.5,0.4,0.8,0.8,0.8c0.5,0,0.8-0.4,0.8-0.8C7.2,0.9,6.8,0.5,6.3,0.5z"/>
		<path class="st0" d="M7.4,6.7c0,0.6-0.5,1.1-1.1,1.1c-0.6,0-1.1-0.5-1.1-1.1c0-0.6,0.5-1.1,1.1-1.1C6.9,5.6,7.4,6.1,7.4,6.7z"/>
		<path class="st0" d="M6.3,8C5.6,8,5,7.4,5,6.7c0-0.7,0.6-1.3,1.3-1.3c0.7,0,1.3,0.6,1.3,1.3C7.7,7.4,7.1,8,6.3,8z M6.3,5.8
			c-0.5,0-0.8,0.4-0.8,0.8c0,0.5,0.4,0.8,0.8,0.8c0.5,0,0.8-0.4,0.8-0.8C7.2,6.2,6.8,5.8,6.3,5.8z"/>
		<path class="st0" d="M2.8,4c0,0.6-0.5,1.1-1.1,1.1C1.1,5.1,0.6,4.6,0.6,4s0.5-1.1,1.1-1.1C2.3,2.9,2.8,3.4,2.8,4z"/>
		<path class="st0" d="M1.7,5.3C0.9,5.3,0.3,4.7,0.3,4s0.6-1.3,1.3-1.3C2.4,2.7,3,3.3,3,4S2.4,5.3,1.7,5.3z M1.7,3.2
			C1.2,3.2,0.8,3.5,0.8,4s0.4,0.8,0.8,0.8c0.5,0,0.8-0.4,0.8-0.8S2.1,3.2,1.7,3.2z"/>
	</g>
</g>
</svg>
