<svg width="187" height="16" viewBox="0 0 187 16" fill="none" xmlns="http://www.w3.org/2000/svg">
<g clip-path="url(#clip0)">
<path d="M2.07724 15.9135H8.30896V10.4731H6.23172V8.00021H8.30896V6.02188C8.30896 4.38251 9.70348 3.0544 11.4248 3.0544H13.5021V5.5273H12.4634C11.8901 5.5273 11.4248 5.47587 11.4248 6.02188V8.00021H14.0214L12.9827 10.4731H11.4248V15.9135H14.5407C15.6859 15.9135 16.6179 15.0259 16.6179 13.9352V2.06524C16.6179 0.973862 15.6859 0.0869141 14.5407 0.0869141H2.07724C0.931296 0.0869141 0 0.973862 0 2.06524V13.9352C0 15.0259 0.931296 15.9135 2.07724 15.9135Z" fill="white"/>
</g>
<g clip-path="url(#clip1)">
<path d="M57.5283 4.77748C58.2041 4.32049 58.7726 3.75007 59.2358 3.09327V3.09261C58.6175 3.35045 57.9597 3.5219 57.2728 3.60499C57.9791 3.20339 58.5185 2.57231 58.7719 1.81197C58.1134 2.18588 57.3864 2.44965 56.6116 2.59737C55.9863 1.96299 55.0952 1.57062 54.1231 1.57062C52.2369 1.57062 50.7185 3.02864 50.7185 4.81573C50.7185 5.07291 50.7413 5.3202 50.7974 5.55562C47.9654 5.42373 45.4589 4.13123 43.7749 2.16148C43.4814 2.64748 43.3083 3.20339 43.3083 3.80151C43.3083 4.92519 43.9155 5.92095 44.8219 6.49796C44.2742 6.48807 43.7376 6.3364 43.2826 6.09834V6.13395C43.2826 7.71067 44.4632 9.02032 46.0121 9.32235C45.7345 9.39489 45.4326 9.42918 45.1189 9.42918C44.9008 9.42918 44.6806 9.41731 44.4743 9.37378C44.9153 10.6584 46.1686 11.6034 47.6573 11.6343C46.4982 12.4976 45.0261 13.0179 43.4329 13.0179C43.1538 13.0179 42.8859 13.006 42.6179 12.9737C44.1274 13.9002 45.9152 14.4297 47.8443 14.4297C53.8565 14.4297 57.7748 9.65273 57.5283 4.77748Z" fill="white"/>
</g>
<g clip-path="url(#clip2)">
<path d="M101.059 15.9136V15.9129H101.063V10.1085C101.063 7.26897 100.451 5.0816 97.1316 5.0816C95.5358 5.0816 94.4649 5.95734 94.0277 6.78758H93.9815V5.3467H90.834V15.9129H94.1114V10.6809C94.1114 9.30335 94.3725 7.97128 96.0785 7.97128C97.7594 7.97128 97.7845 9.54338 97.7845 10.7693V15.9136H101.059Z" fill="white"/>
<path d="M85.4971 5.34735H88.7784V15.9136H85.4971V5.34735Z" fill="white"/>
<path d="M87.1363 0.0869141C86.0872 0.0869141 85.2358 0.938253 85.2358 1.98742C85.2358 3.03659 86.0872 3.90574 87.1363 3.90574C88.1855 3.90574 89.0369 3.03659 89.0369 1.98742C89.0362 0.938253 88.1849 0.0869141 87.1363 0.0869141V0.0869141Z" fill="white"/>
</g>
<g clip-path="url(#clip3)">
<path d="M143.312 3.99657L143.333 4.12582C143.132 3.44725 142.59 2.92366 141.901 2.73308L141.887 2.72978C140.591 2.39478 135.378 2.39478 135.378 2.39478C135.378 2.39478 130.178 2.38819 128.869 2.72978C128.167 2.92366 127.624 3.44725 127.427 4.11197L127.424 4.12582C126.94 6.53344 126.936 9.42641 127.445 12.0042L127.424 11.8736C127.624 12.5522 128.167 13.0758 128.856 13.2663L128.87 13.2696C130.164 13.6053 135.379 13.6053 135.379 13.6053C135.379 13.6053 140.578 13.6053 141.887 13.2696C142.59 13.0758 143.133 12.5522 143.33 11.8874L143.334 11.8736C143.554 10.7539 143.68 9.46531 143.68 8.14907C143.68 8.10093 143.68 8.05213 143.679 8.00333C143.68 7.95849 143.68 7.90507 143.68 7.85166C143.68 6.53476 143.554 5.24621 143.312 3.99657ZM133.715 10.4077V5.59835L138.054 8.00663L133.715 10.4077Z" fill="white"/>
</g>
<g clip-path="url(#clip4)">
<path d="M176.201 10.0979L175.926 13.7802C176.319 13.7802 176.489 13.6193 176.694 13.4261L178.538 11.7478L182.358 14.4126C183.059 14.7845 183.553 14.5887 183.742 13.7987L186.25 2.60663L186.25 2.60597C186.473 1.61944 185.876 1.23367 185.193 1.47569L170.452 6.85079C169.446 7.22271 169.461 7.75686 170.281 7.99888L174.049 9.11531L182.804 3.89847C183.216 3.63865 183.59 3.78241 183.282 4.04223L176.201 10.0979Z" fill="white"/>
</g>
<defs>
<clipPath id="clip0">
<rect width="16.6179" height="15.8266" fill="white" transform="translate(0 0.0869141)"/>
</clipPath>
<clipPath id="clip1">
<rect width="16.6179" height="15.8266" fill="white" transform="translate(42.6179 0.0869141)"/>
</clipPath>
<clipPath id="clip2">
<rect width="15.8266" height="15.8266" fill="white" transform="translate(85.2358 0.0869141)"/>
</clipPath>
<clipPath id="clip3">
<rect width="16.6179" height="15.8266" fill="white" transform="translate(127.062 0.0869141)"/>
</clipPath>
<clipPath id="clip4">
<rect width="16.6179" height="15.8266" fill="white" transform="translate(169.68 0.0869141)"/>
</clipPath>
</defs>
</svg>
