<?xml version="1.0" encoding="utf-8"?>
<!-- Generator: Adobe Illustrator 21.0.2, SVG Export Plug-In . SVG Version: 6.00 Build 0)  -->
<svg version="1.1" id="Layer_1" xmlns="http://www.w3.org/2000/svg" xmlns:xlink="http://www.w3.org/1999/xlink" x="0px" y="0px"
	 viewBox="0 0 16.6 16" style="enable-background:new 0 0 16.6 16;" xml:space="preserve">
<style type="text/css">
	.st0{clip-path:url(#SVGID_2_);}
	.st1{fill:#FFFFFF;}
	.st2{clip-path:url(#SVGID_4_);}
	.st3{clip-path:url(#SVGID_6_);}
	.st4{clip-path:url(#SVGID_8_);}
	.st5{clip-path:url(#SVGID_10_);}
</style>
<g>
	<defs>
		<rect id="SVGID_1_" x="-12.1" y="-24.4" width="16.6" height="15.8"/>
	</defs>
	<clipPath id="SVGID_2_">
		<use xlink:href="#SVGID_1_"  style="overflow:visible;"/>
	</clipPath>
	<g class="st0">
		<path class="st1" d="M-10.1-8.6h6.2V-14h-2.1v-2.5h2.1v-2c0-1.6,1.4-3,3.1-3h2.1v2.5h-1c-0.6,0-1-0.1-1,0.5v2h2.6l-1,2.5h-1.6v5.4
			h3.1c1.1,0,2.1-0.9,2.1-2v-11.9c0-1.1-0.9-2-2.1-2h-12.5c-1.1,0-2.1,0.9-2.1,2v11.9C-12.1-9.5-11.2-8.6-10.1-8.6z"/>
	</g>
</g>
<g>
	<defs>
		<rect id="SVGID_3_" x="10" y="-24.4" width="16.6" height="15.8"/>
	</defs>
	<clipPath id="SVGID_4_">
		<use xlink:href="#SVGID_3_"  style="overflow:visible;"/>
	</clipPath>
	<g class="st2">
		<path class="st1" d="M24.9-19.7c0.7-0.5,1.2-1,1.7-1.7v0c-0.6,0.3-1.3,0.4-2,0.5c0.7-0.4,1.2-1,1.5-1.8c-0.7,0.4-1.4,0.6-2.2,0.8
			c-0.6-0.6-1.5-1-2.5-1c-1.9,0-3.4,1.5-3.4,3.2c0,0.3,0,0.5,0.1,0.7c-2.8-0.1-5.3-1.4-7-3.4c-0.3,0.5-0.5,1-0.5,1.6
			c0,1.1,0.6,2.1,1.5,2.7c-0.5,0-1.1-0.2-1.5-0.4v0c0,1.6,1.2,2.9,2.7,3.2c-0.3,0.1-0.6,0.1-0.9,0.1c-0.2,0-0.4,0-0.6-0.1
			c0.4,1.3,1.7,2.2,3.2,2.3c-1.2,0.9-2.6,1.4-4.2,1.4c-0.3,0-0.5,0-0.8,0c1.5,0.9,3.3,1.5,5.2,1.5C21.3-10.1,25.2-14.9,24.9-19.7z"
			/>
	</g>
</g>
<g>
	<defs>
		<rect id="SVGID_5_" x="54.5" y="-32.3" width="15.8" height="15.8"/>
	</defs>
	<clipPath id="SVGID_6_">
		<use xlink:href="#SVGID_5_"  style="overflow:visible;"/>
	</clipPath>
	<g class="st3">
		<path class="st1" d="M70.3-16.5L70.3-16.5L70.3-16.5l0-5.8c0-2.8-0.6-5-3.9-5c-1.6,0-2.7,0.9-3.1,1.7h0v-1.4H60v10.6h3.3v-5.2
			c0-1.4,0.3-2.7,2-2.7c1.7,0,1.7,1.6,1.7,2.8v5.1H70.3z"/>
		<path class="st1" d="M54.7-27.1H58v10.6h-3.3V-27.1z"/>
		<path class="st1" d="M56.4-32.3c-1,0-1.9,0.9-1.9,1.9c0,1,0.9,1.9,1.9,1.9c1,0,1.9-0.9,1.9-1.9C58.3-31.5,57.4-32.3,56.4-32.3
			L56.4-32.3z"/>
	</g>
</g>
<g>
	<defs>
		<rect id="SVGID_7_" x="81.7" y="-32.3" width="16.6" height="15.8"/>
	</defs>
	<clipPath id="SVGID_8_">
		<use xlink:href="#SVGID_7_"  style="overflow:visible;"/>
	</clipPath>
	<g class="st4">
		<path class="st1" d="M97.9-28.4l0,0.1c-0.2-0.7-0.7-1.2-1.4-1.4l0,0C95.2-30,90-30,90-30s-5.2,0-6.5,0.3c-0.7,0.2-1.2,0.7-1.4,1.4
			l0,0c-0.5,2.4-0.5,5.3,0,7.9l0-0.1c0.2,0.7,0.7,1.2,1.4,1.4l0,0c1.3,0.3,6.5,0.3,6.5,0.3s5.2,0,6.5-0.3c0.7-0.2,1.2-0.7,1.4-1.4
			l0,0c0.2-1.1,0.3-2.4,0.3-3.7c0,0,0-0.1,0-0.1c0,0,0-0.1,0-0.2C98.3-25.9,98.2-27.2,97.9-28.4z M88.3-22v-4.8l4.3,2.4L88.3-22z"/>
	</g>
</g>
<g>
	<defs>
		<rect id="SVGID_9_" y="0.1" width="16.6" height="15.8"/>
	</defs>
	<clipPath id="SVGID_10_">
		<use xlink:href="#SVGID_9_"  style="overflow:visible;"/>
	</clipPath>
	<g class="st5">
		<path class="st1" d="M6.5,10.1l-0.3,3.7c0.4,0,0.6-0.2,0.8-0.4l1.8-1.7l3.8,2.7c0.7,0.4,1.2,0.2,1.4-0.6l2.5-11.2v0
			c0.2-1-0.4-1.4-1.1-1.1L0.8,6.9c-1,0.4-1,0.9-0.2,1.1l3.8,1.1l8.8-5.2c0.4-0.3,0.8-0.1,0.5,0.1L6.5,10.1z"/>
	</g>
</g>
</svg>
