<svg width="122" height="122" viewBox="0 0 122 122" fill="none" xmlns="http://www.w3.org/2000/svg">
<path d="M61 122C27.3633 122 0 94.6367 0 61C0 27.3633 27.3633 0 61 0C94.6367 0 122 27.3633 122 61C122 94.6367 94.6367 122 61 122ZM61 7.625C31.5676 7.625 7.625 31.5676 7.625 61C7.625 90.4324 31.5676 114.375 61 114.375C90.4324 114.375 114.375 90.4324 114.375 61C114.375 31.5676 90.4324 7.625 61 7.625Z" fill="white"/>
<path d="M55.2812 81.3331C54.3048 81.3331 53.3293 80.9627 52.5866 80.2152L36.066 63.6947C34.5768 62.2045 34.5768 59.7901 36.066 58.3008C37.5553 56.8115 39.9698 56.8115 41.4599 58.3008L55.2858 72.1276L85.6341 41.7803C87.1234 40.291 89.5378 40.291 91.0271 41.7803C92.5163 43.2695 92.5163 45.684 91.0271 47.1732L57.9851 80.2152C57.233 80.9627 56.2576 81.3331 55.2812 81.3331Z" fill="#00AA0A"/>
</svg>
