<svg width="29" height="28" viewBox="0 0 29 28" fill="none" xmlns="http://www.w3.org/2000/svg">
<rect x="0.733276" width="27.7333" height="27.7333" rx="6" fill="#7A86DD"/>
<g clip-path="url(#clip0)">
<path d="M21.255 19.6519L20.2844 8.72276C20.2636 8.48012 20.0591 8.29641 19.82 8.29641H17.8234C17.7957 6.47316 16.3052 5 14.475 5C12.6448 5 11.1543 6.47316 11.1266 8.29641H9.13003C8.88739 8.29641 8.68634 8.48012 8.66555 8.72276L7.69499 19.6519C7.69499 19.6657 7.69153 19.6796 7.69153 19.6935C7.69153 20.9379 8.83193 21.95 10.2358 21.95H18.7142C20.1181 21.95 21.2585 20.9379 21.2585 19.6935C21.2585 19.6796 21.2585 19.6657 21.255 19.6519ZM14.475 5.93589C15.7887 5.93589 16.8598 6.98963 16.8875 8.29641H12.0625C12.0902 6.98963 13.1613 5.93589 14.475 5.93589ZM18.7142 21.0141H10.2358C9.35533 21.0141 8.64128 20.4318 8.62742 19.7143L9.55638 9.23577H11.1231V10.6569C11.1231 10.9169 11.3311 11.1249 11.5911 11.1249C11.851 11.1249 12.059 10.9169 12.059 10.6569V9.23577H16.8875V10.6569C16.8875 10.9169 17.0955 11.1249 17.3555 11.1249C17.6154 11.1249 17.8234 10.9169 17.8234 10.6569V9.23577H19.3901L20.3226 19.7143C20.3087 20.4318 19.5912 21.0141 18.7142 21.0141Z" fill="white"/>
</g>
<defs>
<clipPath id="clip0">
<rect width="16.95" height="16.95" fill="white" transform="translate(6 5)"/>
</clipPath>
</defs>
</svg>
