<?xml version="1.0" encoding="utf-8"?>
<!-- Generator: Adobe Illustrator 21.0.2, SVG Export Plug-In . SVG Version: 6.00 Build 0)  -->
<svg version="1.1" id="Layer_1" xmlns="http://www.w3.org/2000/svg" xmlns:xlink="http://www.w3.org/1999/xlink" x="0px" y="0px"
	 viewBox="0 0 29 28" style="enable-background:new 0 0 29 28;" xml:space="preserve">
<style type="text/css">
	.st0{fill:#FFFFFF;}
</style>
<g>
	<g>
		<path class="st0" d="M26.1,24.2l-1.6-18c0-0.4-0.4-0.7-0.8-0.7h-3.3c0-3-2.5-5.4-5.5-5.4S9.4,2.4,9.4,5.5H6.1
			c-0.4,0-0.7,0.3-0.8,0.7l-1.6,18c0,0,0,0,0,0.1c0,2.1,1.9,3.7,4.2,3.7h14C24.2,28,26.1,26.3,26.1,24.2
			C26.1,24.3,26.1,24.2,26.1,24.2z M14.9,1.6c2.2,0,3.9,1.7,4,3.9h-8C11,3.3,12.7,1.6,14.9,1.6z M21.9,26.5h-14
			c-1.5,0-2.6-1-2.7-2.1L6.8,7h2.6v2.3c0,0.4,0.3,0.8,0.8,0.8c0.4,0,0.8-0.3,0.8-0.8V7h8v2.3c0,0.4,0.3,0.8,0.8,0.8
			c0.4,0,0.8-0.3,0.8-0.8V7H23l1.5,17.3C24.5,25.5,23.3,26.5,21.9,26.5z"/>
	</g>
</g>
</svg>
