<svg width="29" height="28" viewBox="0 0 29 28" fill="none" xmlns="http://www.w3.org/2000/svg">
<rect x="0.733276" width="27.7333" height="27.7333" rx="6" fill="#7A86DD"/>
<g clip-path="url(#clip0)">
<path d="M21.7868 11.4019H21.1838L18.4838 6.3094C18.3553 6.0671 18.0548 5.97491 17.8125 6.10325C17.5702 6.23171 17.4779 6.53228 17.6063 6.77458L20.0597 11.4018H9.21192L11.6653 6.77458C11.7938 6.53228 11.7015 6.23171 11.4592 6.10325C11.2169 5.97481 10.9163 6.0671 10.7878 6.3094L8.08784 11.4019H7.41277C6.70309 11.4019 6.12573 11.9792 6.12573 12.6889C6.12573 13.3986 6.70309 13.9759 7.41277 13.9759H7.44848C7.44957 13.983 7.4504 13.9901 7.45166 13.9972L8.48722 19.8037C8.68196 20.8956 9.62824 21.688 10.7373 21.688H18.5343C19.6433 21.688 20.5897 20.8956 20.7844 19.8037L21.8199 13.9972C21.8212 13.9898 21.8221 13.9824 21.8233 13.975C22.5161 13.9556 23.0738 13.3863 23.0738 12.6889C23.0739 11.9792 22.4965 11.4019 21.7868 11.4019ZM19.8067 19.6294C19.6966 20.2468 19.1615 20.6949 18.5343 20.6949H10.7373C10.1102 20.6949 9.57508 20.2468 9.46495 19.6294L8.45673 13.9759H20.815L19.8067 19.6294ZM21.7868 12.9828H7.41277C7.2507 12.9828 7.11889 12.851 7.11889 12.6889C7.11889 12.5268 7.2507 12.395 7.41277 12.395H21.7868C21.9489 12.395 22.0807 12.5268 22.0807 12.6889C22.0807 12.851 21.9489 12.9828 21.7868 12.9828Z" fill="#E9EBFF"/>
<path d="M14.5783 14.6649C14.3041 14.6649 14.0818 14.8872 14.0818 15.1614V19.5094C14.0818 19.7836 14.3041 20.0059 14.5783 20.0059C14.8526 20.0059 15.0749 19.7836 15.0749 19.5094V15.1614C15.0749 14.8872 14.8526 14.6649 14.5783 14.6649Z" fill="#E9EBFF"/>
<path d="M12.8842 19.4269L12.1519 15.079C12.1063 14.8085 11.8499 14.6262 11.5797 14.6717C11.3092 14.7173 11.127 14.9735 11.1725 15.2439L11.9049 19.5919C11.9457 19.8344 12.156 20.006 12.3939 20.006C12.4213 20.006 12.4491 20.0038 12.477 19.9991C12.7475 19.9535 12.9297 19.6974 12.8842 19.4269Z" fill="#E9EBFF"/>
<path d="M17.5424 14.6717C17.2723 14.6264 17.0159 14.8085 16.9703 15.079L16.2379 19.4269C16.1924 19.6973 16.3747 19.9535 16.6451 19.9991C16.673 20.0038 16.7008 20.006 16.7282 20.006C16.9662 20.006 17.1764 19.8344 17.2172 19.5919L17.9496 15.2439C17.9952 14.9735 17.8129 14.7173 17.5424 14.6717Z" fill="#E9EBFF"/>
</g>
<defs>
<clipPath id="clip0">
<rect width="16.9481" height="16.9481" fill="white" transform="translate(6.12573 5.39261)"/>
</clipPath>
</defs>
</svg>
