<svg width="25" height="25" viewBox="0 0 25 25" fill="none" xmlns="http://www.w3.org/2000/svg">
<g clip-path="url(#clip0)">
<path d="M2.19727 9.375H0V7.42188H2.19727V9.375ZM0.899696 13.2326L1.77841 14.9769L3.85056 13.9332L2.97203 12.1889L0.899696 13.2326ZM3.80173 2.71454L1.77822 1.69544L0.899696 3.4399L2.9232 4.45881L3.80173 2.71454ZM21.1494 13.9332L23.2218 14.9769L24.1003 13.2326L22.028 12.1889L21.1494 13.9332ZM24.1003 3.4399L23.2218 1.69544L21.1983 2.71454L22.0768 4.45881L24.1003 3.4399ZM20.8982 8.34255V8.39844C20.8828 11.7523 19.4723 13.6084 18.227 15.2472C17.1856 16.6176 16.363 17.7004 16.363 19.5026V22.0703C16.363 23.6858 15.0486 25 13.4333 25H11.5669C9.9514 25 8.63724 23.6858 8.63724 22.0703V19.5026C8.63724 17.7004 7.81441 16.6176 6.77299 15.2472C5.52769 13.6084 4.1172 11.7523 4.10175 8.39844V8.34255C4.13189 3.73726 7.88765 0 12.5 0C17.1124 0 20.8681 3.73726 20.8982 8.34255ZM14.4096 22.0703V20.166H10.5902V22.0703C10.5902 22.6088 11.0283 23.0469 11.5667 23.0469H13.4331C13.9717 23.0469 14.4096 22.6088 14.4096 22.0703ZM18.9453 8.37364C18.932 4.83093 16.0458 1.95312 12.5 1.95312C8.95424 1.95312 6.06804 4.83093 6.05469 8.37364C6.06308 11.0847 7.16343 12.5328 8.32806 14.0654C9.23176 15.2546 10.1604 16.4766 10.4769 18.2129H14.5231C14.8396 16.4766 15.7682 15.2546 16.6719 14.0654C17.8366 12.5328 18.9369 11.0847 18.9453 8.37364ZM12.9623 4.46587C11.9417 4.35276 10.9211 4.6772 10.1625 5.35622C9.41372 6.02646 8.98438 6.98547 8.98438 7.98721H10.9375C10.9375 7.53365 11.125 7.11613 11.4653 6.81152C11.8155 6.49796 12.2707 6.35433 12.747 6.40717C13.4813 6.48861 14.0722 7.0755 14.1521 7.80258C14.2082 8.31261 13.9631 8.8007 13.3324 9.43432C13.1781 9.58939 13.0352 9.72557 12.8971 9.85737C12.1862 10.5352 11.5725 11.1206 11.5725 12.4022V12.4512H13.5256V12.4022C13.5256 11.9816 13.607 11.8793 14.245 11.2707C14.3854 11.137 14.5443 10.9852 14.7167 10.8122C15.386 10.1397 16.2569 9.07421 16.0936 7.58915C15.9145 5.96085 14.5977 4.64745 12.9623 4.46587ZM11.5723 15.8691H13.5254V13.916H11.5723V15.8691ZM22.8027 7.42188V9.375H25V7.42188H22.8027Z" fill="#5A68CE"/>
</g>
<defs>
<clipPath id="clip0">
<rect width="25" height="25" fill="white"/>
</clipPath>
</defs>
</svg>
