<?xml version="1.0" encoding="utf-8"?>
<!-- Generator: Adobe Illustrator 21.0.2, SVG Export Plug-In . SVG Version: 6.00 Build 0)  -->
<svg version="1.1" id="Layer_1" xmlns="http://www.w3.org/2000/svg" xmlns:xlink="http://www.w3.org/1999/xlink" x="0px" y="0px"
	 viewBox="0 0 12 12" style="enable-background:new 0 0 12 12;" xml:space="preserve">
<style type="text/css">
	.st0{fill:#FFFFFF;}
</style>
<path class="st0" d="M6,0C2.7,0,0,2.7,0,6s2.7,6,6,6s6-2.7,6-6C12,2.7,9.3,0,6,0z M6,11.1c-2.8,0-5.1-2.3-5.1-5.1S3.2,0.9,6,0.9
	s5.1,2.3,5.1,5.1C11.1,8.8,8.8,11.1,6,11.1z"/>
<path class="st0" d="M6,2.1c-0.2,0-0.4,0.2-0.4,0.4v3h-3C2.3,5.6,2.1,5.8,2.1,6s0.2,0.4,0.4,0.4H6c0.2,0,0.4-0.2,0.4-0.4V2.6
	C6.4,2.3,6.2,2.1,6,2.1z"/>
</svg>
