<svg width="11" height="11" viewBox="0 0 11 11" fill="none" xmlns="http://www.w3.org/2000/svg">
<g clip-path="url(#clip0)">
<path d="M6.50778 5.491L10.791 9.77431C11.0697 10.0529 11.0697 10.5034 10.791 10.782C10.5124 11.0606 10.0619 11.0606 9.78326 10.782L5.49994 6.4987L1.21676 10.782C0.938015 11.0606 0.487669 11.0606 0.209057 10.782C-0.0696856 10.5034 -0.0696856 10.0529 0.209057 9.77431L4.49224 5.491L0.209057 1.20769C-0.0696856 0.929083 -0.0696856 0.478607 0.209057 0.199995C0.347906 0.0610161 0.530472 -0.00880051 0.712907 -0.00880051C0.895343 -0.00880051 1.07778 0.0610161 1.21676 0.199995L5.49994 4.4833L9.78326 0.199995C9.92224 0.0610161 10.1047 -0.00880051 10.2871 -0.00880051C10.4695 -0.00880051 10.652 0.0610161 10.791 0.199995C11.0697 0.478607 11.0697 0.929083 10.791 1.20769L6.50778 5.491Z" fill="#DDDDDD"/>
</g>
<defs>
<clipPath id="clip0">
<rect width="11" height="11" fill="white" transform="matrix(1 0 0 -1 0 11)"/>
</clipPath>
</defs>
</svg>
