<svg width="26" height="26" viewBox="0 0 26 26" fill="none" xmlns="http://www.w3.org/2000/svg">
<path d="M25.7336 12.3311L19.7211 5.96109C19.3516 5.56916 18.7347 5.55128 18.3428 5.92112C17.9515 6.29066 17.9333 6.90781 18.3031 7.29944L23.6842 13L18.3031 18.7012C17.9333 19.0928 17.9515 19.7096 18.3428 20.0795C18.5313 20.2573 18.7721 20.3453 19.012 20.3453C19.271 20.3453 19.5297 20.2426 19.7212 20.0401L25.7337 13.6698C26.0882 13.2938 26.0882 12.7068 25.7336 12.3311Z" fill="#5A68CE"/>
<path d="M7.69673 18.7007L2.31602 12.9998L7.69673 7.29896C8.06627 6.90734 8.04839 6.29014 7.65677 5.92065C7.26544 5.55111 6.64794 5.56899 6.27845 5.96062L0.265918 12.3307C-0.0886392 12.7063 -0.0886392 13.2936 0.265918 13.6694L6.27876 20.0397C6.47051 20.2428 6.72888 20.3452 6.98792 20.3452C7.22776 20.3452 7.46862 20.2568 7.65677 20.079C8.04875 19.7095 8.06627 19.0923 7.69673 18.7007Z" fill="#5A68CE"/>
<path d="M14.5773 2.67618C14.0452 2.59559 13.5473 2.96086 13.466 3.4929L10.606 22.213C10.5248 22.7453 10.8904 23.243 11.4227 23.3242C11.4728 23.3317 11.5222 23.3353 11.5713 23.3353C12.0448 23.3353 12.4602 22.9898 12.534 22.5075L15.394 3.78738C15.4752 3.25499 15.1096 2.75743 14.5773 2.67618Z" fill="#5A68CE"/>
</svg>
