<?xml version="1.0" encoding="utf-8"?>
<!-- Generator: Adobe Illustrator 21.0.2, SVG Export Plug-In . SVG Version: 6.00 Build 0)  -->
<svg version="1.1" id="Layer_1" xmlns="http://www.w3.org/2000/svg" xmlns:xlink="http://www.w3.org/1999/xlink" x="0px" y="0px"
	 viewBox="0 0 16 16" style="enable-background:new 0 0 16 16;" xml:space="preserve">
<style type="text/css">
	.st0{fill:#FFFFFF;}
</style>
<g>
	<g>
		<path class="st0" d="M13.1,8c-0.3,0-0.6,0.3-0.6,0.6v5.7c0,0.3-0.3,0.6-0.6,0.6H1.7c-0.3,0-0.6-0.3-0.6-0.6V2.9
			c0-0.3,0.3-0.6,0.6-0.6h6.9c0.3,0,0.6-0.3,0.6-0.6c0-0.3-0.3-0.6-0.6-0.6H1.7C0.8,1.1,0,1.9,0,2.9v11.4C0,15.2,0.8,16,1.7,16H12
			c0.9,0,1.7-0.8,1.7-1.7V8.6C13.7,8.3,13.5,8,13.1,8z"/>
		<path class="st0" d="M15.4,0.6c-0.4-0.4-1-0.6-1.5-0.6c-0.6,0-1.1,0.2-1.5,0.6L4.7,8.2C4.7,8.2,4.6,8.3,4.6,8.4l-1.1,3.4
			c-0.1,0.3,0.1,0.6,0.4,0.7c0.1,0,0.1,0,0.2,0c0.1,0,0.1,0,0.2,0l3.4-1.1c0.1,0,0.2-0.1,0.2-0.1l7.5-7.5
			C16.2,2.9,16.2,1.5,15.4,0.6z M14.6,2.9l-7.4,7.4l-2.2,0.7l0.7-2.2l7.4-7.4c0.4-0.4,1.1-0.4,1.5,0c0.2,0.2,0.3,0.5,0.3,0.7
			C14.9,2.5,14.7,2.7,14.6,2.9z"/>
	</g>
</g>
</svg>
