<svg width="17" height="8" viewBox="0 0 17 8" fill="none" xmlns="http://www.w3.org/2000/svg">
<path d="M15.6577 3.00612C14.2448 1.88341 11.3799 0 8.06801 0C4.75609 0 1.89122 1.8836 0.477273 3.00704C0.173998 3.24974 0 3.61154 0 4.00009C0 4.38865 0.173998 4.75045 0.474342 4.99063C0.921234 5.35625 1.47468 5.7488 2.07468 6.12605C2.24467 6.23276 2.46922 6.18167 2.57612 6.01168C2.68302 5.84149 2.63175 5.61713 2.46175 5.51023C1.88684 5.14878 1.35886 4.77444 0.931792 4.42518C0.80179 4.32118 0.727255 4.16628 0.727255 4.00009C0.727255 3.83391 0.80179 3.67882 0.93072 3.57574C2.26941 2.51196 4.97698 0.727445 8.06801 0.727445C11.159 0.727445 13.8666 2.51215 15.2044 3.57501C15.3342 3.67901 15.4088 3.83391 15.4088 4.00028C15.4088 4.16647 15.3342 4.32137 15.2053 4.42464C13.8666 5.48823 11.1588 7.27275 8.06801 7.27275C7.86728 7.27275 7.70438 7.43565 7.70438 7.63637C7.70438 7.8371 7.86728 8 8.06801 8C11.3798 8 14.2448 6.11678 15.6586 4.99281C15.962 4.75007 16.136 4.38827 16.136 3.99991C16.136 3.61154 15.962 3.24955 15.6577 3.00612Z" fill="#ADADAD"/>
<path d="M8.06826 0C5.86267 0 4.06836 1.79431 4.06836 3.9999C4.06836 6.20549 5.86267 7.9998 8.06826 7.9998C8.26899 7.9998 8.43189 7.8369 8.43189 7.63617C8.43189 7.43545 8.26899 7.27255 8.06826 7.27255C6.26377 7.27255 4.79562 5.80439 4.79562 3.9999C4.79562 2.19541 6.26377 0.727254 8.06826 0.727254C9.87276 0.727254 11.3409 2.19541 11.3409 3.9999C11.3409 4.20062 11.5038 4.36353 11.7045 4.36353C11.9053 4.36353 12.0682 4.20062 12.0682 3.9999C12.0682 1.79431 10.2739 0 8.06826 0Z" fill="#ADADAD"/>
</svg>
