<svg width="22" height="22" viewBox="0 0 22 22" fill="none" xmlns="http://www.w3.org/2000/svg">
<path d="M11.2148 1.76172H3.26562V0.644531C3.26562 0.288578 2.97705 0 2.62109 0C2.26514 0 1.97656 0.288578 1.97656 0.644531V21.3555C1.97656 21.7114 2.26514 22 2.62109 22C2.97705 22 3.26562 21.7114 3.26562 21.3555V11.6445H11.2148C11.5708 11.6445 11.8593 11.356 11.8593 11V2.40625C11.8593 2.0503 11.5708 1.76172 11.2148 1.76172Z" fill="#5A68CE"/>
<path d="M19.9774 12.9091L18.3545 8.85156L19.9774 4.79402C20.0569 4.59551 20.0324 4.37035 19.9125 4.19332C19.7927 4.01629 19.5928 3.91016 19.3789 3.91016H13.1484V11C13.1484 12.0661 12.2809 12.9336 11.2148 12.9336C10.2483 12.9336 9.38867 12.9336 8.42188 12.9336V13.1484C8.42188 13.505 8.71058 13.793 9.06641 13.793H19.3789C19.5928 13.793 19.7927 13.6868 19.9125 13.5098C20.0324 13.3328 20.0569 13.1076 19.9774 12.9091Z" fill="#7A86DD"/>
</svg>
