<?xml version="1.0" encoding="utf-8"?>
<!-- Generator: Adobe Illustrator 21.0.2, SVG Export Plug-In . SVG Version: 6.00 Build 0)  -->
<svg version="1.1" id="Layer_1" xmlns="http://www.w3.org/2000/svg" xmlns:xlink="http://www.w3.org/1999/xlink" x="0px" y="0px"
	 viewBox="0 0 17 16" style="enable-background:new 0 0 17 16;" xml:space="preserve">
<style type="text/css">
	.st0{fill:#FF786B;}
</style>
<g>
	<g>
		<path class="st0" d="M13.2,15.7h-2.6c-0.3,0-0.5-0.2-0.5-0.5V11c0-0.1-0.1-0.2-0.2-0.2H7.1C7,10.9,6.9,11,6.9,11v4.2
			c0,0.3-0.2,0.5-0.5,0.5H3.9c-0.6,0-1.1-0.5-1.1-1.1V8.6H1.6c-0.4,0-0.8-0.4-0.8-0.8c0-0.2,0.1-0.4,0.2-0.6l7.2-6.8
			c0.2-0.2,0.5-0.2,0.7,0L16,7.3c0.2,0.2,0.2,0.4,0.2,0.6c0,0.4-0.4,0.8-0.8,0.8h-1.1v5.9C14.3,15.2,13.8,15.7,13.2,15.7z
			 M11.1,14.7h2.1c0.1,0,0.2-0.1,0.2-0.2V8.2c0-0.3,0.2-0.5,0.5-0.5h1.2L8.5,1.5L2,7.7h1.2c0.3,0,0.5,0.2,0.5,0.5v6.4
			c0,0.1,0.1,0.2,0.2,0.2H6V11c0-0.6,0.5-1.1,1.1-1.1H10c0.6,0,1.1,0.5,1.1,1.1V14.7z"/>
	</g>
</g>
</svg>
