<svg width="18" height="18" viewBox="0 0 18 18" fill="none" xmlns="http://www.w3.org/2000/svg">
<g clip-path="url(#clip0)">
<path d="M12.7713 -0.000244141H5.22872C2.34559 -0.000244141 0 2.34535 0 5.22847V12.771C0 15.6542 2.34559 17.9998 5.22872 17.9998H12.7713C15.6544 17.9998 18 15.6542 18 12.7711V5.22847C18 2.34535 15.6544 -0.000244141 12.7713 -0.000244141ZM16.5938 12.771C16.5938 14.8788 14.879 16.5935 12.7713 16.5935H5.22872C3.121 16.5935 1.40625 14.8788 1.40625 12.7711V5.22847C1.40625 3.12075 3.121 1.40601 5.22872 1.40601H12.7713C14.879 1.40601 16.5938 3.12075 16.5938 5.22847V12.771Z" fill="white"/>
<path d="M9 4.14819C6.32482 4.14819 4.14844 6.32458 4.14844 8.99976C4.14844 11.6749 6.32482 13.8513 9 13.8513C11.6752 13.8513 13.8516 11.6749 13.8516 8.99976C13.8516 6.32458 11.6752 4.14819 9 4.14819ZM9 12.4451C7.10026 12.4451 5.55469 10.8995 5.55469 8.99976C5.55469 7.10002 7.10026 5.55444 9 5.55444C10.8997 5.55444 12.4453 7.10002 12.4453 8.99976C12.4453 10.8995 10.8997 12.4451 9 12.4451Z" fill="white"/>
<path d="M13.9219 4.78101C14.3102 4.78101 14.625 4.46621 14.625 4.07788C14.625 3.68956 14.3102 3.37476 13.9219 3.37476C13.5335 3.37476 13.2188 3.68956 13.2188 4.07788C13.2188 4.46621 13.5335 4.78101 13.9219 4.78101Z" fill="white"/>
</g>
<defs>
<clipPath id="clip0">
<rect width="18" height="18" fill="white" transform="translate(0 -0.000244141)"/>
</clipPath>
</defs>
</svg>
