<svg width="12" height="12" viewBox="0 0 12 12" fill="none" xmlns="http://www.w3.org/2000/svg">
<path d="M10.7143 0H1.28571C0.575633 0 0 0.575633 0 1.28571V10.7143C0 11.4244 0.575633 12 1.28571 12H10.7143C11.4244 12 12 11.4244 12 10.7143V1.28571C12 0.575633 11.4244 0 10.7143 0ZM11.1428 10.7143C11.1428 10.951 10.951 11.1429 10.7143 11.1429H1.28571C1.04901 11.1429 0.857134 10.951 0.857134 10.7143V1.28571C0.857134 1.04901 1.04901 0.857134 1.28571 0.857134H10.7143C10.951 0.857134 11.1429 1.04901 11.1429 1.28571V10.7143H11.1428Z" fill="#ADADAD"/>
<path d="M3.85589 2.57227H2.57018C2.33348 2.57227 2.1416 2.76414 2.1416 3.00085C2.1416 3.23755 2.33348 3.42943 2.57018 3.42943H3.85589C4.09259 3.42943 4.28447 3.23755 4.28447 3.00085C4.28447 2.76414 4.09259 2.57227 3.85589 2.57227Z" fill="#ADADAD"/>
<path d="M9.42732 2.57227H5.57018C5.33348 2.57227 5.1416 2.76414 5.1416 3.00085C5.1416 3.23755 5.33348 3.42943 5.57018 3.42943H9.42732C9.66402 3.42943 9.85589 3.23755 9.85589 3.00085C9.85589 2.76414 9.66399 2.57227 9.42732 2.57227Z" fill="#ADADAD"/>
<path d="M3.85589 5.57227H2.57018C2.33348 5.57227 2.1416 5.76414 2.1416 6.00085C2.1416 6.23755 2.33348 6.4294 2.57018 6.4294H3.85589C4.09259 6.4294 4.28447 6.23752 4.28447 6.00082C4.28447 5.76412 4.09259 5.57227 3.85589 5.57227Z" fill="#ADADAD"/>
<path d="M9.42732 5.57227H5.57018C5.33348 5.57227 5.1416 5.76414 5.1416 6.00085C5.1416 6.23755 5.33348 6.4294 5.57018 6.4294H9.42732C9.66402 6.4294 9.85589 6.23752 9.85589 6.00082C9.85589 5.76412 9.66399 5.57227 9.42732 5.57227Z" fill="#ADADAD"/>
<path d="M3.85589 8.57227H2.57018C2.33348 8.57227 2.1416 8.76414 2.1416 9.00084C2.1416 9.23755 2.33348 9.42942 2.57018 9.42942H3.85589C4.09259 9.42942 4.28447 9.23755 4.28447 9.00084C4.28447 8.76414 4.09259 8.57227 3.85589 8.57227Z" fill="#ADADAD"/>
<path d="M9.42732 8.57227H5.57018C5.33348 8.57227 5.1416 8.76414 5.1416 9.00084C5.1416 9.23755 5.33348 9.42942 5.57018 9.42942H9.42732C9.66402 9.42942 9.85589 9.23755 9.85589 9.00084C9.85589 8.76414 9.66399 8.57227 9.42732 8.57227Z" fill="#ADADAD"/>
</svg>
