<?xml version="1.0" encoding="utf-8"?>
<!-- Generator: Adobe Illustrator 22.0.0, SVG Export Plug-In . SVG Version: 6.00 Build 0)  -->
<svg version="1.1" id="Layer_1" xmlns="http://www.w3.org/2000/svg" xmlns:xlink="http://www.w3.org/1999/xlink" x="0px" y="0px"
	 viewBox="0 0 11.1 5.6" style="enable-background:new 0 0 11.1 5.6;" xml:space="preserve">
<style type="text/css">
	.st0{fill:url(#SVGID_1_);}
	.st1{fill:#5FB2FF;}
	.st2{fill:#FFFFFF;}
</style>
<g>
	<g>
		
			<linearGradient id="SVGID_1_" gradientUnits="userSpaceOnUse" x1="8.1883" y1="0.9483" x2="8.1883" y2="8.8855" gradientTransform="matrix(0.7176 0.6964 -0.6964 0.7176 5.3552 -6.5905)">
			<stop  offset="0" style="stop-color:#50E0FF"/>
			<stop  offset="1" style="stop-color:#006DEE"/>
		</linearGradient>
		<path class="st0" d="M4.6,0.3L3,2.3C2.8,2.5,2.8,2.9,3,3.1l1.6,2c0,0,0,0,0.1,0.1c0.2,0.2,0.4,0.3,0.7,0.3l5.2-0.1
			c0.1,0,0.3-0.1,0.4-0.2C11,5.1,11,4.9,11,4.8L11,0.4c0-0.1-0.1-0.3-0.2-0.4c-0.1-0.1-0.2-0.1-0.4-0.1L5.3-0.1C5,0,4.7,0.1,4.6,0.3
			z M5.2,2.4c0.1,0.1,0.1,0.2,0.1,0.3c0,0.2-0.2,0.4-0.4,0.4c-0.1,0-0.2,0-0.3-0.1S4.5,2.8,4.5,2.7c0-0.1,0-0.2,0.1-0.3
			c0.1-0.1,0.2-0.1,0.3-0.1C5,2.3,5.1,2.3,5.2,2.4z"/>
		<path class="st1" d="M4.6,0.3L3,2.3C2.8,2.5,2.8,2.9,3,3.1l1.7-2.2c0.1-0.2,0.5-0.4,0.7-0.4l5-0.1c0.1,0,0.3,0,0.4,0.1
			C10.9,0.7,11,0.8,11,0.9L11,4.8L11,0.4c0-0.1-0.1-0.3-0.2-0.4c-0.1-0.1-0.2-0.1-0.4-0.1L5.3-0.1C5,0,4.7,0.1,4.6,0.3z"/>
		<path class="st2" d="M4.4,2.2C4.3,2.3,4.2,2.5,4.2,2.7c0,0.2,0.1,0.4,0.2,0.5c0.1,0.1,0.3,0.2,0.5,0.2c0.4,0,0.7-0.3,0.7-0.7
			c0-0.2-0.1-0.4-0.2-0.5C5.3,2.1,5.1,2,4.9,2C4.7,2,4.6,2.1,4.4,2.2z M5.2,2.4c0.1,0.1,0.1,0.2,0.1,0.3c0,0.2-0.2,0.4-0.4,0.4
			c-0.1,0-0.2,0-0.3-0.1S4.5,2.8,4.5,2.7c0-0.1,0-0.2,0.1-0.3c0.1-0.1,0.2-0.1,0.3-0.1C5,2.3,5.1,2.3,5.2,2.4z"/>
		<path class="st2" d="M8.8,3.4C8.9,3.6,9,3.7,9,3.9c0,0.4-0.3,0.7-0.7,0.7c-0.2,0-0.4-0.1-0.5-0.2C7.7,4.3,7.6,4.1,7.6,3.9
			c0-0.2,0.1-0.4,0.2-0.5c0.1-0.1,0.3-0.2,0.5-0.2C8.5,3.2,8.6,3.3,8.8,3.4z M8,4.2c0.1,0.1,0.2,0.1,0.3,0.1c0.2,0,0.4-0.2,0.4-0.4
			c0-0.1,0-0.2-0.1-0.3C8.5,3.6,8.4,3.5,8.3,3.5c-0.1,0-0.2,0-0.3,0.1C7.9,3.7,7.9,3.8,7.9,3.9C7.9,4,7.9,4.2,8,4.2z"/>
		<path class="st2" d="M8.7,0.8C8.9,1,8.9,1.1,8.9,1.3C8.9,1.7,8.6,2,8.2,2C8.1,2,7.9,2,7.8,1.8C7.6,1.7,7.5,1.5,7.5,1.3
			c0-0.2,0.1-0.4,0.2-0.5C7.9,0.7,8,0.6,8.2,0.6C8.4,0.6,8.6,0.7,8.7,0.8z M7.9,1.6C8,1.7,8.1,1.8,8.2,1.8c0.2,0,0.4-0.2,0.4-0.4
			c0-0.1,0-0.2-0.1-0.3C8.4,1,8.3,0.9,8.2,0.9C8.1,0.9,8,1,7.9,1S7.8,1.2,7.8,1.3C7.8,1.5,7.9,1.6,7.9,1.6z"/>
		<path class="st2" d="M10.2,2.5C10.2,2.5,10.2,2.6,10.2,2.5c0,0.2,0,0.2-0.1,0.2L6.4,2.8c-0.1,0-0.1-0.1-0.1-0.1
			c0-0.1,0.1-0.1,0.1-0.1L10.2,2.5C10.1,2.5,10.2,2.5,10.2,2.5z"/>
		<path class="st2" d="M3.2,3.3c-0.2,0-0.3,0-0.5,0C2.1,3.3,1.3,3.3,1,3.1C0.7,3,0.5,2.9,0.5,2.8c0-0.1,0.2-0.3,0.5-0.4
			c0.4-0.1,1.2-0.2,1.7-0.2c0.6,0,1.1,0.1,1.5,0.2c0.4,0.1,0.6,0.3,0.6,0.4c0,0.1,0.1,0.1,0.1,0.1C5,2.8,5,2.8,5,2.7
			c0-0.1,0-0.2-0.2-0.3C4.8,2.2,4.6,2.1,4.3,2c-0.4-0.1-1-0.2-1.6-0.2c-0.6,0-1.4,0.1-1.8,0.3C0.4,2.3,0.2,2.5,0.2,2.8
			c0,0.3,0.2,0.5,0.7,0.6c0.4,0.1,1.2,0.2,1.8,0.2c0.2,0,0.5,0,0.7,0L3.2,3.3z"/>
	</g>
</g>
</svg>
