<?xml version="1.0" encoding="utf-8"?>
<!-- Generator: Adobe Illustrator 21.0.2, SVG Export Plug-In . SVG Version: 6.00 Build 0)  -->
<svg version="1.1" id="Layer_1" xmlns="http://www.w3.org/2000/svg" xmlns:xlink="http://www.w3.org/1999/xlink" x="0px" y="0px"
	 viewBox="0 0 15 18" style="enable-background:new 0 0 15 18;" xml:space="preserve">
<style type="text/css">
	.st0{fill:#7A86DD;}
</style>
<path class="st0" d="M9.4,18c-1.5,0-3-0.6-4.1-1.7l-4.8-4.8c-0.6-0.6-0.6-1.5,0-2C0.7,9.2,1.1,9,1.4,9c0.3,0,0.7,0.1,1,0.2l2.1,1V3
	c0-0.8,0.7-1.5,1.5-1.5c0.3,0,0.5,0.1,0.7,0.2V1.5C6.8,0.7,7.4,0,8.3,0c0.8,0,1.5,0.7,1.5,1.5v0.2c0.7-0.4,1.6-0.2,2,0.5
	C11.9,2.5,12,2.7,12,3v0.2c0.7-0.4,1.6-0.2,2,0.5c0.1,0.2,0.2,0.5,0.2,0.7v8.6C14.2,15.8,12.1,18,9.4,18z M1.4,9.7
	c-0.4,0-0.7,0.3-0.7,0.7c0,0.2,0.1,0.4,0.2,0.5l4.9,4.8c0.9,1,2.2,1.5,3.6,1.5c2.3,0,4.1-1.8,4.1-4.1V4.5c0-0.4-0.3-0.7-0.8-0.7
	S12,4.1,12,4.5v3.4c0,0.2-0.2,0.4-0.4,0.4s-0.4-0.2-0.4-0.4V3c0-0.4-0.3-0.7-0.8-0.7S9.8,2.6,9.8,3v4.9c0,0.2-0.2,0.4-0.4,0.4
	C9.2,8.3,9,8.1,9,7.9V1.5c0-0.4-0.3-0.7-0.7-0.7c-0.4,0-0.7,0.3-0.7,0.7v6.4c0,0.2-0.2,0.4-0.4,0.4c-0.2,0-0.4-0.2-0.4-0.4V3
	c0-0.4-0.3-0.7-0.7-0.7C5.6,2.3,5.3,2.6,5.3,3v7.9c0,0.2-0.2,0.4-0.4,0.4c-0.1,0-0.1,0-0.2,0L2.1,9.9C1.9,9.8,1.7,9.8,1.4,9.7z"/>
</svg>
