<svg width="21" height="21" viewBox="0 0 21 21" fill="none" xmlns="http://www.w3.org/2000/svg">
<path d="M18.375 0H2.625C1.17728 0 0 1.17728 0 2.625V18.375C0 19.8227 1.17728 21 2.625 21H18.375C19.8227 21 21 19.8227 21 18.375V2.625C21 1.17728 19.8227 0 18.375 0ZM2.625 1.75H18.375C18.8576 1.75 19.25 2.14243 19.25 2.625V8.8252L16.3687 5.94385C16.0269 5.60226 15.4731 5.60226 15.1313 5.94385L8.96875 12.1064L6.74365 9.88135C6.40186 9.53976 5.84814 9.53976 5.50635 9.88135L1.75 13.6377V2.625C1.75 2.14243 2.14243 1.75 2.625 1.75ZM18.375 19.25H2.625C2.14243 19.25 1.75 18.8576 1.75 18.375V16.1123L6.125 11.7373L11.1938 16.8057C11.365 16.9773 11.5884 17.0625 11.8125 17.0625C12.0366 17.0625 12.26 16.9773 12.4312 16.8062C12.7727 16.4644 12.7727 15.9106 12.4312 15.5688L10.2061 13.3438L15.75 7.80023L19.25 11.3002V18.375C19.25 18.8576 18.8576 19.25 18.375 19.25Z" fill="#5A68CE"/>
<path d="M7 5.25C7 6.21643 6.21643 7 5.25 7C4.28357 7 3.5 6.21643 3.5 5.25C3.5 4.28357 4.28357 3.5 5.25 3.5C6.21643 3.5 7 4.28357 7 5.25Z" fill="#5A68CE"/>
</svg>
