<svg width="64" height="64" viewBox="0 0 64 64" fill="none" xmlns="http://www.w3.org/2000/svg">
<g clip-path="url(#clip0)">
<path d="M31.9933 -0.000976562C14.3294 -0.000976562 0 14.3284 0 31.9923C0 49.6563 14.3294 63.9856 31.9933 63.9856C49.6573 63.9856 63.9866 49.6563 63.9866 31.9923C63.9732 14.3284 49.6573 0.0124154 31.9933 -0.000976562Z" fill="#FF786B"/>
<path d="M26.5428 43.0006C26.2348 43.1613 25.9 43.2416 25.5518 43.255C24.4536 43.2952 23.5162 42.8934 23.101 42.1569C22.9939 41.9694 22.8466 41.6346 22.86 41.1257V22.8591C22.86 21.6003 23.8778 20.5691 25.15 20.5691C25.5116 20.5691 25.8598 20.6494 26.1678 20.8101L44.4478 29.9568C45.5727 30.5193 46.0414 31.8987 45.479 33.0236C45.2513 33.4655 44.9031 33.8271 44.4478 34.0548V34.0682C38.475 37.0412 32.5156 40.0276 26.5428 43.0006Z" fill="white"/>
</g>
<defs>
<clipPath id="clip0">
<rect width="64" height="64" fill="white" transform="translate(0 -0.000976562)"/>
</clipPath>
</defs>
</svg>
