<?xml version="1.0" encoding="utf-8"?>
<!-- Generator: Adobe Illustrator 21.0.2, SVG Export Plug-In . SVG Version: 6.00 Build 0)  -->
<svg version="1.1" id="Layer_1" xmlns="http://www.w3.org/2000/svg" xmlns:xlink="http://www.w3.org/1999/xlink" x="0px" y="0px"
	 viewBox="0 0 18 18" style="enable-background:new 0 0 18 18;" xml:space="preserve">
<style type="text/css">
	.st0{fill:#FFFFFF;}
</style>
<g>
	<g>
		<path class="st0" d="M9,5.6l0,3.9C9,9.7,9.1,9.9,9.2,10l2.8,2.8l0.8-0.8l-2.7-2.6l0-3.7H9z"/>
		<path class="st0" d="M10.1,1.1c-4,0-7.2,2.9-7.8,6.8H0l2.8,2.8l2.8-2.8H3.5C4,4.7,6.8,2.3,10.1,2.3c3.7,0,6.8,3,6.8,6.8
			s-3,6.7-6.8,6.7c-2.1,0-4-0.9-5.3-2.6l-0.9,0.7c1.5,1.9,3.8,3,6.2,3c4.3,0,7.9-3.5,7.9-7.9S14.5,1.1,10.1,1.1z"/>
	</g>
</g>
</svg>
