<?xml version="1.0" encoding="utf-8"?>
<!-- Generator: Adobe Illustrator 21.0.2, SVG Export Plug-In . SVG Version: 6.00 Build 0)  -->
<svg version="1.1" id="Capa_1" xmlns="http://www.w3.org/2000/svg" xmlns:xlink="http://www.w3.org/1999/xlink" x="0px" y="0px"
	 viewBox="0 0 10.3 10.3" style="enable-background:new 0 0 10.3 10.3;" xml:space="preserve">
<style type="text/css">
	.st0{fill:#FF786B;}
</style>
<g>
	<g id="radio-button-on">
		<path class="st0" d="M5.2,2C3.4,2,2,3.4,2,5.2s1.4,3.2,3.2,3.2S8.4,7,8.4,5.2S6.9,2,5.2,2z M5.2,0.2c-2.7,0-5,2.3-5,5s2.3,5,5,5
			s5-2.3,5-5S7.9,0.2,5.2,0.2z M5.2,9.2c-2.2,0-4-1.8-4-4s1.8-4,4-4s4,1.8,4,4S7.4,9.2,5.2,9.2z"/>
	</g>
</g>
</svg>
