<svg width="28" height="28" viewBox="0 0 28 28" fill="none" xmlns="http://www.w3.org/2000/svg">
<rect width="27.7333" height="27.7333" rx="6" fill="#7A86DD"/>
<g clip-path="url(#clip0)">
<path d="M23.1882 21.3011L18.2591 16.372C19.2139 15.1926 19.7887 13.694 19.7887 12.0618C19.7887 8.27884 16.7106 5.20074 12.9277 5.20074C9.14471 5.20074 6.06665 8.2788 6.06665 12.0618C6.06665 15.8447 9.14474 18.9228 12.9277 18.9228C14.5599 18.9228 16.0585 18.348 17.2379 17.3932L22.167 22.3223C22.3078 22.4631 22.4927 22.5339 22.6776 22.5339C22.8625 22.5339 23.0474 22.4631 23.1882 22.3223C23.4706 22.0399 23.4706 21.5835 23.1882 21.3011ZM12.9277 17.4784C9.94061 17.4784 7.51109 15.0489 7.51109 12.0618C7.51109 9.07467 9.94061 6.64515 12.9277 6.64515C15.9148 6.64515 18.3443 9.07467 18.3443 12.0618C18.3443 15.0489 15.9148 17.4784 12.9277 17.4784Z" fill="#E9EBFF"/>
</g>
<defs>
<clipPath id="clip0">
<rect width="17.3333" height="17.3333" fill="white" transform="translate(6.06665 5.20001)"/>
</clipPath>
</defs>
</svg>
