<svg width="22" height="22" viewBox="0 0 22 22" fill="none" xmlns="http://www.w3.org/2000/svg">
<g clip-path="url(#clip0)">
<path d="M14.6921 2.51735C11.336 -0.838781 5.87366 -0.838781 2.51753 2.51735C-0.837874 5.87421 -0.837874 11.3358 2.51753 14.6927C5.50625 17.6807 10.161 18.0008 13.515 15.6676C13.5856 16.0015 13.7471 16.3202 14.0068 16.5799L18.8944 21.4675C19.6067 22.1783 20.7576 22.1783 21.4662 21.4675C22.1778 20.756 22.1778 19.605 21.4662 18.8957L16.5786 14.0066C16.3204 13.7491 16.001 13.5868 15.667 13.5163C18.0017 10.1616 17.6816 5.50753 14.6921 2.51735ZM13.149 13.1496C10.6434 15.6552 6.56555 15.6552 4.06063 13.1496C1.55645 10.6439 1.55645 6.56682 4.06063 4.06118C6.56555 1.55627 10.6434 1.55627 13.149 4.06118C15.6547 6.56682 15.6547 10.6439 13.149 13.1496Z" fill="#494949" fill-opacity="0.2"/>
</g>
<defs>
<clipPath id="clip0">
<rect width="22" height="22" fill="white"/>
</clipPath>
</defs>
</svg>
