<svg width="10" height="10" viewBox="0 0 10 10" fill="none" xmlns="http://www.w3.org/2000/svg">
<g clip-path="url(#clip0)">
<path d="M3.06058 4.79999C2.91554 4.79999 2.7747 4.72454 2.69803 4.58957C2.58427 4.38999 2.65431 4.1354 2.8539 4.02118L6.72009 1.81705C6.91968 1.70246 7.17427 1.7725 7.28848 1.97284C7.40224 2.17243 7.3322 2.42702 7.13261 2.54123L3.26634 4.74537C3.20134 4.78244 3.13054 4.79999 3.06058 4.79999Z" fill="#ADADAD"/>
<path d="M6.92631 8.23767C6.85627 8.23767 6.78547 8.22012 6.72047 8.18304L2.8542 5.9789C2.65462 5.86514 2.58466 5.61055 2.69841 5.41051C2.81171 5.21054 3.06668 5.14012 3.26672 5.25471L7.13299 7.45886C7.33257 7.57261 7.40253 7.8272 7.28878 8.02725C7.21172 8.16221 7.07088 8.23767 6.92631 8.23767Z" fill="#ADADAD"/>
<path d="M9.26431 1.66664C9.26431 2.41455 8.65808 3.02086 7.91017 3.02086C7.16226 3.02086 6.55603 2.41455 6.55603 1.66664C6.55603 0.918808 7.16226 0.3125 7.91017 0.3125C8.65808 0.3125 9.26431 0.918808 9.26431 1.66664Z" fill="#ADADAD"/>
<path d="M7.91017 3.33336C6.99098 3.33336 6.24353 2.58583 6.24353 1.66664C6.24353 0.747528 6.99098 0 7.91017 0C8.82936 0 9.57681 0.747528 9.57681 1.66664C9.57681 2.58583 8.82936 3.33336 7.91017 3.33336ZM7.91017 0.625C7.3356 0.625 6.86853 1.09253 6.86853 1.66664C6.86853 2.24083 7.3356 2.70836 7.91017 2.70836C8.48474 2.70836 8.95181 2.24083 8.95181 1.66664C8.95181 1.09253 8.48474 0.625 7.91017 0.625Z" fill="#ADADAD"/>
<path d="M9.26431 8.33347C9.26431 9.0813 8.65808 9.68761 7.91017 9.68761C7.16226 9.68761 6.55603 9.0813 6.55603 8.33347C6.55603 7.58556 7.16226 6.97925 7.91017 6.97925C8.65808 6.97925 9.26431 7.58556 9.26431 8.33347Z" fill="#ADADAD"/>
<path d="M7.91017 10.0001C6.99098 10.0001 6.24353 9.25258 6.24353 8.33346C6.24353 7.41428 6.99098 6.66675 7.91017 6.66675C8.82936 6.66675 9.57681 7.41428 9.57681 8.33346C9.57681 9.25258 8.82936 10.0001 7.91017 10.0001ZM7.91017 7.29175C7.3356 7.29175 6.86853 7.75928 6.86853 8.33346C6.86853 8.90758 7.3356 9.37511 7.91017 9.37511C8.48474 9.37511 8.95181 8.90758 8.95181 8.33346C8.95181 7.75928 8.48474 7.29175 7.91017 7.29175Z" fill="#ADADAD"/>
<path d="M3.43102 4.99989C3.43102 5.7478 2.82471 6.35403 2.0768 6.35403C1.32896 6.35403 0.722656 5.7478 0.722656 4.99989C0.722656 4.25198 1.32896 3.64575 2.0768 3.64575C2.82471 3.64575 3.43102 4.25198 3.43102 4.99989Z" fill="#ADADAD"/>
<path d="M2.0768 6.66653C1.15768 6.66653 0.410156 5.91908 0.410156 4.99989C0.410156 4.0807 1.15768 3.33325 2.0768 3.33325C2.99599 3.33325 3.74352 4.0807 3.74352 4.99989C3.74352 5.91908 2.99599 6.66653 2.0768 6.66653ZM2.0768 3.95825C1.50223 3.95825 1.03516 4.4257 1.03516 4.99989C1.03516 5.57408 1.50223 6.04153 2.0768 6.04153C2.65144 6.04153 3.11852 5.57408 3.11852 4.99989C3.11852 4.4257 2.65144 3.95825 2.0768 3.95825Z" fill="#ADADAD"/>
</g>
<defs>
<clipPath id="clip0">
<rect width="10" height="10" fill="white"/>
</clipPath>
</defs>
</svg>
