<svg width="17" height="17" viewBox="0 0 17 17" fill="none" xmlns="http://www.w3.org/2000/svg">
<g clip-path="url(#clip0)">
<path d="M16.7341 3.49863C16.5061 3.21647 16.1671 3.05468 15.8043 3.05468H2.84672L2.73101 2.2254C2.64906 1.63817 2.14013 1.19531 1.54716 1.19531H0.531247C0.237866 1.19531 0 1.43318 0 1.72656C0 2.01994 0.237866 2.25781 0.531247 2.25781H1.54716C1.61303 2.25781 1.66961 2.30701 1.67867 2.37226L3.11268 12.6495C3.19462 13.2368 3.70355 13.6796 4.29653 13.6796H4.87256C4.8136 13.8459 4.78119 14.0246 4.78119 14.2109C4.78119 15.0896 5.49615 15.8046 6.37493 15.8046C7.25371 15.8046 7.96867 15.0896 7.96867 14.2109C7.96867 14.0246 7.93626 13.8459 7.8773 13.6796H10.7163C10.6573 13.8459 10.6249 14.0246 10.6249 14.2109C10.6249 15.0896 11.3399 15.8046 12.2186 15.8046C13.0974 15.8046 13.8124 15.0896 13.8124 14.2109C13.8124 14.0246 13.78 13.8459 13.721 13.6796H14.8749C15.1683 13.6796 15.4062 13.4417 15.4062 13.1484C15.4062 12.855 15.1683 12.6171 14.8749 12.6171H4.29656C4.23068 12.6171 4.17411 12.5679 4.16504 12.5027L4.03276 11.5546H14.4951C15.0548 11.5546 15.5464 11.1574 15.664 10.6097L16.9731 4.5005C17.0492 4.14586 16.9621 3.78069 16.7341 3.49863ZM6.90621 14.2109C6.90621 14.5038 6.66788 14.7421 6.37496 14.7421C6.08205 14.7421 5.84372 14.5038 5.84372 14.2109C5.84372 13.9179 6.08205 13.6796 6.37496 13.6796C6.66788 13.6796 6.90621 13.9179 6.90621 14.2109ZM12.7499 14.2109C12.7499 14.5038 12.5116 14.7421 12.2187 14.7421C11.9258 14.7421 11.6874 14.5038 11.6874 14.2109C11.6874 13.9179 11.9258 13.6796 12.2187 13.6796C12.5116 13.6796 12.7499 13.9179 12.7499 14.2109ZM15.9343 4.27777L14.6251 10.3869C14.612 10.4478 14.5573 10.4921 14.4951 10.4921H3.88448L2.99497 4.11714H15.8043C15.8568 4.11714 15.8896 4.14397 15.9078 4.16648C15.9259 4.18896 15.9452 4.22651 15.9343 4.27777Z" fill="white"/>
</g>
<defs>
<clipPath id="clip0">
<rect width="17" height="17" fill="white"/>
</clipPath>
</defs>
</svg>
