<svg width="183" height="50" viewBox="0 0 183 50" fill="none" xmlns="http://www.w3.org/2000/svg">
<rect width="183" height="50" rx="5" fill="#09CD1D"/>
<path fill-rule="evenodd" clip-rule="evenodd" d="M167.275 13.6781C164.293 10.6926 160.327 9.04765 156.102 9.0459C147.396 9.0459 140.311 16.1312 140.307 24.8396C140.306 27.6234 141.033 30.3409 142.415 32.7362L140.175 40.9209L148.548 38.7244C150.855 39.983 153.452 40.6462 156.096 40.647H156.102C164.807 40.647 171.894 33.5611 171.897 24.8523C171.899 20.6317 170.257 16.6635 167.275 13.6781ZM156.102 37.9795H156.097C153.741 37.9785 151.431 37.3455 149.415 36.1496L148.936 35.8649L143.967 37.1684L145.293 32.3239L144.981 31.8273C143.667 29.737 142.973 27.3211 142.974 24.8406C142.977 17.6024 148.866 11.7136 156.107 11.7136C159.614 11.7147 162.91 13.082 165.389 15.5635C167.867 18.045 169.232 21.3434 169.23 24.8513C169.227 32.0901 163.338 37.9795 156.102 37.9795ZM163.303 28.1472C162.909 27.9495 160.968 26.995 160.606 26.8631C160.245 26.7314 159.981 26.6659 159.719 27.0608C159.455 27.4557 158.699 28.3448 158.469 28.608C158.238 28.8715 158.009 28.9045 157.614 28.7069C157.219 28.5094 155.947 28.0925 154.44 26.748C153.267 25.7015 152.475 24.4091 152.244 24.0142C152.014 23.6188 152.242 23.4258 152.418 23.2087C152.845 22.6782 153.273 22.122 153.404 21.8587C153.536 21.5953 153.47 21.3648 153.371 21.1673C153.273 20.9698 152.483 19.0273 152.155 18.2368C151.834 17.4676 151.509 17.5714 151.266 17.5594C151.036 17.5479 150.773 17.5456 150.51 17.5456C150.247 17.5456 149.819 17.6442 149.457 18.0395C149.096 18.4347 148.076 19.3893 148.076 21.3319C148.076 23.2745 149.491 25.1511 149.688 25.4145C149.885 25.6779 152.471 29.6643 156.43 31.3736C157.371 31.7806 158.106 32.0232 158.68 32.2051C159.625 32.5055 160.485 32.463 161.165 32.3615C161.924 32.2481 163.5 31.4066 163.829 30.4849C164.158 29.5629 164.158 28.7728 164.059 28.608C163.961 28.4435 163.698 28.3448 163.303 28.1472Z" fill="white"/>
<path d="M14.94 29.0955C14.6261 29.0955 14.3291 29.0424 14.0491 28.9364C13.7691 28.8303 13.5209 28.6755 13.3045 28.4718C13.2197 28.3912 13.1306 28.2936 13.0373 28.1791C12.9482 28.0645 12.8676 27.9288 12.7955 27.7718C12.7233 27.6148 12.6639 27.4388 12.6173 27.2436C12.5706 27.0442 12.5473 26.8215 12.5473 26.5755C12.5473 26.3633 12.5685 26.1342 12.6109 25.8882C12.6533 25.6379 12.7 25.4024 12.7509 25.1818C12.8061 24.9612 12.857 24.7703 12.9036 24.6091C12.9503 24.4479 12.98 24.3482 12.9927 24.31L13.75 24.5518L14.5009 24.7873C14.4627 24.9018 14.4224 25.0397 14.38 25.2009C14.3376 25.3579 14.2973 25.5212 14.2591 25.6909C14.2209 25.8564 14.1891 26.0176 14.1636 26.1745C14.1382 26.3315 14.1255 26.4673 14.1255 26.5818C14.1255 26.7855 14.153 26.9509 14.2082 27.0782C14.2676 27.2012 14.3376 27.2967 14.4182 27.3645C14.503 27.4282 14.5858 27.4685 14.6664 27.4855C14.747 27.5024 14.8424 27.5109 14.9527 27.5109H22.5382C22.5891 27.5109 22.6612 27.5045 22.7545 27.4918C22.8521 27.4748 22.9476 27.4345 23.0409 27.3709C23.1385 27.3073 23.2233 27.2118 23.2955 27.0845C23.3676 26.953 23.4036 26.7748 23.4036 26.55C23.4036 26.4567 23.3952 26.3442 23.3782 26.2127C23.3655 26.077 23.3464 25.9327 23.3209 25.78C23.2955 25.6273 23.2658 25.4724 23.2318 25.3155C23.2021 25.1542 23.1724 25.0015 23.1427 24.8573C23.13 24.8021 23.1194 24.7491 23.1109 24.6982L24.6127 24.3036C24.617 24.3248 24.6212 24.3439 24.6255 24.3609C24.6594 24.5221 24.6933 24.7003 24.7273 24.8955C24.7655 25.0906 24.7994 25.2879 24.8291 25.4873C24.863 25.6824 24.8885 25.8733 24.9055 26.06C24.9267 26.2467 24.9373 26.41 24.9373 26.55C24.9373 26.987 24.8652 27.3667 24.7209 27.6891C24.5767 28.0073 24.3879 28.2703 24.1545 28.4782C23.9212 28.6861 23.6582 28.8409 23.3655 28.9427C23.077 29.0445 22.7864 29.0955 22.4936 29.0955H14.94ZM16.4991 31.1764L17.5809 30.0945L18.6627 31.1891L17.5809 32.2709L16.4991 31.1764ZM19.1527 31.1891L20.2473 30.1073L21.3291 31.2018L20.2473 32.2836L19.1527 31.1891ZM17.8864 32.9709L18.8918 31.9655L19.91 32.9836L18.9045 33.9891L17.8864 32.9709ZM29.6548 29.0955C29.1881 29.0955 28.7872 29.0658 28.452 29.0064C28.1169 28.9512 27.8348 28.8685 27.6057 28.7582C27.3766 28.6436 27.192 28.4994 27.052 28.3255C26.9163 28.1515 26.8123 27.9479 26.7402 27.7145C26.6681 27.4812 26.6193 27.2182 26.5939 26.9255C26.5726 26.6285 26.562 26.3018 26.562 25.9455V19.9191H28.1466V25.9455C28.1466 26.2848 28.1572 26.5564 28.1784 26.76C28.2039 26.9636 28.2654 27.1227 28.3629 27.2373C28.4648 27.3476 28.6154 27.4218 28.8148 27.46C29.0184 27.4939 29.2984 27.5109 29.6548 27.5109V29.0955ZM29.4001 27.5109H30.221C30.4713 27.5109 30.6728 27.4897 30.8255 27.4473C30.9825 27.4048 31.1034 27.3433 31.1883 27.2627C31.2773 27.1779 31.3367 27.0761 31.3664 26.9573C31.3961 26.8385 31.411 26.7027 31.411 26.55V24.6982H32.9955V26.5182C32.9955 26.8618 33.0783 27.1121 33.2437 27.2691C33.4092 27.4261 33.6701 27.5067 34.0264 27.5109C34.0901 27.5067 34.1664 27.4939 34.2555 27.4727C34.3489 27.4515 34.4379 27.4091 34.5228 27.3455C34.6119 27.2776 34.6861 27.1821 34.7455 27.0591C34.8092 26.9318 34.841 26.7621 34.841 26.55V24.6982H36.4192V26.5182C36.4192 26.8661 36.5019 27.1185 36.6673 27.2755C36.8328 27.4324 37.1022 27.5109 37.4755 27.5109C37.5773 27.5109 37.677 27.4961 37.7746 27.4664C37.8764 27.4324 37.9676 27.3794 38.0483 27.3073C38.1289 27.2309 38.1946 27.1333 38.2455 27.0145C38.2964 26.8958 38.3261 26.7494 38.3346 26.5755V24.6982H39.9192V26.5818C39.9276 26.9085 40.0273 27.1461 40.2183 27.2945C40.4092 27.4388 40.7019 27.5109 41.0964 27.5109H41.7201V29.0955H41.0964C40.6595 29.0955 40.2798 29.0488 39.9573 28.9555C39.6349 28.8579 39.357 28.7009 39.1237 28.4845C38.9073 28.6839 38.6528 28.8367 38.3601 28.9427C38.0716 29.0445 37.7767 29.0955 37.4755 29.0955C37.0767 29.0955 36.7267 29.0467 36.4255 28.9491C36.1286 28.8515 35.8634 28.6945 35.6301 28.4782C35.4095 28.6733 35.1613 28.8239 34.8855 28.93C34.614 29.0361 34.3383 29.0912 34.0583 29.0955H34.0137C33.6319 29.0955 33.2925 29.0445 32.9955 28.9427C32.6986 28.8367 32.4398 28.6903 32.2192 28.5036C31.7228 28.8982 31.0567 29.0955 30.221 29.0955H29.4001V27.5109ZM46.2005 23.75C46.209 23.7797 46.226 23.8497 46.2514 23.96C46.2811 24.0703 46.3129 24.2061 46.3469 24.3673C46.3808 24.5242 46.4148 24.7003 46.4487 24.8955C46.4869 25.0906 46.5208 25.2879 46.5505 25.4873C46.5845 25.6824 46.6099 25.8733 46.6269 26.06C46.6481 26.2467 46.6587 26.41 46.6587 26.55C46.6587 26.987 46.5866 27.3667 46.4423 27.6891C46.2981 28.0073 46.1093 28.2703 45.876 28.4782C45.6426 28.6861 45.3796 28.8409 45.0869 28.9427C44.7984 29.0445 44.5078 29.0955 44.2151 29.0955H41.4723V27.5109H44.2596C44.3105 27.5109 44.3826 27.5045 44.476 27.4918C44.5735 27.4748 44.669 27.4345 44.7623 27.3709C44.8599 27.3073 44.9448 27.2118 45.0169 27.0845C45.089 26.953 45.1251 26.7748 45.1251 26.55C45.1251 26.4567 45.1166 26.3442 45.0996 26.2127C45.0869 26.077 45.0678 25.9327 45.0423 25.78C45.0169 25.6273 44.9872 25.4724 44.9532 25.3155C44.9235 25.1542 44.8939 25.0036 44.8642 24.8636C44.8345 24.7194 44.8048 24.59 44.7751 24.4755C44.7454 24.3567 44.722 24.2655 44.7051 24.2018L46.2005 23.75ZM45.6023 22.5091L44.5332 21.4273L45.5896 20.3327L46.6842 21.4273L45.6023 22.5091ZM42.936 22.5155L41.8669 21.4336L42.9169 20.3391L44.0114 21.4336L42.936 22.5155ZM49.8849 29.0955H48.3003V19.9191H49.8849V29.0955ZM52.4605 30.9282C52.7999 30.9282 53.1012 30.9155 53.3642 30.89C53.6315 30.8688 53.8669 30.8348 54.0705 30.7882C54.2784 30.7458 54.4587 30.6885 54.6115 30.6164C54.7684 30.5485 54.9042 30.4658 55.0187 30.3682C55.1969 30.2239 55.3305 30.0564 55.4196 29.8655C55.513 29.6745 55.5681 29.4179 55.5851 29.0955H54.6051C54.393 29.0955 54.1766 29.0785 53.956 29.0445C53.7354 29.0106 53.5233 28.9533 53.3196 28.8727C53.116 28.7879 52.923 28.6797 52.7405 28.5482C52.5624 28.4167 52.4054 28.2555 52.2696 28.0645C52.1381 27.8694 52.0321 27.6403 51.9515 27.3773C51.8751 27.1142 51.8369 26.813 51.8369 26.4736C51.8369 26.1809 51.8624 25.9221 51.9133 25.6973C51.9642 25.4682 52.0278 25.2667 52.1042 25.0927C52.1848 24.9188 52.2739 24.7682 52.3715 24.6409C52.469 24.5094 52.5624 24.3948 52.6515 24.2973C52.906 24.0427 53.1945 23.8476 53.5169 23.7118C53.8393 23.5718 54.1872 23.5018 54.5605 23.5018C55.023 23.5018 55.4175 23.5824 55.7442 23.7436C56.0751 23.9006 56.3445 24.1191 56.5524 24.3991C56.7645 24.6791 56.9193 25.0121 57.0169 25.3982C57.1145 25.78 57.1633 26.1958 57.1633 26.6455V28.9045C57.1633 29.5367 57.0678 30.067 56.8769 30.4955C56.686 30.9282 56.3954 31.2994 56.0051 31.6091C55.8099 31.7618 55.5978 31.8933 55.3687 32.0036C55.1396 32.1182 54.883 32.2136 54.5987 32.29C54.3145 32.3664 53.9963 32.4215 53.6442 32.4555C53.2963 32.4936 52.9018 32.5127 52.4605 32.5127V30.9282ZM54.5605 25.0864C54.1999 25.0864 53.9136 25.1988 53.7015 25.4236C53.4893 25.6485 53.3833 25.9985 53.3833 26.4736C53.3833 26.6603 53.4193 26.8194 53.4915 26.9509C53.5678 27.0824 53.6633 27.1906 53.7778 27.2755C53.8966 27.3561 54.0281 27.4155 54.1724 27.4536C54.3166 27.4918 54.4608 27.5109 54.6051 27.5109H55.5851V26.6455C55.5851 26.4036 55.566 26.1979 55.5278 26.0282C55.4896 25.8542 55.4387 25.71 55.3751 25.5955C55.3157 25.4809 55.2457 25.3897 55.1651 25.3218C55.0887 25.2539 55.0124 25.203 54.936 25.1691C54.8639 25.1352 54.7939 25.1139 54.726 25.1055C54.6581 25.0927 54.603 25.0864 54.5605 25.0864ZM66.9997 28.7073C66.9742 29.2927 66.866 29.8188 66.6751 30.2855C66.4842 30.7564 66.2212 31.1552 65.886 31.4818C65.5509 31.8127 65.1457 32.0673 64.6706 32.2455C64.1954 32.4236 63.6588 32.5127 63.0606 32.5127H62.2715V30.9282H63.0606C63.4678 30.9282 63.82 30.8858 64.1169 30.8009C64.4139 30.7161 64.6578 30.5803 64.8488 30.3936C65.0397 30.207 65.1818 29.963 65.2751 29.6618C65.3685 29.3648 65.4151 29.0021 65.4151 28.5736V24.6982H66.9997V28.7073ZM70.7031 29.1018C70.5418 29.1018 70.3828 29.0933 70.2258 29.0764C70.0688 29.0594 69.9097 29.0361 69.7485 29.0064C69.5873 28.9767 69.4218 28.9406 69.2521 28.8982C69.0824 28.8515 68.9043 28.8006 68.7176 28.7455L67.9603 28.5164L68.4185 26.9891C68.7876 27.1164 69.1694 27.2288 69.564 27.3264C69.9628 27.4239 70.3382 27.4876 70.6903 27.5173C70.8049 27.5258 70.9152 27.53 71.0212 27.53C71.2334 27.53 71.4455 27.5067 71.6576 27.46C71.874 27.4133 72.0267 27.2967 72.1158 27.11C72.1328 27.0761 72.1412 27.0358 72.1412 26.9891C72.1412 26.9594 72.1328 26.9127 72.1158 26.8491C72.0988 26.7855 72.0564 26.7048 71.9885 26.6073L69.6149 23.1455L70.9512 22.28L71.384 22.9482C71.384 22.9524 71.3903 22.9652 71.4031 22.9864C71.42 23.0076 71.4497 23.0521 71.4921 23.12C71.5388 23.1879 71.6024 23.2855 71.6831 23.4127C71.7679 23.5358 71.8782 23.6991 72.014 23.9027C72.1497 24.1064 72.3152 24.3588 72.5103 24.66C72.7097 24.957 72.9473 25.3133 73.2231 25.7291C73.4394 26.0558 73.5731 26.393 73.624 26.7409C73.6367 26.83 73.6431 26.917 73.6431 27.0018C73.6431 27.2564 73.5921 27.5003 73.4903 27.7336C73.4182 27.9033 73.3206 28.0603 73.1976 28.2045C73.0788 28.3445 72.9388 28.4697 72.7776 28.58C72.4764 28.7879 72.1137 28.93 71.6894 29.0064C71.3331 29.07 71.0043 29.1018 70.7031 29.1018ZM89.9536 29.0955H88.2545C88.3521 29.2355 88.4327 29.3882 88.4963 29.5536C88.56 29.7233 88.5918 29.8761 88.5918 30.0118C88.5918 30.4064 88.4836 30.7627 88.2672 31.0809C88.0509 31.4033 87.7581 31.677 87.3891 31.9018C87.02 32.1267 86.5894 32.3006 86.0972 32.4236C85.6094 32.5467 85.0897 32.6082 84.5381 32.6082H82.9091C82.5612 32.6082 82.2281 32.5679 81.91 32.4873C81.5918 32.4067 81.2927 32.29 81.0127 32.1373C80.7327 31.9888 80.476 31.8064 80.2427 31.59C80.0094 31.3779 79.8036 31.1361 79.6254 30.8645C79.2054 30.1858 78.9954 29.3903 78.9954 28.4782C78.9954 28.1982 79.0103 27.9203 79.04 27.6445C79.0739 27.3688 79.1269 27.0867 79.1991 26.7982C79.2754 26.5055 79.373 26.2021 79.4918 25.8882C79.6148 25.57 79.7654 25.2264 79.9436 24.8573L81.3563 25.5382C81.2078 25.8521 81.0848 26.1385 80.9872 26.3973C80.8897 26.6561 80.8091 26.9021 80.7454 27.1355C80.686 27.3645 80.6436 27.5873 80.6181 27.8036C80.5927 28.0158 80.58 28.23 80.58 28.4464C80.58 29.0615 80.7157 29.5833 80.9872 30.0118C81.1824 30.3342 81.4475 30.5803 81.7827 30.75C82.1221 30.9239 82.4975 31.0109 82.9091 31.0109H84.5381C84.8563 31.0109 85.1575 30.9812 85.4418 30.9218C85.726 30.8624 85.9763 30.7797 86.1927 30.6736C86.4091 30.5676 86.5851 30.4445 86.7209 30.3045C86.8566 30.1688 86.9351 30.0203 86.9563 29.8591C86.8333 29.7276 86.6763 29.6152 86.4854 29.5218C86.2988 29.4327 86.0845 29.3564 85.8427 29.2927C85.6051 29.2333 85.3463 29.1867 85.0663 29.1527C84.7906 29.123 84.5021 29.1018 84.2009 29.0891L84.2454 27.5109H89.9536V29.0955ZM91.9767 23.75C91.9852 23.7797 92.0021 23.8497 92.0276 23.96C92.0573 24.0703 92.0891 24.2061 92.1231 24.3673C92.157 24.5242 92.1909 24.7003 92.2249 24.8955C92.2631 25.0906 92.297 25.2879 92.3267 25.4873C92.3606 25.6824 92.3861 25.8733 92.4031 26.06C92.4243 26.2467 92.4349 26.41 92.4349 26.55C92.4349 26.987 92.3628 27.3667 92.2185 27.6891C92.0743 28.0073 91.8855 28.2703 91.6521 28.4782C91.4188 28.6861 91.1558 28.8409 90.8631 28.9427C90.5746 29.0445 90.284 29.0955 89.9912 29.0955H88.2985V27.5109H90.0358C90.0867 27.5109 90.1588 27.5045 90.2521 27.4918C90.3497 27.4748 90.4452 27.4345 90.5385 27.3709C90.6361 27.3073 90.7209 27.2118 90.7931 27.0845C90.8652 26.953 90.9012 26.7748 90.9012 26.55C90.9012 26.4567 90.8928 26.3442 90.8758 26.2127C90.8631 26.077 90.844 25.9327 90.8185 25.78C90.7931 25.6273 90.7634 25.4724 90.7294 25.3155C90.6997 25.1542 90.67 25.0036 90.6403 24.8636C90.6106 24.7194 90.5809 24.59 90.5512 24.4755C90.5215 24.3567 90.4982 24.2655 90.4812 24.2018L91.9767 23.75ZM89.5903 21.1918L90.7358 20.0336L91.9067 21.2045L90.7485 22.3627L89.5903 21.1918ZM97.0298 29.0955C96.5631 29.0955 96.1622 29.0658 95.827 29.0064C95.4919 28.9512 95.2098 28.8685 94.9807 28.7582C94.7516 28.6436 94.567 28.4994 94.427 28.3255C94.2913 28.1515 94.1873 27.9479 94.1152 27.7145C94.0431 27.4812 93.9943 27.2182 93.9689 26.9255C93.9476 26.6285 93.937 26.3018 93.937 25.9455V19.9191H95.5216V25.9455C95.5216 26.2848 95.5322 26.5564 95.5534 26.76C95.5789 26.9636 95.6404 27.1227 95.7379 27.2373C95.8398 27.3476 95.9904 27.4218 96.1898 27.46C96.3934 27.4939 96.6734 27.5109 97.0298 27.5109V29.0955ZM102 27.5109V29.0955H101.599C101.238 29.0955 100.909 29.0467 100.612 28.9491C100.315 28.8515 100.065 28.7073 99.8614 28.5164C99.6239 28.7158 99.3417 28.8621 99.0151 28.9555C98.6926 29.0488 98.3236 29.0955 97.9078 29.0955H96.7814V27.5109H97.9078C98.1666 27.5109 98.3723 27.4876 98.5251 27.4409C98.682 27.39 98.7987 27.3285 98.8751 27.2564C98.9557 27.1842 99.0066 27.1036 99.0278 27.0145C99.0533 26.9255 99.066 26.8385 99.066 26.7536V24.6918H100.644V26.7091C100.644 26.9 100.687 27.0506 100.771 27.1609C100.856 27.267 100.952 27.3476 101.058 27.4027C101.168 27.4536 101.276 27.4855 101.382 27.4982C101.488 27.5067 101.561 27.5109 101.599 27.5109H102ZM98.1369 31.38L99.2823 30.2218L100.453 31.3927L99.2951 32.5509L98.1369 31.38ZM108.586 27.5109V29.0955H107.644C107.284 29.0955 106.955 29.0467 106.658 28.9491C106.361 28.8515 106.111 28.7073 105.907 28.5164C105.67 28.7158 105.387 28.8621 105.061 28.9555C104.738 29.0488 104.369 29.0955 103.953 29.0955H101.752V27.5109H103.953C104.212 27.5109 104.418 27.4876 104.571 27.4409C104.728 27.39 104.844 27.3285 104.921 27.2564C105.001 27.1842 105.052 27.1036 105.073 27.0145C105.099 26.9255 105.112 26.8385 105.112 26.7536V24.6918H106.69V26.7091C106.69 26.9 106.732 27.0506 106.817 27.1609C106.902 27.267 106.997 27.3476 107.103 27.4027C107.214 27.4536 107.322 27.4855 107.428 27.4982C107.534 27.5067 107.606 27.5109 107.644 27.5109H108.586ZM106.041 32.5955L104.972 31.5136L106.028 30.4191L107.123 31.5136L106.041 32.5955ZM103.374 32.6018L102.305 31.52L103.355 30.4255L104.45 31.52L103.374 32.6018ZM115.162 27.5109V29.0955H114.221C113.86 29.0955 113.531 29.0467 113.234 28.9491C112.937 28.8515 112.687 28.7073 112.483 28.5164C112.246 28.7158 111.964 28.8621 111.637 28.9555C111.314 29.0488 110.945 29.0955 110.53 29.0955H108.328V27.5109H110.53C110.788 27.5109 110.994 27.4876 111.147 27.4409C111.304 27.39 111.421 27.3285 111.497 27.2564C111.578 27.1842 111.628 27.1036 111.65 27.0145C111.675 26.9255 111.688 26.8385 111.688 26.7536V24.6918H113.266V26.7091C113.266 26.9 113.308 27.0506 113.393 27.1609C113.478 27.267 113.574 27.3476 113.68 27.4027C113.79 27.4536 113.898 27.4855 114.004 27.4982C114.11 27.5067 114.182 27.5109 114.221 27.5109H115.162ZM113.005 23.05L111.936 21.9682L112.992 20.8736L114.087 21.9682L113.005 23.05ZM110.339 23.0564L109.27 21.9745L110.32 20.88L111.414 21.9745L110.339 23.0564ZM114.904 27.5109H115.725C115.975 27.5109 116.177 27.4897 116.329 27.4473C116.486 27.4048 116.607 27.3433 116.692 27.2627C116.781 27.1779 116.841 27.0761 116.87 26.9573C116.9 26.8385 116.915 26.7027 116.915 26.55V24.6982H118.499V26.5182C118.499 26.8618 118.582 27.1121 118.748 27.2691C118.913 27.4261 119.174 27.5067 119.53 27.5109C119.594 27.5067 119.67 27.4939 119.759 27.4727C119.853 27.4515 119.942 27.4091 120.027 27.3455C120.116 27.2776 120.19 27.1821 120.249 27.0591C120.313 26.9318 120.345 26.7621 120.345 26.55V24.6982H121.923V26.5182C121.923 26.8661 122.006 27.1185 122.171 27.2755C122.337 27.4324 122.606 27.5109 122.979 27.5109C123.081 27.5109 123.181 27.4961 123.279 27.4664C123.38 27.4324 123.472 27.3794 123.552 27.3073C123.633 27.2309 123.699 27.1333 123.749 27.0145C123.8 26.8958 123.83 26.7494 123.839 26.5755V24.6982H125.423V26.5818C125.432 26.9085 125.531 27.1461 125.722 27.2945C125.913 27.4388 126.206 27.5109 126.6 27.5109H127.224V29.0955H126.6C126.163 29.0955 125.784 29.0488 125.461 28.9555C125.139 28.8579 124.861 28.7009 124.628 28.4845C124.411 28.6839 124.157 28.8367 123.864 28.9427C123.575 29.0445 123.281 29.0955 122.979 29.0955C122.581 29.0955 122.231 29.0467 121.929 28.9491C121.632 28.8515 121.367 28.6945 121.134 28.4782C120.913 28.6733 120.665 28.8239 120.389 28.93C120.118 29.0361 119.842 29.0912 119.562 29.0955H119.518C119.136 29.0955 118.796 29.0445 118.499 28.9427C118.202 28.8367 117.944 28.6903 117.723 28.5036C117.227 28.8982 116.561 29.0955 115.725 29.0955H114.904V27.5109ZM120.956 22.0636L119.874 23.1582L118.792 22.0764L119.874 20.9818L120.956 22.0636ZM123.686 22.0382L122.617 23.12L121.503 22.0509L122.598 20.9564L123.686 22.0382ZM122.279 20.2436L121.261 21.2618L120.256 20.2564L121.274 19.2382L122.279 20.2436ZM131.704 23.75C131.713 23.7797 131.73 23.8497 131.755 23.96C131.785 24.0703 131.817 24.2061 131.851 24.3673C131.885 24.5242 131.919 24.7003 131.953 24.8955C131.991 25.0906 132.025 25.2879 132.054 25.4873C132.088 25.6824 132.114 25.8733 132.131 26.06C132.152 26.2467 132.163 26.41 132.163 26.55C132.163 26.987 132.09 27.3667 131.946 27.6891C131.802 28.0073 131.613 28.2703 131.38 28.4782C131.147 28.6861 130.884 28.8409 130.591 28.9427C130.302 29.0445 130.012 29.0955 129.719 29.0955H126.976V27.5109H129.764C129.814 27.5109 129.887 27.5045 129.98 27.4918C130.077 27.4748 130.173 27.4345 130.266 27.3709C130.364 27.3073 130.449 27.2118 130.521 27.0845C130.593 26.953 130.629 26.7748 130.629 26.55C130.629 26.4567 130.62 26.3442 130.604 26.2127C130.591 26.077 130.572 25.9327 130.546 25.78C130.521 25.6273 130.491 25.4724 130.457 25.3155C130.427 25.1542 130.398 25.0036 130.368 24.8636C130.338 24.7194 130.309 24.59 130.279 24.4755C130.249 24.3567 130.226 24.2655 130.209 24.2018L131.704 23.75ZM127.301 31.1891L128.383 30.1073L129.464 31.2018L128.383 32.2836L127.301 31.1891ZM129.954 31.2018L131.049 30.12L132.131 31.2145L131.049 32.2964L129.954 31.2018ZM128.688 32.9836L129.694 31.9782L130.712 32.9964L129.706 34.0018L128.688 32.9836Z" fill="white"/>
</svg>
