<?xml version="1.0" encoding="utf-8"?>
<!-- Generator: Adobe Illustrator 21.0.2, SVG Export Plug-In . SVG Version: 6.00 Build 0)  -->
<svg version="1.1" id="Layer_1" xmlns="http://www.w3.org/2000/svg" xmlns:xlink="http://www.w3.org/1999/xlink" x="0px" y="0px"
	 viewBox="0 0 18 18" style="enable-background:new 0 0 18 18;" xml:space="preserve">
<style type="text/css">
	.st0{fill:#FFFFFF;}
</style>
<g>
	<g>
		<path class="st0" d="M13.1,10.7L13.1,10.7c-1.7-0.8-1.8-0.9-2-0.6c-0.1,0.2-0.6,0.7-0.7,0.9c-0.1,0.1-0.3,0.2-0.5,0.1
			C9.7,11,8.9,10.8,8.1,10C7.4,9.4,7,8.7,6.8,8.4C6.6,8.1,7.1,8,7.5,7.2c0.1-0.2,0-0.3,0-0.4C7.4,6.7,7,5.6,6.8,5.2
			C6.6,4.7,6.4,4.8,6.3,4.8c-0.4,0-0.7,0-1,0.3C4.1,6.4,4.4,7.7,5.4,9.2c2,2.7,3.1,3.2,5.1,3.8c0.5,0.2,1,0.1,1.4,0.1
			c0.4-0.1,1.3-0.5,1.5-1.1c0.2-0.5,0.2-1,0.1-1.1C13.5,10.9,13.4,10.8,13.1,10.7z"/>
		<path class="st0" d="M15.4,2.6C9.6-3,0.1,1.1,0.1,8.9c0,1.6,0.4,3.1,1.2,4.5L0,18l4.8-1.2C10.7,20,18,15.7,18,8.9
			C18,6.5,17.1,4.3,15.4,2.6L15.4,2.6z M16.5,8.9c0,5.7-6.3,9.3-11.3,6.4L5,15.1l-2.8,0.7l0.8-2.7l-0.2-0.3
			C-0.4,7.9,3.2,1.5,9.1,1.5c2,0,3.9,0.8,5.3,2.2C15.7,5,16.5,6.9,16.5,8.9z"/>
	</g>
</g>
</svg>
