<svg width="18" height="18" viewBox="0 0 18 18" fill="none" xmlns="http://www.w3.org/2000/svg">
<g clip-path="url(#clip0)">
<path d="M13.1302 10.7304L13.1235 10.7866C11.4742 9.96463 11.3017 9.85513 11.0887 10.1746C10.941 10.3959 10.5105 10.8976 10.3807 11.0461C10.2495 11.1924 10.119 11.2036 9.89623 11.1024C9.67123 10.9899 8.94898 10.7536 8.09398 9.98863C7.42798 9.39238 6.98098 8.66113 6.84898 8.43613C6.62923 8.05663 7.08898 8.00263 7.50748 7.21063C7.58248 7.05313 7.54423 6.92938 7.48873 6.81763C7.43248 6.70513 6.98473 5.60263 6.79723 5.16313C6.61723 4.72513 6.43198 4.78063 6.29323 4.78063C5.86123 4.74313 5.54548 4.74913 5.26723 5.03863C4.05673 6.36913 4.36198 7.74163 5.39773 9.20113C7.43323 11.8651 8.51773 12.3556 10.5007 13.0366C11.0362 13.2069 11.5245 13.1829 11.9107 13.1274C12.3412 13.0591 13.236 12.5866 13.4227 12.0579C13.614 11.5291 13.614 11.0904 13.5577 10.9891C13.5022 10.8879 13.3552 10.8316 13.1302 10.7304Z" fill="#FF786B"/>
<path d="M15.39 2.58561C9.62325 -2.98914 0.0795 1.05411 0.07575 8.91861C0.07575 10.4906 0.4875 12.0236 1.272 13.3774L0 17.9989L4.75125 16.7599C10.68 19.9624 17.997 15.7099 18 8.92311C18 6.54111 17.07 4.29936 15.3787 2.61486L15.39 2.58561ZM16.5015 8.89836C16.497 14.6231 10.2127 18.1984 5.2425 15.2764L4.9725 15.1159L2.16 15.8471L2.91375 13.1134L2.7345 12.8321C-0.3585 7.90836 3.195 1.47336 9.054 1.47336C11.0445 1.47336 12.9128 2.24961 14.3197 3.65586C15.726 5.05011 16.5015 6.91836 16.5015 8.89836Z" fill="#FF786B"/>
</g>
<defs>
<clipPath id="clip0">
<rect width="18" height="18" fill="white"/>
</clipPath>
</defs>
</svg>
