<svg width="25" height="25" viewBox="0 0 25 25" fill="none" xmlns="http://www.w3.org/2000/svg">
<path d="M23.7236 18.358C23.4535 19.3621 22.6619 20.1536 21.6579 20.424C19.8239 20.9258 12.4875 20.9258 12.4875 20.9258C12.4875 20.9258 5.15141 20.9258 3.31736 20.443C2.33273 20.1729 1.52178 19.3619 1.2517 18.358C0.769043 16.5241 0.769043 12.7208 0.769043 12.7208C0.769043 12.7208 0.769043 8.89833 1.2517 7.08358C1.52206 6.07965 2.31342 5.28815 3.3175 5.01778C5.17073 4.51581 12.4878 4.51581 12.4878 4.51581C12.4878 4.51581 19.8239 4.51581 21.6579 4.99861C22.662 5.26883 23.4535 6.06034 23.7239 7.06427C24.2064 8.89833 24.2064 12.7015 24.2064 12.7015C24.2064 12.7015 24.2257 16.5241 23.7236 18.358ZM10.1518 9.20717V16.2344L16.2523 12.7208L10.1518 9.20717Z" fill="#FF786B"/>
</svg>
