<svg width="25" height="25" viewBox="0 0 25 25" fill="none" xmlns="http://www.w3.org/2000/svg">
<path d="M23.7236 18.3579C23.4535 19.3619 22.6619 20.1534 21.6579 20.4238C19.8239 20.9256 12.4875 20.9256 12.4875 20.9256C12.4875 20.9256 5.15141 20.9256 3.31736 20.4428C2.33273 20.1728 1.52178 19.3618 1.2517 18.3579C0.769043 16.5239 0.769043 12.7206 0.769043 12.7206C0.769043 12.7206 0.769043 8.89817 1.2517 7.08343C1.52206 6.07949 2.31342 5.28799 3.3175 5.01763C5.17073 4.51566 12.4878 4.51566 12.4878 4.51566C12.4878 4.51566 19.8239 4.51566 21.6579 4.99846C22.662 5.26868 23.4535 6.06018 23.7239 7.06412C24.2064 8.89817 24.2064 12.7013 24.2064 12.7013C24.2064 12.7013 24.2257 16.5239 23.7236 18.3579ZM10.1518 9.20702V16.2343L16.2523 12.7206L10.1518 9.20702Z" fill="white"/>
</svg>
