<?xml version="1.0" encoding="utf-8"?>
<!-- Generator: Adobe Illustrator 21.0.2, SVG Export Plug-In . SVG Version: 6.00 Build 0)  -->
<svg version="1.1" id="Layer_1" xmlns="http://www.w3.org/2000/svg" xmlns:xlink="http://www.w3.org/1999/xlink" x="0px" y="0px"
	 viewBox="0 0 99 89" style="enable-background:new 0 0 99 89;" xml:space="preserve">
<style type="text/css">
	.st0{fill:#FFFFFF;}
</style>
<path class="st0" d="M56,20.8H42.9v-5.4c0-2.6-1-5-2.8-6.9s-4.3-2.8-6.9-2.8c-2.4,0-4.7,0.9-6.5,2.5c-1.5,1.3-2.6,3.1-3,5.1h0
	c-0.4,0-0.7-0.1-1.1-0.1c-2.6,0-5,1-6.9,2.8C14,17.8,13,20.3,13,22.9c0,1.2,0.2,2.5,0.7,3.6l0.1,0.2c-0.3,0.3-0.5,0.7-0.6,1.1
	c-2.1,0.3-4,1.3-5.5,2.7c-1.8,1.8-2.8,4.3-2.8,6.9c0,0.8,0.1,1.5,0.3,2.2c-0.9,0.8-1.4,1.9-1.4,3.1c0,0.8,0.3,1.7,0.8,2.3
	c-0.2,0.3-0.3,0.6-0.5,1c-0.7,1.6-1.1,3.3-1.1,5c0,3.1,1.2,6.1,3.5,8.4c1.6,1.6,3.5,2.7,5.7,3.2c0.2,0.6,0.6,1.1,1.1,1.5
	c-0.1,0.6-0.2,1.2-0.2,1.8c0,2.6,1,5,2.8,6.9c1.3,1.3,2.9,2.2,4.6,2.6c0.4,1.5,1.8,2.6,3.3,2.6c0,0,0.1,0,0.1,0
	c0.6,1.1,1.4,2.1,2.3,2.9c1.8,1.6,4.2,2.5,6.6,2.5c2.7,0,5.3-1.1,7.2-3c1.9-1.9,3-4.5,3-7.2V51.1H30.2c-0.3-1.1-1.2-2-2.3-2.3v-8.4
	c1.1-0.3,2-1.2,2.3-2.3h12.8V22.8H56V20.8z M17.3,17.4c1.4-1.4,3.4-2.3,5.4-2.3c0.3,0,0.6,0,0.9,0c0.2,0,0.4,0,0.6,0.1l4.5,4.6
	c-0.6,0.7-0.9,1.5-0.9,2.4c0,0.2,0,0.3,0,0.5l-8.6,3.8c-0.7-0.8-1.6-1.2-2.6-1.2c-0.3,0-0.7,0.1-1,0.1c-0.3-0.8-0.5-1.7-0.5-2.6
	C15,20.8,15.8,18.9,17.3,17.4z M25.8,40.3v3.1l-14.1-1.3c-0.1-0.8-0.5-1.5-1-2.1l5-7.8c0.3,0.1,0.6,0.1,0.9,0.1
	c0.7,0,1.3-0.2,1.9-0.6l5.2,4c-0.2,0.4-0.2,0.8-0.2,1.3C23.3,38.5,24.3,39.8,25.8,40.3z M9.1,31.9c1.1-1.1,2.5-1.8,4.1-2.1
	c0.1,0.5,0.4,0.9,0.7,1.2l-5,7.8c-0.4-0.1-0.8-0.2-1.2-0.2c-0.2,0-0.5,0-0.7,0.1c-0.1-0.4-0.1-0.9-0.1-1.4
	C6.9,35.3,7.7,33.4,9.1,31.9z M11.9,60.4c-1.6-0.5-3-1.3-4.2-2.5c-1.8-1.8-2.9-4.3-2.9-6.9c0-1.4,0.3-2.8,0.9-4.1
	c0.1-0.2,0.2-0.3,0.3-0.5c0.5,0.2,1.1,0.4,1.7,0.4c0.2,0,0.3,0,0.5,0l4.8,12C12.5,59.1,12.1,59.7,11.9,60.4z M10.1,45.9
	c0.6-0.5,1.1-1.1,1.4-1.9l14.3,1.4v3.3c-1.5,0.4-2.5,1.8-2.5,3.3c0,0.4,0.1,0.9,0.3,1.3l-6.4,5.1c-0.6-0.4-1.2-0.6-1.9-0.6
	c-0.1,0-0.2,0-0.3,0L10.1,45.9z M20.5,73.3c-1.3-0.4-2.4-1-3.3-2c-1.4-1.4-2.3-3.4-2.3-5.4c0-0.4,0-0.7,0.1-1.1c0.1,0,0.1,0,0.2,0
	c0.3,0,0.6,0,0.9-0.1l4.9,7.6C20.8,72.6,20.6,72.9,20.5,73.3z M25.1,71.3c-0.4-0.2-0.9-0.3-1.4-0.3c-0.3,0-0.6,0-0.9,0.1l-4.9-7.6
	c0.2-0.3,0.4-0.5,0.5-0.9L30,64c0.1,0.4,0.2,0.8,0.5,1.2L25.1,71.3z M38.5,78.9c-1.5,1.5-3.6,2.4-5.8,2.4c-2,0-3.8-0.7-5.3-2
	c-0.7-0.6-1.3-1.3-1.7-2.1c0.9-0.6,1.4-1.7,1.4-2.8c0-0.7-0.2-1.3-0.5-1.8l5.4-6.2c0.4,0.2,0.9,0.3,1.4,0.3c0.4,0,0.8-0.1,1.1-0.2
	l6.2,8.5C40.3,76.6,39.6,77.9,38.5,78.9z M40.9,72l-4.5-6.2l4.5,2V72z M40.9,65.6l-4.1-1.8c0-0.1,0-0.3,0-0.4c0-0.7-0.2-1.4-0.7-2
	l4.7-6.3L40.9,65.6L40.9,65.6z M30.2,53.1h9.8l-5.3,7c-0.4-0.1-0.8-0.2-1.2-0.2c-0.3,0-0.5,0-0.8,0.1l-3.2-5.5
	C29.7,54.1,30,53.6,30.2,53.1z M30.9,61c-0.3,0.3-0.5,0.6-0.6,1l-11.6-1.3c0-0.2-0.1-0.4-0.2-0.6l6.4-5.1c0.6,0.4,1.3,0.6,2,0.6
	c0.3,0,0.6,0,0.8-0.1L30.9,61z M30.9,35.9h-0.8c-0.4-1.5-1.8-2.5-3.3-2.5c-0.7,0-1.4,0.2-2,0.7l-5.1-4c0.2-0.4,0.3-0.9,0.3-1.3
	c0-0.1,0-0.2,0-0.4l8.6-3.9c0.6,0.7,1.5,1.2,2.5,1.2L30.9,35.9z M30.4,18.8L25.7,14c0.3-1.7,1.2-3.2,2.5-4.4
	c1.4-1.3,3.2-1.9,5.1-1.9c2,0,4,0.8,5.4,2.3c1.4,1.4,2.3,3.4,2.3,5.4v5.4h-3.4h-3.1c-0.6-1.3-1.8-2.1-3.2-2.1
	C30.9,18.7,30.6,18.7,30.4,18.8z M40.9,35.9h-8L33,25.3c0.9-0.5,1.6-1.5,1.7-2.5h2.8h3.4V35.9z"/>
<path class="st0" d="M95.1,46c-0.2-0.3-0.3-0.6-0.5-1c0.5-0.7,0.8-1.5,0.8-2.3c0-1.2-0.5-2.3-1.4-3.1c0.2-0.7,0.3-1.5,0.3-2.2
	c0-2.6-1-5-2.8-6.9c-1.5-1.5-3.4-2.4-5.5-2.7c-0.1-0.4-0.3-0.8-0.6-1.1l0.1-0.2c0.5-1.2,0.7-2.4,0.7-3.6c0-2.6-1-5-2.8-6.9
	c-1.8-1.8-4.3-2.8-6.9-2.8c-0.4,0-0.7,0-1.1,0.1h0c-0.4-2-1.5-3.7-3-5.1c-1.8-1.6-4.1-2.5-6.5-2.5c-2.6,0-5,1-6.9,2.8
	s-2.8,4.3-2.8,6.9v22.6h12.8c0.3,1.1,1.2,2,2.3,2.3v8.4c-1.1,0.3-2,1.2-2.3,2.3H56.1v14.5H43v2h13.1v5.6c0,2.7,1.1,5.3,3,7.2
	c1.9,1.9,4.5,3,7.2,3c2.4,0,4.8-0.9,6.6-2.5c1-0.8,1.7-1.8,2.3-2.9c0,0,0.1,0,0.1,0c1.6,0,3-1.1,3.3-2.6c1.8-0.4,3.4-1.3,4.6-2.6
	c1.8-1.8,2.8-4.3,2.8-6.9c0-0.6-0.1-1.2-0.2-1.8c0.5-0.4,0.9-0.9,1.1-1.5c2.2-0.5,4.1-1.6,5.7-3.2c2.2-2.2,3.5-5.2,3.5-8.4
	C96.2,49.2,95.8,47.6,95.1,46z M85.8,29.8c1.5,0.3,3,1,4.1,2.1c1.4,1.4,2.2,3.4,2.2,5.4c0,0.5,0,0.9-0.1,1.4c-0.2,0-0.5-0.1-0.7-0.1
	c-0.4,0-0.8,0.1-1.2,0.2l-5-7.8C85.4,30.7,85.7,30.3,85.8,29.8z M75.4,35.7l5.2-4c0.6,0.4,1.2,0.6,1.9,0.6c0.3,0,0.6,0,0.9-0.1
	l5,7.8c-0.5,0.6-0.9,1.3-1,2.1l-14.1,1.3v-3.1c1.5-0.4,2.5-1.8,2.5-3.3C75.7,36.5,75.6,36.1,75.4,35.7z M75.4,15.2
	c0.3,0,0.6,0,0.9,0c2,0,4,0.8,5.4,2.3s2.3,3.4,2.3,5.4c0,0.9-0.2,1.8-0.5,2.6c-0.3-0.1-0.7-0.1-1-0.1c-1,0-2,0.5-2.6,1.2l-8.6-3.8
	c0-0.2,0-0.3,0-0.5c0-0.9-0.3-1.8-0.9-2.4l4.5-4.6C75.1,15.3,75.3,15.2,75.4,15.2z M58.1,35.9V22.8h6.2c0.2,1.1,0.8,2,1.7,2.5
	l0.1,10.6H58.1z M64.6,20.8h-6.5v-5.4c0-2,0.8-4,2.3-5.4c1.4-1.4,3.4-2.3,5.4-2.3c1.9,0,3.7,0.7,5.1,1.9c1.3,1.1,2.2,2.7,2.5,4.4
	l-4.7,4.8c-0.3-0.1-0.6-0.1-0.8-0.1C66.4,18.7,65.1,19.5,64.6,20.8z M68.8,35.9h-0.8L68,25.8c1-0.1,1.9-0.5,2.5-1.2l8.6,3.9
	c0,0.1,0,0.2,0,0.4c0,0.5,0.1,0.9,0.3,1.3l-5.1,4c-0.6-0.4-1.3-0.7-2-0.7C70.6,33.4,69.3,34.5,68.8,35.9z M71.4,55.5
	c0.3,0.1,0.5,0.1,0.8,0.1c0.7,0,1.4-0.2,2-0.6l6.4,5.1c-0.1,0.2-0.1,0.4-0.2,0.6L68.8,62c-0.2-0.4-0.4-0.7-0.6-1L71.4,55.5z
	 M68.8,53.1c0.2,0.5,0.4,1,0.8,1.4L66.4,60c-0.3-0.1-0.5-0.1-0.8-0.1c-0.4,0-0.8,0.1-1.2,0.2l-5.3-7H68.8z M58.1,55.1l4.7,6.3
	c-0.4,0.6-0.7,1.3-0.7,2c0,0.1,0,0.3,0,0.4l-4.1,1.8V55.1z M58.1,67.8l4.5-2L58.1,72V67.8z M71.5,79.3c-1.5,1.3-3.4,2-5.3,2
	c-2.2,0-4.2-0.9-5.8-2.4c-1.1-1.1-1.8-2.4-2.2-3.8l6.2-8.5c0.4,0.1,0.7,0.2,1.1,0.2c0.5,0,1-0.1,1.4-0.3l5.4,6.2
	c-0.3,0.5-0.5,1.2-0.5,1.8c0,1.1,0.5,2.1,1.4,2.8C72.8,78,72.2,78.7,71.5,79.3z M76.2,71.2c-0.3-0.1-0.6-0.1-0.9-0.1
	c-0.5,0-1,0.1-1.4,0.3l-5.4-6.2c0.2-0.4,0.4-0.8,0.5-1.2l11.6-1.3c0.1,0.3,0.3,0.6,0.5,0.9L76.2,71.2z M81.8,71.3
	c-0.9,0.9-2.1,1.6-3.3,2c-0.1-0.4-0.3-0.7-0.6-1l4.9-7.6c0.3,0.1,0.6,0.1,0.9,0.1c0.1,0,0.1,0,0.2,0c0.1,0.4,0.1,0.7,0.1,1.1
	C84.1,67.9,83.3,69.9,81.8,71.3z M84.1,57.9c-0.1,0-0.2,0-0.3,0c-0.7,0-1.4,0.2-1.9,0.6l-6.4-5.1c0.2-0.4,0.3-0.9,0.3-1.3
	c0-1.5-1-2.9-2.5-3.3v-3.3l14.3-1.4c0.3,0.7,0.8,1.4,1.4,1.9L84.1,57.9z M91.3,57.9c-1.2,1.2-2.6,2-4.2,2.5
	c-0.2-0.7-0.6-1.3-1.1-1.7l4.8-12c0.2,0,0.3,0,0.5,0c0.6,0,1.2-0.1,1.7-0.4c0.1,0.2,0.2,0.3,0.2,0.5c0.6,1.3,0.9,2.7,0.9,4.1
	C94.1,53.6,93.1,56.1,91.3,57.9z"/>
</svg>
