<svg width="99" height="89" viewBox="0 0 99 89" fill="none" xmlns="http://www.w3.org/2000/svg">
<path fill-rule="evenodd" clip-rule="evenodd" d="M54.4271 16.4161H46.154V12.9878C46.154 11.358 45.5098 9.80917 44.3578 8.65717C43.2058 7.50517 41.657 6.86304 40.0292 6.86304C38.5231 6.86304 37.081 7.4113 35.9567 8.41397C35.0052 9.26304 34.3396 10.3873 34.058 11.6289H34.0516C33.8255 11.6033 33.5994 11.5905 33.3754 11.5905C31.7455 11.5905 30.1967 12.2348 29.0447 13.3868C27.8927 14.5388 27.2506 16.0876 27.2506 17.7153C27.2506 18.4982 27.3999 19.2748 27.6943 20.0022L27.7455 20.1196C27.5791 20.3265 27.4532 20.5654 27.3743 20.8172C26.0623 21.0028 24.8484 21.6129 23.9098 22.5516C22.7578 23.7036 22.1178 25.2524 22.1178 26.8801C22.1178 27.3537 22.1732 27.8273 22.282 28.2881C21.7039 28.7681 21.369 29.4785 21.369 30.238C21.369 30.7713 21.5332 31.2854 21.8426 31.7142C21.7274 31.9084 21.6228 32.111 21.529 32.3158C21.0682 33.3014 20.8335 34.3745 20.8335 35.4625C20.8335 37.4486 21.6164 39.3366 23.0202 40.7425C24.0058 41.7281 25.2495 42.4214 26.6063 42.735C26.7428 43.119 26.986 43.4582 27.306 43.7121C27.2335 44.0897 27.1972 44.4758 27.1972 44.8598C27.1972 46.4897 27.8394 48.0385 28.9914 49.1905C29.7956 49.9948 30.809 50.5601 31.914 50.8204C32.1508 51.7846 33.0191 52.4737 34.0239 52.4737C34.041 52.4737 34.0559 52.4737 34.073 52.4716C34.4463 53.1734 34.9476 53.8028 35.5492 54.3233C36.7162 55.3345 38.1967 55.8849 39.7434 55.8849C41.4522 55.8849 43.0735 55.215 44.281 54.0076C45.4884 52.8001 46.1604 51.1788 46.1604 49.4721V35.5137H38.0815C37.8703 34.8076 37.3114 34.2508 36.6052 34.0374V28.7148C37.3114 28.5036 37.8703 27.9468 38.0815 27.2385H46.154V17.6897H54.4271V16.4161ZM29.9428 14.287C30.8538 13.374 32.0826 12.8662 33.3732 12.8662C33.5524 12.8662 33.7338 12.8748 33.9108 12.8961C34.0282 12.9089 34.1434 12.926 34.2586 12.9473L37.0852 15.823C36.7055 16.2369 36.4943 16.7745 36.4943 17.342C36.4943 17.4444 36.5007 17.5446 36.5135 17.6449L31.1076 20.0705C30.6959 19.582 30.09 19.2961 29.4458 19.2961C29.2324 19.2961 29.0234 19.3281 28.8207 19.3878C28.6244 18.8545 28.5263 18.2892 28.5263 17.7153C28.5242 16.4268 29.0319 15.198 29.9428 14.287ZM35.3316 28.7126V30.6774L26.3994 29.8348C26.3204 29.3356 26.0922 28.8726 25.7466 28.5036L28.8719 23.5628C29.0575 23.614 29.2516 23.6396 29.4458 23.6396C29.8703 23.6396 30.2842 23.5158 30.6362 23.2833L33.9087 25.8113C33.8127 26.063 33.7636 26.3297 33.7636 26.6006C33.7636 27.5798 34.4079 28.4353 35.3316 28.7126ZM24.8079 23.4497C25.5055 22.75 26.3994 22.2828 27.37 22.1078C27.4575 22.3937 27.6047 22.6561 27.7988 22.8822L24.6735 27.823C24.4239 27.7441 24.1636 27.7014 23.8991 27.7014C23.754 27.7014 23.609 27.7142 23.466 27.7398C23.4148 27.4561 23.3892 27.1681 23.3892 26.8801C23.3871 25.5916 23.8948 24.3628 24.8079 23.4497ZM26.5636 41.4081C25.5652 41.118 24.6543 40.5782 23.9183 39.8422C22.7535 38.6774 22.105 37.1116 22.105 35.4625C22.105 34.5601 22.2991 33.6705 22.6788 32.8513C22.7279 32.7446 22.7812 32.6401 22.8367 32.5377C23.1695 32.6913 23.53 32.7702 23.8991 32.7702C24.01 32.7702 24.1188 32.7638 24.2276 32.7489L27.2826 40.3201C26.937 40.6017 26.6852 40.9814 26.5636 41.4081ZM25.4052 32.2732C25.8063 31.9766 26.1114 31.567 26.2799 31.0977L35.3316 31.951V34.0353C34.4079 34.3126 33.7636 35.1702 33.7636 36.1473C33.7636 36.431 33.817 36.7105 33.9236 36.9708L29.8746 40.2134C29.514 39.9681 29.0895 39.838 28.65 39.838C28.5882 39.838 28.5242 39.8401 28.4623 39.8444L25.4052 32.2732ZM31.9908 49.5254C31.1951 49.3014 30.4698 48.8748 29.8852 48.2902C28.9743 47.3772 28.4644 46.1505 28.4644 44.8598C28.4644 44.6316 28.4794 44.4033 28.5114 44.1772C28.5562 44.1793 28.6031 44.1814 28.6479 44.1814C28.8506 44.1814 29.0511 44.1537 29.2452 44.0982L32.3578 48.9046C32.202 49.0881 32.0783 49.2993 31.9908 49.5254ZM34.9007 48.3158C34.6234 48.1921 34.3247 48.1302 34.0196 48.1302C33.817 48.1302 33.6164 48.158 33.4244 48.2134L30.3119 43.407C30.4484 43.2428 30.5615 43.0614 30.6468 42.8652L37.994 43.6652C38.0452 43.9297 38.1434 44.1814 38.2863 44.4097L34.9007 48.3158ZM43.3743 53.1052C42.4079 54.0716 41.1066 54.6113 39.7391 54.6113C38.5018 54.6113 37.3135 54.1718 36.377 53.3612C35.9482 52.99 35.5834 52.5484 35.2954 52.0577C35.8564 51.6502 36.1914 50.9996 36.1914 50.2998C36.1914 49.8881 36.0762 49.4913 35.8607 49.1457L39.2484 45.2374C39.5258 45.3612 39.8244 45.4252 40.1274 45.4252C40.3663 45.4252 40.6052 45.3868 40.8314 45.3078L44.7332 50.6966C44.5092 51.6097 44.0378 52.4417 43.3743 53.1052ZM44.8804 48.7318L42.026 44.7894L44.8804 46.0545V48.7318ZM44.8804 44.6636L42.2842 43.5137C42.2948 43.4284 42.2991 43.3409 42.2991 43.2534C42.2991 42.7948 42.1562 42.3532 41.8874 41.982L44.8783 38.0353V44.6636H44.8804ZM38.0815 36.7852H44.2383L40.8762 41.2161C40.6351 41.1286 40.3834 41.0838 40.1252 41.0838C39.9567 41.0838 39.7882 41.103 39.6239 41.1414L37.5823 37.6513C37.8127 37.4038 37.9834 37.1073 38.0815 36.7852ZM38.5316 41.7836C38.3652 41.9649 38.2287 42.1718 38.1327 42.4001L30.7834 41.6001C30.7578 41.4657 30.7194 41.3334 30.6682 41.2076L34.7172 37.967C35.0842 38.2209 35.5194 38.3553 35.9674 38.3553C36.1423 38.3553 36.3172 38.334 36.4858 38.2934L38.5316 41.7836ZM38.5572 25.9649H38.0794C37.802 25.039 36.9444 24.3948 35.9674 24.3948C35.5044 24.3948 35.0586 24.5398 34.6852 24.8065L31.4468 22.3062C31.5599 22.0417 31.6154 21.758 31.6154 21.4678C31.6154 21.391 31.6111 21.3142 31.6026 21.2396L37.0362 18.8012C37.4308 19.262 37.994 19.5436 38.602 19.5798L38.5572 25.9649ZM38.2138 15.1574L35.2527 12.143C35.4404 11.07 35.9887 10.0929 36.8015 9.36757C37.6932 8.57184 38.8346 8.13664 40.0271 8.13664C41.3178 8.13664 42.5444 8.64437 43.4575 9.55744C44.3684 10.4705 44.8783 11.6972 44.8783 12.9878V16.4161H42.7386H40.7866C40.426 15.6161 39.626 15.0956 38.7407 15.0956C38.5636 15.0956 38.3866 15.1148 38.2138 15.1574ZM44.8804 25.9649H39.8287L39.8735 19.2769C40.4538 18.9356 40.8527 18.3532 40.9572 17.6897H42.7407H44.8804V25.9649Z" fill="white"/>
<path fill-rule="evenodd" clip-rule="evenodd" d="M79.0566 32.3157C78.9606 32.1109 78.856 31.9104 78.7408 31.7141C79.0502 31.2832 79.2166 30.7712 79.2166 30.2379C79.2166 29.4805 78.8816 28.7701 78.3035 28.288C78.4123 27.8272 78.4678 27.3536 78.4678 26.88C78.4678 25.2501 77.8235 23.7013 76.6715 22.5493C75.7328 21.6128 74.5211 21.0027 73.2091 20.8171C73.1302 20.5632 73.0022 20.3264 72.8379 20.1195L72.887 20.0064C73.1814 19.2768 73.3307 18.5003 73.3307 17.7173C73.3307 16.0875 72.6864 14.5387 71.5366 13.3867C70.3846 12.2347 68.8358 11.5947 67.208 11.5947C66.9819 11.5947 66.7558 11.6075 66.5318 11.6331H66.5232C66.2416 10.3915 65.5782 9.26719 64.6267 8.41812C63.5024 7.41545 62.0603 6.86719 60.5542 6.86719C58.9243 6.86719 57.3755 7.50932 56.2235 8.66132C55.0715 9.81332 54.4315 11.3621 54.4315 12.9899V27.2384H62.504C62.7174 27.9445 63.2742 28.5013 63.9803 28.7147V34.0373C63.2742 34.2485 62.7174 34.8053 62.504 35.5136H54.4315V44.6763H46.1584V45.9477H54.4315V49.472C54.4315 51.1787 55.1035 52.8 56.3088 54.0075C57.5163 55.2149 59.1398 55.8848 60.8464 55.8848C62.391 55.8848 63.8715 55.3323 65.0406 54.3232C65.6422 53.8027 66.1435 53.1733 66.5168 52.4715C66.5339 52.4736 66.5488 52.4736 66.5659 52.4736C67.5686 52.4736 68.439 51.7845 68.6736 50.8203C69.7808 50.56 70.792 49.9947 71.5984 49.1883C72.7504 48.0363 73.3904 46.4875 73.3904 44.8597C73.3904 44.4757 73.3542 44.0896 73.2816 43.712C73.6016 43.4581 73.8427 43.1211 73.9792 42.7349C75.3382 42.4213 76.5798 41.728 77.5654 40.7424C78.9691 39.3365 79.752 37.4485 79.752 35.4624C79.7499 34.3723 79.5152 33.3013 79.0566 32.3157ZM73.2112 22.1077C74.1819 22.2827 75.0736 22.752 75.7734 23.4496C76.6843 24.3627 77.192 25.5893 77.192 26.88C77.192 27.168 77.1664 27.456 77.1174 27.7397C76.9744 27.7141 76.8294 27.7013 76.6843 27.7013C76.4219 27.7013 76.1595 27.7419 75.9099 27.8229L72.7846 22.8821C72.9766 22.656 73.1238 22.3936 73.2112 22.1077ZM66.6704 25.8112L69.943 23.2832C70.2971 23.5157 70.7088 23.6395 71.1334 23.6395C71.3275 23.6395 71.5195 23.6139 71.7072 23.5627L74.8326 28.5035C74.487 28.8725 74.2587 29.3355 74.1798 29.8347L65.2475 30.6773V28.7125C66.1712 28.4352 66.8155 27.5776 66.8155 26.6005C66.8176 26.3317 66.7664 26.0629 66.6704 25.8112ZM66.6683 12.8939C66.8475 12.8747 67.0267 12.864 67.2059 12.864C68.4966 12.864 69.7232 13.3717 70.6363 14.2848C71.5494 15.1979 72.0571 16.4245 72.0571 17.7152C72.0571 18.2869 71.959 18.8501 71.7627 19.3877C71.56 19.3259 71.3488 19.296 71.1376 19.296C70.4912 19.296 69.8875 19.5819 69.4758 20.0704L64.0656 17.6405C64.0784 17.5403 64.0848 17.44 64.0848 17.3376C64.0848 16.7723 63.8736 16.2325 63.4939 15.8187L66.3206 12.9429C66.4336 12.9237 66.551 12.9067 66.6683 12.8939ZM55.6987 25.9648V17.6896H59.624C59.7286 18.3531 60.1275 18.9376 60.7078 19.2768L60.7547 25.9648H55.6987ZM59.7947 16.416H55.6987V12.9877C55.6987 11.6971 56.2064 10.4683 57.1195 9.55732C58.0326 8.64426 59.2592 8.13652 60.5499 8.13652C61.7446 8.13652 62.8859 8.57172 63.7776 9.36746C64.5904 10.0928 65.1387 11.0699 65.3286 12.1429L62.3654 15.1573C62.1947 15.1168 62.0176 15.0955 61.8406 15.0955C60.9531 15.0955 60.1552 15.616 59.7947 16.416ZM62.4998 25.9648H62.024L61.9792 19.5797C62.5872 19.5435 63.1504 19.2619 63.5451 18.8011L68.9787 21.2395C68.9702 21.3163 68.9659 21.3931 68.9659 21.4677C68.9659 21.7579 69.0235 22.0416 69.1344 22.3061L65.8982 24.8064C65.5248 24.5376 65.079 24.3947 64.616 24.3947C63.6347 24.3947 62.7771 25.0389 62.4998 25.9648ZM64.0934 38.2912C64.264 38.3317 64.439 38.3531 64.6139 38.3531C65.0619 38.3531 65.4971 38.2165 65.864 37.9648L69.9131 41.2053C69.8619 41.3333 69.8235 41.4635 69.7979 41.5979L62.4486 42.3979C62.3504 42.1717 62.216 41.9627 62.0496 41.7813L64.0934 38.2912ZM62.4998 36.7851C62.5958 37.1072 62.7664 37.4037 62.9968 37.6512L60.9552 41.1413C60.791 41.1029 60.6224 41.0837 60.4539 41.0837C60.1979 41.0837 59.944 41.1285 59.7051 41.216L56.3451 36.7851H62.4998ZM55.6987 38.0373L58.6918 41.984C58.4251 42.3531 58.28 42.7947 58.28 43.2555C58.28 43.3408 58.2843 43.4283 58.295 43.5157L55.6987 44.6656V38.0373ZM55.6987 46.0544L58.5531 44.7893L55.6987 48.7317V46.0544ZM64.2043 53.3611C63.2678 54.1717 62.0795 54.6112 60.8422 54.6112C59.4747 54.6112 58.1734 54.0736 57.207 53.1051C56.5414 52.4395 56.0699 51.6096 55.848 50.6965L59.7499 45.3077C59.976 45.3867 60.2128 45.4251 60.4539 45.4251C60.759 45.4251 61.0576 45.3611 61.335 45.2373L64.7227 49.1456C64.5051 49.4912 64.392 49.888 64.392 50.2997C64.392 51.0016 64.727 51.6523 65.288 52.0576C65 52.5504 64.6352 52.9899 64.2043 53.3611ZM67.1568 48.2133C66.9627 48.1579 66.7622 48.1301 66.5616 48.1301C66.2566 48.1301 65.9579 48.192 65.6806 48.3157L62.2928 44.4096C62.4358 44.1813 62.536 43.9275 62.5872 43.6651L69.9366 42.8651C70.0219 43.0613 70.135 43.2448 70.2715 43.4069L67.1568 48.2133ZM70.6939 48.2901C70.1094 48.8747 69.384 49.3013 68.5883 49.5253C68.5008 49.2992 68.3771 49.088 68.2214 48.9024L71.3339 44.096C71.528 44.1515 71.7286 44.1792 71.9291 44.1792C71.9739 44.1792 72.0187 44.1771 72.0656 44.1749C72.0976 44.4011 72.1126 44.6293 72.1126 44.8576C72.1147 46.1483 71.6048 47.3771 70.6939 48.2901ZM72.119 39.8443C72.055 39.84 71.9931 39.8379 71.9312 39.8379C71.4939 39.8379 71.0672 39.968 70.7067 40.2133L66.6576 36.9728C66.7622 36.7104 66.8176 36.4331 66.8176 36.1493C66.8176 35.1723 66.1734 34.3147 65.2496 34.0373V31.9531L74.3014 31.0997C74.472 31.5691 74.7771 31.9765 75.1782 32.2752L72.119 39.8443ZM76.663 39.84C75.927 40.576 75.016 41.1157 74.0176 41.4059C73.896 40.9792 73.6422 40.5995 73.2966 40.32L76.3536 32.7488C76.4624 32.7637 76.5734 32.7701 76.6822 32.7701C77.0512 32.7701 77.4139 32.6912 77.7446 32.5376C77.8 32.64 77.8534 32.7445 77.9024 32.8512C78.2822 33.6704 78.4763 34.5579 78.4763 35.4624C78.4763 37.1093 77.8278 38.6752 76.663 39.84Z" fill="#FF786B"/>
<path d="M17.0157 73V61.6261H20.5148C21.5165 61.6261 22.4116 61.851 23.2 62.3009C23.9884 62.7507 24.6029 63.3907 25.0435 64.2209C25.4887 65.051 25.7113 65.9948 25.7113 67.0522V67.5809C25.7113 68.6383 25.4933 69.5774 25.0574 70.3983C24.6214 71.2191 24.007 71.8568 23.2139 72.3113C22.4255 72.7658 21.5328 72.9954 20.5357 73H17.0157ZM19.36 63.5252V71.1148H20.4939C21.4075 71.1148 22.1055 70.8157 22.5878 70.2174C23.0748 69.6191 23.3252 68.7635 23.3391 67.6504V67.0452C23.3391 65.8904 23.098 65.0162 22.6157 64.4226C22.138 63.8243 21.4377 63.5252 20.5148 63.5252H19.36ZM33.8428 70.6557H29.7315L28.9523 73H26.4619L30.6984 61.6261H32.8689L37.1263 73H34.6358L33.8428 70.6557ZM30.3645 68.7565H33.2097L31.7836 64.4991L30.3645 68.7565ZM44.6084 70.6557H40.4971L39.718 73H37.2275L41.464 61.6261H43.6345L47.8919 73H45.4014L44.6084 70.6557ZM41.1301 68.7565H43.9754L42.5493 64.4991L41.1301 68.7565ZM52.014 61.6261L54.9358 69.8765L57.8436 61.6261H60.9253V73H58.5671V69.8904L58.8036 64.52L55.7358 73H54.1218L51.061 64.5339L51.2975 69.8904V73H48.9532V61.6261H52.014ZM72.3114 67.567C72.3114 68.6893 72.112 69.6725 71.7131 70.5165C71.3189 71.3606 70.7531 72.0122 70.0157 72.4713C69.283 72.9258 68.4389 73.153 67.4836 73.153C66.5421 73.153 65.7004 72.9281 64.9583 72.4783C64.221 72.0238 63.6482 71.3768 63.2401 70.5374C62.8366 69.6933 62.6325 68.7241 62.6279 67.6296V67.073C62.6279 65.9507 62.8296 64.9652 63.2331 64.1165C63.6366 63.2632 64.2047 62.6093 64.9375 62.1548C65.6749 61.6957 66.5166 61.4661 67.4627 61.4661C68.4134 61.4661 69.2575 61.6957 69.9949 62.1548C70.7323 62.6093 71.3027 63.2632 71.7062 64.1165C72.1096 64.9652 72.3114 65.9461 72.3114 67.0591V67.567ZM69.9392 67.0522C69.9392 65.8603 69.7259 64.9559 69.2992 64.3391C68.8725 63.7177 68.2627 63.407 67.4696 63.407C66.6812 63.407 66.0737 63.713 65.647 64.3252C65.2204 64.9374 65.0047 65.8348 65.0001 67.0174V67.567C65.0001 68.731 65.2134 69.633 65.6401 70.273C66.0667 70.913 66.6812 71.233 67.4836 71.233C68.272 71.233 68.8772 70.9246 69.2992 70.3078C69.7212 69.691 69.9346 68.7913 69.9392 67.6087V67.0522ZM79.9148 70.0157C79.9148 69.5751 79.7571 69.2365 79.4417 69C79.131 68.7588 78.5699 68.5084 77.7583 68.2487C76.9467 67.9843 76.3043 67.7246 75.8313 67.4696C74.5374 66.7693 73.8904 65.8278 73.8904 64.6452C73.8904 64.033 74.062 63.4858 74.4052 63.0035C74.753 62.5212 75.2516 62.1455 75.9009 61.8765C76.5501 61.6029 77.2783 61.4661 78.0852 61.4661C78.8968 61.4661 79.6203 61.6145 80.2557 61.9113C80.891 62.2035 81.3849 62.6186 81.7374 63.1565C82.0899 63.6945 82.2661 64.3043 82.2661 64.9861H79.9217C79.9217 64.462 79.7571 64.0562 79.4278 63.7687C79.1032 63.4812 78.6417 63.3374 78.0435 63.3374C77.473 63.3374 77.0278 63.458 76.7078 63.6991C76.3925 63.9403 76.2348 64.2603 76.2348 64.6591C76.2348 65.0255 76.4203 65.3339 76.7913 65.5843C77.167 65.8348 77.7165 66.069 78.44 66.287C79.771 66.6904 80.7403 67.189 81.3478 67.7826C81.96 68.3762 82.2661 69.1159 82.2661 70.0017C82.2661 70.9849 81.8928 71.7571 81.1461 72.3183C80.4041 72.8748 79.4023 73.153 78.1409 73.153C77.2643 73.153 76.4667 72.993 75.7478 72.673C75.029 72.353 74.4794 71.9148 74.0991 71.3583C73.7235 70.8017 73.5357 70.1571 73.5357 69.4243H75.8939C75.8939 70.6765 76.6429 71.3026 78.1409 71.3026C78.6974 71.3026 79.131 71.1913 79.4417 70.9687C79.7571 70.7414 79.9148 70.4238 79.9148 70.0157Z" fill="white"/>
<path d="M0.81 84V77.6022H2.59826C3.12261 77.6022 3.59217 77.7222 4.00696 77.9622C4.42435 78.1996 4.74913 78.5413 4.9813 78.9874C5.21348 79.4309 5.32957 79.937 5.32957 80.5057V81.0965C5.32957 81.6678 5.21348 82.1752 4.9813 82.6187C4.75174 83.0596 4.42696 83.4 4.00696 83.64C3.58696 83.88 3.10435 84 2.55913 84H0.81ZM1.35 78.0639V83.5422H2.56304C3.23609 83.5422 3.77609 83.3191 4.18304 82.873C4.59 82.427 4.79348 81.823 4.79348 81.0613V80.4978C4.79348 79.7622 4.59261 79.1739 4.19087 78.733C3.79174 78.2896 3.26348 78.0665 2.60609 78.0639H1.35ZM7.17311 84H6.64485V79.2457H7.17311V84ZM6.55094 77.8683C6.55094 77.7691 6.58355 77.6857 6.64877 77.6178C6.71398 77.5474 6.80268 77.5122 6.91485 77.5122C7.02442 77.5122 7.11181 77.5474 7.17703 77.6178C7.24485 77.6857 7.27877 77.7691 7.27877 77.8683C7.27877 77.97 7.24485 78.0548 7.17703 78.1226C7.11181 78.1878 7.02442 78.2204 6.91485 78.2204C6.80268 78.2204 6.71398 78.1878 6.64877 78.1226C6.58355 78.0548 6.55094 77.97 6.55094 77.8683ZM8.38363 81.5778C8.38363 80.8343 8.54798 80.2448 8.87668 79.8091C9.20798 79.3735 9.65668 79.1557 10.2228 79.1557C10.8697 79.1557 11.3615 79.4139 11.698 79.9304L11.7254 79.2457H12.2184V83.9022C12.2184 84.5152 12.0462 85.0004 11.7019 85.3578C11.3602 85.7152 10.8958 85.8939 10.3089 85.8939C9.97755 85.8939 9.6619 85.8196 9.3619 85.6709C9.0619 85.5248 8.82581 85.3278 8.65363 85.08L8.94711 84.763C9.32016 85.2222 9.76233 85.4517 10.2736 85.4517C10.7145 85.4517 11.0575 85.3213 11.3028 85.0604C11.548 84.8022 11.6758 84.4435 11.6862 83.9843V83.3857C11.3497 83.8526 10.858 84.0861 10.211 84.0861C9.66059 84.0861 9.21842 83.867 8.8845 83.4287C8.55059 82.9904 8.38363 82.397 8.38363 81.6483V81.5778ZM8.91581 81.6717C8.91581 82.277 9.03711 82.7557 9.27972 83.1078C9.52494 83.4574 9.86798 83.6322 10.3089 83.6322C10.9558 83.6322 11.4149 83.3413 11.6862 82.7596V80.5487C11.5636 80.2461 11.3862 80.0152 11.1541 79.8561C10.9219 79.6943 10.6428 79.6135 10.3167 79.6135C9.87581 79.6135 9.53146 79.787 9.28363 80.1339C9.03842 80.4809 8.91581 80.9935 8.91581 81.6717ZM14.178 84H13.6497V79.2457H14.178V84ZM13.5558 77.8683C13.5558 77.7691 13.5884 77.6857 13.6536 77.6178C13.7189 77.5474 13.8076 77.5122 13.9197 77.5122C14.0293 77.5122 14.1167 77.5474 14.1819 77.6178C14.2497 77.6857 14.2836 77.7691 14.2836 77.8683C14.2836 77.97 14.2497 78.0548 14.1819 78.1226C14.1167 78.1878 14.0293 78.2204 13.9197 78.2204C13.8076 78.2204 13.7189 78.1878 13.6536 78.1226C13.5884 78.0548 13.5558 77.97 13.5558 77.8683ZM16.4176 78.0287V79.2457H17.4037V79.6761H16.4176V82.8457C16.4176 83.1091 16.4646 83.3061 16.5585 83.4365C16.655 83.5643 16.8142 83.6283 17.0359 83.6283C17.1246 83.6283 17.2668 83.6126 17.4624 83.5813L17.4859 84.0117C17.3476 84.0613 17.1598 84.0861 16.9224 84.0861C16.5624 84.0861 16.3003 83.9817 16.1359 83.773C15.9716 83.5643 15.8894 83.2565 15.8894 82.8496V79.6761H15.0168V79.2457H15.8894V78.0287H16.4176ZM21.4927 84C21.4406 83.8513 21.4066 83.6296 21.391 83.3348C21.2084 83.5774 20.9736 83.7639 20.6866 83.8943C20.4023 84.0222 20.0997 84.0861 19.7788 84.0861C19.3223 84.0861 18.9519 83.9596 18.6675 83.7065C18.3858 83.4509 18.2449 83.1287 18.2449 82.74C18.2449 82.2757 18.4379 81.9091 18.824 81.6404C19.2101 81.3717 19.7475 81.2374 20.4362 81.2374H21.3871V80.6935C21.3871 80.3543 21.2827 80.0883 21.074 79.8952C20.8653 79.6996 20.5601 79.6017 20.1584 79.6017C19.7906 79.6017 19.4866 79.6957 19.2466 79.8835C19.0066 80.0713 18.8866 80.297 18.8866 80.5604L18.3623 80.5565C18.3623 80.1783 18.5371 79.8509 18.8866 79.5743C19.2388 79.2952 19.6719 79.1557 20.1858 79.1557C20.7153 79.1557 21.1327 79.2887 21.4379 79.5548C21.7458 79.8209 21.9036 80.1913 21.9114 80.6661V82.9161C21.9114 83.3752 21.9597 83.7196 22.0562 83.9491V84H21.4927ZM19.8414 83.6204C20.1936 83.6204 20.5079 83.5357 20.7845 83.3661C21.061 83.1965 21.2619 82.9696 21.3871 82.6852V81.6404H20.4479C19.9236 81.6457 19.5127 81.7422 19.2153 81.93C18.9206 82.1152 18.7732 82.3696 18.7732 82.693C18.7732 82.9617 18.8723 83.1835 19.0706 83.3583C19.2688 83.533 19.5258 83.6204 19.8414 83.6204ZM23.9075 84H23.3792V77.25H23.9075V84ZM28.8952 77.6022L31.2548 83.2487L33.6222 77.6022H34.3422V84H33.8022V81.2139L33.8452 78.3574L31.4661 84H31.0474L28.6761 78.3809L28.7191 81.1943V84H28.1791V77.6022H28.8952ZM38.8423 84C38.7902 83.8513 38.7563 83.6296 38.7406 83.3348C38.558 83.5774 38.3232 83.7639 38.0362 83.8943C37.7519 84.0222 37.4493 84.0861 37.1284 84.0861C36.6719 84.0861 36.3015 83.9596 36.0171 83.7065C35.7354 83.4509 35.5945 83.1287 35.5945 82.74C35.5945 82.2757 35.7876 81.9091 36.1736 81.6404C36.5597 81.3717 37.0971 81.2374 37.7858 81.2374H38.7367V80.6935C38.7367 80.3543 38.6323 80.0883 38.4236 79.8952C38.2149 79.6996 37.9097 79.6017 37.508 79.6017C37.1402 79.6017 36.8363 79.6957 36.5962 79.8835C36.3563 80.0713 36.2363 80.297 36.2363 80.5604L35.7119 80.5565C35.7119 80.1783 35.8867 79.8509 36.2363 79.5743C36.5884 79.2952 37.0215 79.1557 37.5354 79.1557C38.0649 79.1557 38.4823 79.2887 38.7876 79.5548C39.0954 79.8209 39.2532 80.1913 39.261 80.6661V82.9161C39.261 83.3752 39.3093 83.7196 39.4058 83.9491V84H38.8423ZM37.191 83.6204C37.5432 83.6204 37.8576 83.5357 38.1341 83.3661C38.4106 83.1965 38.6115 82.9696 38.7367 82.6852V81.6404H37.7976C37.2732 81.6457 36.8623 81.7422 36.5649 81.93C36.2702 82.1152 36.1228 82.3696 36.1228 82.693C36.1228 82.9617 36.2219 83.1835 36.4202 83.3583C36.6184 83.533 36.8754 83.6204 37.191 83.6204ZM42.8654 79.6917C42.7532 79.6735 42.6345 79.6643 42.5093 79.6643C42.1806 79.6643 41.9027 79.7557 41.6758 79.9383C41.4488 80.1209 41.2871 80.387 41.1906 80.7365V84H40.6662V79.2457H41.1827L41.1906 80.0009C41.4697 79.4374 41.9158 79.1557 42.5288 79.1557C42.6775 79.1557 42.7936 79.1752 42.8771 79.2143L42.8654 79.6917ZM44.8293 81.6052L44.2267 82.1843V84H43.6985V77.25H44.2267V81.57L44.7237 81.0339L46.5432 79.2457H47.2045L45.1893 81.2491L47.3806 84H46.7545L44.8293 81.6052ZM49.9448 84.0861C49.5405 84.0861 49.1739 83.987 48.8453 83.7887C48.5192 83.5904 48.2648 83.3139 48.0822 82.9591C47.9022 82.6017 47.8122 82.2013 47.8122 81.7578V81.57C47.8122 81.1135 47.9009 80.7026 48.0783 80.3374C48.2557 79.9696 48.5022 79.6813 48.8179 79.4726C49.1361 79.2613 49.4792 79.1557 49.847 79.1557C50.4235 79.1557 50.8813 79.3539 51.2205 79.7504C51.5596 80.1443 51.7292 80.6817 51.7292 81.3626V81.6561H48.3366V81.7578C48.3366 82.2978 48.4905 82.7478 48.7983 83.1078C49.1087 83.4652 49.4974 83.6439 49.9644 83.6439C50.2461 83.6439 50.4939 83.593 50.7079 83.4913C50.9244 83.387 51.1213 83.2226 51.2987 82.9983L51.6274 83.2487C51.2413 83.807 50.6805 84.0861 49.9448 84.0861ZM49.847 79.6057C49.4505 79.6057 49.1166 79.7504 48.8453 80.04C48.5766 80.3296 48.4122 80.7196 48.3522 81.21H51.2048V81.1513C51.1892 80.6948 51.0587 80.323 50.8135 80.0361C50.5683 79.7491 50.2461 79.6057 49.847 79.6057ZM53.569 78.0287V79.2457H54.5551V79.6761H53.569V82.8457C53.569 83.1091 53.616 83.3061 53.7099 83.4365C53.8064 83.5643 53.9655 83.6283 54.1873 83.6283C54.276 83.6283 54.4181 83.6126 54.6138 83.5813L54.6373 84.0117C54.499 84.0613 54.3112 84.0861 54.0738 84.0861C53.7138 84.0861 53.4516 83.9817 53.2873 83.773C53.1229 83.5643 53.0408 83.2565 53.0408 82.8496V79.6761H52.1681V79.2457H53.0408V78.0287H53.569ZM56.2337 84H55.7054V79.2457H56.2337V84ZM55.6115 77.8683C55.6115 77.7691 55.6441 77.6857 55.7093 77.6178C55.7745 77.5474 55.8632 77.5122 55.9754 77.5122C56.085 77.5122 56.1724 77.5474 56.2376 77.6178C56.3054 77.6857 56.3393 77.7691 56.3393 77.8683C56.3393 77.97 56.3054 78.0548 56.2376 78.1226C56.1724 78.1878 56.085 78.2204 55.9754 78.2204C55.8632 78.2204 55.7745 78.1878 55.7093 78.1226C55.6441 78.0548 55.6115 77.97 55.6115 77.8683ZM58.1564 79.2457L58.1759 80.0596C58.3533 79.7648 58.5751 79.5404 58.8411 79.3865C59.1098 79.2326 59.4046 79.1557 59.7255 79.1557C60.2368 79.1557 60.6164 79.3004 60.8642 79.59C61.112 79.877 61.2385 80.3074 61.2437 80.8813V84H60.7194V80.8774C60.7168 80.4522 60.6268 80.1352 60.4494 79.9265C60.272 79.7178 59.989 79.6135 59.6003 79.6135C59.2742 79.6135 58.9859 79.7152 58.7355 79.9187C58.4851 80.1222 58.2998 80.3974 58.1798 80.7443V84H57.6555V79.2457H58.1564ZM62.3836 81.5778C62.3836 80.8343 62.548 80.2448 62.8767 79.8091C63.208 79.3735 63.6567 79.1557 64.2228 79.1557C64.8697 79.1557 65.3615 79.4139 65.698 79.9304L65.7254 79.2457H66.2184V83.9022C66.2184 84.5152 66.0462 85.0004 65.7019 85.3578C65.3602 85.7152 64.8958 85.8939 64.3089 85.8939C63.9775 85.8939 63.6619 85.8196 63.3619 85.6709C63.0619 85.5248 62.8258 85.3278 62.6536 85.08L62.9471 84.763C63.3202 85.2222 63.7623 85.4517 64.2736 85.4517C64.7145 85.4517 65.0575 85.3213 65.3028 85.0604C65.548 84.8022 65.6758 84.4435 65.6862 83.9843V83.3857C65.3497 83.8526 64.858 84.0861 64.211 84.0861C63.6606 84.0861 63.2184 83.867 62.8845 83.4287C62.5506 82.9904 62.3836 82.397 62.3836 81.6483V81.5778ZM62.9158 81.6717C62.9158 82.277 63.0371 82.7557 63.2797 83.1078C63.5249 83.4574 63.868 83.6322 64.3089 83.6322C64.9558 83.6322 65.4149 83.3413 65.6862 82.7596V80.5487C65.5636 80.2461 65.3862 80.0152 65.1541 79.8561C64.9219 79.6943 64.6428 79.6135 64.3167 79.6135C63.8758 79.6135 63.5315 79.787 63.2836 80.1339C63.0384 80.4809 62.9158 80.9935 62.9158 81.6717ZM73.8883 82.2078H70.9848L70.3274 84H69.76L72.1783 77.6022H72.6948L75.117 84H74.5535L73.8883 82.2078ZM71.153 81.7461H73.72L72.4365 78.2596L71.153 81.7461ZM75.7166 81.5778C75.7166 80.8343 75.881 80.2448 76.2097 79.8091C76.541 79.3735 76.9897 79.1557 77.5558 79.1557C78.2027 79.1557 78.6945 79.4139 79.031 79.9304L79.0584 79.2457H79.5514V83.9022C79.5514 84.5152 79.3793 85.0004 79.0349 85.3578C78.6932 85.7152 78.2288 85.8939 77.6419 85.8939C77.3106 85.8939 76.9949 85.8196 76.6949 85.6709C76.3949 85.5248 76.1588 85.3278 75.9866 85.08L76.2801 84.763C76.6532 85.2222 77.0953 85.4517 77.6066 85.4517C78.0475 85.4517 78.3906 85.3213 78.6358 85.0604C78.881 84.8022 79.0088 84.4435 79.0193 83.9843V83.3857C78.6827 83.8526 78.191 84.0861 77.544 84.0861C76.9936 84.0861 76.5514 83.867 76.2175 83.4287C75.8836 82.9904 75.7166 82.397 75.7166 81.6483V81.5778ZM76.2488 81.6717C76.2488 82.277 76.3701 82.7557 76.6127 83.1078C76.8579 83.4574 77.201 83.6322 77.6419 83.6322C78.2888 83.6322 78.7479 83.3413 79.0193 82.7596V80.5487C78.8966 80.2461 78.7193 80.0152 78.4871 79.8561C78.2549 79.6943 77.9758 79.6135 77.6497 79.6135C77.2088 79.6135 76.8645 79.787 76.6166 80.1339C76.3714 80.4809 76.2488 80.9935 76.2488 81.6717ZM82.7632 84.0861C82.3588 84.0861 81.9923 83.987 81.6636 83.7887C81.3375 83.5904 81.0832 83.3139 80.9006 82.9591C80.7206 82.6017 80.6306 82.2013 80.6306 81.7578V81.57C80.6306 81.1135 80.7193 80.7026 80.8967 80.3374C81.074 79.9696 81.3206 79.6813 81.6362 79.4726C81.9545 79.2613 82.2975 79.1557 82.6654 79.1557C83.2419 79.1557 83.6997 79.3539 84.0388 79.7504C84.378 80.1443 84.5475 80.6817 84.5475 81.3626V81.6561H81.1549V81.7578C81.1549 82.2978 81.3088 82.7478 81.6167 83.1078C81.9271 83.4652 82.3158 83.6439 82.7827 83.6439C83.0645 83.6439 83.3123 83.593 83.5262 83.4913C83.7427 83.387 83.9397 83.2226 84.1171 82.9983L84.4458 83.2487C84.0597 83.807 83.4988 84.0861 82.7632 84.0861ZM82.6654 79.6057C82.2688 79.6057 81.9349 79.7504 81.6636 80.04C81.3949 80.3296 81.2306 80.7196 81.1706 81.21H84.0232V81.1513C84.0075 80.6948 83.8771 80.323 83.6319 80.0361C83.3867 79.7491 83.0645 79.6057 82.6654 79.6057ZM86.0704 79.2457L86.09 80.0596C86.2674 79.7648 86.4891 79.5404 86.7552 79.3865C87.0239 79.2326 87.3187 79.1557 87.6395 79.1557C88.1509 79.1557 88.5304 79.3004 88.7782 79.59C89.0261 79.877 89.1526 80.3074 89.1578 80.8813V84H88.6335V80.8774C88.6309 80.4522 88.5409 80.1352 88.3635 79.9265C88.1861 79.7178 87.903 79.6135 87.5143 79.6135C87.1882 79.6135 86.9 79.7152 86.6495 79.9187C86.3991 80.1222 86.2139 80.3974 86.0939 80.7443V84H85.5695V79.2457H86.0704ZM92.266 83.6439C92.6338 83.6439 92.9416 83.5409 93.1894 83.3348C93.4373 83.1287 93.5703 82.8613 93.5886 82.5326H94.0973C94.0816 82.8222 93.9903 83.087 93.8233 83.327C93.6564 83.5643 93.4347 83.7509 93.1581 83.8865C92.8816 84.0196 92.5842 84.0861 92.266 84.0861C91.6425 84.0861 91.1481 83.8696 90.7829 83.4365C90.4203 83.0035 90.239 82.4204 90.239 81.6874V81.5309C90.239 81.0613 90.3199 80.6465 90.4816 80.2865C90.646 79.9265 90.8807 79.6487 91.186 79.453C91.4938 79.2548 91.8525 79.1557 92.262 79.1557C92.7838 79.1557 93.2142 79.3109 93.5533 79.6213C93.8925 79.9317 94.0738 80.3413 94.0973 80.85H93.5886C93.5651 80.477 93.4307 80.177 93.1855 79.95C92.9429 79.7204 92.6351 79.6057 92.262 79.6057C91.7873 79.6057 91.4181 79.7778 91.1547 80.1222C90.8938 80.4639 90.7633 80.9439 90.7633 81.5622V81.7148C90.7633 82.32 90.8938 82.7935 91.1547 83.1352C91.4181 83.4743 91.7886 83.6439 92.266 83.6439ZM96.6561 83.2448L98.0453 79.2457H98.6127L96.5818 84.81L96.4761 85.0565C96.2153 85.633 95.8135 85.9213 95.2709 85.9213C95.1431 85.9213 95.0075 85.9004 94.864 85.8587L94.8601 85.4243L95.134 85.4517C95.3922 85.4517 95.6009 85.3878 95.7601 85.26C95.9192 85.1322 96.0548 84.913 96.167 84.6026L96.3979 83.9609L94.6057 79.2457H95.1809L96.6561 83.2448Z" fill="white"/>
</svg>
