<svg width="202" height="202" viewBox="0 0 202 202" fill="none" xmlns="http://www.w3.org/2000/svg">
<path fill-rule="evenodd" clip-rule="evenodd" d="M118.13 51.8132H92.0178V40.9928C92.0178 35.8485 89.9844 30.9601 86.3484 27.3241C82.7123 23.6881 77.8239 21.6614 72.6864 21.6614C67.9327 21.6614 63.3809 23.3918 59.8325 26.5565C56.8294 29.2364 54.7286 32.7848 53.8398 36.7036H53.8196C53.1059 36.6228 52.3921 36.5824 51.6851 36.5824C46.5409 36.5824 41.6525 38.6159 38.0165 42.2519C34.3805 45.8879 32.3537 50.7763 32.3537 55.9138C32.3537 58.385 32.8251 60.8359 33.7543 63.132L33.9159 63.5023C33.3907 64.1554 32.9934 64.9096 32.7443 65.7041C28.6033 66.2899 24.772 68.2156 21.8093 71.1783C18.1733 74.8143 16.1533 79.7027 16.1533 84.8402C16.1533 86.335 16.3284 87.8298 16.6718 89.2842C14.8471 90.7992 13.7899 93.0414 13.7899 95.4385C13.7899 97.1218 14.3084 98.7446 15.2847 100.098C14.9211 100.711 14.5912 101.35 14.2949 101.997C12.8405 105.108 12.0999 108.494 12.0999 111.928C12.0999 118.197 14.571 124.156 19.0015 128.593C22.1123 131.704 26.0379 133.893 30.3203 134.882C30.7512 136.094 31.5188 137.165 32.5288 137.966C32.2999 139.158 32.1854 140.377 32.1854 141.589C32.1854 146.733 34.2121 151.621 37.8481 155.257C40.3866 157.796 43.5849 159.58 47.0728 160.402C47.8202 163.445 50.5607 165.62 53.7321 165.62C53.7859 165.62 53.8331 165.62 53.8869 165.613C55.0653 167.829 56.6476 169.815 58.5464 171.458C62.2295 174.649 66.9025 176.387 71.7841 176.387C77.1775 176.387 82.2949 174.272 86.1059 170.461C89.917 166.65 92.038 161.533 92.038 156.146V112.09H66.5389C65.8723 109.861 64.1081 108.104 61.8794 107.431V90.6309C64.1081 89.9643 65.8723 88.2069 66.5389 85.9714H92.0178V55.833H118.13V51.8132ZM40.8512 45.0934C43.7263 42.2115 47.6047 40.609 51.6784 40.609C52.244 40.609 52.8163 40.6359 53.3752 40.7032C53.7455 40.7436 54.1091 40.7975 54.4727 40.8648L63.3944 49.9414C62.1959 51.2476 61.5293 52.9444 61.5293 54.7355C61.5293 55.0587 61.5495 55.3752 61.5899 55.6916L44.5276 63.3474C43.2281 61.8055 41.3158 60.9032 39.2823 60.9032C38.609 60.9032 37.9491 61.0042 37.3095 61.1928C36.69 59.5094 36.3803 57.7251 36.3803 55.9138C36.3735 51.8469 37.9761 47.9685 40.8512 45.0934ZM57.8596 90.6242V96.8256L29.6671 94.1659C29.418 92.5903 28.6975 91.1292 27.6067 89.9643L37.4711 74.3699C38.0569 74.5315 38.6696 74.6123 39.2823 74.6123C40.6223 74.6123 41.9285 74.2218 43.0395 73.4878L53.3685 81.4668C53.0655 82.2614 52.9106 83.103 52.9106 83.9582C52.9106 87.0488 54.9441 89.7488 57.8596 90.6242ZM24.6441 74.013C26.8459 71.8045 29.6671 70.3299 32.7308 69.7778C33.0069 70.68 33.4715 71.5082 34.0842 72.222L24.2199 87.8164C23.4321 87.5672 22.6106 87.4326 21.7757 87.4326C21.3178 87.4326 20.8599 87.473 20.4088 87.5538C20.2472 86.6582 20.1664 85.7492 20.1664 84.8402C20.1597 80.7733 21.7622 76.8949 24.6441 74.013ZM30.1856 130.694C27.0344 129.779 24.1593 128.075 21.8363 125.752C18.1599 122.076 16.1129 117.133 16.1129 111.928C16.1129 109.08 16.7257 106.272 17.9242 103.687C18.0791 103.35 18.2474 103.02 18.4225 102.697C19.4729 103.182 20.6108 103.431 21.7757 103.431C22.1258 103.431 22.4692 103.411 22.8126 103.364L32.4547 127.26C31.3639 128.149 30.5694 129.348 30.1856 130.694ZM26.5294 101.862C27.7953 100.926 28.7581 99.6334 29.2901 98.152L57.8596 100.845V107.424C54.9441 108.299 52.9106 111.006 52.9106 114.09C52.9106 114.985 53.0789 115.867 53.4156 116.689L40.6357 126.924C39.4978 126.149 38.1579 125.738 36.7708 125.738C36.5755 125.738 36.3735 125.745 36.1783 125.759L26.5294 101.862ZM47.3152 156.315C44.8037 155.608 42.5143 154.261 40.6694 152.416C37.7943 149.534 36.185 145.662 36.185 141.589C36.185 140.868 36.2321 140.148 36.3331 139.434C36.4745 139.441 36.6227 139.448 36.7641 139.448C37.4037 139.448 38.0367 139.36 38.6494 139.185L48.4733 154.355C47.9818 154.934 47.5913 155.601 47.3152 156.315ZM56.4995 152.497C55.6241 152.106 54.6815 151.911 53.7186 151.911C53.0789 151.911 52.446 151.999 51.84 152.174L42.0161 137.003C42.447 136.485 42.8039 135.913 43.0732 135.293L66.2628 137.818C66.4244 138.653 66.7341 139.448 67.1853 140.168L56.4995 152.497ZM83.2443 167.613C80.1941 170.663 76.0867 172.367 71.7707 172.367C67.8653 172.367 64.1149 170.98 61.1589 168.421C59.8055 167.249 58.6541 165.856 57.7451 164.307C59.516 163.021 60.5731 160.967 60.5731 158.759C60.5731 157.459 60.2095 156.207 59.5295 155.116L70.222 142.781C71.0973 143.171 72.04 143.373 72.9961 143.373C73.7503 143.373 74.5044 143.252 75.2181 143.003L87.5334 160.011C86.8264 162.893 85.3384 165.519 83.2443 167.613ZM87.998 153.81L78.9888 141.367L87.998 145.359V153.81ZM87.998 140.969L79.8035 137.34C79.8372 137.071 79.8507 136.795 79.8507 136.519C79.8507 135.071 79.3995 133.677 78.5511 132.505L87.9913 120.049V140.969H87.998ZM66.5389 116.103H85.9713L75.3595 130.088C74.5987 129.812 73.8041 129.671 72.9894 129.671C72.4575 129.671 71.9255 129.731 71.4071 129.853L64.9633 118.837C65.6905 118.056 66.2291 117.12 66.5389 116.103ZM67.9596 131.879C67.4344 132.452 67.0035 133.105 66.7005 133.825L43.5041 131.3C43.4233 130.876 43.3021 130.459 43.1405 130.061L55.9204 119.833C57.0785 120.635 58.4521 121.059 59.8661 121.059C60.4183 121.059 60.9704 120.992 61.5023 120.864L67.9596 131.879ZM68.0404 81.9516H66.5321C65.6568 79.0294 62.95 76.9959 59.8661 76.9959C58.405 76.9959 56.9977 77.4538 55.8194 78.2954L45.5982 70.404C45.9551 69.569 46.1301 68.6735 46.1301 67.7578C46.1301 67.5154 46.1167 67.273 46.0897 67.0373L63.2395 59.3411C64.4852 60.7955 66.2628 61.6843 68.1818 61.7988L68.0404 81.9516ZM66.9563 47.8406L57.6105 38.3264C58.203 34.9395 59.9335 31.8556 62.4989 29.5663C65.3134 27.0548 68.9157 25.6812 72.6797 25.6812C76.7533 25.6812 80.625 27.2837 83.5069 30.1656C86.382 33.0474 87.9913 36.9191 87.9913 40.9928V51.8132H81.2377H75.0767C73.9388 49.2882 71.4138 47.6453 68.6195 47.6453C68.0606 47.6453 67.5017 47.7059 66.9563 47.8406ZM87.998 81.9516H72.0535L72.1949 60.8426C74.0263 59.7653 75.2855 57.9271 75.6154 55.833H81.2445H87.998V81.9516Z" fill="#7A86DD" fill-opacity="0.2"/>
<path fill-rule="evenodd" clip-rule="evenodd" d="M195.866 101.997C195.563 101.35 195.233 100.717 194.869 100.098C195.846 98.7376 196.371 97.1216 196.371 95.4383C196.371 93.0479 195.314 90.8057 193.489 89.284C193.832 87.8296 194.008 86.3348 194.008 84.84C194.008 79.6957 191.974 74.8073 188.338 71.1713C185.375 68.2154 181.551 66.2896 177.41 65.7038C177.161 64.9026 176.757 64.1552 176.238 63.502L176.393 63.1452C177.322 60.8424 177.794 58.3914 177.794 55.9203C177.794 50.776 175.76 45.8876 172.131 42.2516C168.495 38.6156 163.607 36.5956 158.469 36.5956C157.755 36.5956 157.042 36.636 156.335 36.7168H156.308C155.419 32.798 153.325 29.2496 150.322 26.5697C146.773 23.405 142.221 21.6746 137.468 21.6746C132.323 21.6746 127.435 23.7013 123.799 27.3373C120.163 30.9733 118.143 35.8617 118.143 40.9992V85.9712H143.622C144.295 88.1999 146.053 89.9573 148.281 90.6306V107.43C146.053 108.097 144.295 109.854 143.622 112.09H118.143V141.009H92.0312V145.023H118.143V156.146C118.143 161.533 120.264 166.65 124.068 170.461C127.879 174.272 133.004 176.386 138.39 176.386C143.265 176.386 147.938 174.642 151.628 171.458C153.527 169.815 155.109 167.828 156.287 165.613C156.341 165.62 156.388 165.62 156.442 165.62C159.607 165.62 162.354 163.445 163.095 160.401C166.589 159.58 169.781 157.796 172.326 155.25C175.962 151.614 177.982 146.726 177.982 141.589C177.982 140.377 177.868 139.158 177.639 137.966C178.649 137.165 179.41 136.101 179.841 134.882C184.13 133.892 188.049 131.704 191.159 128.593C195.59 124.156 198.061 118.197 198.061 111.928C198.054 108.487 197.314 105.107 195.866 101.997ZM177.417 69.7775C180.48 70.3296 183.295 71.811 185.503 74.0128C188.378 76.8946 189.981 80.7663 189.981 84.84C189.981 85.749 189.9 86.658 189.745 87.5535C189.294 87.4727 188.836 87.4323 188.378 87.4323C187.55 87.4323 186.722 87.5602 185.934 87.8161L176.07 72.2217C176.676 71.508 177.141 70.6798 177.417 69.7775ZM156.772 81.4666L167.101 73.4876C168.219 74.2215 169.518 74.612 170.858 74.612C171.471 74.612 172.077 74.5312 172.67 74.3696L182.534 89.964C181.443 91.1289 180.723 92.59 180.474 94.1656L152.281 96.8253V90.6239C155.197 89.7486 157.23 87.0418 157.23 83.9579C157.237 83.1095 157.075 82.2611 156.772 81.4666ZM156.765 40.6962C157.331 40.6356 157.897 40.602 158.462 40.602C162.536 40.602 166.408 42.2045 169.289 45.0864C172.171 47.9682 173.774 51.8399 173.774 55.9136C173.774 57.7181 173.464 59.4957 172.845 61.1925C172.205 60.9972 171.538 60.903 170.872 60.903C168.832 60.903 166.926 61.8052 165.627 63.3472L148.551 55.6779C148.591 55.3614 148.611 55.045 148.611 54.7218C148.611 52.9374 147.945 51.2339 146.746 49.9276L155.668 40.8511C156.025 40.7905 156.395 40.7366 156.765 40.6962ZM122.143 81.9514V55.8328H134.532C134.862 57.9268 136.121 59.7718 137.953 60.8424L138.101 81.9514H122.143ZM135.071 51.813H122.143V40.9925C122.143 36.9188 123.745 33.0404 126.627 30.1653C129.509 27.2834 133.381 25.6809 137.454 25.6809C141.225 25.6809 144.827 27.0545 147.642 29.566C150.207 31.8554 151.938 34.9392 152.537 38.3261L143.184 47.8403C142.646 47.7124 142.087 47.645 141.528 47.645C138.727 47.645 136.209 49.288 135.071 51.813ZM143.609 81.9514H142.107L141.966 61.7985C143.885 61.684 145.662 60.7952 146.908 59.3408L164.058 67.037C164.031 67.2794 164.017 67.5218 164.017 67.7575C164.017 68.6732 164.199 69.5688 164.549 70.4037L154.335 78.2952C153.156 77.4468 151.749 76.9956 150.288 76.9956C147.191 76.9956 144.484 79.0291 143.609 81.9514ZM148.638 120.857C149.177 120.985 149.729 121.052 150.281 121.052C151.695 121.052 153.069 120.621 154.227 119.826L167.007 130.054C166.845 130.458 166.724 130.869 166.643 131.293L143.447 133.818C143.137 133.105 142.713 132.445 142.188 131.872L148.638 120.857ZM143.609 116.103C143.912 117.12 144.45 118.056 145.177 118.837L138.734 129.852C138.215 129.731 137.683 129.671 137.151 129.671C136.343 129.671 135.542 129.812 134.788 130.088L124.183 116.103H143.609ZM122.143 120.055L131.59 132.512C130.748 133.677 130.29 135.071 130.29 136.525C130.29 136.794 130.303 137.07 130.337 137.347L122.143 140.976V120.055ZM122.143 145.359L131.152 141.366L122.143 153.81V145.359ZM148.988 168.421C146.033 170.98 142.282 172.367 138.377 172.367C134.061 172.367 129.953 170.67 126.903 167.613C124.802 165.512 123.314 162.893 122.614 160.011L134.929 143.003C135.643 143.252 136.39 143.373 137.151 143.373C138.114 143.373 139.057 143.171 139.932 142.78L150.625 155.116C149.938 156.207 149.581 157.459 149.581 158.759C149.581 160.974 150.638 163.027 152.409 164.307C151.5 165.862 150.349 167.249 148.988 168.421ZM158.307 152.173C157.695 151.998 157.062 151.911 156.429 151.911C155.466 151.911 154.523 152.106 153.648 152.497L142.955 140.168C143.407 139.447 143.723 138.646 143.885 137.818L167.081 135.293C167.35 135.912 167.707 136.491 168.138 137.003L158.307 152.173ZM169.471 152.416C167.626 154.261 165.337 155.607 162.825 156.314C162.549 155.601 162.159 154.934 161.667 154.348L171.491 139.178C172.104 139.353 172.737 139.441 173.37 139.441C173.511 139.441 173.653 139.434 173.801 139.427C173.902 140.141 173.949 140.861 173.949 141.582C173.956 145.655 172.346 149.534 169.471 152.416ZM173.969 125.758C173.767 125.745 173.572 125.738 173.377 125.738C171.996 125.738 170.65 126.149 169.512 126.923L156.732 116.695C157.062 115.867 157.237 114.992 157.237 114.096C157.237 111.012 155.203 108.306 152.288 107.43V100.852L180.857 98.1585C181.396 99.6399 182.359 100.926 183.625 101.869L173.969 125.758ZM188.311 125.745C185.988 128.068 183.113 129.772 179.962 130.687C179.578 129.341 178.777 128.142 177.686 127.26L187.335 103.363C187.678 103.411 188.028 103.431 188.372 103.431C189.537 103.431 190.681 103.182 191.725 102.697C191.9 103.02 192.068 103.35 192.223 103.687C193.422 106.272 194.034 109.073 194.034 111.928C194.034 117.126 191.988 122.069 188.311 125.745Z" fill="#FF786B" fill-opacity="0.2"/>
</svg>
