<svg width="306" height="306" viewBox="0 0 306 306" fill="none" xmlns="http://www.w3.org/2000/svg">
<path fill-rule="evenodd" clip-rule="evenodd" d="M178.949 78.4894H139.393V62.098C139.393 54.3052 136.313 46.9 130.805 41.392C125.297 35.884 117.892 32.8138 110.109 32.8138C102.908 32.8138 96.0126 35.4352 90.6372 40.2292C86.088 44.2888 82.9056 49.6642 81.5592 55.6006H81.5286C80.4474 55.4782 79.3662 55.417 78.2952 55.417C70.5024 55.417 63.0972 58.4974 57.5892 64.0054C52.0812 69.5134 49.011 76.9186 49.011 84.7012C49.011 88.4446 49.725 92.1574 51.1326 95.6356L51.3774 96.1966C50.5818 97.186 49.98 98.3284 49.6026 99.532C43.3296 100.419 37.5258 103.337 33.0378 107.825C27.5298 113.333 24.4698 120.738 24.4698 128.52C24.4698 130.785 24.735 133.049 25.2552 135.252C22.491 137.547 20.8896 140.944 20.8896 144.575C20.8896 147.125 21.675 149.583 23.154 151.634C22.6032 152.562 22.1034 153.531 21.6546 154.51C19.4514 159.222 18.3294 164.353 18.3294 169.555C18.3294 179.051 22.0728 188.078 28.7844 194.8C33.4968 199.512 39.4434 202.827 45.9306 204.327C46.5834 206.163 47.7462 207.785 49.2762 208.998C48.9294 210.804 48.756 212.65 48.756 214.486C48.756 222.279 51.8262 229.684 57.3342 235.192C61.1796 239.037 66.0246 241.74 71.3082 242.985C72.4404 247.595 76.5918 250.89 81.396 250.89C81.4776 250.89 81.549 250.89 81.6306 250.88C83.4156 254.235 85.8126 257.244 88.689 259.733C94.2684 264.568 101.347 267.2 108.742 267.2C116.912 267.2 124.664 263.997 130.438 258.224C136.211 252.45 139.424 244.698 139.424 236.538V169.8H100.796C99.7866 166.424 97.1142 163.761 93.738 162.741V137.292C97.1142 136.283 99.7866 133.62 100.796 130.234H139.393V84.5788H178.949V78.4894ZM61.8834 68.3098C66.2388 63.9442 72.114 61.5166 78.285 61.5166C79.1418 61.5166 80.0088 61.5574 80.8554 61.6594C81.4164 61.7206 81.9672 61.8022 82.518 61.9042L96.033 75.6538C94.2174 77.6326 93.2076 80.203 93.2076 82.9162C93.2076 83.4058 93.2382 83.8852 93.2994 84.3646L67.4526 95.962C65.484 93.6262 62.5872 92.2594 59.5068 92.2594C58.4868 92.2594 57.4872 92.4124 56.5182 92.698C55.5798 90.148 55.1106 87.445 55.1106 84.7012C55.1004 78.5404 57.528 72.6652 61.8834 68.3098ZM87.6486 137.282V146.676L44.9412 142.647C44.5638 140.261 43.4724 138.047 41.82 136.283L56.763 112.659C57.6504 112.904 58.5786 113.027 59.5068 113.027C61.5366 113.027 63.5154 112.435 65.1984 111.323L80.8452 123.41C80.3862 124.614 80.1516 125.889 80.1516 127.184C80.1516 131.866 83.232 135.956 87.6486 137.282ZM37.332 112.119C40.6674 108.773 44.9412 106.539 49.5822 105.703C50.0004 107.07 50.7042 108.324 51.6324 109.406L36.6894 133.029C35.496 132.651 34.2516 132.447 32.9868 132.447C32.2932 132.447 31.5996 132.509 30.9162 132.631C30.6714 131.274 30.549 129.897 30.549 128.52C30.5388 122.36 32.9664 116.484 37.332 112.119ZM45.7266 197.982C40.953 196.595 36.5976 194.015 33.0786 190.496C27.5094 184.926 24.4086 177.44 24.4086 169.555C24.4086 165.24 25.3368 160.987 27.1524 157.07C27.387 156.56 27.642 156.06 27.9072 155.571C29.4984 156.305 31.2222 156.683 32.9868 156.683C33.5172 156.683 34.0374 156.652 34.5576 156.581L49.164 192.78C47.5116 194.127 46.308 195.942 45.7266 197.982ZM40.188 154.306C42.1056 152.888 43.5642 150.93 44.37 148.686L87.6486 152.766V162.731C83.232 164.057 80.1516 168.158 80.1516 172.829C80.1516 174.186 80.4066 175.522 80.9166 176.766L61.557 192.27C59.8332 191.097 57.8034 190.475 55.7022 190.475C55.4064 190.475 55.1004 190.485 54.8046 190.506L40.188 154.306ZM71.6754 236.793C67.8708 235.722 64.4028 233.682 61.608 230.888C57.2526 226.522 54.8148 220.657 54.8148 214.486C54.8148 213.395 54.8862 212.303 55.0392 211.222C55.2534 211.232 55.4778 211.242 55.692 211.242C56.661 211.242 57.6198 211.11 58.548 210.845L73.4298 233.825C72.6852 234.702 72.0936 235.712 71.6754 236.793ZM85.5882 231.01C84.2622 230.418 82.8342 230.123 81.3756 230.123C80.4066 230.123 79.4478 230.255 78.5298 230.52L63.648 207.54C64.3008 206.754 64.8414 205.887 65.2494 204.949L100.378 208.774C100.623 210.039 101.092 211.242 101.776 212.334L85.5882 231.01ZM126.103 253.909C121.482 258.53 115.26 261.11 108.722 261.11C102.806 261.11 97.1244 259.009 92.6466 255.133C90.5964 253.358 88.8522 251.247 87.4752 248.901C90.1578 246.953 91.7592 243.842 91.7592 240.496C91.7592 238.527 91.2084 236.63 90.1782 234.978L106.376 216.291C107.702 216.883 109.13 217.189 110.578 217.189C111.721 217.189 112.863 217.005 113.944 216.628L132.6 242.393C131.529 246.759 129.275 250.737 126.103 253.909ZM133.304 232.999L119.656 214.149L133.304 220.198V232.999ZM133.304 213.548L120.89 208.05C120.941 207.642 120.962 207.224 120.962 206.805C120.962 204.612 120.278 202.501 118.993 200.726L133.294 181.856V213.548H133.304ZM100.796 175.879H130.234L114.158 197.064C113.006 196.646 111.802 196.432 110.568 196.432C109.762 196.432 108.956 196.524 108.171 196.707L98.4096 180.02C99.5112 178.837 100.327 177.419 100.796 175.879ZM102.949 199.778C102.153 200.645 101.5 201.634 101.041 202.725L65.9022 198.9C65.7798 198.258 65.5962 197.625 65.3514 197.024L84.711 181.53C86.4654 182.744 88.5462 183.386 90.6882 183.386C91.5246 183.386 92.361 183.284 93.1668 183.09L102.949 199.778ZM103.071 124.145H100.786C99.4602 119.718 95.3598 116.637 90.6882 116.637C88.4748 116.637 86.343 117.331 84.558 118.606L69.0744 106.652C69.615 105.387 69.8802 104.03 69.8802 102.643C69.8802 102.276 69.8598 101.909 69.819 101.552L95.7984 89.893C97.6854 92.0962 100.378 93.4426 103.285 93.616L103.071 124.145ZM101.429 72.4714L87.2712 58.0588C88.1688 52.9282 90.7902 48.2566 94.6764 44.7886C98.94 40.984 104.397 38.9032 110.099 38.9032C116.27 38.9032 122.135 41.3308 126.5 45.6964C130.856 50.062 133.294 55.927 133.294 62.098V78.4894H123.063H113.73C112.006 74.6644 108.181 72.1756 103.948 72.1756C103.102 72.1756 102.255 72.2674 101.429 72.4714ZM133.304 124.145H109.15L109.364 92.1676C112.139 90.5356 114.046 87.751 114.546 84.5788H123.073H133.304V124.145Z" fill="#E3E3E3"/>
<path fill-rule="evenodd" clip-rule="evenodd" d="M296.708 154.51C296.249 153.53 295.749 152.572 295.198 151.633C296.677 149.573 297.473 147.125 297.473 144.575C297.473 140.954 295.871 137.557 293.107 135.252C293.627 133.049 293.893 130.784 293.893 128.52C293.893 120.727 290.812 113.322 285.304 107.814C280.816 103.336 275.023 100.419 268.75 99.5316C268.372 98.3178 267.76 97.1856 266.975 96.1962L267.209 95.6556C268.617 92.1672 269.331 88.4544 269.331 84.711C269.331 76.9182 266.251 69.513 260.753 64.005C255.245 58.497 247.84 55.4369 240.057 55.4369C238.976 55.4369 237.895 55.4981 236.824 55.6205H236.783C235.436 49.6841 232.264 44.3087 227.715 40.2491C222.34 35.4551 215.444 32.8337 208.243 32.8337C200.45 32.8337 193.045 35.9039 187.537 41.4119C182.029 46.9199 178.969 54.3251 178.969 62.1078V130.234H217.566C218.586 133.61 221.248 136.272 224.624 137.292V162.741C221.248 163.751 218.586 166.413 217.566 169.799H178.969V213.608H139.414V219.688H178.969V236.538C178.969 244.698 182.182 252.45 187.945 258.223C193.718 263.996 201.481 267.199 209.641 267.199C217.025 267.199 224.104 264.557 229.694 259.733C232.57 257.244 234.967 254.235 236.752 250.879C236.834 250.889 236.905 250.889 236.987 250.889C241.781 250.889 245.942 247.595 247.064 242.984C252.358 241.74 257.193 239.037 261.049 235.181C266.557 229.673 269.617 222.268 269.617 214.486C269.617 212.65 269.443 210.803 269.096 208.998C270.626 207.784 271.779 206.173 272.432 204.326C278.929 202.827 284.866 199.512 289.578 194.8C296.29 188.078 300.033 179.051 300.033 169.555C300.023 164.342 298.901 159.222 296.708 154.51ZM268.76 105.703C273.401 106.539 277.664 108.783 281.01 112.118C285.365 116.484 287.793 122.349 287.793 128.52C287.793 129.897 287.671 131.274 287.436 132.631C286.753 132.508 286.059 132.447 285.365 132.447C284.111 132.447 282.856 132.641 281.663 133.028L266.72 109.405C267.638 108.324 268.342 107.069 268.76 105.703ZM237.487 123.41L253.133 111.323C254.827 112.435 256.795 113.026 258.825 113.026C259.753 113.026 260.671 112.904 261.569 112.659L276.512 136.282C274.859 138.047 273.768 140.26 273.391 142.647L230.683 146.676V137.282C235.1 135.956 238.18 131.855 238.18 127.184C238.19 125.899 237.946 124.613 237.487 123.41ZM237.476 61.6488C238.333 61.557 239.19 61.506 240.047 61.506C246.218 61.506 252.083 63.9335 256.448 68.2992C260.814 72.6648 263.242 78.5298 263.242 84.7008C263.242 87.4344 262.772 90.1272 261.834 92.6976C260.865 92.4018 259.855 92.259 258.845 92.259C255.755 92.259 252.868 93.6258 250.9 95.9616L225.032 84.3438C225.094 83.8644 225.124 83.385 225.124 82.8954C225.124 80.1924 224.114 77.6118 222.299 75.633L235.814 61.8834C236.354 61.7916 236.915 61.71 237.476 61.6488ZM185.028 124.144V84.5784H203.796C204.296 87.7506 206.203 90.5454 208.978 92.1672L209.202 124.144H185.028ZM204.612 78.489H185.028V62.0975C185.028 55.9265 187.456 50.0513 191.821 45.6959C196.187 41.3303 202.052 38.9027 208.223 38.9027C213.935 38.9027 219.392 40.9835 223.655 44.7881C227.542 48.2561 230.163 52.9277 231.071 58.0584L216.903 72.471C216.087 72.2772 215.24 72.1752 214.394 72.1752C210.151 72.1752 206.336 74.664 204.612 78.489ZM217.546 124.144H215.271L215.057 93.6156C217.964 93.4422 220.657 92.0958 222.544 89.8926L248.523 101.551C248.482 101.918 248.462 102.286 248.462 102.643C248.462 104.03 248.737 105.386 249.268 106.651L233.794 118.606C232.009 117.32 229.877 116.637 227.664 116.637C222.972 116.637 218.872 119.717 217.546 124.144ZM225.165 183.08C225.981 183.274 226.817 183.376 227.654 183.376C229.796 183.376 231.877 182.723 233.631 181.519L252.991 197.013C252.746 197.625 252.562 198.247 252.44 198.89L217.301 202.715C216.832 201.634 216.189 200.634 215.393 199.767L225.165 183.08ZM217.546 175.879C218.005 177.419 218.821 178.837 219.922 180.02L210.161 196.707C209.375 196.523 208.57 196.432 207.764 196.432C206.54 196.432 205.326 196.646 204.184 197.064L188.119 175.879H217.546ZM185.028 181.866L199.339 200.736C198.064 202.501 197.37 204.612 197.37 206.815C197.37 207.223 197.39 207.641 197.441 208.06L185.028 213.557V181.866ZM185.028 220.198L198.676 214.149L185.028 232.999V220.198ZM225.695 255.133C221.218 259.009 215.536 261.11 209.62 261.11C203.082 261.11 196.86 258.539 192.239 253.909C189.057 250.726 186.803 246.758 185.742 242.393L204.398 216.628C205.479 217.005 206.611 217.189 207.764 217.189C209.222 217.189 210.65 216.883 211.976 216.291L228.174 234.977C227.134 236.63 226.593 238.527 226.593 240.496C226.593 243.851 228.194 246.962 230.877 248.9C229.5 251.257 227.756 253.358 225.695 255.133ZM239.812 230.52C238.884 230.255 237.925 230.122 236.966 230.122C235.508 230.122 234.08 230.418 232.754 231.01L216.556 212.333C217.24 211.242 217.719 210.028 217.964 208.774L253.103 204.949C253.511 205.887 254.051 206.764 254.704 207.539L239.812 230.52ZM256.724 230.887C253.929 233.682 250.461 235.722 246.656 236.793C246.238 235.712 245.647 234.702 244.902 233.815L259.784 210.834C260.712 211.099 261.671 211.232 262.63 211.232C262.844 211.232 263.058 211.222 263.282 211.211C263.435 212.293 263.507 213.384 263.507 214.475C263.517 220.646 261.079 226.522 256.724 230.887ZM263.537 190.505C263.231 190.485 262.936 190.475 262.64 190.475C260.549 190.475 258.509 191.097 256.785 192.27L237.425 176.776C237.925 175.522 238.19 174.196 238.19 172.839C238.19 168.167 235.11 164.067 230.693 162.741V152.776L273.972 148.696C274.788 150.94 276.247 152.888 278.164 154.316L263.537 190.505ZM285.263 190.485C281.744 194.004 277.389 196.585 272.615 197.972C272.034 195.932 270.82 194.116 269.168 192.78L283.784 156.58C284.305 156.652 284.835 156.682 285.355 156.682C287.12 156.682 288.854 156.305 290.435 155.57C290.7 156.06 290.955 156.56 291.19 157.07C293.005 160.987 293.933 165.23 293.933 169.555C293.933 177.429 290.833 184.916 285.263 190.485Z" fill="#CECECE"/>
</svg>
