<svg width="91" height="114" viewBox="0 0 91 114" fill="none" xmlns="http://www.w3.org/2000/svg">
<rect x="0.731934" width="90" height="114" rx="4" fill="white"/>
<path fill-rule="evenodd" clip-rule="evenodd" d="M50.1592 19.4161H41.8861V15.9878C41.8861 14.358 41.2418 12.8092 40.0898 11.6572C38.9378 10.5052 37.389 9.86304 35.7613 9.86304C34.2552 9.86304 32.813 10.4113 31.6888 11.414C30.7373 12.263 30.0717 13.3873 29.7901 14.6289H29.7837C29.5576 14.6033 29.3314 14.5905 29.1074 14.5905C27.4776 14.5905 25.9288 15.2348 24.7768 16.3868C23.6248 17.5388 22.9826 19.0876 22.9826 20.7153C22.9826 21.4982 23.132 22.2748 23.4264 23.0022L23.4776 23.1196C23.3112 23.3265 23.1853 23.5654 23.1064 23.8172C21.7944 24.0028 20.5805 24.6129 19.6418 25.5516C18.4898 26.7036 17.8498 28.2524 17.8498 29.8801C17.8498 30.3537 17.9053 30.8273 18.0141 31.2881C17.436 31.7681 17.101 32.4785 17.101 33.238C17.101 33.7713 17.2653 34.2854 17.5746 34.7142C17.4594 34.9084 17.3549 35.111 17.261 35.3158C16.8002 36.3014 16.5656 37.3745 16.5656 38.4625C16.5656 40.4486 17.3485 42.3366 18.7522 43.7425C19.7378 44.7281 20.9816 45.4214 22.3384 45.735C22.4749 46.119 22.7181 46.4582 23.0381 46.7121C22.9656 47.0897 22.9293 47.4758 22.9293 47.8598C22.9293 49.4897 23.5714 51.0385 24.7234 52.1905C25.5277 52.9948 26.541 53.5601 27.6461 53.8204C27.8829 54.7846 28.7512 55.4737 29.756 55.4737C29.773 55.4737 29.788 55.4737 29.805 55.4716C30.1784 56.1734 30.6797 56.8028 31.2813 57.3233C32.4482 58.3345 33.9288 58.8849 35.4754 58.8849C37.1842 58.8849 38.8056 58.215 40.013 57.0076C41.2205 55.8001 41.8925 54.1788 41.8925 52.4721V38.5137H33.8136C33.6024 37.8076 33.0434 37.2508 32.3373 37.0374V31.7148C33.0434 31.5036 33.6024 30.9468 33.8136 30.2385H41.8861V20.6897H50.1592V19.4161ZM25.6749 17.287C26.5858 16.374 27.8146 15.8662 29.1053 15.8662C29.2845 15.8662 29.4658 15.8748 29.6429 15.8961C29.7602 15.9089 29.8754 15.926 29.9906 15.9473L32.8173 18.823C32.4376 19.2369 32.2264 19.7745 32.2264 20.342C32.2264 20.4444 32.2328 20.5446 32.2456 20.6449L26.8397 23.0705C26.428 22.582 25.8221 22.2961 25.1778 22.2961C24.9645 22.2961 24.7554 22.3281 24.5528 22.3878C24.3565 21.8545 24.2584 21.2892 24.2584 20.7153C24.2562 19.4268 24.764 18.198 25.6749 17.287ZM31.0637 31.7126V33.6774L22.1314 32.8348C22.0525 32.3356 21.8242 31.8726 21.4786 31.5036L24.604 26.5628C24.7896 26.614 24.9837 26.6396 25.1778 26.6396C25.6024 26.6396 26.0162 26.5158 26.3682 26.2833L29.6408 28.8113C29.5448 29.063 29.4957 29.3297 29.4957 29.6006C29.4957 30.5798 30.14 31.4353 31.0637 31.7126ZM20.54 26.4497C21.2376 25.75 22.1314 25.2828 23.1021 25.1078C23.1896 25.3937 23.3368 25.6561 23.5309 25.8822L20.4056 30.823C20.156 30.7441 19.8957 30.7014 19.6312 30.7014C19.4861 30.7014 19.341 30.7142 19.1981 30.7398C19.1469 30.4561 19.1213 30.1681 19.1213 29.8801C19.1192 28.5916 19.6269 27.3628 20.54 26.4497ZM22.2957 44.4081C21.2973 44.118 20.3864 43.5782 19.6504 42.8422C18.4856 41.6774 17.837 40.1116 17.837 38.4625C17.837 37.5601 18.0312 36.6705 18.4109 35.8513C18.46 35.7446 18.5133 35.6401 18.5688 35.5377C18.9016 35.6913 19.2621 35.7702 19.6312 35.7702C19.7421 35.7702 19.8509 35.7638 19.9597 35.7489L23.0146 43.3201C22.669 43.6017 22.4173 43.9814 22.2957 44.4081ZM21.1373 35.2732C21.5384 34.9766 21.8434 34.567 22.012 34.0977L31.0637 34.951V37.0353C30.14 37.3126 29.4957 38.1702 29.4957 39.1473C29.4957 39.431 29.549 39.7105 29.6557 39.9708L25.6066 43.2134C25.2461 42.9681 24.8216 42.838 24.3821 42.838C24.3202 42.838 24.2562 42.8401 24.1944 42.8444L21.1373 35.2732ZM27.7229 52.5254C26.9272 52.3014 26.2018 51.8748 25.6173 51.2902C24.7064 50.3772 24.1965 49.1505 24.1965 47.8598C24.1965 47.6316 24.2114 47.4033 24.2434 47.1772C24.2882 47.1793 24.3352 47.1814 24.38 47.1814C24.5826 47.1814 24.7832 47.1537 24.9773 47.0982L28.0898 51.9046C27.9341 52.0881 27.8104 52.2993 27.7229 52.5254ZM30.6328 51.3158C30.3554 51.1921 30.0568 51.1302 29.7517 51.1302C29.549 51.1302 29.3485 51.158 29.1565 51.2134L26.044 46.407C26.1805 46.2428 26.2936 46.0614 26.3789 45.8652L33.7261 46.6652C33.7773 46.9297 33.8754 47.1814 34.0184 47.4097L30.6328 51.3158ZM39.1064 56.1052C38.14 57.0716 36.8386 57.6113 35.4712 57.6113C34.2338 57.6113 33.0456 57.1718 32.109 56.3612C31.6802 55.99 31.3154 55.5484 31.0274 55.0577C31.5885 54.6502 31.9234 53.9996 31.9234 53.2998C31.9234 52.8881 31.8082 52.4913 31.5928 52.1457L34.9805 48.2374C35.2578 48.3612 35.5565 48.4252 35.8594 48.4252C36.0984 48.4252 36.3373 48.3868 36.5634 48.3078L40.4653 53.6966C40.2413 54.6097 39.7698 55.4417 39.1064 56.1052ZM40.6125 51.7318L37.7581 47.7894L40.6125 49.0545V51.7318ZM40.6125 47.6636L38.0162 46.5137C38.0269 46.4284 38.0312 46.3409 38.0312 46.2534C38.0312 45.7948 37.8882 45.3532 37.6194 44.982L40.6104 41.0353V47.6636H40.6125ZM33.8136 39.7852H39.9704L36.6082 44.2161C36.3672 44.1286 36.1154 44.0838 35.8573 44.0838C35.6888 44.0838 35.5202 44.103 35.356 44.1414L33.3144 40.6513C33.5448 40.4038 33.7154 40.1073 33.8136 39.7852ZM34.2637 44.7836C34.0973 44.9649 33.9608 45.1718 33.8648 45.4001L26.5154 44.6001C26.4898 44.4657 26.4514 44.3334 26.4002 44.2076L30.4493 40.967C30.8162 41.2209 31.2514 41.3553 31.6994 41.3553C31.8744 41.3553 32.0493 41.334 32.2178 41.2934L34.2637 44.7836ZM34.2893 28.9649H33.8114C33.5341 28.039 32.6765 27.3948 31.6994 27.3948C31.2365 27.3948 30.7906 27.5398 30.4173 27.8065L27.1789 25.3062C27.292 25.0417 27.3474 24.758 27.3474 24.4678C27.3474 24.391 27.3432 24.3142 27.3346 24.2396L32.7682 21.8012C33.1629 22.262 33.7261 22.5436 34.3341 22.5798L34.2893 28.9649ZM33.9458 18.1574L30.9848 15.143C31.1725 14.07 31.7208 13.0929 32.5336 12.3676C33.4253 11.5718 34.5666 11.1366 35.7592 11.1366C37.0498 11.1366 38.2765 11.6444 39.1896 12.5574C40.1005 13.4705 40.6104 14.6972 40.6104 15.9878V19.4161H38.4706H36.5186C36.1581 18.6161 35.3581 18.0956 34.4728 18.0956C34.2957 18.0956 34.1186 18.1148 33.9458 18.1574ZM40.6125 28.9649H35.5608L35.6056 22.2769C36.1858 21.9356 36.5848 21.3532 36.6893 20.6897H38.4728H40.6125V28.9649Z" fill="#7A86DD"/>
<path fill-rule="evenodd" clip-rule="evenodd" d="M74.7885 35.3157C74.6925 35.1109 74.588 34.9104 74.4728 34.7141C74.7821 34.2832 74.9485 33.7712 74.9485 33.2379C74.9485 32.4805 74.6136 31.7701 74.0354 31.288C74.1442 30.8272 74.1997 30.3536 74.1997 29.88C74.1997 28.2501 73.5554 26.7013 72.4034 25.5493C71.4648 24.6128 70.253 24.0027 68.941 23.8171C68.8621 23.5632 68.7341 23.3264 68.5698 23.1195L68.6189 23.0064C68.9133 22.2768 69.0626 21.5003 69.0626 20.7173C69.0626 19.0875 68.4184 17.5387 67.2685 16.3867C66.1165 15.2347 64.5677 14.5947 62.94 14.5947C62.7138 14.5947 62.4877 14.6075 62.2637 14.6331H62.2552C61.9736 13.3915 61.3101 12.2672 60.3586 11.4181C59.2344 10.4155 57.7922 9.86719 56.2861 9.86719C54.6562 9.86719 53.1074 10.5093 51.9554 11.6613C50.8034 12.8133 50.1634 14.3621 50.1634 15.9899V30.2384H58.236C58.4493 30.9445 59.0061 31.5013 59.7122 31.7147V37.0373C59.0061 37.2485 58.4493 37.8053 58.236 38.5136H50.1634V47.6763H41.8904V48.9477H50.1634V52.472C50.1634 54.1787 50.8354 55.8 52.0408 57.0075C53.2482 58.2149 54.8717 58.8848 56.5784 58.8848C58.1229 58.8848 59.6034 58.3323 60.7725 57.3232C61.3741 56.8027 61.8754 56.1733 62.2488 55.4715C62.2658 55.4736 62.2808 55.4736 62.2978 55.4736C63.3005 55.4736 64.1709 54.7845 64.4056 53.8203C65.5128 53.56 66.524 52.9947 67.3304 52.1883C68.4824 51.0363 69.1224 49.4875 69.1224 47.8597C69.1224 47.4757 69.0861 47.0896 69.0136 46.712C69.3336 46.4581 69.5746 46.1211 69.7112 45.7349C71.0701 45.4213 72.3117 44.728 73.2973 43.7424C74.701 42.3365 75.484 40.4485 75.484 38.4624C75.4818 37.3723 75.2472 36.3013 74.7885 35.3157ZM68.9432 25.1077C69.9138 25.2827 70.8056 25.752 71.5053 26.4496C72.4162 27.3627 72.924 28.5893 72.924 29.88C72.924 30.168 72.8984 30.456 72.8493 30.7397C72.7064 30.7141 72.5613 30.7013 72.4162 30.7013C72.1538 30.7013 71.8914 30.7419 71.6418 30.8229L68.5165 25.8821C68.7085 25.656 68.8557 25.3936 68.9432 25.1077ZM62.4024 28.8112L65.6749 26.2832C66.029 26.5157 66.4408 26.6395 66.8653 26.6395C67.0594 26.6395 67.2514 26.6139 67.4392 26.5627L70.5645 31.5035C70.2189 31.8725 69.9906 32.3355 69.9117 32.8347L60.9794 33.6773V31.7125C61.9032 31.4352 62.5474 30.5776 62.5474 29.6005C62.5496 29.3317 62.4984 29.0629 62.4024 28.8112ZM62.4002 15.8939C62.5794 15.8747 62.7586 15.864 62.9378 15.864C64.2285 15.864 65.4552 16.3717 66.3682 17.2848C67.2813 18.1979 67.789 19.4245 67.789 20.7152C67.789 21.2869 67.6909 21.8501 67.4946 22.3877C67.292 22.3259 67.0808 22.296 66.8696 22.296C66.2232 22.296 65.6194 22.5819 65.2077 23.0704L59.7976 20.6405C59.8104 20.5403 59.8168 20.44 59.8168 20.3376C59.8168 19.7723 59.6056 19.2325 59.2258 18.8187L62.0525 15.9429C62.1656 15.9237 62.2829 15.9067 62.4002 15.8939ZM51.4306 28.9648V20.6896H55.356C55.4605 21.3531 55.8594 21.9376 56.4397 22.2768L56.4866 28.9648H51.4306ZM55.5266 19.416H51.4306V15.9877C51.4306 14.6971 51.9384 13.4683 52.8514 12.5573C53.7645 11.6443 54.9912 11.1365 56.2818 11.1365C57.4765 11.1365 58.6178 11.5717 59.5096 12.3675C60.3224 13.0928 60.8706 14.0699 61.0605 15.1429L58.0973 18.1573C57.9266 18.1168 57.7496 18.0955 57.5725 18.0955C56.685 18.0955 55.8872 18.616 55.5266 19.416ZM58.2317 28.9648H57.756L57.7112 22.5797C58.3192 22.5435 58.8824 22.2619 59.277 21.8011L64.7106 24.2395C64.7021 24.3163 64.6978 24.3931 64.6978 24.4677C64.6978 24.7579 64.7554 25.0416 64.8664 25.3061L61.6301 27.8064C61.2568 27.5376 60.8109 27.3947 60.348 27.3947C59.3666 27.3947 58.509 28.0389 58.2317 28.9648ZM59.8253 41.2912C59.996 41.3317 60.1709 41.3531 60.3458 41.3531C60.7938 41.3531 61.229 41.2165 61.596 40.9648L65.645 44.2053C65.5938 44.3333 65.5554 44.4635 65.5298 44.5979L58.1805 45.3979C58.0824 45.1717 57.948 44.9627 57.7816 44.7813L59.8253 41.2912ZM58.2317 39.7851C58.3277 40.1072 58.4984 40.4037 58.7288 40.6512L56.6872 44.1413C56.5229 44.1029 56.3544 44.0837 56.1858 44.0837C55.9298 44.0837 55.676 44.1285 55.437 44.216L52.077 39.7851H58.2317ZM51.4306 41.0373L54.4237 44.984C54.157 45.3531 54.012 45.7947 54.012 46.2555C54.012 46.3408 54.0162 46.4283 54.0269 46.5157L51.4306 47.6656V41.0373ZM51.4306 49.0544L54.285 47.7893L51.4306 51.7317V49.0544ZM59.9362 56.3611C58.9997 57.1717 57.8114 57.6112 56.5741 57.6112C55.2066 57.6112 53.9053 57.0736 52.9389 56.1051C52.2733 55.4395 51.8018 54.6096 51.58 53.6965L55.4818 48.3077C55.708 48.3867 55.9448 48.4251 56.1858 48.4251C56.4909 48.4251 56.7896 48.3611 57.0669 48.2373L60.4546 52.1456C60.237 52.4912 60.124 52.888 60.124 53.2997C60.124 54.0016 60.4589 54.6523 61.02 55.0576C60.732 55.5504 60.3672 55.9899 59.9362 56.3611ZM62.8888 51.2133C62.6946 51.1579 62.4941 51.1301 62.2936 51.1301C61.9885 51.1301 61.6898 51.192 61.4125 51.3157L58.0248 47.4096C58.1677 47.1813 58.268 46.9275 58.3192 46.6651L65.6685 45.8651C65.7538 46.0613 65.8669 46.2448 66.0034 46.4069L62.8888 51.2133ZM66.4258 51.2901C65.8413 51.8747 65.116 52.3013 64.3202 52.5253C64.2328 52.2992 64.109 52.088 63.9533 51.9024L67.0658 47.096C67.26 47.1515 67.4605 47.1792 67.661 47.1792C67.7058 47.1792 67.7506 47.1771 67.7976 47.1749C67.8296 47.4011 67.8445 47.6293 67.8445 47.8576C67.8466 49.1483 67.3368 50.3771 66.4258 51.2901ZM67.8509 42.8443C67.7869 42.84 67.725 42.8379 67.6632 42.8379C67.2258 42.8379 66.7992 42.968 66.4386 43.2133L62.3896 39.9728C62.4941 39.7104 62.5496 39.4331 62.5496 39.1493C62.5496 38.1723 61.9053 37.3147 60.9816 37.0373V34.9531L70.0333 34.0997C70.204 34.5691 70.509 34.9765 70.9101 35.2752L67.8509 42.8443ZM72.3949 42.84C71.6589 43.576 70.748 44.1157 69.7496 44.4059C69.628 43.9792 69.3741 43.5995 69.0285 43.32L72.0856 35.7488C72.1944 35.7637 72.3053 35.7701 72.4141 35.7701C72.7832 35.7701 73.1458 35.6912 73.4765 35.5376C73.532 35.64 73.5853 35.7445 73.6344 35.8512C74.0141 36.6704 74.2082 37.5579 74.2082 38.4624C74.2082 40.1093 73.5597 41.6752 72.3949 42.84Z" fill="#FF786B"/>
<path d="M13.1562 90V78.6255H16.5162C17.5199 78.6255 18.4096 78.8509 19.1853 79.3018C19.9659 79.7479 20.5696 80.383 20.9962 81.2073C21.4278 82.0267 21.6435 82.9673 21.6435 84.0291V84.6036C21.6435 85.68 21.4278 86.6279 20.9962 87.4473C20.5647 88.2618 19.9514 88.8921 19.1562 89.3382C18.3659 89.7794 17.4568 90 16.429 90H13.1562ZM15.1344 80.2182V88.4218H16.4217C17.4593 88.4218 18.2544 88.0994 18.8072 87.4545C19.3647 86.8048 19.6484 85.8715 19.6581 84.6545V84.0218C19.6581 82.7903 19.389 81.8497 18.8508 81.2C18.3126 80.5455 17.5344 80.2182 16.5162 80.2182H15.1344ZM29.973 87.3527H25.573L24.6494 90H22.5912L26.8894 78.6255H28.6639L32.9694 90H30.9039L29.973 87.3527ZM26.1257 85.76H29.4203L27.7766 81.04L26.1257 85.76ZM40.6136 87.3527H36.2136L35.29 90H33.2318L37.53 78.6255H39.3045L43.61 90H41.5445L40.6136 87.3527ZM36.7664 85.76H40.0609L38.4173 81.04L36.7664 85.76ZM47.4506 78.6255L50.7379 87.3455L54.0106 78.6255H56.5633V90H54.5924V86.2473L54.7888 81.2364L51.4288 90H50.0179L46.6652 81.2436L46.8615 86.2473V90H44.8906V78.6255H47.4506ZM67.967 84.6109C67.967 85.7261 67.773 86.7055 67.3852 87.5491C67.0021 88.3879 66.4518 89.0327 65.7343 89.4836C65.0215 89.9297 64.1997 90.1527 63.2688 90.1527C62.3427 90.1527 61.5185 89.9297 60.7961 89.4836C60.0785 89.0327 59.5233 88.3903 59.1306 87.5564C58.7379 86.7224 58.5391 85.76 58.5343 84.6691V84.0291C58.5343 82.9188 58.7306 81.9394 59.1233 81.0909C59.5161 80.2424 60.0688 79.5927 60.7815 79.1418C61.4991 78.6909 62.3233 78.4655 63.2543 78.4655C64.1803 78.4655 64.9997 78.6885 65.7124 79.1345C66.43 79.5806 66.9827 80.223 67.3706 81.0618C67.7633 81.8958 67.9621 82.8679 67.967 83.9782V84.6109ZM65.9888 84.0145C65.9888 82.7539 65.7512 81.7891 65.2761 81.12C64.8009 80.4461 64.1246 80.1091 63.247 80.1091C62.3936 80.1091 61.7246 80.4436 61.2397 81.1127C60.7597 81.7818 60.5149 82.7297 60.5052 83.9564V84.6109C60.5052 85.8618 60.7476 86.8291 61.2324 87.5127C61.7221 88.1915 62.4009 88.5309 63.2688 88.5309C64.1415 88.5309 64.813 88.1988 65.2833 87.5345C65.7536 86.8655 65.9888 85.8909 65.9888 84.6109V84.0145ZM75.8793 87.0691C75.8793 86.5697 75.7023 86.1842 75.3484 85.9127C74.9993 85.6412 74.3666 85.3673 73.4502 85.0909C72.5339 84.8145 71.8066 84.5091 71.2684 84.1745C70.2308 83.52 69.712 82.6691 69.712 81.6218C69.712 80.7055 70.0854 79.9515 70.832 79.36C71.5787 78.7636 72.5484 78.4655 73.7411 78.4655C74.5314 78.4655 75.2369 78.6133 75.8575 78.9091C76.4781 79.2 76.9654 79.6145 77.3193 80.1527C77.6732 80.6909 77.8502 81.2873 77.8502 81.9418H75.8793C75.8793 81.3503 75.6926 80.8873 75.3193 80.5527C74.9508 80.2133 74.4199 80.0436 73.7266 80.0436C73.0817 80.0436 72.5799 80.1818 72.2211 80.4582C71.8672 80.7345 71.6902 81.12 71.6902 81.6145C71.6902 82.0315 71.8817 82.3806 72.2648 82.6618C72.6526 82.9382 73.2878 83.2097 74.1702 83.4764C75.0575 83.7382 75.7678 84.0364 76.3011 84.3709C76.8393 84.7055 77.232 85.0909 77.4793 85.5273C77.7314 85.9636 77.8575 86.4727 77.8575 87.0545C77.8575 88.0048 77.4939 88.7588 76.7666 89.3164C76.0442 89.8739 75.0599 90.1527 73.8139 90.1527C72.9896 90.1527 72.2308 90.0024 71.5375 89.7018C70.849 89.3964 70.3132 88.977 69.9302 88.4436C69.5472 87.9055 69.3557 87.2776 69.3557 86.56H71.3339C71.3339 87.2097 71.5472 87.7115 71.9739 88.0655C72.4005 88.4194 73.0139 88.5964 73.8139 88.5964C74.5023 88.5964 75.0187 88.4582 75.3629 88.1818C75.7072 87.9006 75.8793 87.5297 75.8793 87.0691Z" fill="#4F5269"/>
<path d="M7.36193 101V96.0236H8.75239C9.15966 96.0236 9.52451 96.117 9.84693 96.3036C10.1715 96.4882 10.4239 96.7544 10.6042 97.1023C10.7866 97.448 10.8778 97.8415 10.8778 98.2827V98.7409C10.8778 99.1842 10.7877 99.5788 10.6074 99.9245C10.4271 100.268 10.1736 100.533 9.84693 100.72C9.52027 100.907 9.14481 101 8.72057 101H7.36193ZM7.78193 96.3832V100.644H8.72375C9.24769 100.644 9.66769 100.471 9.98375 100.125C10.3019 99.7771 10.461 99.3062 10.461 98.7123V98.2764C10.461 97.7036 10.3051 97.2455 9.9933 96.9018C9.68148 96.5582 9.26996 96.3853 8.75875 96.3832H7.78193ZM12.3116 101H11.9011V97.3027H12.3116V101ZM11.8279 96.2305C11.8279 96.1541 11.8523 96.0894 11.9011 96.0364C11.952 95.9812 12.021 95.9536 12.1079 95.9536C12.1949 95.9536 12.2638 95.9812 12.3148 96.0364C12.3657 96.0894 12.3911 96.1541 12.3911 96.2305C12.3911 96.3089 12.3657 96.3747 12.3148 96.4277C12.2638 96.4786 12.1949 96.5041 12.1079 96.5041C12.021 96.5041 11.952 96.4786 11.9011 96.4277C11.8523 96.3747 11.8279 96.3089 11.8279 96.2305ZM13.2534 99.1164C13.2534 98.5373 13.3817 98.0791 13.6384 97.7418C13.895 97.4024 14.2429 97.2327 14.682 97.2327C15.1847 97.2327 15.5676 97.4332 15.8306 97.8341L15.8497 97.3027H16.2347V100.924C16.2347 101.401 16.1011 101.778 15.8338 102.056C15.5666 102.334 15.2059 102.473 14.752 102.473C14.4932 102.473 14.2472 102.415 14.0138 102.298C13.7805 102.184 13.597 102.031 13.4634 101.84L13.6925 101.595C13.9809 101.949 14.3246 102.126 14.7234 102.126C15.0649 102.126 15.3311 102.026 15.522 101.824C15.715 101.623 15.8147 101.344 15.8211 100.987V100.523C15.5581 100.885 15.1762 101.067 14.6756 101.067C14.2472 101.067 13.9025 100.896 13.6416 100.555C13.3828 100.213 13.2534 99.7517 13.2534 99.1705V99.1164ZM13.667 99.1895C13.667 99.6605 13.7614 100.033 13.9502 100.306C14.139 100.578 14.4062 100.714 14.752 100.714C15.2547 100.714 15.6111 100.488 15.8211 100.036V98.3177C15.7256 98.0802 15.5878 97.8998 15.4075 97.7768C15.2272 97.6517 15.0108 97.5891 14.7584 97.5891C14.4126 97.5891 14.1443 97.7248 13.9534 97.9964C13.7625 98.2658 13.667 98.6635 13.667 99.1895ZM17.7598 101H17.3494V97.3027H17.7598V101ZM17.2762 96.2305C17.2762 96.1541 17.3006 96.0894 17.3494 96.0364C17.4003 95.9812 17.4692 95.9536 17.5562 95.9536C17.6432 95.9536 17.7121 95.9812 17.763 96.0364C17.8139 96.0894 17.8394 96.1541 17.8394 96.2305C17.8394 96.3089 17.8139 96.3747 17.763 96.4277C17.7121 96.4786 17.6432 96.5041 17.5562 96.5041C17.4692 96.5041 17.4003 96.4786 17.3494 96.4277C17.3006 96.3747 17.2762 96.3089 17.2762 96.2305ZM19.5002 96.3545V97.3027H20.2671V97.6368H19.5002V100.1C19.5002 100.305 19.5374 100.459 19.6116 100.561C19.6859 100.661 19.8099 100.71 19.9839 100.71C20.0518 100.71 20.1621 100.699 20.3148 100.675L20.3307 101.01C20.2246 101.048 20.0793 101.067 19.8948 101.067C19.6148 101.067 19.4101 100.986 19.2807 100.825C19.1534 100.662 19.0898 100.422 19.0898 100.106V97.6368H18.4121V97.3027H19.0898V96.3545H19.5002ZM23.4484 101C23.4081 100.883 23.3826 100.712 23.372 100.485C23.2278 100.671 23.0443 100.815 22.8215 100.917C22.5988 101.017 22.3634 101.067 22.1152 101.067C21.7609 101.067 21.4735 100.968 21.2529 100.771C21.0323 100.574 20.922 100.323 20.922 100.02C20.922 99.6594 21.0715 99.3741 21.3706 99.1641C21.6718 98.9541 22.0897 98.8491 22.6243 98.8491H23.3656V98.4291C23.3656 98.1661 23.284 97.9592 23.1206 97.8086C22.9594 97.6559 22.7229 97.5795 22.4111 97.5795C22.1247 97.5795 21.8882 97.6527 21.7015 97.7991C21.5149 97.9433 21.4215 98.1183 21.4215 98.3241L21.0111 98.3209C21.0111 98.0261 21.1479 97.7715 21.4215 97.5573C21.6952 97.3409 22.0314 97.2327 22.4302 97.2327C22.8438 97.2327 23.1694 97.3367 23.407 97.5445C23.6446 97.7503 23.7665 98.0377 23.7729 98.4068V100.157C23.7729 100.513 23.8111 100.78 23.8875 100.959V101H23.4484ZM22.1629 100.707C22.4365 100.707 22.6805 100.642 22.8947 100.51C23.1111 100.376 23.2681 100.199 23.3656 99.9786V99.1641H22.637C22.2276 99.1683 21.9073 99.2436 21.6761 99.39C21.447 99.5342 21.3325 99.7326 21.3325 99.985C21.3325 100.193 21.4088 100.366 21.5615 100.504C21.7164 100.639 21.9168 100.707 22.1629 100.707ZM25.3204 101H24.9099V95.75H25.3204V101ZM29.2947 96.0236L31.1306 100.415L32.9729 96.0236H33.5329V101H33.1129V98.8332L33.1447 96.6123L31.2929 101H30.9684L29.1229 96.6282L29.1579 98.8205V101H28.7379V96.0236H29.2947ZM37.0314 101C36.9911 100.883 36.9656 100.712 36.955 100.485C36.8108 100.671 36.6273 100.815 36.4046 100.917C36.1818 101.017 35.9464 101.067 35.6982 101.067C35.3439 101.067 35.0565 100.968 34.8359 100.771C34.6153 100.574 34.505 100.323 34.505 100.02C34.505 99.6594 34.6546 99.3741 34.9536 99.1641C35.2549 98.9541 35.6727 98.8491 36.2073 98.8491H36.9486V98.4291C36.9486 98.1661 36.867 97.9592 36.7036 97.8086C36.5424 97.6559 36.3059 97.5795 35.9941 97.5795C35.7077 97.5795 35.4712 97.6527 35.2846 97.7991C35.0979 97.9433 35.0046 98.1183 35.0046 98.3241L34.5941 98.3209C34.5941 98.0261 34.7309 97.7715 35.0046 97.5573C35.2782 97.3409 35.6144 97.2327 36.0132 97.2327C36.4268 97.2327 36.7524 97.3367 36.99 97.5445C37.2276 97.7503 37.3496 98.0377 37.3559 98.4068V100.157C37.3559 100.513 37.3941 100.78 37.4705 100.959V101H37.0314ZM35.7459 100.707C36.0196 100.707 36.2635 100.642 36.4777 100.51C36.6941 100.376 36.8511 100.199 36.9486 99.9786V99.1641H36.22C35.8106 99.1683 35.4903 99.2436 35.2591 99.39C35.03 99.5342 34.9155 99.7326 34.9155 99.985C34.9155 100.193 34.9918 100.366 35.1446 100.504C35.2994 100.639 35.4999 100.707 35.7459 100.707ZM40.1538 97.6495C40.0669 97.6347 39.9746 97.6273 39.877 97.6273C39.6203 97.6273 39.404 97.6983 39.2279 97.8405C39.0519 97.9826 38.9256 98.1894 38.8493 98.4609V101H38.4452V97.3027H38.8429L38.8493 97.8882C39.0656 97.4512 39.4135 97.2327 39.8929 97.2327C40.0075 97.2327 40.0976 97.2476 40.1634 97.2773L40.1538 97.6495ZM41.6749 99.1386L41.204 99.5873V101H40.7968V95.75H41.204V99.11L41.5922 98.6932L43.0081 97.3027H43.5236L41.9549 98.8618L43.6604 101H43.1704L41.6749 99.1386ZM45.6534 101.067C45.3373 101.067 45.052 100.989 44.7975 100.835C44.545 100.68 44.3478 100.464 44.2056 100.189C44.0656 99.9108 43.9956 99.6 43.9956 99.2564V99.11C43.9956 98.7536 44.0646 98.4333 44.2025 98.1491C44.3403 97.8648 44.5323 97.6411 44.7784 97.4777C45.0244 97.3144 45.2906 97.2327 45.577 97.2327C46.0267 97.2327 46.3831 97.3865 46.6461 97.6941C46.9091 97.9995 47.0406 98.4174 47.0406 98.9477V99.1768H44.4029V99.2564C44.4029 99.6764 44.5228 100.026 44.7625 100.306C45.0022 100.584 45.3044 100.723 45.6693 100.723C45.8878 100.723 46.0808 100.684 46.2484 100.605C46.416 100.525 46.5687 100.397 46.7066 100.22L46.9611 100.415C46.6599 100.849 46.224 101.067 45.6534 101.067ZM45.577 97.5827C45.2694 97.5827 45.0096 97.6952 44.7975 97.92C44.5875 98.1448 44.4602 98.4482 44.4156 98.83H46.6334V98.7855C46.6228 98.4291 46.521 98.1395 46.3279 97.9168C46.137 97.6941 45.8867 97.5827 45.577 97.5827ZM48.4709 96.3545V97.3027H49.2378V97.6368H48.4709V100.1C48.4709 100.305 48.5081 100.459 48.5823 100.561C48.6566 100.661 48.7806 100.71 48.9546 100.71C49.0225 100.71 49.1328 100.699 49.2855 100.675L49.3014 101.01C49.1953 101.048 49.05 101.067 48.8655 101.067C48.5855 101.067 48.3808 100.986 48.2514 100.825C48.1241 100.662 48.0605 100.422 48.0605 100.106V97.6368H47.3828V97.3027H48.0605V96.3545H48.4709ZM50.545 101H50.1345V97.3027H50.545V101ZM50.0613 96.2305C50.0613 96.1541 50.0857 96.0894 50.1345 96.0364C50.1854 95.9812 50.2544 95.9536 50.3413 95.9536C50.4283 95.9536 50.4972 95.9812 50.5482 96.0364C50.5991 96.0894 50.6245 96.1541 50.6245 96.2305C50.6245 96.3089 50.5991 96.3747 50.5482 96.4277C50.4972 96.4786 50.4283 96.5041 50.3413 96.5041C50.2544 96.5041 50.1854 96.4786 50.1345 96.4277C50.0857 96.3747 50.0613 96.3089 50.0613 96.2305ZM52.0404 97.3027L52.0531 97.9327C52.1931 97.7058 52.366 97.5329 52.5718 97.4141C52.7796 97.2932 53.0098 97.2327 53.2622 97.2327C53.6568 97.2327 53.9506 97.3452 54.1436 97.57C54.3387 97.7927 54.4374 98.1268 54.4395 98.5723V101H54.0322V98.5691C54.0301 98.2382 53.9601 97.9921 53.8222 97.8309C53.6843 97.6697 53.4637 97.5891 53.1604 97.5891C52.908 97.5891 52.6842 97.6686 52.489 97.8277C52.2939 97.9847 52.1496 98.1979 52.0563 98.4673V101H51.6522V97.3027H52.0404ZM55.3286 99.1164C55.3286 98.5373 55.4569 98.0791 55.7136 97.7418C55.9702 97.4024 56.3181 97.2327 56.7572 97.2327C57.2599 97.2327 57.6428 97.4332 57.9058 97.8341L57.9249 97.3027H58.3099V100.924C58.3099 101.401 58.1763 101.778 57.909 102.056C57.6417 102.334 57.2811 102.473 56.8272 102.473C56.5684 102.473 56.3224 102.415 56.089 102.298C55.8557 102.184 55.6722 102.031 55.5386 101.84L55.7677 101.595C56.0561 101.949 56.3998 102.126 56.7986 102.126C57.1401 102.126 57.4063 102.026 57.5972 101.824C57.7902 101.623 57.8899 101.344 57.8963 100.987V100.523C57.6333 100.885 57.2514 101.067 56.7508 101.067C56.3224 101.067 55.9777 100.896 55.7167 100.555C55.458 100.213 55.3286 99.7517 55.3286 99.1705V99.1164ZM55.7422 99.1895C55.7422 99.6605 55.8366 100.033 56.0254 100.306C56.2142 100.578 56.4814 100.714 56.8272 100.714C57.3299 100.714 57.6863 100.488 57.8963 100.036V98.3177C57.8008 98.0802 57.663 97.8998 57.4827 97.7768C57.3024 97.6517 57.086 97.5891 56.8336 97.5891C56.4878 97.5891 56.2195 97.7248 56.0286 97.9964C55.8377 98.2658 55.7422 98.6635 55.7422 99.1895ZM64.3726 99.6064H62.1135L61.6012 101H61.1589L63.0426 96.0236H63.4435L65.3271 101H64.888L64.3726 99.6064ZM62.2439 99.2468H64.2389L63.2399 96.5359L62.2439 99.2468ZM65.8012 99.1164C65.8012 98.5373 65.9296 98.0791 66.1862 97.7418C66.4429 97.4024 66.7908 97.2327 67.2299 97.2327C67.7326 97.2327 68.1155 97.4332 68.3785 97.8341L68.3976 97.3027H68.7826V100.924C68.7826 101.401 68.6489 101.778 68.3817 102.056C68.1144 102.334 67.7538 102.473 67.2999 102.473C67.0411 102.473 66.795 102.415 66.5617 102.298C66.3283 102.184 66.1449 102.031 66.0112 101.84L66.2403 101.595C66.5288 101.949 66.8724 102.126 67.2712 102.126C67.6127 102.126 67.8789 102.026 68.0699 101.824C68.2629 101.623 68.3626 101.344 68.3689 100.987V100.523C68.1059 100.885 67.7241 101.067 67.2235 101.067C66.795 101.067 66.4503 100.896 66.1894 100.555C65.9306 100.213 65.8012 99.7517 65.8012 99.1705V99.1164ZM66.2149 99.1895C66.2149 99.6605 66.3093 100.033 66.498 100.306C66.6868 100.578 66.9541 100.714 67.2999 100.714C67.8026 100.714 68.1589 100.488 68.3689 100.036V98.3177C68.2735 98.0802 68.1356 97.8998 67.9553 97.7768C67.775 97.6517 67.5586 97.5891 67.3062 97.5891C66.9605 97.5891 66.6921 97.7248 66.5012 97.9964C66.3103 98.2658 66.2149 98.6635 66.2149 99.1895ZM71.2813 101.067C70.9652 101.067 70.6799 100.989 70.4254 100.835C70.173 100.68 69.9757 100.464 69.8336 100.189C69.6936 99.9108 69.6236 99.6 69.6236 99.2564V99.11C69.6236 98.7536 69.6925 98.4333 69.8304 98.1491C69.9683 97.8648 70.1602 97.6411 70.4063 97.4777C70.6524 97.3144 70.9186 97.2327 71.2049 97.2327C71.6546 97.2327 72.011 97.3865 72.274 97.6941C72.5371 97.9995 72.6686 98.4174 72.6686 98.9477V99.1768H70.0309V99.2564C70.0309 99.6764 70.1507 100.026 70.3904 100.306C70.6301 100.584 70.9324 100.723 71.2972 100.723C71.5157 100.723 71.7087 100.684 71.8763 100.605C72.0439 100.525 72.1966 100.397 72.3345 100.22L72.589 100.415C72.2878 100.849 71.8519 101.067 71.2813 101.067ZM71.2049 97.5827C70.8974 97.5827 70.6375 97.6952 70.4254 97.92C70.2154 98.1448 70.0881 98.4482 70.0436 98.83H72.2613V98.7855C72.2507 98.4291 72.1489 98.1395 71.9559 97.9168C71.7649 97.6941 71.5146 97.5827 71.2049 97.5827ZM73.8539 97.3027L73.8666 97.9327C74.0066 97.7058 74.1795 97.5329 74.3852 97.4141C74.5931 97.2932 74.8233 97.2327 75.0757 97.2327C75.4702 97.2327 75.764 97.3452 75.9571 97.57C76.1522 97.7927 76.2508 98.1268 76.253 98.5723V101H75.8457V98.5691C75.8436 98.2382 75.7736 97.9921 75.6357 97.8309C75.4978 97.6697 75.2772 97.5891 74.9739 97.5891C74.7215 97.5891 74.4977 97.6686 74.3025 97.8277C74.1074 97.9847 73.9631 98.1979 73.8698 98.4673V101H73.4657V97.3027H73.8539ZM78.6725 100.723C78.9589 100.723 79.1975 100.644 79.3884 100.485C79.5814 100.323 79.6864 100.114 79.7034 99.8577H80.0948C80.0842 100.085 80.0131 100.292 79.8816 100.478C79.7522 100.663 79.5793 100.807 79.3629 100.911C79.1487 101.015 78.9186 101.067 78.6725 101.067C78.1867 101.067 77.8017 100.899 77.5175 100.564C77.2354 100.227 77.0943 99.7729 77.0943 99.2023V99.0782C77.0943 98.7133 77.1579 98.3909 77.2852 98.1109C77.4125 97.8309 77.5949 97.6145 77.8325 97.4618C78.0722 97.3091 78.3511 97.2327 78.6693 97.2327C79.0745 97.2327 79.4086 97.3536 79.6716 97.5955C79.9367 97.8373 80.0778 98.1555 80.0948 98.55H79.7034C79.6843 98.2594 79.5793 98.0261 79.3884 97.85C79.1996 97.6718 78.9599 97.5827 78.6693 97.5827C78.3002 97.5827 78.0139 97.7164 77.8102 97.9836C77.6066 98.2488 77.5048 98.6221 77.5048 99.1036V99.2214C77.5048 99.6944 77.6066 100.063 77.8102 100.329C78.0139 100.592 78.3013 100.723 78.6725 100.723ZM82.0809 100.411L83.1596 97.3027H83.6019L82.0237 101.63L81.9409 101.821C81.7373 102.268 81.4244 102.492 81.0023 102.492C80.9026 102.492 80.7976 102.476 80.6873 102.445L80.6841 102.107L80.8941 102.126C81.0956 102.126 81.2579 102.077 81.3809 101.977C81.5061 101.879 81.6122 101.71 81.6991 101.468L81.8805 100.968L80.4837 97.3027H80.9323L82.0809 100.411Z" fill="#4F5269"/>
<path d="M10.6717 68.1502C10.9425 68.1502 11.1786 68.1427 11.3798 68.1278C11.5836 68.1104 11.7563 68.0868 11.8979 68.057C12.0396 68.0272 12.1514 67.9912 12.2334 67.9489C12.3154 67.9042 12.3738 67.8532 12.4086 67.7961V67.7998C12.421 67.7799 12.4297 67.7538 12.4347 67.7215C12.4396 67.6892 12.4421 67.6582 12.4421 67.6284C12.4421 67.5812 12.4322 67.5277 12.4123 67.4681C12.3949 67.4085 12.3701 67.3463 12.3378 67.2817C12.3079 67.2146 12.2719 67.1475 12.2297 67.0805C12.1874 67.0109 12.1427 66.9425 12.0955 66.8755C11.9066 66.6145 11.7414 66.3909 11.5998 66.2045C11.4581 66.0182 11.3401 65.8641 11.2457 65.7424C11.1338 65.6007 11.0382 65.4815 10.9587 65.3845L11.1562 64.5832L14.4809 63.0177L14.8611 63.8675L11.9278 65.2131L13.072 66.7636C13.2087 66.95 13.3304 67.114 13.4373 67.2556C13.5466 67.3948 13.6473 67.5153 13.7392 67.6172C13.8311 67.7166 13.9181 67.7998 14.0001 67.8669C14.0846 67.9315 14.1703 67.9837 14.2573 68.0235C14.3468 68.0607 14.4399 68.0881 14.5368 68.1055C14.6362 68.1204 14.7468 68.1278 14.8686 68.1278H14.9394V69.0559H14.8686C14.6549 69.0559 14.4648 69.0373 14.2983 69C14.1318 68.9602 13.9802 68.9056 13.8436 68.836C13.7094 68.7664 13.5851 68.6819 13.4708 68.5825C13.3565 68.4832 13.2447 68.3713 13.1354 68.2471C13.0335 68.4508 12.8993 68.6086 12.7328 68.7205C12.5664 68.8323 12.3763 68.9143 12.1626 68.9665C11.9514 69.0186 11.719 69.0497 11.4656 69.0596C11.2121 69.0696 10.9462 69.0745 10.6679 69.0745L8.45393 69.0559C8.27005 69.0559 8.09612 69.0248 7.93212 68.9627C7.76812 68.9006 7.62275 68.8099 7.49602 68.6906C7.44633 68.6434 7.39415 68.5863 7.33948 68.5192C7.2873 68.4521 7.24009 68.3726 7.19784 68.2806C7.1556 68.1887 7.12081 68.0856 7.09348 67.9713C7.06615 67.8545 7.05248 67.724 7.05248 67.5799C7.05248 67.4557 7.0649 67.3215 7.08975 67.1774C7.1146 67.0308 7.14193 66.8928 7.17175 66.7636C7.20405 66.6344 7.23387 66.5226 7.26121 66.4282C7.28854 66.3338 7.30593 66.2754 7.31339 66.253L7.75693 66.3946L8.19675 66.5325C8.17439 66.5996 8.15078 66.6804 8.12593 66.7748C8.10109 66.8668 8.07748 66.9624 8.05512 67.0618C8.03275 67.1587 8.01412 67.2532 7.99921 67.3451C7.9843 67.437 7.97684 67.5165 7.97684 67.5836C7.97684 67.7029 7.99299 67.7998 8.0253 67.8744C8.06009 67.9464 8.10109 68.0023 8.1483 68.0421C8.19799 68.0794 8.25142 68.1042 8.30857 68.1166C8.36572 68.1291 8.41666 68.1353 8.46139 68.1353L10.6717 68.1502ZM11.2904 63.4091L14.1306 62.1754L14.3244 62.5928L11.2419 63.9384L11.2904 63.4091ZM17.8534 68.1278V69.0559H17.6186C17.4074 69.0559 17.2148 69.0273 17.0409 68.9702C16.8669 68.913 16.7203 68.8285 16.6011 68.7167C16.4619 68.8335 16.2967 68.9192 16.1053 68.9739C15.9165 69.0286 15.7003 69.0559 15.4568 69.0559H14.7971V68.1278H15.4568C15.6084 68.1278 15.7289 68.1142 15.8183 68.0868C15.9103 68.057 15.9786 68.021 16.0233 67.9787C16.0705 67.9365 16.1004 67.8893 16.1128 67.8371C16.1277 67.7849 16.1351 67.734 16.1351 67.6843V66.4766H17.0595V67.6582C17.0595 67.77 17.0844 67.8582 17.1341 67.9228C17.1838 67.9849 17.2397 68.0322 17.3018 68.0645C17.3664 68.0943 17.4298 68.1129 17.4919 68.1204C17.554 68.1253 17.5962 68.1278 17.6186 68.1278H17.8534ZM15.7065 64.7621L16.3774 64.0837L17.0632 64.7695L16.3849 65.4479L15.7065 64.7621ZM21.7113 68.1278V69.0559H21.1596C20.9484 69.0559 20.7558 69.0273 20.5819 68.9702C20.408 68.913 20.2614 68.8285 20.1421 68.7167C20.0029 68.8335 19.8377 68.9192 19.6464 68.9739C19.4575 69.0286 19.2413 69.0559 18.9978 69.0559H17.7082V68.1278H18.9978C19.1494 68.1278 19.2699 68.1142 19.3594 68.0868C19.4513 68.057 19.5196 68.021 19.5644 67.9787C19.6116 67.9365 19.6414 67.8893 19.6538 67.8371C19.6687 67.7849 19.6762 67.734 19.6762 67.6843V66.4766H20.6005V67.6582C20.6005 67.77 20.6254 67.8582 20.6751 67.9228C20.7248 67.9849 20.7807 68.0322 20.8428 68.0645C20.9074 68.0943 20.9708 68.1129 21.0329 68.1204C21.095 68.1253 21.1373 68.1278 21.1596 68.1278H21.7113ZM20.2204 71.1059L19.5942 70.4723L20.2129 69.8312L20.854 70.4723L20.2204 71.1059ZM18.6586 71.1096L18.0324 70.476L18.6474 69.8349L19.2885 70.476L18.6586 71.1096ZM25.563 68.1278V69.0559H25.0114C24.8002 69.0559 24.6076 69.0273 24.4337 68.9702C24.2597 68.913 24.1131 68.8285 23.9938 68.7167C23.8547 68.8335 23.6894 68.9192 23.4981 68.9739C23.3093 69.0286 23.0931 69.0559 22.8496 69.0559H21.5599V68.1278H22.8496C23.0011 68.1278 23.1217 68.1142 23.2111 68.0868C23.303 68.057 23.3714 68.021 23.4161 67.9787C23.4633 67.9365 23.4931 67.8893 23.5056 67.8371C23.5205 67.7849 23.5279 67.734 23.5279 67.6843V66.4766H24.4523V67.6582C24.4523 67.77 24.4771 67.8582 24.5268 67.9228C24.5765 67.9849 24.6324 68.0322 24.6946 68.0645C24.7592 68.0943 24.8225 68.1129 24.8847 68.1204C24.9468 68.1253 24.989 68.1278 25.0114 68.1278H25.563ZM24.2995 65.515L23.6733 64.8814L24.292 64.2403L24.9331 64.8814L24.2995 65.515ZM22.7377 65.5187L22.1116 64.8851L22.7266 64.244L23.3677 64.8851L22.7377 65.5187ZM25.4117 69.0559V68.1278H27.5921C27.6319 68.1278 27.6866 68.1266 27.7561 68.1241C27.8257 68.1191 27.894 68.1092 27.9611 68.0943C28.0282 68.0769 28.0854 68.0533 28.1326 68.0235C28.1823 67.9912 28.2071 67.9477 28.2071 67.893C28.2071 67.7862 28.1661 67.6569 28.0841 67.5054C28.0046 67.3538 27.9015 67.1923 27.7748 67.0208C27.648 66.8494 27.5052 66.6767 27.3461 66.5027C27.1896 66.3263 27.033 66.1611 26.8765 66.007C26.7224 65.8505 26.5771 65.7125 26.4404 65.5933C26.3037 65.474 26.1944 65.3845 26.1124 65.3249L26.187 64.4825L29.4297 62.9991L29.7689 63.8116L27.0405 65.0155C27.1349 65.1075 27.2405 65.2118 27.3573 65.3286C27.4766 65.4454 27.5984 65.5697 27.7226 65.7014C27.8468 65.8306 27.9698 65.966 28.0916 66.1076C28.2158 66.2468 28.3314 66.3872 28.4382 66.5288C28.5476 66.668 28.6445 66.8046 28.729 66.9388C28.8134 67.073 28.8793 67.1997 28.9265 67.319C28.9687 67.4234 28.9986 67.524 29.016 67.6209C29.0334 67.7178 29.042 67.806 29.042 67.8855C29.042 67.9849 29.0321 68.0719 29.0122 68.1465C28.9948 68.221 28.975 68.2844 28.9526 68.3365C28.9228 68.4036 28.8768 68.4794 28.8147 68.5639C28.7526 68.6484 28.6656 68.7267 28.5538 68.7987C28.4444 68.8708 28.3053 68.9317 28.1363 68.9814C27.9698 69.0311 27.7673 69.0559 27.5288 69.0559H25.4117ZM31.6109 68.8285C31.596 69.1715 31.5326 69.4796 31.4208 69.7529C31.309 70.0287 31.1549 70.2623 30.9586 70.4536C30.7623 70.6475 30.525 70.7965 30.2467 70.9009C29.9684 71.0053 29.654 71.0575 29.3037 71.0575H28.8415V70.1294H29.3037C29.5422 70.1294 29.7485 70.1045 29.9224 70.0548C30.0964 70.0051 30.2392 69.9256 30.351 69.8163C30.4629 69.7069 30.5461 69.5641 30.6008 69.3876C30.6554 69.2137 30.6828 69.0012 30.6828 68.7503V66.4804H31.6109V68.8285ZM34.3614 69.0559C34.0881 69.0559 33.8533 69.0385 33.657 69.0037C33.4607 68.9714 33.2954 68.923 33.1613 68.8584C33.0271 68.7913 32.919 68.7068 32.837 68.6049C32.7575 68.503 32.6966 68.3838 32.6544 68.2471C32.6121 68.1104 32.5835 67.9564 32.5686 67.7849C32.5562 67.611 32.55 67.4196 32.55 67.2109V63.6812H33.4781V67.2109C33.4781 67.4097 33.4843 67.5687 33.4967 67.688C33.5116 67.8073 33.5477 67.9005 33.6048 67.9675C33.6644 68.0322 33.7527 68.0756 33.8694 68.098C33.9887 68.1179 34.1527 68.1278 34.3614 68.1278V69.0559ZM36.9779 68.3515C37.0003 68.3515 37.0351 68.3477 37.0823 68.3403C37.132 68.3303 37.1817 68.303 37.2314 68.2583C37.2811 68.2135 37.3245 68.1452 37.3618 68.0533C37.4016 67.9588 37.4215 67.8272 37.4215 67.6582C37.4215 67.5936 37.409 67.5116 37.3842 67.4122C37.3618 67.3103 37.3208 67.2122 37.2612 67.1177C37.204 67.0208 37.1258 66.9388 37.0264 66.8717C36.9295 66.8022 36.8065 66.7674 36.6574 66.7674C36.5281 66.7674 36.4225 66.8059 36.3405 66.8829C36.2585 66.9599 36.189 67.0556 36.1318 67.1699C36.0771 67.2842 36.0299 67.4085 35.9902 67.5426C35.9529 67.6743 35.9119 67.7948 35.8672 67.9042C35.9591 67.9564 36.056 68.0098 36.1579 68.0645C36.2623 68.1166 36.3641 68.1638 36.4635 68.2061C36.5629 68.2483 36.6561 68.2831 36.7431 68.3105C36.8325 68.3378 36.9108 68.3515 36.9779 68.3515ZM36.6574 65.843C36.9183 65.843 37.1456 65.8915 37.3395 65.9884C37.5358 66.0853 37.6973 66.2157 37.824 66.3797C37.9532 66.5412 38.0489 66.7288 38.111 66.9425C38.1756 67.1562 38.2079 67.3799 38.2079 67.6135C38.2079 67.8719 38.1855 68.0918 38.1408 68.2732C38.0961 68.4546 38.0365 68.6049 37.9619 68.7242C37.8898 68.8435 37.8066 68.9366 37.7122 69.0037C37.6202 69.0733 37.5271 69.1242 37.4326 69.1565C37.3407 69.1913 37.2512 69.2125 37.1643 69.2199C37.0773 69.2298 37.0028 69.2348 36.9406 69.2348C36.8164 69.2348 36.6984 69.2224 36.5865 69.1975C36.4747 69.1752 36.3604 69.1416 36.2436 69.0969C36.1293 69.0547 36.0101 69.0025 35.8858 68.9404C35.7616 68.8758 35.6261 68.8037 35.4795 68.7242C35.3677 68.8435 35.2472 68.9292 35.118 68.9814C34.9913 69.0311 34.8422 69.0559 34.6707 69.0559H34.2123L34.2048 68.1278H34.6707C34.7254 68.1278 34.7726 68.1117 34.8124 68.0794C34.8546 68.0471 34.8919 68.0023 34.9242 67.9452C34.959 67.8855 34.99 67.8147 35.0174 67.7327C35.0472 67.6482 35.077 67.5551 35.1068 67.4532C35.1565 67.2743 35.2161 67.0904 35.2857 66.9015C35.3553 66.7102 35.4472 66.5363 35.5615 66.3797C35.6783 66.2232 35.8249 66.0952 36.0014 65.9958C36.1778 65.8939 36.3965 65.843 36.6574 65.843ZM43.3715 71.1171C43.1951 71.1171 43.0261 71.0972 42.8646 71.0575C42.7031 71.0177 42.5515 70.9593 42.4099 70.8823C42.2682 70.8052 42.1378 70.7121 42.0185 70.6027C41.8992 70.4959 41.7949 70.3729 41.7054 70.2337C41.6682 70.1741 41.6296 70.1033 41.5899 70.0213C41.5526 69.9418 41.5191 69.8511 41.4892 69.7492C41.4594 69.6473 41.4346 69.5342 41.4147 69.41C41.3948 69.2858 41.3849 69.1503 41.3849 69.0037C41.3849 68.882 41.3911 68.7577 41.4035 68.631C41.4159 68.5018 41.4396 68.3651 41.4743 68.221C41.5091 68.0769 41.5576 67.9216 41.6197 67.7551C41.6818 67.5861 41.7626 67.3985 41.862 67.1923L42.7006 67.5911C42.6261 67.7452 42.5627 67.8868 42.5105 68.016C42.4608 68.1427 42.4211 68.2632 42.3912 68.3775C42.3614 68.4894 42.3391 68.5962 42.3242 68.6981C42.3117 68.8 42.3055 68.9031 42.3055 69.0075C42.3055 69.1491 42.3204 69.2808 42.3502 69.4025C42.3826 69.5268 42.4298 69.6386 42.4919 69.738L42.4882 69.7343C42.5826 69.8685 42.7081 69.9778 42.8646 70.0623C43.0236 70.1468 43.1926 70.189 43.3715 70.189H43.543C43.8039 70.189 44.0163 70.1617 44.1803 70.107C44.3468 70.0523 44.476 69.9753 44.568 69.8759C44.6624 69.7765 44.7258 69.656 44.7581 69.5144C44.7929 69.3727 44.8102 69.2149 44.8102 69.041V63.6812H45.7272V69.041C45.7272 70.4201 44.9991 71.1121 43.543 71.1171H43.3715ZM48.7835 69.0559C48.5102 69.0559 48.2754 69.0385 48.0791 69.0037C47.8828 68.9714 47.7175 68.923 47.5833 68.8584C47.4492 68.7913 47.3411 68.7068 47.2591 68.6049C47.1796 68.503 47.1187 68.3838 47.0764 68.2471C47.0342 68.1104 47.0056 67.9564 46.9907 67.7849C46.9783 67.611 46.9721 67.4196 46.9721 67.2109V63.6812H47.9002V67.2109C47.9002 67.4097 47.9064 67.5687 47.9188 67.688C47.9337 67.8073 47.9697 67.9005 48.0269 67.9675C48.0865 68.0322 48.1747 68.0756 48.2915 68.098C48.4108 68.1179 48.5748 68.1278 48.7835 68.1278V69.0559ZM52.6374 68.1278V69.0559H52.0858C51.8746 69.0559 51.682 69.0273 51.5081 68.9702C51.3341 68.913 51.1875 68.8285 51.0682 68.7167C50.9291 68.8335 50.7639 68.9192 50.5725 68.9739C50.3837 69.0286 50.1675 69.0559 49.924 69.0559H48.6343V68.1278H49.924C50.0756 68.1278 50.1961 68.1142 50.2855 68.0868C50.3775 68.057 50.4458 68.021 50.4905 67.9787C50.5377 67.9365 50.5676 67.8893 50.58 67.8371C50.5949 67.7849 50.6023 67.734 50.6023 67.6843V66.4766H51.5267V67.6582C51.5267 67.77 51.5516 67.8582 51.6012 67.9228C51.6509 67.9849 51.7069 68.0322 51.769 68.0645C51.8336 68.0943 51.8969 68.1129 51.9591 68.1204C52.0212 68.1253 52.0634 68.1278 52.0858 68.1278H52.6374ZM51.3739 65.515L50.7477 64.8814L51.3664 64.2403L52.0075 64.8814L51.3739 65.515ZM49.8122 65.5187L49.186 64.8851L49.801 64.244L50.4421 64.8851L49.8122 65.5187ZM56.4892 68.1278V69.0559H55.9376C55.7263 69.0559 55.5338 69.0273 55.3598 68.9702C55.1859 68.913 55.0393 68.8285 54.92 68.7167C54.7809 68.8335 54.6156 68.9192 54.4243 68.9739C54.2354 69.0286 54.0193 69.0559 53.7757 69.0559H52.4861V68.1278H53.7757C53.9273 68.1278 54.0478 68.1142 54.1373 68.0868C54.2292 68.057 54.2976 68.021 54.3423 67.9787C54.3895 67.9365 54.4193 67.8893 54.4317 67.8371C54.4466 67.7849 54.4541 67.734 54.4541 67.6843V66.4766H55.3785V67.6582C55.3785 67.77 55.4033 67.8582 55.453 67.9228C55.5027 67.9849 55.5586 68.0322 55.6207 68.0645C55.6853 68.0943 55.7487 68.1129 55.8108 68.1204C55.8729 68.1253 55.9152 68.1278 55.9376 68.1278H56.4892ZM54.9983 71.1059L54.3721 70.4723L54.9908 69.8312L55.6319 70.4723L54.9983 71.1059ZM53.4366 71.1096L52.8104 70.476L53.4254 69.8349L54.0665 70.476L53.4366 71.1096ZM61.4591 67.5725C61.4467 67.5799 61.4069 67.6072 61.3399 67.6545C61.2728 67.6992 61.1821 67.7576 61.0678 67.8296C61.0926 67.9042 61.1311 67.9626 61.1833 68.0048C61.2355 68.0446 61.2889 68.0744 61.3436 68.0943C61.3983 68.1117 61.4492 68.1216 61.4964 68.1241C61.5461 68.1266 61.5809 68.1278 61.6008 68.1278H62.2829V69.0559H61.6008C61.3051 69.0534 61.0392 68.9888 60.8031 68.8621C60.5696 68.7329 60.3869 68.5403 60.2552 68.2844C60.0639 68.3788 59.8576 68.4732 59.6365 68.5676C59.4153 68.6596 59.1843 68.7416 58.9432 68.8136C58.7022 68.8857 58.4549 68.9441 58.2015 68.9888C57.948 69.0335 57.6946 69.0559 57.4411 69.0559H56.3304V68.1278H57.4411C57.6846 68.1278 57.9443 68.103 58.2201 68.0533C58.4959 68.0036 58.768 67.9402 59.0364 67.8632C59.3048 67.7837 59.5595 67.6955 59.8005 67.5985C60.044 67.5016 60.2552 67.406 60.4341 67.3115C60.3223 67.2768 60.1993 67.2395 60.0651 67.1997C59.9309 67.1575 59.7943 67.1165 59.6551 67.0767C59.516 67.0345 59.3781 66.9947 59.2414 66.9575C59.1047 66.9177 58.9768 66.8829 58.8575 66.8531C58.7382 66.8233 58.6314 66.7997 58.5369 66.7823C58.4425 66.7649 58.368 66.7562 58.3133 66.7562C58.2562 66.7562 58.2052 66.7636 58.1605 66.7785C58.1183 66.791 58.0797 66.8133 58.0449 66.8456C58.0102 66.8755 57.9779 66.9152 57.948 66.9649C57.9182 67.0146 57.8872 67.0742 57.8549 67.1438L57.0013 66.8866C57.0485 66.7375 57.1057 66.5984 57.1728 66.4692C57.2423 66.3375 57.3256 66.2232 57.4225 66.1263C57.5219 66.0294 57.6362 65.9536 57.7654 65.8989C57.8946 65.8418 58.0425 65.8132 58.2089 65.8132C58.2736 65.8132 58.3655 65.8268 58.4848 65.8542C58.604 65.8815 58.7395 65.9175 58.891 65.9623C59.0426 66.007 59.2041 66.0579 59.3756 66.1151C59.5495 66.1722 59.7235 66.2319 59.8974 66.294C60.0713 66.3561 60.2403 66.417 60.4043 66.4766C60.5683 66.5363 60.7162 66.5909 60.8479 66.6406C60.9796 66.6878 61.0901 66.7276 61.1796 66.7599C61.269 66.7922 61.3262 66.8121 61.351 66.8195L61.4591 67.5725ZM58.3096 70.3344L58.9805 69.656L59.6663 70.3418L58.9879 71.0202L58.3096 70.3344ZM64.8969 65.925C64.9018 65.9424 64.9118 65.9834 64.9267 66.048C64.9441 66.1126 64.9627 66.1921 64.9826 66.2865C65.0025 66.3785 65.0224 66.4816 65.0422 66.5959C65.0646 66.7102 65.0845 66.8258 65.1019 66.9425C65.1217 67.0568 65.1367 67.1687 65.1466 67.278C65.159 67.3873 65.1652 67.483 65.1652 67.565C65.1652 67.8209 65.123 68.0433 65.0385 68.2322C64.954 68.4185 64.8434 68.5726 64.7068 68.6944C64.5701 68.8161 64.416 68.9068 64.2446 68.9665C64.0756 69.0261 63.9054 69.0559 63.734 69.0559H62.1275V68.1278H63.76C63.7899 68.1278 63.8321 68.1241 63.8868 68.1166C63.9439 68.1067 63.9998 68.0831 64.0545 68.0458C64.1117 68.0085 64.1614 67.9526 64.2036 67.8781C64.2458 67.8011 64.267 67.6967 64.267 67.565C64.267 67.5103 64.262 67.4445 64.252 67.3675C64.2446 67.2879 64.2334 67.2035 64.2185 67.114C64.2036 67.0245 64.1862 66.9338 64.1663 66.8419C64.1489 66.7475 64.1315 66.6593 64.1141 66.5773C64.0967 66.4928 64.0794 66.417 64.062 66.3499C64.0446 66.2803 64.0309 66.2269 64.021 66.1896L64.8969 65.925ZM64.4645 71.0835L63.8383 70.4499L64.457 69.8088L65.0981 70.4499L64.4645 71.0835ZM62.9028 71.0873L62.2766 70.4536L62.8916 69.8125L63.5327 70.4536L62.9028 71.0873ZM67.3568 69.0596C67.2623 69.0596 67.1691 69.0547 67.0772 69.0447C66.9853 69.0348 66.8921 69.0211 66.7977 69.0037C66.7032 68.9863 66.6063 68.9652 66.5069 68.9404C66.4075 68.913 66.3032 68.8832 66.1938 68.8509L65.7503 68.7167L66.0187 67.8222C66.2348 67.8967 66.4585 67.9626 66.6896 68.0197C66.9231 68.0769 67.1431 68.1142 67.3493 68.1315C67.4164 68.1365 67.481 68.139 67.5431 68.139C67.6674 68.139 67.7916 68.1253 67.9158 68.098C68.0426 68.0707 68.132 68.0023 68.1842 67.893C68.1941 67.8731 68.1991 67.8495 68.1991 67.8222C68.1991 67.8048 68.1941 67.7775 68.1842 67.7402C68.1743 67.7029 68.1494 67.6557 68.1097 67.5985L66.7194 65.5709L67.5021 65.064L67.7556 65.4554C67.7556 65.4578 67.7593 65.4653 67.7668 65.4777C67.7767 65.4902 67.7941 65.5162 67.8189 65.556C67.8463 65.5958 67.8835 65.6529 67.9308 65.7275C67.9804 65.7995 68.0451 65.8952 68.1246 66.0145C68.2041 66.1337 68.301 66.2816 68.4153 66.458C68.5321 66.6319 68.6712 66.8407 68.8328 67.0842C68.9595 67.2755 69.0378 67.4731 69.0676 67.6768C69.075 67.729 69.0788 67.7799 69.0788 67.8296C69.0788 67.9787 69.0489 68.1216 68.9893 68.2583C68.9471 68.3577 68.8899 68.4496 68.8178 68.5341C68.7483 68.6161 68.6663 68.6894 68.5718 68.754C68.3954 68.8758 68.183 68.959 67.9345 69.0037C67.7258 69.041 67.5332 69.0596 67.3568 69.0596ZM73.8351 69.0596C73.7406 69.0596 73.6475 69.0547 73.5555 69.0447C73.4636 69.0348 73.3704 69.0211 73.276 69.0037C73.1816 68.9863 73.0846 68.9652 72.9853 68.9404C72.8859 68.913 72.7815 68.8832 72.6722 68.8509L72.2286 68.7167L72.497 67.8222C72.7132 67.8967 72.9368 67.9626 73.1679 68.0197C73.4015 68.0769 73.6214 68.1142 73.8276 68.1315C73.8947 68.1365 73.9593 68.139 74.0214 68.139C74.1457 68.139 74.2699 68.1253 74.3942 68.098C74.5209 68.0707 74.6103 68.0023 74.6625 67.893C74.6725 67.8731 74.6774 67.8495 74.6774 67.8222C74.6774 67.8048 74.6725 67.7775 74.6625 67.7402C74.6526 67.7029 74.6277 67.6557 74.588 67.5985L73.1977 65.5709L73.9804 65.064L74.2339 65.4554C74.2339 65.4578 74.2376 65.4653 74.2451 65.4777C74.255 65.4902 74.2724 65.5162 74.2973 65.556C74.3246 65.5958 74.3619 65.6529 74.4091 65.7275C74.4588 65.7995 74.5234 65.8952 74.6029 66.0145C74.6824 66.1337 74.7793 66.2816 74.8936 66.458C75.0104 66.6319 75.1496 66.8407 75.3111 67.0842C75.4378 67.2755 75.5161 67.4731 75.5459 67.6768C75.5533 67.729 75.5571 67.7799 75.5571 67.8296C75.5571 67.9787 75.5273 68.1216 75.4676 68.2583C75.4254 68.3577 75.3682 68.4496 75.2962 68.5341C75.2266 68.6161 75.1446 68.6894 75.0502 68.754C74.8737 68.8758 74.6613 68.959 74.4128 69.0037C74.2041 69.041 74.0115 69.0596 73.8351 69.0596ZM78.3003 69.0559C78.027 69.0559 77.7922 69.0385 77.5959 69.0037C77.3996 68.9714 77.2343 68.923 77.1001 68.8584C76.966 68.7913 76.8579 68.7068 76.7759 68.6049C76.6963 68.503 76.6355 68.3838 76.5932 68.2471C76.551 68.1104 76.5224 67.9564 76.5075 67.7849C76.4951 67.611 76.4889 67.4196 76.4889 67.2109V63.6812H77.417V67.2109C77.417 67.4097 77.4232 67.5687 77.4356 67.688C77.4505 67.8073 77.4865 67.9005 77.5437 67.9675C77.6033 68.0322 77.6915 68.0756 77.8083 68.098C77.9276 68.1179 78.0916 68.1278 78.3003 68.1278V69.0559ZM80.9242 68.3515C80.9466 68.3515 80.9814 68.3477 81.0286 68.3403C81.0783 68.3303 81.128 68.303 81.1777 68.2583C81.2274 68.2135 81.2709 68.1452 81.3081 68.0533C81.3479 67.9588 81.3678 67.8272 81.3678 67.6582C81.3678 67.5936 81.3554 67.5116 81.3305 67.4122C81.3081 67.3103 81.2671 67.2122 81.2075 67.1177C81.1504 67.0208 81.0721 66.9388 80.9727 66.8717C80.8758 66.8022 80.7528 66.7674 80.6037 66.7674C80.4745 66.7674 80.3689 66.8059 80.2869 66.8829C80.2049 66.9599 80.1353 67.0556 80.0781 67.1699C80.0235 67.2842 79.9763 67.4085 79.9365 67.5426C79.8992 67.6743 79.8582 67.7948 79.8135 67.9042C79.9054 67.9564 80.0024 68.0098 80.1042 68.0645C80.2086 68.1166 80.3105 68.1638 80.4099 68.2061C80.5093 68.2483 80.6024 68.2831 80.6894 68.3105C80.7789 68.3378 80.8571 68.3515 80.9242 68.3515ZM80.6037 65.843C80.8596 65.843 81.082 65.889 81.2709 65.9809C81.4622 66.0728 81.6225 66.1971 81.7517 66.3536C81.8809 66.5102 81.9778 66.6916 82.0424 66.8978C82.1095 67.1041 82.1455 67.3202 82.1505 67.5464C82.1505 67.6855 82.1778 67.7948 82.2325 67.8744C82.2872 67.9514 82.3493 68.0085 82.4189 68.0458C82.4884 68.0831 82.5568 68.1067 82.6239 68.1166C82.691 68.1241 82.7369 68.1278 82.7618 68.1278H82.8661V69.0559H82.7618C82.5854 69.0559 82.4226 69.0311 82.2735 68.9814C82.1269 68.9292 81.9927 68.8633 81.871 68.7838C81.7964 68.8882 81.7144 68.9702 81.625 69.0298C81.5355 69.0919 81.446 69.1379 81.3566 69.1677C81.2671 69.1975 81.1814 69.2162 81.0994 69.2236C81.0174 69.2311 80.9466 69.2348 80.887 69.2348C80.7627 69.2348 80.6447 69.2224 80.5329 69.1975C80.421 69.1752 80.3067 69.1416 80.19 69.0969C80.0757 69.0547 79.9564 69.0025 79.8321 68.9404C79.7079 68.8758 79.5725 68.8037 79.4259 68.7242C79.314 68.8435 79.1935 68.9292 79.0643 68.9814C78.9376 69.0311 78.7885 69.0559 78.617 69.0559H78.1586L78.1511 68.1278H78.617C78.6717 68.1278 78.7189 68.1117 78.7587 68.0794C78.8009 68.0471 78.8382 68.0023 78.8705 67.9452C78.9053 67.8855 78.9364 67.8147 78.9637 67.7327C78.9935 67.6482 79.0233 67.5551 79.0531 67.4532C79.1028 67.2743 79.1625 67.0904 79.232 66.9015C79.3016 66.7102 79.3936 66.5363 79.5079 66.3797C79.6247 66.2232 79.7713 66.0952 79.9477 65.9958C80.1241 65.8939 80.3428 65.843 80.6037 65.843ZM84.87 65.925C84.8749 65.9424 84.8849 65.9834 84.8998 66.048C84.9172 66.1126 84.9358 66.1921 84.9557 66.2865C84.9756 66.3785 84.9954 66.4816 85.0153 66.5959C85.0377 66.7102 85.0576 66.8258 85.075 66.9425C85.0948 67.0568 85.1097 67.1687 85.1197 67.278C85.1321 67.3873 85.1383 67.483 85.1383 67.565C85.1383 67.8209 85.0961 68.0433 85.0116 68.2322C84.9271 68.4185 84.8165 68.5726 84.6799 68.6944C84.5432 68.8161 84.3891 68.9068 84.2177 68.9665C84.0487 69.0261 83.8785 69.0559 83.707 69.0559H82.7156V68.1278H83.7331C83.763 68.1278 83.8052 68.1241 83.8599 68.1166C83.917 68.1067 83.9729 68.0831 84.0276 68.0458C84.0847 68.0085 84.1344 67.9526 84.1767 67.8781C84.2189 67.8011 84.24 67.6967 84.24 67.565C84.24 67.5103 84.2351 67.4445 84.2251 67.3675C84.2177 67.2879 84.2065 67.2035 84.1916 67.114C84.1767 67.0245 84.1593 66.9338 84.1394 66.8419C84.122 66.7475 84.1046 66.6593 84.0872 66.5773C84.0698 66.4928 84.0524 66.417 84.035 66.3499C84.0177 66.2803 84.004 66.2269 83.994 66.1896L84.87 65.925ZM83.4722 64.4266L84.1431 63.7483L84.829 64.4341L84.1506 65.1125L83.4722 64.4266Z" fill="#4F5269"/>
</svg>
