<svg width="90" height="114" viewBox="0 0 90 114" fill="none" xmlns="http://www.w3.org/2000/svg">
<rect width="90" height="114" rx="4" fill="white"/>
<path d="M40.6088 17.904C40.7124 17.8878 40.8169 17.8759 40.9231 17.87C41.1135 18.5284 41.1636 19.2387 41.5136 19.8419C42.2817 21.1877 43.4252 22.2693 44.212 23.6032C44.6852 24.4179 44.7863 25.4468 44.4473 26.3304C43.9002 27.7764 43.0064 29.05 42.1993 30.3584C41.7829 31.0355 41.2689 31.6447 40.8433 32.3159C40.5332 32.8452 40.1211 33.3244 39.5867 33.6353C39.478 32.9684 39.7209 32.2624 39.4372 31.6218C38.6904 30.0415 37.0914 29.0483 36.4126 27.4264C36.1747 26.6694 36.2528 25.8198 36.5961 25.1061C37.5825 23.079 38.743 21.1427 39.8713 19.1928C40.1237 18.7672 40.2647 18.2693 40.6088 17.904V17.904Z" fill="#737373"/>
<path d="M46.2731 31.7552C47.6053 31.5861 49.0225 31.5776 50.2705 32.1358C52.4167 33.0559 54.0428 35.0967 54.443 37.3991C54.7667 38.62 54.8474 39.8927 54.7803 41.151C54.7607 42.4551 54.4464 43.7406 53.9969 44.9598C53.341 46.6981 52.3351 48.3055 51.0513 49.6496C50.2374 50.4534 49.4626 51.3047 48.5433 51.992C47.3827 52.8807 46.0335 53.5782 44.5714 53.7728C43.8416 53.8679 43.1185 54.0778 42.3768 54.0362C40.3853 53.8824 38.4287 53.4083 36.5511 52.7371C35.1458 52.2197 33.7193 51.7677 32.3013 51.2885C31.2784 51.0353 30.2639 50.6734 29.1994 50.6624C28.7185 50.6547 28.4254 51.111 28.2776 51.5111C27.84 52.7626 27.5087 54.0472 27.1739 55.3284C27.0023 56.0251 26.7839 56.7107 26.6752 57.4218C26.5477 58.2222 26.4662 59.0293 26.3761 59.8339C26.2334 61.7591 26.5248 63.7115 27.2011 65.5178C27.6531 66.6996 28.4483 67.7837 29.5605 68.4183C31.0923 69.3767 33.0141 69.3368 34.7227 68.9629C36.4279 68.5279 38.1007 67.9494 39.6793 67.1686C41.0888 66.4787 42.4032 65.6146 43.6963 64.7293C46.3674 62.8916 49.0565 61.0811 51.7591 59.2893C53.2722 58.3105 54.8542 57.4371 56.4956 56.692C57.2475 56.3479 58.0521 56.1449 58.8507 55.9393C59.4293 55.8118 60.0767 55.8373 60.5891 56.1636C60.8924 56.3624 61.1472 56.6241 61.4353 56.8433C61.8771 57.2052 62.4378 57.3955 62.8456 57.8033C63.2364 58.2001 63.6587 58.692 63.5686 59.2927C62.7836 59.3607 62.0079 59.0573 61.2254 59.2179C60.098 59.3573 59.1005 59.9324 58.1039 60.4363C57.2407 60.8696 56.4591 61.443 55.663 61.9842C54.488 62.7846 53.3121 63.5875 52.2128 64.4906C49.4634 66.6061 46.8713 68.9247 44.0259 70.9153C42.7167 71.8312 41.3743 72.7021 39.9894 73.5016C38.3437 74.3733 36.6606 75.2322 34.8348 75.657C33.1135 76.0861 31.2979 76.4132 29.5367 76.0274C28.3778 75.787 27.1467 75.5185 26.2427 74.7012C25.1187 73.657 24.5291 72.1906 24.0847 70.7556C23.84 69.7106 23.5869 68.6545 23.5869 67.5747C23.5971 66.9757 23.4229 66.381 23.5087 65.7829C23.6591 64.8857 23.5231 63.9672 23.6931 63.0726C23.9004 62.0361 23.9913 60.9809 24.2079 59.946C24.4823 58.8288 24.71 57.6988 25.0363 56.5935C25.4076 55.2868 25.8383 53.9979 26.2725 52.7116C26.4866 52.0719 26.9369 51.4907 26.8952 50.7855C26.3243 50.6573 25.7432 50.8136 25.2079 51.0098C24.6905 51.2078 24.1578 51.3743 23.6735 51.6505C23.0881 51.964 22.5622 52.3726 22.0176 52.7498C21.8537 52.8688 21.5622 52.9419 21.4407 52.7286C21.3456 52.5289 21.4 52.2953 21.479 52.1007C22.1298 50.444 23.4212 49.0829 24.9615 48.2138C25.524 47.9521 25.9777 47.5197 26.3744 47.0515C27.0057 46.3132 27.7559 45.6675 28.6267 45.2283C29.0524 44.9955 29.5469 44.9012 29.9385 44.6021C30.3047 44.3481 30.5749 43.9836 30.7924 43.5996C32.7932 40.326 35.3675 37.366 38.5145 35.1502C39.0973 34.6574 39.7872 34.3244 40.4584 33.9718C42.2562 32.9251 44.1992 32.0534 46.2731 31.7552V31.7552ZM40.3777 36.6175C39.0633 37.1264 37.9028 37.9403 36.7855 38.784C35.7932 39.569 34.9249 40.4934 34.0422 41.3957C33.4287 42.0405 32.9674 42.8094 32.3744 43.4713C32.1543 43.7032 32.2435 44.0414 32.2529 44.3268C33.3591 44.3515 34.4661 44.4288 35.5621 44.5834C38.7949 45.196 41.8152 46.5689 45.0013 47.3599C45.8602 47.6292 46.7617 47.6913 47.6478 47.8187C48.2748 47.9088 48.9061 47.789 49.5229 47.6794C50.1541 47.5655 50.5135 46.9861 50.9536 46.5808C51.7489 45.8136 52.0989 44.6939 52.1618 43.6148C52.1261 42.6285 52.2433 41.6319 52.0836 40.6523C51.8287 39.6021 51.2374 38.6463 50.4931 37.8723C49.9434 37.3643 49.3708 36.8596 48.6877 36.5401C47.7914 36.1485 46.8415 35.8698 45.8679 35.7713C44.0047 35.6005 42.1109 35.9233 40.3777 36.6175V36.6175Z" fill="#737373"/>
<path d="M61.7641 61.2273C62.5984 60.822 63.5559 60.7532 64.4667 60.8586C64.8898 60.9248 65.1999 61.2468 65.4956 61.5298C65.9866 62.0055 66.6102 62.3369 67.0376 62.8798C67.329 63.2621 67.6544 63.6818 67.606 64.1941C67.4955 64.2409 67.3902 64.3207 67.2644 64.3046C66.8677 64.2944 66.4735 64.229 66.0758 64.2434C65.301 64.2664 64.5406 64.4881 63.849 64.8322C62.3359 65.5578 60.9909 66.5815 59.7106 67.6554C58.5865 68.6248 57.4667 69.6028 56.4311 70.6673C55.1176 71.9885 53.7939 73.2994 52.4099 74.5483C51.3589 75.5925 50.2714 76.6001 49.1525 77.5721C48.0454 78.5347 46.8296 79.3648 45.5595 80.0963C44.6963 80.5874 43.7719 80.9901 42.7948 81.1889C41.37 81.4285 39.8866 81.5432 38.4737 81.1676C38.0166 81.0538 37.5731 80.8924 37.1458 80.6961C36.4364 80.3673 35.6258 80.3784 34.9088 80.0708C33.9054 79.6553 32.9394 79.03 32.3523 78.0937C32.1968 77.8669 32.2274 77.5823 32.2325 77.3232C32.7754 77.3096 33.2588 77.5738 33.7762 77.6893C35.5239 77.9196 37.2834 77.533 38.9317 76.968C39.5383 76.7497 40.1594 76.5653 40.7439 76.29C41.7065 75.8491 42.6037 75.2841 43.5179 74.7539C45.0319 73.8763 46.4006 72.7743 47.7294 71.6427C50.1745 69.5229 52.641 67.426 55.1932 65.4354C57.2195 63.8016 59.3393 62.2222 61.7641 61.2273V61.2273Z" fill="#737373"/>
<path opacity="0.89" d="M59.9892 84.2236C60.1252 84.086 60.2611 83.9492 60.3988 83.8141C60.5347 83.95 60.6706 84.0868 60.8066 84.2236C60.6706 84.3595 60.5347 84.4963 60.3988 84.6331C60.2611 84.4963 60.1252 84.3604 59.9892 84.2236Z" fill="#737373"/>
<path opacity="0.89" d="M78.7469 84.4131C78.8812 84.2763 79.0171 84.1403 79.153 84.0052C79.2898 84.1403 79.4258 84.2771 79.5625 84.4139C79.4258 84.5507 79.2898 84.6866 79.1539 84.8234C79.0171 84.6866 78.8812 84.5498 78.7469 84.4131V84.4131Z" fill="#737373"/>
<path opacity="0.89" d="M6.36529 89.0994C5.28119 87.6568 5.27439 85.4996 6.39673 84.0774C6.54201 84.2031 6.68645 84.3297 6.83088 84.4563C6.39333 85.1428 6.08832 85.9448 6.14015 86.7707C6.16309 87.469 6.40607 88.1504 6.81134 88.7171C6.66351 88.8446 6.51482 88.9728 6.36529 89.0994V89.0994Z" fill="#737373"/>
<path opacity="0.89" d="M49.8679 84.4606C50.0131 84.3306 50.1593 84.2015 50.3071 84.074C51.4226 85.5014 51.4243 87.6552 50.3377 89.0986C50.1882 88.9737 50.0386 88.848 49.8899 88.7231C50.4201 87.9661 50.675 87.0052 50.5237 86.0876C50.4337 85.5031 50.189 84.9534 49.8679 84.4606V84.4606Z" fill="#737373"/>
<path opacity="0.89" d="M9.6414 84.2839C9.83426 84.2831 10.0263 84.2831 10.2191 84.2839C10.22 85.5948 10.2183 86.9066 10.2208 88.2184C10.2208 88.5897 10.1478 88.9933 9.87249 89.2643C9.51311 89.6373 8.95747 89.69 8.46809 89.6636C7.90565 89.6543 7.37295 89.2499 7.22172 88.707C7.03905 88.0791 7.23956 87.4291 7.49699 86.8548C7.6822 86.933 7.86572 87.0145 8.04838 87.0995C7.87252 87.5167 7.66606 87.9644 7.76631 88.4283C7.82069 88.7681 8.13165 89.0434 8.47404 89.0621C8.80454 89.0782 9.18431 89.085 9.44514 88.8455C9.61931 88.6543 9.63036 88.3773 9.6414 88.1326C9.64225 86.8497 9.6397 85.5668 9.6414 84.2839V84.2839Z" fill="#737373"/>
<path opacity="0.89" d="M10.9404 84.2653C11.1384 84.2644 11.3372 84.2644 11.5352 84.2653C11.5369 85.188 11.5309 86.1106 11.5386 87.0333C11.5462 87.2228 11.5547 87.5108 11.7985 87.5448C12.2174 87.6111 12.6447 87.5728 13.067 87.5779C13.2565 87.5907 13.4221 87.4972 13.5751 87.3978C13.5725 87.0325 13.5742 86.668 13.5742 86.3043C13.7722 86.3035 13.971 86.3035 14.1689 86.3043C14.1757 86.6238 14.1537 86.9458 14.1834 87.2653C14.2029 87.4632 14.4034 87.5771 14.5878 87.5745C15.0432 87.5864 15.4994 87.5788 15.9548 87.5779C16.1434 87.5924 16.3091 87.4972 16.4629 87.4012C16.462 87.035 16.4629 86.6697 16.4629 86.3043C16.6609 86.3035 16.8597 86.3035 17.0576 86.3043C17.0823 86.6612 17.0032 87.0367 17.1103 87.3825C17.3218 87.6926 17.7611 87.5439 18.078 87.5805C19.0338 87.6408 19.9922 87.4088 20.829 86.9492C20.3414 86.7767 19.8605 86.5762 19.3592 86.4454C19.1213 86.3647 18.9854 86.6085 18.8681 86.7657C18.6889 86.713 18.5105 86.6603 18.332 86.6068C18.4569 86.3281 18.592 86.0095 18.897 85.8889C19.2173 85.7258 19.5708 85.8889 19.8826 85.9934C20.4314 86.2015 20.9811 86.4089 21.5317 86.6136C21.5419 86.7733 21.5988 86.9382 21.5673 87.0979C21.4416 87.2211 21.2938 87.3179 21.1612 87.4343C21.6183 87.696 22.1629 87.5354 22.6616 87.5805C22.9624 87.5652 23.4458 87.679 23.5418 87.2797C23.5826 86.8753 23.4416 86.4794 23.3719 86.0851C23.5588 86.0282 23.7457 85.9713 23.9335 85.9152C24.0244 86.3638 24.1493 86.8175 24.1238 87.2797C24.0941 87.764 23.6608 88.1735 23.174 88.1709C22.609 88.1786 22.044 88.1854 21.4798 88.1667C21.1272 88.1582 20.8367 87.9288 20.6396 87.6544C19.9471 87.9806 19.1918 88.2109 18.4187 88.1769C17.8656 88.1463 17.2488 88.2933 16.7654 87.9458C16.2411 88.2814 15.6014 88.1506 15.016 88.1769C14.6243 88.1922 14.208 88.1879 13.8775 87.9458C13.5343 88.1607 13.1265 88.1956 12.7306 88.1777C12.2599 88.1582 11.7476 88.2423 11.3151 88.0104C10.9778 87.815 10.9498 87.3817 10.9404 87.0342C10.9387 86.1115 10.9421 85.188 10.9404 84.2653V84.2653Z" fill="#737373"/>
<path opacity="0.89" d="M31.8408 84.2653C32.0388 84.2644 32.2367 84.2644 32.4356 84.2653C32.4373 85.1888 32.4313 86.1123 32.439 87.0359C32.4483 87.2202 32.4517 87.498 32.6845 87.5405C33.0507 87.6153 33.4287 87.5703 33.7992 87.5703C33.6012 87.2899 33.4347 86.9628 33.4967 86.6085C33.5562 86.007 34.2622 85.6603 34.8094 85.8116C35.2987 85.9246 35.6649 86.436 35.6004 86.9365C35.5791 87.2321 35.3854 87.4692 35.2206 87.7011C35.5383 87.7444 35.9436 87.8251 36.1789 87.5405C36.3361 87.3791 36.2503 87.1361 36.1517 86.9696C35.851 86.4607 35.4432 86.0282 35.0838 85.5618C35.2401 85.4437 35.3973 85.3264 35.5545 85.2092C35.8935 85.6569 36.2333 86.1047 36.5766 86.549C36.8136 86.8438 36.8748 87.2568 36.7669 87.6161C36.6292 88.0843 36.128 88.3392 35.6632 88.3298C35.269 88.3655 34.919 88.1684 34.5562 88.0545C33.8391 88.1446 33.0957 88.2746 32.3837 88.0885C31.9955 87.984 31.8476 87.5609 31.8485 87.1981C31.8281 86.2211 31.8468 85.2423 31.8408 84.2653V84.2653ZM34.3183 86.363C34.1662 86.4377 34.032 86.5924 34.049 86.7725C34.0481 87.0758 34.3208 87.295 34.5689 87.4207C34.8544 87.3298 35.0999 87.007 35.0379 86.6952C34.9606 86.4029 34.5927 86.2066 34.3183 86.363V86.363Z" fill="#737373"/>
<path opacity="0.89" d="M42.376 84.2653C42.574 84.2644 42.7719 84.2644 42.9707 84.2653C42.9724 85.1871 42.9665 86.1089 42.9741 87.0308C42.9894 87.199 42.9741 87.436 43.1585 87.5218C43.4805 87.611 43.8229 87.5873 44.1542 87.5686C44.3157 87.5669 44.4677 87.4386 44.4941 87.2797C44.5391 86.9551 44.5119 86.6263 44.5162 86.3009C44.7175 86.3026 44.9197 86.3043 45.1219 86.3086C45.1236 86.6289 45.0999 86.9509 45.1321 87.2712C45.1925 87.6824 45.9019 87.6824 45.9792 87.278C46.0302 86.9577 45.9987 86.6314 46.0021 86.3086C46.2035 86.3052 46.4057 86.3026 46.6079 86.3009C46.6164 86.6544 46.5765 87.0129 46.6359 87.3638C46.805 87.6824 47.3862 87.6527 47.4686 87.2797C47.5229 86.8795 47.3845 86.4845 47.3054 86.097C47.4932 86.035 47.6818 85.9747 47.8721 85.9178C47.986 86.5142 48.2629 87.2151 47.8823 87.7682C47.5331 88.289 46.7659 88.272 46.2995 87.9237C45.862 88.2525 45.2502 88.2431 44.811 87.9245C44.5926 88.069 44.3462 88.1828 44.0786 88.176C43.6368 88.1709 43.1559 88.227 42.7524 88.0112C42.4117 87.8141 42.3845 87.3765 42.376 87.0265C42.3743 86.1064 42.3769 85.1854 42.376 84.2653V84.2653Z" fill="#737373"/>
<path opacity="0.89" d="M66.86 84.2653C67.0605 84.2644 67.2619 84.2644 67.4641 84.2653C67.4734 85.2381 67.4463 86.2134 67.4751 87.1854C67.5117 87.5805 67.9722 87.6204 68.2806 87.5779C68.4649 87.5788 68.5227 87.374 68.5788 87.2355C68.719 86.815 68.7997 86.3264 69.1795 86.0435C69.6026 85.747 70.267 85.8413 70.5728 86.267C70.86 86.6586 70.871 87.1854 70.7657 87.6425C70.6892 87.9679 70.4275 88.2635 70.0826 88.2975C69.6518 88.3587 69.2661 88.1234 68.894 87.9475C68.3978 88.3086 67.6383 88.2695 67.1701 87.8753C66.6604 88.2483 66.0062 88.1803 65.4114 88.1684C65.6145 88.4759 65.6162 88.9033 65.3341 89.165C64.7751 89.7291 63.9229 89.6722 63.1931 89.6637C62.5338 89.6892 61.8813 89.2567 61.6723 88.6272C61.4166 87.8829 61.6409 87.0758 61.9714 86.3927C62.1456 86.4794 62.3197 86.566 62.4947 86.6518C62.2509 87.2117 62.0207 87.8634 62.2594 88.4649C62.397 88.8421 62.7904 89.0758 63.1846 89.063C63.6655 89.0554 64.1804 89.1267 64.6264 88.9016C64.798 88.8294 64.8872 88.6603 64.9807 88.5116C64.6137 88.2644 64.1719 88.199 63.7411 88.165C63.742 87.9687 63.742 87.7725 63.7428 87.5779C64.5508 87.5771 65.3596 87.5805 66.1684 87.5788C66.4004 87.5669 66.6774 87.5499 66.826 87.3443C66.8711 87.1854 66.86 87.0172 66.8643 86.8557C66.8575 85.9917 66.8643 85.1285 66.86 84.2653V84.2653ZM69.1285 87.4097C69.4318 87.5371 69.7377 87.7504 70.0834 87.6969C70.4794 87.3392 70.2763 86.3817 69.6518 86.4785C69.2721 86.6077 69.2279 87.0758 69.1285 87.4097Z" fill="#737373"/>
<path opacity="0.89" d="M75.4258 84.2653C75.6237 84.2644 75.8217 84.2644 76.0205 84.2653C76.0222 85.1871 76.0163 86.1089 76.0239 87.0308C76.0384 87.1981 76.0248 87.4301 76.2023 87.5193C76.498 87.6068 76.8183 87.5983 77.1216 87.5524C77.2677 87.5371 77.4054 87.4258 77.4105 87.2721C77.4377 86.9501 77.4173 86.6263 77.4198 86.3035H78.0196C78.0264 86.6314 77.9857 86.9645 78.0477 87.289C78.119 87.6586 78.7546 87.6892 78.8548 87.3213C78.916 86.9874 78.8743 86.6442 78.882 86.3077C79.0834 86.3044 79.2856 86.3027 79.4878 86.301C79.498 86.6544 79.4512 87.0155 79.5218 87.3647C79.6798 87.6799 80.2771 87.6552 80.345 87.2805C80.3951 86.9568 80.3646 86.6272 80.3697 86.301C80.571 86.3027 80.7732 86.3043 80.9754 86.3086C80.9924 86.6629 80.9185 87.0342 81.0196 87.3791C81.2074 87.6544 81.5973 87.5584 81.882 87.5822C82.1776 87.5541 82.622 87.6858 82.7656 87.3315C82.8386 86.9127 82.6806 86.4955 82.6092 86.0868C82.797 86.0291 82.9848 85.9713 83.1725 85.9127C83.2643 86.3613 83.3849 86.8141 83.3628 87.2755C83.3373 87.7708 82.8879 88.1811 82.3934 88.1718C81.814 88.1616 81.17 88.2822 80.6636 87.9263C80.2414 88.2669 79.6161 88.2483 79.1879 87.9297C78.7614 88.2525 78.17 88.2474 77.7367 87.9407C77.2074 88.2542 76.549 88.2253 75.9704 88.0894C75.5821 87.9857 75.4326 87.5626 75.4334 87.199C75.413 86.2211 75.4317 85.2432 75.4258 84.2653V84.2653Z" fill="#737373"/>
<path opacity="0.89" d="M40.7974 84.8065C40.9486 84.6561 41.1007 84.5057 41.2537 84.3579C41.4049 84.5117 41.557 84.6646 41.709 84.8192C41.5587 84.9696 41.4083 85.1209 41.2588 85.2738C41.105 85.1166 40.9512 84.9611 40.7974 84.8065Z" fill="#737373"/>
<path opacity="0.89" d="M82.7035 84.3579C82.8607 84.5091 83.0162 84.6621 83.1717 84.8167C83.0204 84.9679 82.8701 85.12 82.7214 85.2729C82.5676 85.1166 82.413 84.9628 82.26 84.8082C82.407 84.6578 82.5557 84.5083 82.7035 84.3579V84.3579Z" fill="#737373"/>
<path opacity="0.89" d="M60.5194 84.9874C60.6638 84.8413 60.8015 84.6884 60.9646 84.5635C61.1286 84.6841 61.2687 84.8328 61.414 84.9764C61.2679 85.1217 61.1218 85.2687 60.9756 85.4148C60.8244 85.2704 60.6723 85.1276 60.5194 84.9874Z" fill="#737373"/>
<path opacity="0.89" d="M59.3716 85.0001C59.5126 84.8506 59.6562 84.7028 59.8015 84.5575C59.9451 84.6994 60.0963 84.837 60.2246 84.9959C60.1005 85.1582 59.9493 85.2984 59.8015 85.4394C59.6579 85.2933 59.5135 85.1463 59.3716 85.0001Z" fill="#737373"/>
<path opacity="0.89" d="M12.5683 85.1038C12.7127 84.9594 12.8571 84.8166 13.0033 84.6747C13.1494 84.8217 13.2947 84.9713 13.4391 85.1216C13.2913 85.2669 13.1435 85.4131 12.9956 85.5592C12.8512 85.4088 12.7076 85.2576 12.5683 85.1038Z" fill="#737373"/>
<path opacity="0.89" d="M13.6566 85.1225C13.8002 84.9747 13.9413 84.8243 14.0823 84.6747C14.2301 84.82 14.3771 84.9662 14.5249 85.1123C14.3788 85.2618 14.231 85.4097 14.0832 85.5583C13.9404 85.4131 13.7977 85.2686 13.6566 85.1225Z" fill="#737373"/>
<path opacity="0.89" d="M79.2728 85.1786C79.4215 85.0299 79.5719 84.8837 79.724 84.7385C79.8744 84.8795 80.0222 85.0222 80.1692 85.1675C80.023 85.3128 79.8777 85.4589 79.7333 85.6059C79.5804 85.4623 79.4266 85.3196 79.2728 85.1786Z" fill="#737373"/>
<path opacity="0.89" d="M78.1437 85.1828C78.2686 85.0256 78.4164 84.8888 78.5574 84.7469C78.7053 84.8948 78.8531 85.0443 78.9992 85.1947C78.8514 85.34 78.7044 85.4853 78.5574 85.6314C78.4113 85.4887 78.2575 85.3519 78.1437 85.1828Z" fill="#737373"/>
<path opacity="0.89" d="M38.2928 85.1786C38.4865 85.1327 38.6802 85.0868 38.8756 85.0427C39.0251 85.6467 39.1764 86.2508 39.3191 86.8566C39.3777 87.1191 39.5009 87.4046 39.777 87.4989C40.1449 87.6306 40.5476 87.5745 40.9317 87.5745C41.139 87.5906 41.3276 87.4139 41.3284 87.2075C41.3301 86.826 41.2222 86.4564 41.15 86.0843C41.3378 86.0282 41.5247 85.9713 41.7124 85.9135C41.8135 86.5227 42.0999 87.233 41.7056 87.7929C41.3514 88.2788 40.6912 88.1718 40.1687 88.1752C39.6742 88.1871 39.184 87.9517 38.9249 87.5235C38.5536 87.9696 37.8255 88.0715 37.3752 87.6901C36.9155 87.3018 36.907 86.5431 37.2877 86.097C37.5502 85.7538 37.9589 85.5788 38.348 85.4216C38.3344 85.3604 38.3064 85.2398 38.2928 85.1786V85.1786ZM37.6827 86.5031C37.54 86.6858 37.4958 86.9764 37.6624 87.1599C37.9504 87.4777 38.5697 87.2856 38.6369 86.8651C38.67 86.5703 38.5629 86.2856 38.5001 86.0036C38.2036 86.1208 37.879 86.2355 37.6827 86.5031Z" fill="#737373"/>
<path opacity="0.89" d="M25.3677 85.5635C25.5333 85.4514 25.699 85.3401 25.8655 85.2288C26.1918 85.7377 26.5376 86.233 26.8664 86.7402C27.0261 86.9925 27.168 87.3018 27.0669 87.6051C26.9845 87.9033 26.6896 88.0733 26.405 88.1361C25.7568 88.2789 25.0406 88.2075 24.4815 87.8286C24.5809 87.6595 24.6803 87.4913 24.7789 87.323C25.2988 87.6527 25.9709 87.6867 26.5367 87.459C26.2538 86.7683 25.7398 86.2058 25.3677 85.5635V85.5635Z" fill="#737373"/>
<path opacity="0.89" d="M52.9596 85.6008C53.0768 85.447 53.2196 85.317 53.3563 85.1819C53.5033 85.3297 53.6503 85.4793 53.7956 85.6313C53.6478 85.7758 53.5008 85.9219 53.3538 86.0672C53.2255 85.9134 53.0157 85.7936 52.9596 85.6008V85.6008Z" fill="#737373"/>
<path opacity="0.89" d="M54.0122 85.6424C54.1541 85.4895 54.2952 85.3357 54.4379 85.1837C54.5857 85.3289 54.7327 85.4751 54.8814 85.6212C54.7353 85.7699 54.5891 85.9186 54.4421 86.0664C54.2977 85.9245 54.155 85.7826 54.0122 85.6424V85.6424Z" fill="#737373"/>
<path opacity="0.89" d="M72.6833 86.0825C72.8319 85.9305 72.9806 85.7801 73.1319 85.6297C73.2856 85.7835 73.4403 85.9373 73.594 86.0927C73.4428 86.244 73.2907 86.3952 73.1395 86.5464C72.9883 86.3901 72.8353 86.2355 72.6833 86.0825Z" fill="#737373"/>
<path opacity="0.89" d="M29.5358 86.1616C29.9853 85.7597 30.625 85.7427 31.19 85.8396C31.1399 86.0333 31.0889 86.2262 31.0388 86.4207C30.6582 86.34 30.213 86.3451 29.9148 86.6306C29.6905 86.8166 29.637 87.1157 29.6225 87.3918C29.9997 87.4929 30.3855 87.5643 30.755 87.6892C30.9708 87.7597 31.0864 87.9899 31.0796 88.2074C31.0872 88.6526 30.9768 89.176 30.5681 89.4258C30.0872 89.7316 29.4934 89.6543 28.953 89.6637C28.2674 89.6909 27.5953 89.2202 27.4093 88.5558C27.1858 87.8209 27.4288 87.0486 27.7466 86.3808C27.9233 86.4606 28.1009 86.5422 28.2767 86.6255C28.0354 87.1964 27.7712 87.8532 28.021 88.4674C28.1595 88.843 28.552 89.0757 28.9454 89.063C29.3778 89.0511 29.8519 89.1327 30.2436 88.9067C30.4628 88.7784 30.4789 88.5057 30.5375 88.2873C30.0787 88.1548 29.6174 88.0307 29.1535 87.9152C28.9403 87.3205 29.0244 86.5796 29.5358 86.1616V86.1616Z" fill="#737373"/>
<path opacity="0.89" d="M60.5007 86.0834C60.6868 86.0273 60.8745 85.9712 61.0615 85.9152C61.1549 86.4334 61.3427 86.9712 61.2084 87.4988C61.0759 87.9576 60.5891 88.2176 60.1294 88.1768C59.5041 88.1344 58.8142 88.3119 58.2535 87.9525C57.799 88.227 57.2527 88.1862 56.7437 88.1717C56.4923 88.1666 56.2663 88.0519 56.0471 87.944C55.8143 88.0774 55.5568 88.176 55.285 88.1734C54.4073 88.1819 53.5297 88.1692 52.6512 88.1777C52.3708 88.1768 52.0683 88.1938 51.8186 88.0434C51.5178 87.8752 51.3368 87.5396 51.3198 87.2015C51.302 86.8259 51.4192 86.4623 51.5135 86.1029C51.7022 86.1632 51.8916 86.2236 52.0819 86.283C52.0072 86.6084 51.8772 86.9389 51.9333 87.2779C51.9766 87.4852 52.1992 87.5906 52.398 87.5787C53.3343 87.5796 54.2705 87.5787 55.2068 87.5787C55.4039 87.5736 55.6953 87.5405 55.737 87.3017C55.7828 86.9712 55.748 86.6356 55.7548 86.3034H56.3546C56.3606 86.6441 56.3274 86.9874 56.3708 87.3264C56.4872 87.6399 56.8882 87.5668 57.1541 87.5846C57.4192 87.5626 57.838 87.6441 57.9451 87.3204C57.991 86.984 57.9578 86.6424 57.9638 86.3034H58.5636C58.5687 86.6424 58.5381 86.9848 58.5789 87.323C58.6214 87.5192 58.8508 87.577 59.0258 87.577C59.465 87.577 59.906 87.5931 60.3444 87.5685C60.5704 87.56 60.7072 87.3213 60.6817 87.114C60.6579 86.7648 60.5687 86.4249 60.5007 86.0834V86.0834Z" fill="#737373"/>
<path opacity="0.89" d="M49.0633 86.3051C49.2553 86.3034 49.4481 86.3034 49.6419 86.3034C49.6368 86.9134 49.6486 87.5243 49.6393 88.1352C49.6257 88.6823 49.3156 89.2346 48.8075 89.4657C48.4465 89.6458 48.0335 89.6228 47.6419 89.6211C47.6419 89.4206 47.6427 89.221 47.6444 89.0213C48.0182 89.0171 48.4482 89.0782 48.7608 88.825C49.0216 88.6237 49.0454 88.2677 49.0599 87.9652C49.0709 87.4113 49.059 86.8582 49.0633 86.3051V86.3051Z" fill="#737373"/>
<path opacity="0.89" d="M74.2117 86.3043C74.4122 86.3034 74.6136 86.3034 74.8158 86.3034C74.8098 86.9423 74.82 87.5821 74.8132 88.221C74.8073 88.6534 74.6654 89.1258 74.2831 89.3722C73.8192 89.6883 73.2321 89.6152 72.7011 89.6211C72.0579 89.6441 71.4233 89.2244 71.216 88.611C70.9339 87.8837 71.1743 87.0884 71.4963 86.4173C71.6756 86.4997 71.8557 86.5846 72.035 86.6704C71.8141 87.1556 71.6 87.6891 71.7189 88.2312C71.7895 88.6356 72.1361 88.9754 72.5473 89.0205C72.9381 89.057 73.3417 89.0629 73.7274 88.9754C74.0316 88.9058 74.2074 88.5965 74.2066 88.3C74.2219 87.6347 74.2049 86.9695 74.2117 86.3043V86.3043Z" fill="#737373"/>
<path opacity="0.89" d="M19.3278 89.0936C19.4773 88.9449 19.626 88.7962 19.7764 88.6475C19.9293 88.7988 20.0822 88.9508 20.236 89.1029C20.0848 89.2601 19.9327 89.4156 19.7789 89.5702C19.6311 89.4088 19.479 89.2507 19.3278 89.0936Z" fill="#737373"/>
<path opacity="0.89" d="M22.5495 88.7095C22.7016 88.8548 22.8511 89.0018 23.0006 89.1496L22.5622 89.5906C22.4254 89.4428 22.287 89.2975 22.1476 89.1539C22.2827 89.0069 22.4169 88.8591 22.5495 88.7095Z" fill="#737373"/>
<path opacity="0.89" d="M57.5602 89.1394C57.7089 88.9882 57.8584 88.8378 58.008 88.6883C58.1626 88.8421 58.3172 88.9967 58.471 89.1522C58.3181 89.3043 58.166 89.4563 58.0131 89.6084C57.8635 89.4495 57.7123 89.2941 57.5602 89.1394V89.1394Z" fill="#737373"/>
<path opacity="0.89" d="M15.3057 89.1718C15.4425 89.0265 15.5793 88.8795 15.7152 88.7334C15.8639 88.8787 16.0118 89.0248 16.1604 89.1718C16.0135 89.3188 15.8665 89.4658 15.7186 89.6119C15.5836 89.4624 15.4451 89.3162 15.3057 89.1718Z" fill="#737373"/>
<path opacity="0.89" d="M16.3287 89.1802C16.4654 89.0324 16.6031 88.8871 16.7433 88.7427C16.8919 88.8871 17.0398 89.0324 17.1893 89.1768C17.0491 89.3229 16.9081 89.4674 16.767 89.6127C16.6192 89.4699 16.4731 89.3255 16.3287 89.1802Z" fill="#737373"/>
<path opacity="0.89" d="M23.1697 89.1615C23.3073 89.012 23.4467 88.865 23.5877 88.7197C23.7347 88.8659 23.8817 89.0137 24.0295 89.1615C23.8859 89.3034 23.7432 89.447 23.5996 89.5897C23.456 89.447 23.3124 89.3034 23.1697 89.1615Z" fill="#737373"/>
<rect width="90" height="114" rx="4" fill="url(#paint0_linear)" fill-opacity="0.6"/>
<path d="M27.6183 70.8595C27.8964 71.0462 28.1062 71.2522 28.2476 71.4773L28.2894 71.5414C28.404 71.7481 28.4711 71.9667 28.4907 72.197C28.5102 72.4273 28.4757 72.6688 28.3872 72.9216C28.2986 73.1744 28.1642 73.4194 27.9838 73.6566C27.8053 73.8969 27.5855 74.1268 27.3247 74.3463C27.0655 74.5689 26.7738 74.7701 26.4494 74.9499L25.0898 75.7036C24.5872 75.9821 24.0748 76.1228 23.5524 76.1254C23.03 76.1281 22.5341 76.006 22.0646 75.759C21.7412 75.5807 21.4504 75.3448 21.1922 75.0514C20.9921 74.8255 20.8136 74.5711 20.6567 74.288C20.6109 74.2053 20.5309 74.0459 20.4167 73.8099C20.3007 73.5707 20.1861 73.2101 20.0728 72.7283C19.9627 72.2446 19.8924 71.7203 19.8619 71.1551L20.8802 71.102C20.94 72.0501 21.1144 72.841 21.4035 73.475C21.4535 73.5803 21.505 73.6806 21.5579 73.776C21.8258 74.2595 22.1625 74.6154 22.5677 74.844C22.8762 75.0181 23.2044 75.1001 23.5524 75.0902C23.9034 75.0785 24.2475 74.9793 24.5847 74.7924L25.9443 74.0387C26.1224 73.94 26.2894 73.8287 26.4453 73.7049C26.6029 73.5843 26.7433 73.4587 26.8663 73.3281C26.9893 73.1975 27.0928 73.0654 27.1766 72.9316C27.2622 72.801 27.3227 72.6739 27.3582 72.5503C27.3968 72.425 27.4064 72.3074 27.3871 72.1975C27.3797 72.1392 27.3628 72.0862 27.3364 72.0385C27.3117 71.994 27.2791 71.9539 27.2385 71.9182C27.1316 71.8153 26.9843 71.7597 26.7968 71.7514C26.611 71.7463 26.4054 71.7729 26.1801 71.8313C25.9564 71.8929 25.7239 71.9761 25.4826 72.0807C25.243 72.1886 25.0167 72.3016 24.8036 72.4197L24.3372 71.4995L28.4495 69.22L28.9493 70.1217L27.6183 70.8595ZM32.482 68.151C32.183 68.3167 31.8937 68.421 31.6139 68.4638C31.3324 68.5035 31.0662 68.4847 30.8155 68.4074C30.7489 68.6772 30.6296 68.9159 30.4578 69.1234C30.2842 69.3277 30.086 69.4916 29.8634 69.615L28.7662 70.2232L28.2664 69.3215L29.3636 68.7133C29.4113 68.6869 29.4762 68.6426 29.5582 68.5805C29.6384 68.5153 29.7056 68.4302 29.7597 68.3254C29.8121 68.2173 29.8375 68.0869 29.8359 67.9339C29.8374 67.7792 29.7818 67.6001 29.669 67.3966L28.8677 65.951L29.7694 65.4512L30.5601 66.8777C30.7311 67.1862 30.9278 67.3723 31.1502 67.4361C31.3759 67.4981 31.6541 67.4375 31.9848 67.2541C32.0325 67.2277 32.0949 67.1827 32.172 67.1192C32.2505 67.0508 32.3159 66.9625 32.3683 66.8545C32.4238 66.7447 32.4508 66.6133 32.4492 66.4604C32.4507 66.3057 32.3951 66.1266 32.2823 65.923L31.4916 64.4966L32.3885 63.9995L33.1791 65.4259C33.3501 65.7344 33.5509 65.9204 33.7815 65.9838C34.0121 66.0472 34.2928 65.9873 34.6235 65.8039C34.6744 65.7757 34.7375 65.7283 34.8128 65.6616C34.8863 65.5918 34.9468 65.5021 34.9942 65.3927C35.0449 65.2814 35.0678 65.1503 35.063 64.9991C35.0582 64.8479 35.0011 64.6737 34.8918 64.4765C34.853 64.4066 34.7982 64.3226 34.7273 64.2247C34.6596 64.1251 34.5827 64.0201 34.4966 63.9098C34.4137 63.7978 34.3267 63.6859 34.2357 63.5742C34.1429 63.4593 34.0555 63.354 33.9732 63.2582C33.8893 63.1592 33.814 63.0721 33.7473 62.9968C33.6788 62.9183 33.6268 62.8619 33.5911 62.8277L34.2944 62.0824C34.3113 62.0979 34.3522 62.1418 34.4172 62.2139C34.4803 62.2828 34.5581 62.3707 34.6505 62.4774C34.7412 62.581 34.8398 62.6989 34.9464 62.8311C35.0561 62.9615 35.1635 63.0953 35.2686 63.2324C35.3752 63.3646 35.4752 63.4963 35.5686 63.6274C35.6603 63.7553 35.7353 63.8718 35.7935 63.9768C35.9609 64.2789 36.058 64.5702 36.0845 64.8507C36.1094 65.1279 36.0837 65.3854 36.0075 65.623C35.9328 65.8557 35.8164 66.0657 35.6583 66.2531C35.4985 66.4374 35.3193 66.5866 35.1207 66.7008C34.8154 66.8701 34.5203 66.9754 34.2356 67.0168C33.9523 67.0533 33.682 67.0306 33.4246 66.9487C33.3562 67.2153 33.236 67.4524 33.0642 67.6599C32.8955 67.8657 32.7014 68.0294 32.482 68.151ZM40.964 63.4618L40.7588 63.5755C40.4535 63.7448 40.1386 63.8404 39.8139 63.8623C40.0608 64.3076 40.2191 64.7395 40.289 65.1581C40.3589 65.5767 40.3416 65.973 40.237 66.3469C40.1342 66.724 39.9432 67.0732 39.6638 67.3943C39.3877 67.7137 39.0238 67.9985 38.5722 68.2489L37.9138 68.6138L37.414 67.7122L38.0724 67.3472C38.4 67.1656 38.661 66.969 38.8554 66.7573C39.0548 66.5469 39.1875 66.3175 39.2534 66.0689C39.3226 65.8186 39.3241 65.5475 39.2579 65.2557C39.195 64.9621 39.0674 64.642 38.8753 64.2953L37.2252 61.3184L38.1268 60.8186L39.0021 62.3977C39.1008 62.5758 39.215 62.6955 39.3445 62.7567C39.4755 62.813 39.6035 62.8377 39.7286 62.8307C39.8536 62.8238 39.9642 62.802 40.0603 62.7654C40.1578 62.7238 40.2241 62.6933 40.259 62.6739L40.4642 62.5602L40.964 63.4618ZM41.1823 58.2643C41.1993 58.2799 41.2402 58.3237 41.3051 58.3958C41.37 58.4679 41.448 58.5598 41.539 58.6715C41.6315 58.7783 41.7334 58.8985 41.8449 59.0321C41.9546 59.1625 42.0629 59.2979 42.1698 59.4382C42.2749 59.5754 42.3742 59.7095 42.4677 59.8406C42.5612 59.9717 42.637 60.0898 42.6952 60.1947C42.8644 60.5 42.9598 60.7922 42.9815 61.0713C43.0045 61.3454 42.9755 61.6005 42.8944 61.8367C42.8147 62.068 42.6941 62.2742 42.5325 62.4552C42.3709 62.6362 42.1883 62.7832 41.9848 62.896L40.7683 63.5703L40.2685 62.6687L41.485 61.9943C41.5327 61.9679 41.596 61.9245 41.6748 61.8642C41.755 61.7989 41.8222 61.7139 41.8763 61.609C41.9337 61.5024 41.9624 61.3742 41.9625 61.2245C41.9659 61.073 41.9111 60.8954 41.7983 60.6919C41.7595 60.6219 41.7047 60.538 41.6338 60.4401C41.5643 60.3372 41.4865 60.2307 41.4004 60.1204C41.3158 60.0052 41.227 59.8901 41.1343 59.7752C41.0397 59.6572 40.9496 59.5471 40.8639 59.4449C40.7781 59.3428 40.701 59.2524 40.6326 59.174C40.5642 59.0955 40.5112 59.0375 40.4738 59L41.1823 58.2643ZM42.6442 64.7943L43.0003 63.5242L44.2906 63.8942L43.9248 65.1696L42.6442 64.7943ZM51.6055 61.0119C51.1793 61.2482 50.7393 61.3694 50.2854 61.3757C49.8365 61.3834 49.4105 61.2786 49.0073 61.0614C48.8457 60.9722 48.6634 60.8383 48.4604 60.6598C48.2575 60.4812 48.0624 60.2381 47.8752 59.9302C47.8456 59.8843 47.8167 59.8359 47.7884 59.785C47.6351 59.5083 47.4925 59.1611 47.3608 58.7435C47.2323 58.3242 47.1495 57.7922 47.1123 57.1476L48.1375 57.0844C48.1573 57.4726 48.2018 57.8305 48.271 58.1579C48.3435 58.4836 48.4389 58.7758 48.5574 59.0345C48.5986 59.1239 48.6421 59.2099 48.688 59.2926C48.7726 59.4453 48.8793 59.6003 49.0081 59.7575C49.1368 59.9148 49.3004 60.0487 49.4988 60.1591C49.7452 60.2886 50.0074 60.349 50.2854 60.3405C50.5683 60.3333 50.8417 60.2566 51.1057 60.1103L51.4492 59.9199C51.8118 59.7189 52.0864 59.5168 52.2731 59.3135C52.4629 59.1085 52.5818 58.8992 52.6297 58.6855C52.6825 58.4733 52.6781 58.2554 52.6165 58.0317C52.5549 57.8081 52.4563 57.5739 52.3205 57.329L48.4782 50.3972L49.3655 49.9053L53.2079 56.8371C54.1334 58.5068 53.7138 59.835 51.949 60.8215L51.6055 61.0119ZM56.7609 54.7055C56.4252 54.8874 56.1361 55.0185 55.8938 55.0988C55.6528 55.1742 55.434 55.2144 55.2372 55.2195C55.0419 55.2197 54.8646 55.1849 54.7054 55.1152C54.5476 55.0405 54.3983 54.9362 54.2575 54.8022C54.115 54.665 53.9793 54.499 53.8506 54.3043C53.7219 54.1096 53.5887 53.8882 53.4512 53.6401L50.9073 49.0507L51.8089 48.5509L54.3529 53.1403C54.5063 53.417 54.6385 53.6368 54.7496 53.7997C54.8639 53.9609 54.984 54.0689 55.1101 54.1238C55.2375 54.1737 55.3857 54.1747 55.5546 54.1268C55.7249 54.074 55.9604 53.9664 56.2611 53.8038L56.7609 54.7055ZM61.946 49.3367C61.934 49.36 61.8821 49.4615 61.7905 49.6412C61.6988 49.8209 61.5702 50.0502 61.4047 50.329C61.2405 50.603 61.0412 50.9109 60.8067 51.253C60.5722 51.595 60.3052 51.9384 60.0057 52.2832C59.7094 52.6262 59.3833 52.9566 59.0273 53.2745C58.6696 53.5892 58.2872 53.8594 57.8801 54.0851L56.5729 54.8097L56.0731 53.908L57.3803 53.1834C57.7365 52.986 58.073 52.7454 58.3897 52.4618C58.7079 52.1731 59.0011 51.8734 59.2695 51.5625C59.5361 51.2484 59.7767 50.9362 59.9914 50.626C60.2043 50.3125 60.386 50.0289 60.5363 49.7751C60.1591 49.8221 59.7836 49.8722 59.4098 49.9256C59.0393 49.9771 58.7021 50.0289 58.3983 50.0809C58.0928 50.1297 57.8319 50.1766 57.6157 50.2216C57.4027 50.2648 57.2633 50.2984 57.1976 50.3224C57.1435 50.3524 57.0889 50.3889 57.0338 50.4319C56.9818 50.4732 56.9404 50.5335 56.9096 50.613C56.8788 50.6924 56.8646 50.798 56.8669 50.9297C56.8675 51.0583 56.8942 51.2264 56.947 51.4342L55.947 51.6891C55.6701 50.612 55.9244 49.8557 56.71 49.4202C56.7291 49.4096 56.7554 49.3971 56.789 49.3827C56.8208 49.365 56.8713 49.3474 56.9405 49.3298C57.008 49.3091 57.1014 49.2864 57.2208 49.2618C57.3385 49.234 57.4902 49.2039 57.676 49.1716C57.865 49.1375 58.0962 49.1008 58.3696 49.0615C58.6413 49.0191 58.9689 48.9726 59.3525 48.9221L61.3878 48.6109L61.946 49.3367ZM63.9064 54.2059L63.4066 53.3042L64.065 52.9393C64.3926 52.7577 64.6536 52.5611 64.848 52.3493C65.0475 52.139 65.1801 51.9096 65.246 51.661C65.3152 51.4106 65.3167 51.1395 65.2505 50.8477C65.1876 50.5542 65.06 50.2341 64.8679 49.8874L63.2178 46.9105L64.1194 46.4107L65.7695 49.3876C66.0216 49.8424 66.186 50.2814 66.2626 50.7046C66.3441 51.1292 66.336 51.5308 66.2381 51.9093C66.1403 52.2879 65.951 52.6402 65.6702 52.9663C65.3944 53.2938 65.0259 53.5853 64.5648 53.8409L63.9064 54.2059ZM69.0047 48.0122C68.8425 48.1021 68.6743 48.1849 68.5001 48.2607C68.3277 48.3396 68.154 48.4089 67.9791 48.4684C67.8056 48.523 67.6325 48.567 67.4598 48.6003C67.2885 48.6288 67.1246 48.6406 66.9681 48.6359L66.4479 48.6312L66.46 47.5954L66.9802 47.6002C67.1268 47.6021 67.2926 47.5787 67.4778 47.5302C67.6611 47.4784 67.8478 47.4103 68.0379 47.3257C68.2026 47.2552 68.3629 47.1768 68.5187 47.0904C68.5473 47.0745 68.6141 47.0375 68.7191 46.9793C68.8223 46.918 68.9456 46.833 69.0891 46.7243C69.2577 46.5934 69.3867 46.4699 69.4762 46.3538C69.5671 46.2328 69.6099 46.13 69.6047 46.0456C69.5998 46.0068 69.5868 45.9682 69.5656 45.9301C69.5356 45.876 69.4783 45.8101 69.3936 45.7323C69.3072 45.6513 69.1707 45.5627 68.9843 45.4665L65.8109 43.8142L66.2992 42.895C66.3758 42.9357 66.4557 42.9786 66.539 43.0239C66.6206 43.066 66.7171 43.1165 66.8287 43.1752C66.9385 43.2308 67.0675 43.2985 67.2158 43.3785C67.3623 43.4553 67.5404 43.5478 67.7501 43.6561C67.9598 43.7643 68.2044 43.8907 68.484 44.035C68.7636 44.1794 69.0898 44.3478 69.4626 44.5403C69.6091 44.6171 69.7511 44.7047 69.8888 44.803C70.0247 44.8981 70.1456 45.0037 70.2514 45.1196C70.347 45.2246 70.4283 45.3375 70.4953 45.4584C70.5024 45.4711 70.5255 45.5165 70.5646 45.5946C70.602 45.6695 70.6266 45.7889 70.6384 45.9528C70.6866 46.5123 70.3788 47.0447 69.7151 47.5498C69.6126 47.6274 69.5019 47.7054 69.3832 47.7837C69.2644 47.8619 69.1383 47.9381 69.0047 48.0122Z" fill="white"/>
<defs>
<linearGradient id="paint0_linear" x1="45" y1="0" x2="45" y2="114" gradientUnits="userSpaceOnUse">
<stop stop-color="#8E8E8E"/>
<stop offset="1" stop-color="#242424"/>
</linearGradient>
</defs>
</svg>
