<?xml version="1.0" encoding="utf-8"?>
<!-- Generator: Adobe Illustrator 21.0.2, SVG Export Plug-In . SVG Version: 6.00 Build 0)  -->
<svg version="1.1" id="Layer_1" xmlns="http://www.w3.org/2000/svg" xmlns:xlink="http://www.w3.org/1999/xlink" x="0px" y="0px"
	 viewBox="0 0 90 114" style="enable-background:new 0 0 90 114;" xml:space="preserve">
<style type="text/css">
	.st0{fill:#FFFFFF;}
	.st1{fill:#737373;}
	.st2{fill:url(#SVGID_1_);fill-opacity:0.6;}
</style>
<path class="st0" d="M4,0h82c2.2,0,4,1.8,4,4v106c0,2.2-1.8,4-4,4H4c-2.2,0-4-1.8-4-4V4C0,1.8,1.8,0,4,0z"/>
<path class="st1" d="M47.3,19.6c2-0.4,4.2-0.3,6.1,0.6c1.5,0.6,2.8,1.7,3.8,3c0.8,1,1.4,2.2,1.9,3.4c0.6,1.8,0.8,3.7,0.8,5.6
	c-0.1,4.1-1.3,8.1-3.4,11.6c-1.6,2.5-3.6,4.6-5.8,6.5c-2.7,2.3-5.8,4.3-8.8,6.1c-1.3,0.8-2.6,1.6-4,2.3c-1.8,1-3.7,2-5.6,2.9
	c-0.3,0.1-0.2,0.5-0.2,0.7c0.1,1.6,0.6,3.1,1.3,4.4c1.2,2.4,3.2,4.3,5.5,5.5c0.9,0.5,1.9,0.8,2.8,1.1c0.4,0.1,0.9,0.1,1.3,0.1
	c1.5,0,3-0.2,4.4-0.8c1.7-0.8,3.1-2,4.3-3.4c2-2.2,3.5-4.8,5.2-7.2c2-3,4-6,6.8-8.3c2.9-2.5,6.4-4.1,10-5.4c0,0.2,0.2,0.4,0,0.6
	c-1.1,1.7-2.6,3.1-4.2,4.1c-0.5,0.3-1,0.7-1.6,0.8c-1.3,0.4-2.6,1-3.7,1.8c-0.4,0.3-0.8,0.7-1.1,1.2c1.1,0,2.1-0.1,3.2-0.1
	c0.5,0,1,0.2,1.2,0.6c0.3,0.9,0.2,1.8,0,2.7c-0.1,0.6-0.4,1.1-0.7,1.5c-0.9,1.4-2,2.6-3.4,3.6c-1,0.7-2.1,1.1-3.2,1.6
	c-0.8,0.4-1.6,0.8-2.2,1.4c-0.4,0.4-0.6,0.9-0.9,1.4c-1.5,2.5-3.3,4.8-5.5,6.7c-1.4,1.2-3.1,2.2-4.9,2.8c-3.1,1-6.5,0.9-9.6-0.2
	C33.9,78,31,75.9,29,73.1c-0.7-1.1-1.3-2.3-1.9-3.4c-0.8-1.6-1.4-3.4-1.9-5.1c-1.4,0.5-2.9,1.1-4.3,1.7c-1.9,0.8-3.7,1.8-5.5,2.8
	c-3.2,1.7-6.4,3.4-9.6,5.2C4.5,75.1,3.2,76,2.1,77c0-1.5,0.6-3,1.4-4.3c1.5-2.3,3.6-4.2,5.9-5.9c2.6-1.9,5.4-3.5,8.4-4.8
	c2.4-1.1,4.8-2.1,7.2-3.2c0-4.9,0.7-9.7,1.9-14.4c0.7-2.6,1.8-5.2,2.9-7.6c2-4.3,4.6-8.4,8.2-11.7C40.5,22.5,43.8,20.6,47.3,19.6z"
	/>
<path class="st1" d="M22.2,84c0.9-0.4,1.9-0.9,2.8-1.3c0.1,0.2,0.2,0.4,0.2,0.5c-0.8,0.4-1.7,0.8-2.5,1.1c0.5,0.7,1,1.4,1.5,2
	c0.2,0.3,0.5,0.6,0.9,0.6c0.4,0,0.9,0,1.3,0c0.2,0,0.5-0.1,0.5-0.3c0-0.4,0-0.8,0-1.2c0.2,0,0.4,0,0.6,0c0,0.4,0,0.8,0,1.1
	c0,0.2,0.3,0.4,0.5,0.4c0.5,0,0.9,0,1.4,0c0.2,0,0.4-0.2,0.4-0.4c0-0.4-0.1-0.9-0.2-1.3c0.2-0.1,0.4-0.1,0.6-0.2
	c0.1,0.6,0.4,1.3,0.1,1.9c-0.2,0.5-0.8,0.6-1.2,0.6c-0.6,0-1.3,0.1-1.8-0.3c-0.6,0.4-1.3,0.3-2,0.3c-0.5,0-1-0.3-1.4-0.7
	c-0.4,0.8-1.4,0.7-2.2,0.7c0.1,0.3,0.2,0.8-0.1,1.1c-0.4,0.5-1.2,0.7-1.8,0.6c-0.5,0-1,0.1-1.5-0.1c-0.5-0.2-0.9-0.7-1-1.2
	c-0.2-0.8,0.1-1.6,0.4-2.3c0.2,0.1,0.3,0.2,0.5,0.2c-0.3,0.6-0.5,1.4-0.3,2.1c0.2,0.5,0.6,0.8,1.1,0.7c0.6,0,1.3,0.1,1.8-0.2
	c0.2-0.1,0.4-0.4,0.2-0.6c-0.4-0.3-0.8-0.3-1.3-0.3c0-0.2,0-0.4,0-0.6c0.8,0,1.7,0,2.5,0c0.3,0,0.7,0,1-0.3c0.1-0.3,0-0.6-0.2-0.8
	c-0.3-0.5-0.7-1-1.1-1.5C22.1,84.3,22.1,84.1,22.2,84z"/>
<path class="st1" d="M39.7,84c0.9-0.4,1.9-0.9,2.8-1.3c0.1,0.2,0.2,0.4,0.2,0.5c-0.8,0.4-1.7,0.8-2.5,1.1c0.5,0.7,1,1.4,1.5,2
	c0.2,0.3,0.5,0.6,1,0.6c0.3,0,0.7,0.1,0.9-0.2c0.1-0.1,0.1-0.3,0.1-0.5c0-1.1,0-2.1,0-3.2c0.2,0,0.4,0,0.6,0c0,1.1,0,2.1,0,3.2
	c0,0.3-0.1,0.7-0.3,0.9c-0.4,0.3-0.9,0.3-1.4,0.3c-0.5,0-0.9-0.3-1.2-0.7c-0.4,0.6-1.1,0.8-1.8,0.7c-0.6,0-1.3,0.1-1.8-0.3
	c-0.3,0.2-0.6,0.3-0.9,0.3c-0.5,0-1.1,0.1-1.6-0.1c0,0.5-0.2,1.1-0.6,1.4c-0.5,0.4-1.1,0.4-1.6,0.4v-0.6c0.4,0,0.9,0,1.3-0.2
	c0.3-0.2,0.4-0.6,0.4-1c0-0.7,0-1.3,0-2c0.2,0,0.4,0,0.6,0c0,0.4-0.1,0.9,0.1,1.3c0.3,0.3,0.7,0.2,1.1,0.2c0.3,0,0.8,0.1,1-0.3
	c0.1-0.4,0-0.8,0-1.2c0.2,0,0.4,0,0.6,0c0,0.4,0,0.8,0,1.2c0.1,0.4,0.6,0.3,1,0.3c0.5,0,1.2,0.1,1.7-0.2c0.3-0.2,0.2-0.6,0-0.8
	c-0.4-0.5-0.7-1.1-1.1-1.6C39.6,84.3,39.6,84.1,39.7,84z"/>
<path class="st1" d="M44.9,83.2c0.2,0,0.4,0,0.6,0c0,1.5,0,2.9,0,4.4c-0.2,0-0.4,0-0.6,0C44.9,86.1,44.9,84.7,44.9,83.2z"/>
<path class="st1" d="M49.5,83.2c0.2,0,0.4,0,0.6,0c0,1,0,2,0,3.1c0,0.2,0,0.6,0.3,0.7c0.2,0.1,0.5,0.1,0.7,0
	c0.4-0.5,0.3-1.2,0.7-1.6c0.5-0.6,1.5-0.3,1.8,0.4c0.2,0.4,0,1,0.5,1.3c0.4,0.1,0.8,0,1.3,0c0.2,0,0.5,0,0.6-0.3
	c0.1-0.4,0-0.8,0-1.2c0.2,0,0.4,0,0.6,0c0,0.4,0,0.7,0,1.1c0,0.2,0.2,0.4,0.4,0.4c0.5,0,1.1,0,1.6,0c-0.1-0.2-0.3-0.4-0.3-0.6
	c-0.1-0.7,0.4-1.4,1.1-1.4c0.5-0.1,0.9,0.2,1.3,0.5c-0.1,0.2-0.2,0.3-0.3,0.5c-0.2-0.1-0.4-0.3-0.7-0.4c-0.4-0.1-0.9,0.2-0.8,0.6
	c0,0.2,0.1,0.5,0.4,0.6c0.5,0.3,1,0.2,1.6,0.2c0,0.2,0,0.4,0,0.6c-1.2,0-2.5,0-3.7,0c-0.3,0-0.6-0.1-0.8-0.3c-0.3,0.2-0.6,0.3-1,0.3
	c-0.6,0-1.2,0.1-1.7-0.2c-0.2,0.2-0.4,0.4-0.6,0.4c-0.5,0.1-0.9-0.2-1.3-0.4c-0.4,0.4-1.1,0.3-1.6,0.2c-0.4-0.1-0.5-0.6-0.5-0.9
	C49.5,85.4,49.5,84.3,49.5,83.2z M52.1,85.8c-0.2,0.3-0.2,0.7-0.3,1c0.3,0.1,0.6,0.4,1,0.4c0.2,0,0.3-0.2,0.3-0.3
	c0.1-0.3,0.1-0.7-0.1-1C52.8,85.6,52.3,85.5,52.1,85.8z"/>
<path class="st1" d="M61.4,83.2c0.2,0,0.4,0,0.6,0c0,1.5,0,2.9,0,4.4c-0.2,0-0.4,0-0.6,0C61.4,86.1,61.4,84.7,61.4,83.2z"/>
<path class="st1" d="M66,83.2c0.2,0,0.4,0,0.6,0c0,1,0,2,0,3.1c0,0.2,0,0.6,0.2,0.7c0.3,0.1,0.5,0.1,0.8,0c0.4-0.5,0.3-1.2,0.7-1.6
	c0.5-0.6,1.5-0.3,1.8,0.3c0.2,0.4,0,1.1,0.5,1.3c0.4,0.1,0.8,0,1.2,0c0.2,0,0.4-0.2,0.4-0.4c0-0.4-0.1-0.9-0.2-1.3
	c0.2-0.1,0.4-0.1,0.6-0.2c0.1,0.5,0.2,1,0.2,1.6c0,0.5-0.5,1-1.1,0.9c-0.6,0-1.1,0.1-1.6-0.2c-0.2,0.2-0.4,0.4-0.6,0.4
	c-0.5,0.1-0.9-0.2-1.3-0.4c-0.4,0.4-1.1,0.3-1.6,0.2c-0.4-0.1-0.5-0.6-0.5-0.9C65.9,85.4,66,84.3,66,83.2z M68.6,85.8
	c-0.2,0.3-0.2,0.7-0.3,1c0.3,0.1,0.6,0.4,1,0.4c0.2,0,0.3-0.2,0.3-0.3c0.1-0.3,0.1-0.7-0.1-1C69.3,85.6,68.8,85.5,68.6,85.8z"/>
<path class="st1" d="M29.2,83.8c0.2-0.2,0.4-0.4,0.5-0.5c0.2,0.2,0.4,0.4,0.5,0.5c-0.2,0.2-0.4,0.4-0.5,0.5
	C29.5,84.2,29.3,84,29.2,83.8z"/>
<path class="st1" d="M71.5,83.8c0.2-0.2,0.4-0.4,0.5-0.5c0.2,0.2,0.4,0.4,0.5,0.5L72,84.4C71.8,84.2,71.6,84,71.5,83.8z"/>
<path class="st1" d="M36.3,84.2c0.2-0.2,0.3-0.3,0.5-0.5c0.2,0.2,0.3,0.3,0.5,0.5c-0.2,0.2-0.3,0.3-0.5,0.5L36.3,84.2z"/>
<path class="st1" d="M37.5,84.2c0.2-0.2,0.3-0.3,0.5-0.5c0.2,0.2,0.3,0.3,0.5,0.5c-0.2,0.2-0.3,0.3-0.5,0.5
	C37.8,84.5,37.7,84.3,37.5,84.2z"/>
<path class="st1" d="M54.8,84.2c0.2-0.2,0.3-0.3,0.5-0.5c0.2,0.2,0.3,0.3,0.5,0.5c-0.2,0.2-0.3,0.3-0.5,0.5L54.8,84.2z"/>
<path class="st1" d="M56,84.2c0.2-0.2,0.3-0.3,0.5-0.5c0.2,0.2,0.3,0.3,0.5,0.5c-0.2,0.2-0.3,0.3-0.5,0.5
	C56.3,84.5,56.1,84.3,56,84.2z"/>
<path class="st1" d="M47,84.7c0.2-0.1,0.3-0.2,0.5-0.3c0.4,0.5,0.7,1.1,1.1,1.6c0.2,0.3,0.4,0.6,0.3,1c-0.1,0.3-0.4,0.5-0.7,0.6
	c-0.7,0.2-1.5,0.1-2.1-0.3c0.1-0.2,0.2-0.3,0.3-0.5c0.5,0.3,1.2,0.4,1.8,0.2c0.2-0.1,0.2-0.3,0.1-0.5C47.8,85.9,47.4,85.3,47,84.7z"
	/>
<path class="st1" d="M63.5,84.7c0.2-0.1,0.3-0.2,0.5-0.3c0.4,0.5,0.7,1.1,1.1,1.6c0.2,0.3,0.4,0.6,0.3,1c-0.1,0.3-0.4,0.5-0.7,0.6
	c-0.7,0.2-1.5,0.1-2.1-0.3c0.1-0.2,0.2-0.3,0.3-0.5c0.6,0.3,1.4,0.5,2,0.1C64.5,86.1,63.9,85.4,63.5,84.7z"/>
<path class="st1" d="M31.2,85.4c0.4-0.5,1.3-0.6,1.8,0c0.4,0.5,0.3,1.1,0.3,1.6c0,0.6,0.1,1.3-0.3,1.8c-0.5,0.5-1.2,0.6-1.8,0.6
	v-0.6c0.4,0,0.9,0,1.3-0.3c0.3-0.2,0.3-0.5,0.3-0.8c-0.5,0-1,0.1-1.4-0.3C30.7,86.8,30.7,85.9,31.2,85.4z M31.6,85.8
	c-0.2,0.3-0.2,0.7,0,1c0.3,0.3,0.7,0.2,1.1,0.2c0-0.4,0.1-0.8-0.1-1.2C32.4,85.4,31.8,85.4,31.6,85.8z"/>
<path class="st1" d="M25.6,88.8c0.2-0.2,0.3-0.3,0.5-0.5c0.2,0.2,0.3,0.3,0.5,0.5c-0.2,0.2-0.3,0.3-0.5,0.5
	C25.9,89.1,25.8,89,25.6,88.8z"/>
<path class="st1" d="M26.8,88.8c0.2-0.2,0.3-0.3,0.5-0.5c0.2,0.2,0.3,0.3,0.5,0.5c-0.2,0.2-0.3,0.3-0.5,0.5
	C27.1,89.1,26.9,89,26.8,88.8z"/>
<path class="st1" d="M82.1,44.2c0.7-0.2,1.6,0,2,0.7c1.2,1.5,2.3,3.1,3.5,4.6c0.4,0.5,0.2,1.2-0.3,1.5c-1.9,1.3-3.8,2.6-5.7,4
	c-0.3,0.2-0.8,0.2-1.1,0.1c-0.2-0.1-0.3-0.4-0.4-0.5c-1.2-1.8-2.4-3.5-3.7-5.2c-0.3-0.3-0.2-0.8,0.2-1c1.5-1.2,3-2.3,4.5-3.5
	C81.4,44.5,81.7,44.3,82.1,44.2z"/>
<linearGradient id="SVGID_1_" gradientUnits="userSpaceOnUse" x1="45" y1="114" x2="45" y2="0" gradientTransform="matrix(1 0 0 -1 0 114)">
	<stop  offset="0" style="stop-color:#242424"/>
	<stop  offset="1" style="stop-color:#242424"/>
</linearGradient>
<path class="st2" d="M4,0h82c2.2,0,4,1.8,4,4v106c0,2.2-1.8,4-4,4H4c-2.2,0-4-1.8-4-4V4C0,1.8,1.8,0,4,0z"/>
<path class="st0" d="M27.6,70.9c0.3,0.2,0.5,0.4,0.6,0.6l0,0.1c0.1,0.2,0.2,0.4,0.2,0.7c0,0.2,0,0.5-0.1,0.7
	c-0.1,0.3-0.2,0.5-0.4,0.7c-0.2,0.2-0.4,0.5-0.7,0.7c-0.3,0.2-0.6,0.4-0.9,0.6l-1.4,0.8c-0.5,0.3-1,0.4-1.5,0.4
	c-0.5,0-1-0.1-1.5-0.4c-0.3-0.2-0.6-0.4-0.9-0.7c-0.2-0.2-0.4-0.5-0.5-0.8c0-0.1-0.1-0.2-0.2-0.5c-0.1-0.2-0.2-0.6-0.3-1.1
	c-0.1-0.5-0.2-1-0.2-1.6l1-0.1c0.1,0.9,0.2,1.7,0.5,2.4c0.1,0.1,0.1,0.2,0.2,0.3c0.3,0.5,0.6,0.8,1,1.1c0.3,0.2,0.6,0.3,1,0.2
	c0.4,0,0.7-0.1,1-0.3l1.4-0.8c0.2-0.1,0.3-0.2,0.5-0.3c0.2-0.1,0.3-0.2,0.4-0.4c0.1-0.1,0.2-0.3,0.3-0.4c0.1-0.1,0.1-0.3,0.2-0.4
	c0-0.1,0-0.2,0-0.4c0-0.1,0-0.1-0.1-0.2c0,0-0.1-0.1-0.1-0.1c-0.1-0.1-0.3-0.2-0.4-0.2c-0.2,0-0.4,0-0.6,0.1
	c-0.2,0.1-0.5,0.1-0.7,0.2c-0.2,0.1-0.5,0.2-0.7,0.3l-0.5-0.9l4.1-2.3l0.5,0.9L27.6,70.9z M32.5,68.2c-0.3,0.2-0.6,0.3-0.9,0.3
	c-0.3,0-0.5,0-0.8-0.1c-0.1,0.3-0.2,0.5-0.4,0.7c-0.2,0.2-0.4,0.4-0.6,0.5l-1.1,0.6l-0.5-0.9l1.1-0.6c0,0,0.1-0.1,0.2-0.1
	c0.1-0.1,0.1-0.2,0.2-0.3c0.1-0.1,0.1-0.2,0.1-0.4c0-0.2-0.1-0.3-0.2-0.5L28.9,66l0.9-0.5l0.8,1.4c0.2,0.3,0.4,0.5,0.6,0.6
	c0.2,0.1,0.5,0,0.8-0.2c0,0,0.1-0.1,0.2-0.1c0.1-0.1,0.1-0.2,0.2-0.3c0.1-0.1,0.1-0.2,0.1-0.4c0-0.2-0.1-0.3-0.2-0.5l-0.8-1.4
	l0.9-0.5l0.8,1.4c0.2,0.3,0.4,0.5,0.6,0.6c0.2,0.1,0.5,0,0.8-0.2c0.1,0,0.1-0.1,0.2-0.1c0.1-0.1,0.1-0.2,0.2-0.3
	c0.1-0.1,0.1-0.2,0.1-0.4s-0.1-0.3-0.2-0.5c0-0.1-0.1-0.2-0.2-0.3c-0.1-0.1-0.1-0.2-0.2-0.3c-0.1-0.1-0.2-0.2-0.3-0.3
	c-0.1-0.1-0.2-0.2-0.3-0.3c-0.1-0.1-0.2-0.2-0.2-0.3c-0.1-0.1-0.1-0.1-0.2-0.2l0.7-0.7c0,0,0.1,0.1,0.1,0.1c0.1,0.1,0.1,0.2,0.2,0.3
	c0.1,0.1,0.2,0.2,0.3,0.4c0.1,0.1,0.2,0.3,0.3,0.4c0.1,0.1,0.2,0.3,0.3,0.4c0.1,0.1,0.2,0.2,0.2,0.3c0.2,0.3,0.3,0.6,0.3,0.9
	c0,0.3,0,0.5-0.1,0.8c-0.1,0.2-0.2,0.4-0.3,0.6c-0.2,0.2-0.3,0.3-0.5,0.4c-0.3,0.2-0.6,0.3-0.9,0.3c-0.3,0-0.6,0-0.8-0.1
	c-0.1,0.3-0.2,0.5-0.4,0.7C32.9,67.9,32.7,68,32.5,68.2z M41,63.5l-0.2,0.1c-0.3,0.2-0.6,0.3-0.9,0.3c0.2,0.4,0.4,0.9,0.5,1.3
	c0.1,0.4,0.1,0.8-0.1,1.2c-0.1,0.4-0.3,0.7-0.6,1c-0.3,0.3-0.6,0.6-1.1,0.9l-0.7,0.4l-0.5-0.9l0.7-0.4c0.3-0.2,0.6-0.4,0.8-0.6
	c0.2-0.2,0.3-0.4,0.4-0.7c0.1-0.3,0.1-0.5,0-0.8c-0.1-0.3-0.2-0.6-0.4-1l-1.7-3l0.9-0.5l0.9,1.6c0.1,0.2,0.2,0.3,0.3,0.4
	c0.1,0.1,0.3,0.1,0.4,0.1c0.1,0,0.2,0,0.3-0.1c0.1,0,0.2-0.1,0.2-0.1l0.2-0.1L41,63.5z M41.2,58.3c0,0,0.1,0.1,0.1,0.1
	c0.1,0.1,0.1,0.2,0.2,0.3c0.1,0.1,0.2,0.2,0.3,0.4c0.1,0.1,0.2,0.3,0.3,0.4c0.1,0.1,0.2,0.3,0.3,0.4c0.1,0.1,0.2,0.2,0.2,0.4
	c0.2,0.3,0.3,0.6,0.3,0.9c0,0.3,0,0.5-0.1,0.8c-0.1,0.2-0.2,0.4-0.4,0.6c-0.2,0.2-0.3,0.3-0.5,0.4l-1.2,0.7l-0.5-0.9l1.2-0.7
	c0,0,0.1-0.1,0.2-0.1c0.1-0.1,0.1-0.2,0.2-0.3c0.1-0.1,0.1-0.2,0.1-0.4c0-0.2-0.1-0.3-0.2-0.5c0-0.1-0.1-0.2-0.2-0.3
	c-0.1-0.1-0.1-0.2-0.2-0.3c-0.1-0.1-0.2-0.2-0.3-0.3c-0.1-0.1-0.2-0.2-0.3-0.3c-0.1-0.1-0.2-0.2-0.2-0.3c-0.1-0.1-0.1-0.1-0.2-0.2
	L41.2,58.3z M42.6,64.8l0.4-1.3l1.3,0.4l-0.4,1.3L42.6,64.8z M51.6,61c-0.4,0.2-0.9,0.4-1.3,0.4c-0.4,0-0.9-0.1-1.3-0.3
	c-0.2-0.1-0.3-0.2-0.5-0.4c-0.2-0.2-0.4-0.4-0.6-0.7c0,0-0.1-0.1-0.1-0.1c-0.2-0.3-0.3-0.6-0.4-1c-0.1-0.4-0.2-1-0.2-1.6l1-0.1
	c0,0.4,0.1,0.7,0.1,1.1c0.1,0.3,0.2,0.6,0.3,0.9c0,0.1,0.1,0.2,0.1,0.3c0.1,0.2,0.2,0.3,0.3,0.5c0.1,0.2,0.3,0.3,0.5,0.4
	c0.2,0.1,0.5,0.2,0.8,0.2c0.3,0,0.6-0.1,0.8-0.2l0.3-0.2c0.4-0.2,0.6-0.4,0.8-0.6c0.2-0.2,0.3-0.4,0.4-0.6c0.1-0.2,0-0.4,0-0.7
	c-0.1-0.2-0.2-0.5-0.3-0.7l-3.8-6.9l0.9-0.5l3.8,6.9c0.9,1.7,0.5,3-1.3,4L51.6,61z M56.8,54.7c-0.3,0.2-0.6,0.3-0.9,0.4
	c-0.2,0.1-0.5,0.1-0.7,0.1c-0.2,0-0.4,0-0.5-0.1c-0.2-0.1-0.3-0.2-0.4-0.3c-0.1-0.1-0.3-0.3-0.4-0.5c-0.1-0.2-0.3-0.4-0.4-0.7
	l-2.5-4.6l0.9-0.5l2.5,4.6c0.2,0.3,0.3,0.5,0.4,0.7c0.1,0.2,0.2,0.3,0.4,0.3c0.1,0,0.3,0.1,0.4,0c0.2-0.1,0.4-0.2,0.7-0.3L56.8,54.7
	z M61.9,49.3c0,0-0.1,0.1-0.2,0.3c-0.1,0.2-0.2,0.4-0.4,0.7c-0.2,0.3-0.4,0.6-0.6,0.9c-0.2,0.3-0.5,0.7-0.8,1c-0.3,0.3-0.6,0.7-1,1
	c-0.4,0.3-0.7,0.6-1.1,0.8l-1.3,0.7l-0.5-0.9l1.3-0.7c0.4-0.2,0.7-0.4,1-0.7c0.3-0.3,0.6-0.6,0.9-0.9c0.3-0.3,0.5-0.6,0.7-0.9
	c0.2-0.3,0.4-0.6,0.5-0.9c-0.4,0-0.8,0.1-1.1,0.2c-0.4,0.1-0.7,0.1-1,0.2c-0.3,0-0.6,0.1-0.8,0.1c-0.2,0-0.4,0.1-0.4,0.1
	c-0.1,0-0.1,0.1-0.2,0.1c-0.1,0-0.1,0.1-0.1,0.2c0,0.1,0,0.2,0,0.3c0,0.1,0,0.3,0.1,0.5l-1,0.3c-0.3-1.1,0-1.8,0.8-2.3
	c0,0,0,0,0.1,0c0,0,0.1,0,0.2-0.1c0.1,0,0.2,0,0.3-0.1c0.1,0,0.3-0.1,0.5-0.1c0.2,0,0.4-0.1,0.7-0.1c0.3,0,0.6-0.1,1-0.1l2-0.3
	L61.9,49.3z M63.9,54.2l-0.5-0.9l0.7-0.4c0.3-0.2,0.6-0.4,0.8-0.6c0.2-0.2,0.3-0.4,0.4-0.7c0.1-0.3,0.1-0.5,0-0.8
	c-0.1-0.3-0.2-0.6-0.4-1l-1.7-3l0.9-0.5l1.7,3c0.3,0.5,0.4,0.9,0.5,1.3c0.1,0.4,0.1,0.8,0,1.2c-0.1,0.4-0.3,0.7-0.6,1.1
	c-0.3,0.3-0.6,0.6-1.1,0.9L63.9,54.2z M69,48c-0.2,0.1-0.3,0.2-0.5,0.2c-0.2,0.1-0.3,0.1-0.5,0.2c-0.2,0.1-0.3,0.1-0.5,0.1
	c-0.2,0-0.3,0-0.5,0l-0.5,0l0-1l0.5,0c0.1,0,0.3,0,0.5-0.1c0.2-0.1,0.4-0.1,0.6-0.2c0.2-0.1,0.3-0.1,0.5-0.2c0,0,0.1-0.1,0.2-0.1
	c0.1-0.1,0.2-0.1,0.4-0.3c0.2-0.1,0.3-0.3,0.4-0.4c0.1-0.1,0.1-0.2,0.1-0.3c0,0,0-0.1,0-0.1c0-0.1-0.1-0.1-0.2-0.2
	c-0.1-0.1-0.2-0.2-0.4-0.3l-3.2-1.7l0.5-0.9c0.1,0,0.2,0.1,0.2,0.1c0.1,0,0.2,0.1,0.3,0.2c0.1,0.1,0.2,0.1,0.4,0.2
	c0.1,0.1,0.3,0.2,0.5,0.3c0.2,0.1,0.5,0.2,0.7,0.4c0.3,0.1,0.6,0.3,1,0.5c0.1,0.1,0.3,0.2,0.4,0.3c0.1,0.1,0.3,0.2,0.4,0.3
	c0.1,0.1,0.2,0.2,0.2,0.3c0,0,0,0.1,0.1,0.1c0,0.1,0.1,0.2,0.1,0.4c0,0.6-0.3,1.1-0.9,1.6c-0.1,0.1-0.2,0.2-0.3,0.2
	C69.3,47.9,69.1,47.9,69,48z"/>
</svg>
