<svg width="96" height="114" viewBox="0 0 96 114" fill="none" xmlns="http://www.w3.org/2000/svg">
<rect x="3" width="90" height="114" rx="4" fill="white"/>
<path d="M50.3475 19.6334C52.3725 19.2725 54.5269 19.3709 56.4356 20.1865C57.9328 20.8203 59.2181 21.8956 60.1931 23.1893C60.9844 24.2365 61.5938 25.4131 62.0747 26.6318C62.7122 28.4065 62.8781 30.3143 62.8575 32.1875C62.7759 36.2703 61.5863 40.3287 59.4291 43.7975C57.8775 46.2968 55.8206 48.4437 53.5866 50.3403C50.8575 52.6559 47.835 54.5937 44.7497 56.3956C43.4184 57.155 42.1228 57.9743 40.7775 58.7093C38.9306 59.7284 37.0556 60.6959 35.1787 61.6559C34.9069 61.7731 34.9781 62.1312 34.9584 62.3703C35.0391 63.9237 35.5594 65.4265 36.2559 66.8056C37.4588 69.1681 39.4153 71.1378 41.7797 72.3396C42.6853 72.8084 43.6453 73.1693 44.6278 73.4403C45.0563 73.5603 45.5053 73.5424 45.945 73.5593C47.4338 73.5912 48.9441 73.3578 50.3044 72.7353C51.9863 71.9759 53.3897 70.7253 54.6113 69.364C56.5941 67.1553 58.1166 64.595 59.7722 62.1462C61.7531 59.1706 63.8119 56.1734 66.5681 53.8531C69.4791 51.3696 73.0059 49.7543 76.575 48.4559C76.5966 48.6537 76.7531 48.8787 76.6088 49.0625C75.5306 50.7321 74.0513 52.1215 72.3938 53.2071C71.8781 53.5306 71.3616 53.8737 70.7719 54.0453C69.4716 54.4812 68.1928 55.0446 67.0903 55.8706C66.6488 56.2062 66.2578 56.6093 65.9597 57.079C67.0378 57.1287 68.1075 56.9412 69.1847 56.9393C69.6656 56.9337 70.2309 57.0921 70.425 57.5834C70.771 58.4581 70.5863 59.4312 70.4166 60.3256C70.3322 60.8975 70.0116 61.3868 69.72 61.8706C68.8472 63.2665 67.7222 64.52 66.3591 65.4509C65.3841 66.1418 64.2413 66.5206 63.1884 67.0681C62.4066 67.4721 61.6153 67.8921 60.9675 68.4978C60.5559 68.87 60.3769 69.41 60.0891 69.8703C58.6181 72.3668 56.8266 74.704 54.6159 76.5912C53.1769 77.8137 51.5363 78.8253 49.7306 79.4018C46.62 80.4218 43.1841 80.2821 40.1138 79.1825C36.8897 78.0321 33.9872 75.92 32.0006 73.1206C31.2525 72.0434 30.6562 70.8706 30.0891 69.6921C29.3119 68.044 28.6537 66.3387 28.1559 64.5856C26.7066 65.0806 25.2947 65.6759 23.9006 66.3068C22.0387 67.1553 20.2462 68.1443 18.4275 69.079C15.2072 70.7731 11.9906 72.4765 8.84999 74.314C7.51312 75.0903 6.22406 75.9593 5.06156 76.9812C5.01468 75.4409 5.67937 73.984 6.47812 72.7034C7.98656 70.3559 10.1053 68.4753 12.3347 66.8309C14.9522 64.9334 17.7619 63.3021 20.715 61.985C23.0916 60.9115 25.4925 59.8925 27.8681 58.8143C27.9141 53.9459 28.5375 49.0775 29.7703 44.3665C30.4481 41.7237 31.53 39.2103 32.6728 36.7409C34.7119 32.4209 37.3162 28.2912 40.8356 25.0221C43.5253 22.5162 46.785 20.584 50.3475 19.6334Z" fill="#737373"/>
<path d="M25.155 83.974C26.0972 83.539 27.0375 83.1012 27.9806 82.6681C28.0584 82.8471 28.1353 83.0262 28.2122 83.2062C27.3713 83.5756 26.5425 83.9721 25.7034 84.3462C26.1919 85.0259 26.6691 85.7131 27.1753 86.3796C27.4059 86.6824 27.7153 86.9927 28.1222 86.9974C28.5619 87.0077 29.0034 87.0143 29.4431 87.0031C29.6419 86.9974 29.91 86.8971 29.9203 86.6646C29.9484 86.2793 29.925 85.8921 29.9306 85.5068C30.1247 85.5059 30.3178 85.5049 30.5128 85.5059C30.5194 85.8856 30.4931 86.2662 30.5231 86.6449C30.5606 86.8746 30.8034 87.019 31.0266 87.004C31.4934 87.0087 31.9613 87.0171 32.4281 86.9984C32.6541 86.9946 32.8247 86.7837 32.8341 86.569C32.8519 86.1274 32.7356 85.6952 32.6522 85.2649C32.835 85.2087 33.0188 85.1515 33.2025 85.0952C33.3028 85.7281 33.5766 86.4134 33.2888 87.0349C33.0722 87.4887 32.5322 87.6387 32.0653 87.5956C31.4531 87.5515 30.7444 87.7446 30.2316 87.3087C29.6447 87.7287 28.8947 87.5665 28.2225 87.5909C27.6741 87.5993 27.1772 87.2993 26.8463 86.8765C26.3981 87.6471 25.4175 87.6246 24.6422 87.5918C24.7631 87.9302 24.8297 88.3418 24.5869 88.6456C24.1669 89.1809 23.4253 89.2981 22.785 89.2831C22.2938 89.2634 21.7744 89.3524 21.3122 89.1387C20.8106 88.9249 20.4309 88.4599 20.3166 87.9284C20.1309 87.1427 20.3878 86.3384 20.7131 85.6268C20.8856 85.7074 21.0591 85.7871 21.2325 85.8659C20.9513 86.5099 20.6841 87.2515 20.9344 87.949C21.0863 88.4046 21.5494 88.7187 22.0294 88.6943C22.6425 88.6727 23.3053 88.7927 23.8678 88.4806C24.0713 88.3756 24.2756 88.0906 24.0713 87.8871C23.7188 87.5956 23.2266 87.6256 22.7981 87.5806C22.8131 87.3884 22.8272 87.1971 22.8394 87.0059C23.6663 87.0059 24.4941 87.0049 25.3209 87.0049C25.6575 87.0031 26.0559 86.9674 26.2763 86.6787C26.4056 86.404 26.2547 86.0984 26.0953 85.8715C25.7475 85.3802 25.3969 84.8909 25.0453 84.4024C25.0819 84.259 25.1184 84.1156 25.155 83.974Z" fill="#737373"/>
<path d="M42.6872 83.9731C43.6284 83.539 44.5687 83.1012 45.5109 82.6681C45.5897 82.8471 45.6666 83.0252 45.7444 83.2062C44.9034 83.5756 44.0747 83.9721 43.2356 84.3462C43.7222 85.0259 44.2003 85.7121 44.7066 86.3787C44.9372 86.6853 45.2503 86.9928 45.6609 86.9993C45.9712 87.0021 46.3322 87.0593 46.59 86.8418C46.6941 86.7087 46.6856 86.5296 46.6903 86.3712C46.6856 85.3184 46.6875 84.2646 46.6884 83.2118C46.8834 83.2118 47.0784 83.2118 47.2744 83.2127C47.2753 84.2656 47.2744 85.3202 47.2762 86.374C47.2781 86.7021 47.2162 87.0696 46.9519 87.2937C46.5703 87.6181 46.0266 87.6181 45.555 87.5759C45.0769 87.5337 44.6719 87.2393 44.3775 86.8765C44.0147 87.5065 43.2309 87.6368 42.5653 87.5956C41.9531 87.5515 41.2453 87.7456 40.7325 87.3096C40.4653 87.4728 40.17 87.6021 39.8503 87.5918C39.3112 87.5843 38.7609 87.649 38.2359 87.499C38.2312 88.0296 38.0719 88.6034 37.6322 88.9381C37.1737 89.3028 36.5587 89.3131 36 89.3093V88.7206C36.4265 88.7112 36.9094 88.7665 37.2694 88.4862C37.5797 88.2612 37.6425 87.8543 37.6584 87.4981C37.6706 86.8343 37.6584 86.1696 37.6631 85.5059C37.8506 85.5059 38.0381 85.5059 38.2265 85.5068C38.249 85.9362 38.1562 86.3871 38.2997 86.8006C38.5556 87.1231 39.0206 86.9684 39.375 87.0078C39.7162 86.9824 40.2047 87.1128 40.4062 86.7499C40.4625 86.3384 40.4194 85.9203 40.4306 85.5068C40.6237 85.5059 40.8178 85.5049 41.0128 85.5059C41.025 85.9034 40.9809 86.3046 41.0353 86.6993C41.1834 87.1006 41.6737 86.9956 42.0075 87.0021C42.555 86.9712 43.1597 87.1203 43.6575 86.8231C43.964 86.6496 43.8637 86.2287 43.7006 85.9887C43.3397 85.4506 42.9515 84.9312 42.5765 84.4024C42.6131 84.259 42.6497 84.1156 42.6872 83.9731Z" fill="#737373"/>
<path d="M47.8603 83.2099C48.0544 83.2109 48.2494 83.2118 48.4434 83.2137C48.4444 84.6734 48.4434 86.1331 48.4444 87.5928C48.2503 87.5928 48.0562 87.5928 47.8631 87.5937C47.8612 86.1321 47.865 84.6715 47.8603 83.2099Z" fill="#737373"/>
<path d="M52.4531 83.2109C52.6406 83.2119 52.8281 83.2119 53.0165 83.2138C53.009 84.2338 53.01 85.2537 53.0147 86.2747C53.0344 86.5175 53.009 86.8681 53.2922 86.9666C53.5359 87.0172 53.7956 87.0275 54.0412 86.9816C54.419 86.51 54.3478 85.8097 54.765 85.3522C55.2637 84.7822 56.3119 85.0044 56.5725 85.7075C56.8069 86.1059 56.5415 86.7491 57.045 86.9731C57.465 87.0359 57.8944 86.9994 58.319 87.0069C58.5253 87.0106 58.7822 86.9572 58.8759 86.75C58.9303 86.3366 58.8844 85.9175 58.905 85.5022C59.0962 85.5031 59.2884 85.5059 59.4815 85.5088C59.4844 85.8603 59.4703 86.2128 59.4844 86.5653C59.4769 86.7941 59.6869 86.9919 59.9109 86.9984C60.4453 87.0238 60.9806 86.9956 61.5159 87.0078C61.3875 86.8109 61.2431 86.6122 61.215 86.3722C61.0725 85.6934 61.6519 84.9969 62.3353 84.9678C62.8069 84.9153 63.2175 85.1919 63.5981 85.43C63.5006 85.5922 63.4022 85.7544 63.3047 85.9175C63.0825 85.7853 62.865 85.6391 62.6165 85.565C62.2294 85.4337 61.7437 85.7591 61.7765 86.1819C61.7625 86.4284 61.9219 86.6581 62.1365 86.7688C62.6119 87.0331 63.1734 87.0125 63.6994 87.0069C63.6994 87.2019 63.6994 87.3978 63.7003 87.5938C62.4647 87.5919 61.23 87.5975 59.9953 87.5919C59.7028 87.6012 59.4281 87.4859 59.2012 87.3088C58.9087 87.4991 58.5712 87.6125 58.2197 87.5947C57.6412 87.5741 57.014 87.6969 56.4947 87.3697C56.3269 87.5459 56.1319 87.7306 55.8712 87.7325C55.3912 87.7831 54.9647 87.5262 54.5587 87.3116C54.135 87.7062 53.4984 87.6369 52.9903 87.4766C52.6106 87.35 52.4634 86.9225 52.4587 86.5578C52.4503 85.4422 52.4625 84.3266 52.4531 83.2109ZM55.125 85.8106C54.9459 86.1087 54.9019 86.4622 54.8006 86.7903C55.1156 86.9384 55.424 87.1428 55.7812 87.1644C55.9612 87.1681 56.0681 86.9984 56.1084 86.8438C56.1919 86.5006 56.1834 86.1022 55.9659 85.8097C55.7719 85.55 55.3022 85.5162 55.125 85.8106Z" fill="#737373"/>
<path d="M64.3603 83.2099C64.5544 83.2109 64.7484 83.2118 64.9434 83.2137C64.9444 84.6734 64.9434 86.1331 64.9444 87.5928C64.7494 87.5928 64.5553 87.5928 64.3631 87.5937C64.3612 86.1321 64.365 84.6715 64.3603 83.2099Z" fill="#737373"/>
<path d="M68.9531 83.2119C69.1397 83.2119 69.3262 83.2109 69.5147 83.2109C69.5119 84.2281 69.5091 85.2463 69.5147 86.2644C69.5362 86.4997 69.5034 86.8184 69.7481 86.9497C70.0003 87.0284 70.2806 87.0228 70.5403 86.9816C70.92 86.5109 70.8469 85.8097 71.265 85.3513C71.7628 84.7841 72.8053 85.0025 73.0688 85.7009C73.3097 86.1022 73.0369 86.7613 73.5563 86.9769C73.9388 87.0284 74.3288 87.0116 74.7141 86.9984C74.9381 86.9919 75.1059 86.7809 75.1153 86.5672C75.1322 86.1294 75.0216 85.6991 74.9288 85.2744C75.1125 85.2125 75.2972 85.1516 75.4828 85.0925C75.5784 85.6063 75.7313 86.1238 75.6881 86.6506C75.6422 87.1775 75.1622 87.6031 74.6353 87.59C74.0831 87.5881 73.4878 87.68 72.9947 87.3688C72.8288 87.5441 72.6347 87.7278 72.3769 87.7316C71.895 87.785 71.4656 87.5272 71.0578 87.3116C70.635 87.7072 69.9975 87.6369 69.4884 87.4766C69.1125 87.3491 68.9644 86.9263 68.9587 86.5644C68.9494 85.4469 68.9625 84.3294 68.9531 83.2119ZM71.6278 85.8059C71.4459 86.1041 71.4028 86.4613 71.3006 86.7903C71.6156 86.9384 71.9241 87.1428 72.2822 87.1644C72.4631 87.1663 72.57 86.9966 72.6084 86.8409C72.6919 86.4987 72.6825 86.1003 72.465 85.8088C72.2719 85.5519 71.8069 85.5163 71.6278 85.8059Z" fill="#737373"/>
<path d="M32.1694 83.8221C32.3447 83.6449 32.52 83.4687 32.6972 83.2943C32.8762 83.4724 33.0553 83.6515 33.2344 83.8306C33.0581 84.0068 32.8819 84.1831 32.7047 84.3593C32.5265 84.1803 32.3484 84.0012 32.1694 83.8221Z" fill="#737373"/>
<path d="M74.4506 83.8221C74.625 83.6449 74.8012 83.4687 74.9784 83.2943C75.1575 83.4724 75.3366 83.6515 75.5156 83.8306L74.9869 84.3593C74.8078 84.1803 74.6287 84.0012 74.4506 83.8221Z" fill="#737373"/>
<path d="M39.3262 84.1812C39.4837 84.0106 39.6441 83.8437 39.8072 83.6797C39.9712 83.8428 40.1353 84.0069 40.2984 84.1709C40.1363 84.335 39.9731 84.4981 39.81 84.6622L39.3262 84.1812Z" fill="#737373"/>
<path d="M40.5019 84.1869C40.6603 84.0238 40.8169 83.8588 40.9697 83.6919C41.1375 83.8588 41.3044 84.0266 41.4712 84.1953C41.3109 84.3547 41.1506 84.5141 40.9903 84.6744C40.8272 84.5113 40.665 84.3491 40.5019 84.1869Z" fill="#737373"/>
<path d="M57.795 84.1812C57.9525 84.0106 58.1128 83.8437 58.2769 83.6797C58.44 83.8428 58.6031 84.0069 58.7672 84.1709C58.605 84.335 58.4409 84.4981 58.2787 84.6622L57.795 84.1812Z" fill="#737373"/>
<path d="M58.9697 84.1878C59.1291 84.0247 59.2847 83.8597 59.4384 83.6919C59.6053 83.8578 59.7731 84.0256 59.94 84.1935C59.7816 84.3528 59.6231 84.5113 59.4666 84.6725C59.2978 84.5122 59.1337 84.35 58.9697 84.1878Z" fill="#737373"/>
<path d="M49.9884 84.7033C50.1516 84.5964 50.3166 84.4924 50.4825 84.3902C50.8387 84.9302 51.1894 85.4739 51.5541 86.0093C51.7472 86.2886 51.9141 86.6364 51.8166 86.9824C51.7247 87.2993 51.4162 87.4943 51.1097 87.5646C50.3972 87.7202 49.6097 87.6565 48.9872 87.2524C49.08 87.0827 49.1747 86.9158 49.2694 86.748C49.8122 87.0827 50.5069 87.1483 51.1097 86.9515C51.3309 86.884 51.2597 86.6402 51.165 86.4958C50.79 85.8874 50.3812 85.2996 49.9884 84.7033Z" fill="#737373"/>
<path d="M66.4875 84.7043C66.6506 84.5974 66.8165 84.4924 66.9825 84.3893C67.3387 84.9312 67.6903 85.4758 68.0559 86.0112C68.2481 86.2905 68.4131 86.6374 68.3166 86.9824C68.2237 87.2993 67.9153 87.4952 67.6078 87.5646C66.8972 87.7202 66.1106 87.6565 65.489 87.2524C65.579 87.0846 65.6719 86.9168 65.7637 86.7499C66.3665 87.0968 67.1831 87.2065 67.7991 86.8352C67.4906 86.0562 66.9216 85.4149 66.4875 84.7043Z" fill="#737373"/>
<path d="M34.154 85.3794C34.5637 84.8337 35.4919 84.7944 35.9203 85.3362C36.2737 85.7881 36.2297 86.3975 36.2325 86.9384C36.225 87.5319 36.3047 88.2134 35.8865 88.6991C35.4309 89.2062 34.6978 89.285 34.0556 89.2869V88.715C34.4897 88.6822 34.9678 88.6981 35.3362 88.4262C35.5969 88.235 35.6278 87.89 35.6681 87.5966C35.1797 87.5919 34.6219 87.6537 34.2272 87.3031C33.7022 86.8156 33.734 85.9222 34.154 85.3794ZM34.5637 85.7844C34.3884 86.0844 34.3584 86.5072 34.5497 86.8072C34.8337 87.1025 35.2847 86.9816 35.6494 87.0069C35.64 86.6131 35.7009 86.1969 35.5434 85.8247C35.3925 85.4253 34.769 85.4459 34.5637 85.7844Z" fill="#737373"/>
<path d="M28.6209 88.7993C28.7775 88.6306 28.934 88.4618 29.0906 88.294C29.2584 88.4562 29.4253 88.6212 29.5903 88.7871C29.4206 88.9559 29.2519 89.1256 29.0822 89.2953C28.9284 89.1293 28.7766 88.9625 28.6209 88.7993Z" fill="#737373"/>
<path d="M29.7787 88.7881C29.9419 88.6231 30.105 88.46 30.2681 88.2959C30.4331 88.4609 30.5981 88.6269 30.7612 88.7947C30.5972 88.9559 30.4331 89.1181 30.2709 89.2812C30.1059 89.1162 29.9419 88.9522 29.7787 88.7881Z" fill="#737373"/>
<path d="M85.0734 44.1641C85.7916 43.9663 86.6803 44.195 87.1003 44.8409C88.2628 46.3897 89.4366 47.9309 90.63 49.4553C91.0012 49.9091 90.8531 50.6084 90.3741 50.9216C88.4803 52.2509 86.5725 53.5635 84.6834 54.9003C84.36 55.1497 83.91 55.0785 83.5519 54.9538C83.3663 54.8225 83.2772 54.5938 83.1394 54.4185C81.9263 52.6672 80.7488 50.8897 79.4625 49.1919C79.2084 48.8741 79.29 48.3772 79.6238 48.1494C81.1275 46.9963 82.6388 45.8525 84.1416 44.6984C84.4247 44.4781 84.7209 44.2569 85.0734 44.1641Z" fill="#737373"/>
<rect x="3" width="90" height="114" rx="4" fill="url(#paint0_linear)" fill-opacity="0.6"/>
<path d="M30.6183 70.8595C30.8964 71.0462 31.1062 71.2522 31.2476 71.4773L31.2894 71.5414C31.404 71.7481 31.4711 71.9667 31.4907 72.197C31.5102 72.4273 31.4757 72.6688 31.3872 72.9216C31.2986 73.1744 31.1642 73.4194 30.9838 73.6566C30.8053 73.8969 30.5855 74.1268 30.3247 74.3463C30.0655 74.5689 29.7738 74.7701 29.4494 74.9499L28.0898 75.7036C27.5872 75.9821 27.0748 76.1228 26.5524 76.1254C26.03 76.1281 25.5341 76.006 25.0646 75.759C24.7412 75.5807 24.4504 75.3448 24.1922 75.0514C23.9921 74.8255 23.8136 74.5711 23.6567 74.288C23.6109 74.2053 23.5309 74.0459 23.4167 73.8099C23.3007 73.5707 23.1861 73.2101 23.0728 72.7283C22.9627 72.2446 22.8924 71.7203 22.8619 71.1551L23.8802 71.102C23.94 72.0501 24.1144 72.841 24.4035 73.475C24.4535 73.5803 24.505 73.6806 24.5579 73.776C24.8258 74.2595 25.1625 74.6154 25.5677 74.844C25.8762 75.0181 26.2044 75.1001 26.5524 75.0902C26.9034 75.0785 27.2475 74.9793 27.5847 74.7924L28.9443 74.0387C29.1224 73.94 29.2894 73.8287 29.4453 73.7049C29.6029 73.5843 29.7433 73.4587 29.8663 73.3281C29.9893 73.1975 30.0928 73.0654 30.1766 72.9316C30.2622 72.801 30.3227 72.6739 30.3582 72.5503C30.3968 72.425 30.4064 72.3074 30.3871 72.1975C30.3797 72.1392 30.3628 72.0862 30.3364 72.0385C30.3117 71.994 30.2791 71.9539 30.2385 71.9182C30.1316 71.8153 29.9843 71.7597 29.7968 71.7514C29.611 71.7463 29.4054 71.7729 29.1801 71.8313C28.9564 71.8929 28.7239 71.9761 28.4826 72.0807C28.243 72.1886 28.0167 72.3016 27.8036 72.4197L27.3372 71.4995L31.4495 69.22L31.9493 70.1217L30.6183 70.8595ZM35.482 68.151C35.183 68.3167 34.8937 68.421 34.6139 68.4638C34.3324 68.5035 34.0662 68.4847 33.8155 68.4074C33.7489 68.6772 33.6296 68.9159 33.4578 69.1234C33.2842 69.3277 33.086 69.4916 32.8634 69.615L31.7662 70.2232L31.2664 69.3215L32.3636 68.7133C32.4113 68.6869 32.4762 68.6426 32.5582 68.5805C32.6384 68.5153 32.7056 68.4302 32.7597 68.3254C32.8121 68.2173 32.8375 68.0869 32.8359 67.9339C32.8374 67.7792 32.7818 67.6001 32.669 67.3966L31.8677 65.951L32.7694 65.4512L33.5601 66.8777C33.7311 67.1862 33.9278 67.3723 34.1502 67.4361C34.3759 67.4981 34.6541 67.4375 34.9848 67.2541C35.0325 67.2277 35.0949 67.1827 35.172 67.1192C35.2505 67.0508 35.3159 66.9625 35.3683 66.8545C35.4238 66.7447 35.4508 66.6133 35.4492 66.4604C35.4507 66.3057 35.3951 66.1266 35.2823 65.923L34.4916 64.4966L35.3885 63.9995L36.1791 65.4259C36.3501 65.7344 36.5509 65.9204 36.7815 65.9838C37.0121 66.0472 37.2928 65.9873 37.6235 65.8039C37.6744 65.7757 37.7375 65.7283 37.8128 65.6616C37.8863 65.5918 37.9468 65.5021 37.9942 65.3927C38.0449 65.2814 38.0678 65.1503 38.063 64.9991C38.0582 64.8479 38.0011 64.6737 37.8918 64.4765C37.853 64.4066 37.7982 64.3226 37.7273 64.2247C37.6596 64.1251 37.5827 64.0201 37.4966 63.9098C37.4137 63.7978 37.3267 63.6859 37.2357 63.5742C37.1429 63.4593 37.0555 63.354 36.9732 63.2582C36.8893 63.1592 36.814 63.0721 36.7473 62.9968C36.6788 62.9183 36.6268 62.8619 36.5911 62.8277L37.2944 62.0824C37.3113 62.0979 37.3522 62.1418 37.4172 62.2139C37.4803 62.2828 37.5581 62.3707 37.6505 62.4774C37.7412 62.581 37.8398 62.6989 37.9464 62.8311C38.0561 62.9615 38.1635 63.0953 38.2686 63.2324C38.3752 63.3646 38.4752 63.4963 38.5686 63.6274C38.6603 63.7553 38.7353 63.8718 38.7935 63.9768C38.9609 64.2789 39.058 64.5702 39.0845 64.8507C39.1094 65.1279 39.0837 65.3854 39.0075 65.623C38.9328 65.8557 38.8164 66.0657 38.6583 66.2531C38.4985 66.4374 38.3193 66.5866 38.1207 66.7008C37.8154 66.8701 37.5203 66.9754 37.2356 67.0168C36.9523 67.0533 36.682 67.0306 36.4246 66.9487C36.3562 67.2153 36.236 67.4524 36.0642 67.6599C35.8955 67.8657 35.7014 68.0294 35.482 68.151ZM43.964 63.4618L43.7588 63.5755C43.4535 63.7448 43.1386 63.8404 42.8139 63.8623C43.0608 64.3076 43.2191 64.7395 43.289 65.1581C43.3589 65.5767 43.3416 65.973 43.237 66.3469C43.1342 66.724 42.9432 67.0732 42.6638 67.3943C42.3877 67.7137 42.0238 67.9985 41.5722 68.2489L40.9138 68.6138L40.414 67.7122L41.0724 67.3472C41.4 67.1656 41.661 66.969 41.8554 66.7573C42.0548 66.5469 42.1875 66.3175 42.2534 66.0689C42.3226 65.8186 42.3241 65.5475 42.2579 65.2557C42.195 64.9621 42.0674 64.642 41.8753 64.2953L40.2252 61.3184L41.1268 60.8186L42.0021 62.3977C42.1008 62.5758 42.215 62.6955 42.3445 62.7567C42.4755 62.813 42.6035 62.8377 42.7286 62.8307C42.8536 62.8238 42.9642 62.802 43.0603 62.7654C43.1578 62.7238 43.2241 62.6933 43.259 62.6739L43.4642 62.5602L43.964 63.4618ZM44.1823 58.2643C44.1993 58.2799 44.2402 58.3237 44.3051 58.3958C44.37 58.4679 44.448 58.5598 44.539 58.6715C44.6315 58.7783 44.7334 58.8985 44.8449 59.0321C44.9546 59.1625 45.0629 59.2979 45.1698 59.4382C45.2749 59.5754 45.3742 59.7095 45.4677 59.8406C45.5612 59.9717 45.637 60.0898 45.6952 60.1947C45.8644 60.5 45.9598 60.7922 45.9815 61.0713C46.0045 61.3454 45.9755 61.6005 45.8944 61.8367C45.8147 62.068 45.6941 62.2742 45.5325 62.4552C45.3709 62.6362 45.1883 62.7832 44.9848 62.896L43.7683 63.5703L43.2685 62.6687L44.485 61.9943C44.5327 61.9679 44.596 61.9245 44.6748 61.8642C44.755 61.7989 44.8222 61.7139 44.8763 61.609C44.9337 61.5024 44.9624 61.3742 44.9625 61.2245C44.9659 61.073 44.9111 60.8954 44.7983 60.6919C44.7595 60.6219 44.7047 60.538 44.6338 60.4401C44.5643 60.3372 44.4865 60.2307 44.4004 60.1204C44.3158 60.0052 44.227 59.8901 44.1343 59.7752C44.0397 59.6572 43.9496 59.5471 43.8639 59.4449C43.7781 59.3428 43.701 59.2524 43.6326 59.174C43.5642 59.0955 43.5112 59.0375 43.4738 59L44.1823 58.2643ZM45.6442 64.7943L46.0003 63.5242L47.2906 63.8942L46.9248 65.1696L45.6442 64.7943ZM54.6055 61.0119C54.1793 61.2482 53.7393 61.3694 53.2854 61.3757C52.8365 61.3834 52.4105 61.2786 52.0073 61.0614C51.8457 60.9722 51.6634 60.8383 51.4604 60.6598C51.2575 60.4812 51.0624 60.2381 50.8752 59.9302C50.8456 59.8843 50.8167 59.8359 50.7884 59.785C50.6351 59.5083 50.4925 59.1611 50.3608 58.7435C50.2323 58.3242 50.1495 57.7922 50.1123 57.1476L51.1375 57.0844C51.1573 57.4726 51.2018 57.8305 51.271 58.1579C51.3435 58.4836 51.4389 58.7758 51.5574 59.0345C51.5986 59.1239 51.6421 59.2099 51.688 59.2926C51.7726 59.4453 51.8793 59.6003 52.0081 59.7575C52.1368 59.9148 52.3004 60.0487 52.4988 60.1591C52.7452 60.2886 53.0074 60.349 53.2854 60.3405C53.5683 60.3333 53.8417 60.2566 54.1057 60.1103L54.4492 59.9199C54.8118 59.7189 55.0864 59.5168 55.2731 59.3135C55.4629 59.1085 55.5818 58.8992 55.6297 58.6855C55.6825 58.4733 55.6781 58.2554 55.6165 58.0317C55.5549 57.8081 55.4563 57.5739 55.3205 57.329L51.4782 50.3972L52.3655 49.9053L56.2079 56.8371C57.1334 58.5068 56.7138 59.835 54.949 60.8215L54.6055 61.0119ZM59.7609 54.7055C59.4252 54.8874 59.1361 55.0185 58.8938 55.0988C58.6528 55.1742 58.434 55.2144 58.2372 55.2195C58.0419 55.2197 57.8646 55.1849 57.7054 55.1152C57.5476 55.0405 57.3983 54.9362 57.2575 54.8022C57.115 54.665 56.9793 54.499 56.8506 54.3043C56.7219 54.1096 56.5887 53.8882 56.4512 53.6401L53.9073 49.0507L54.8089 48.5509L57.3529 53.1403C57.5063 53.417 57.6385 53.6368 57.7496 53.7997C57.8639 53.9609 57.984 54.0689 58.1101 54.1238C58.2375 54.1737 58.3857 54.1747 58.5546 54.1268C58.7249 54.074 58.9604 53.9664 59.2611 53.8038L59.7609 54.7055ZM64.946 49.3367C64.934 49.36 64.8821 49.4615 64.7905 49.6412C64.6988 49.8209 64.5702 50.0502 64.4047 50.329C64.2405 50.603 64.0412 50.9109 63.8067 51.253C63.5722 51.595 63.3052 51.9384 63.0057 52.2832C62.7094 52.6262 62.3833 52.9566 62.0273 53.2745C61.6696 53.5892 61.2872 53.8594 60.8801 54.0851L59.5729 54.8097L59.0731 53.908L60.3803 53.1834C60.7365 52.986 61.073 52.7454 61.3897 52.4618C61.7079 52.1731 62.0011 51.8734 62.2695 51.5625C62.5361 51.2484 62.7767 50.9362 62.9914 50.626C63.2043 50.3125 63.386 50.0289 63.5363 49.7751C63.1591 49.8221 62.7836 49.8722 62.4098 49.9256C62.0393 49.9771 61.7021 50.0289 61.3983 50.0809C61.0928 50.1297 60.8319 50.1766 60.6157 50.2216C60.4027 50.2648 60.2633 50.2984 60.1976 50.3224C60.1435 50.3524 60.0889 50.3889 60.0338 50.4319C59.9818 50.4732 59.9404 50.5335 59.9096 50.613C59.8788 50.6924 59.8646 50.798 59.8669 50.9297C59.8675 51.0583 59.8942 51.2264 59.947 51.4342L58.947 51.6891C58.6701 50.612 58.9244 49.8557 59.71 49.4202C59.7291 49.4096 59.7554 49.3971 59.789 49.3827C59.8208 49.365 59.8713 49.3474 59.9405 49.3298C60.008 49.3091 60.1014 49.2864 60.2208 49.2618C60.3385 49.234 60.4902 49.2039 60.676 49.1716C60.865 49.1375 61.0962 49.1008 61.3696 49.0615C61.6413 49.0191 61.9689 48.9726 62.3525 48.9221L64.3878 48.6109L64.946 49.3367ZM66.9064 54.2059L66.4066 53.3042L67.065 52.9393C67.3926 52.7577 67.6536 52.5611 67.848 52.3493C68.0475 52.139 68.1801 51.9096 68.246 51.661C68.3152 51.4106 68.3167 51.1395 68.2505 50.8477C68.1876 50.5542 68.06 50.2341 67.8679 49.8874L66.2178 46.9105L67.1194 46.4107L68.7695 49.3876C69.0216 49.8424 69.186 50.2814 69.2626 50.7046C69.3441 51.1292 69.336 51.5308 69.2381 51.9093C69.1403 52.2879 68.951 52.6402 68.6702 52.9663C68.3944 53.2938 68.0259 53.5853 67.5648 53.8409L66.9064 54.2059ZM72.0047 48.0122C71.8425 48.1021 71.6743 48.1849 71.5001 48.2607C71.3277 48.3396 71.154 48.4089 70.9791 48.4684C70.8056 48.523 70.6325 48.567 70.4598 48.6003C70.2885 48.6288 70.1246 48.6406 69.9681 48.6359L69.4479 48.6312L69.46 47.5954L69.9802 47.6002C70.1268 47.6021 70.2926 47.5787 70.4778 47.5302C70.6611 47.4784 70.8478 47.4103 71.0379 47.3257C71.2026 47.2552 71.3629 47.1768 71.5187 47.0904C71.5473 47.0745 71.6141 47.0375 71.7191 46.9793C71.8223 46.918 71.9456 46.833 72.0891 46.7243C72.2577 46.5934 72.3867 46.4699 72.4762 46.3538C72.5671 46.2328 72.6099 46.13 72.6047 46.0456C72.5998 46.0068 72.5868 45.9682 72.5656 45.9301C72.5356 45.876 72.4783 45.8101 72.3936 45.7323C72.3072 45.6513 72.1707 45.5627 71.9843 45.4665L68.8109 43.8142L69.2992 42.895C69.3758 42.9357 69.4557 42.9786 69.539 43.0239C69.6206 43.066 69.7171 43.1165 69.8287 43.1752C69.9385 43.2308 70.0675 43.2985 70.2158 43.3785C70.3623 43.4553 70.5404 43.5478 70.7501 43.6561C70.9598 43.7643 71.2044 43.8907 71.484 44.035C71.7636 44.1794 72.0898 44.3478 72.4626 44.5403C72.6091 44.6171 72.7511 44.7047 72.8888 44.803C73.0247 44.8981 73.1456 45.0037 73.2514 45.1196C73.347 45.2246 73.4283 45.3375 73.4953 45.4584C73.5024 45.4711 73.5255 45.5165 73.5646 45.5946C73.602 45.6695 73.6266 45.7889 73.6384 45.9528C73.6866 46.5123 73.3788 47.0447 72.7151 47.5498C72.6126 47.6274 72.5019 47.7054 72.3832 47.7837C72.2644 47.8619 72.1383 47.9381 72.0047 48.0122Z" fill="white"/>
<defs>
<linearGradient id="paint0_linear" x1="48" y1="0" x2="48" y2="114" gradientUnits="userSpaceOnUse">
<stop stop-color="#8E8E8E"/>
<stop offset="1" stop-color="#242424"/>
</linearGradient>
</defs>
</svg>
