<svg width="186" height="120" viewBox="0 0 186 120" fill="none" xmlns="http://www.w3.org/2000/svg">
<path opacity="0.5" d="M2.63702 42.8718C1.75906 35.3135 6.32927 28.1561 13.6023 25.9194C64.7557 10.1879 100.936 5.95003 161.415 8.95751C169.148 9.34204 175.42 15.307 176.313 22.9976L183.313 83.2601C184.333 92.0377 178.044 99.9798 169.266 100.999L27.4106 117.477C18.6331 118.497 10.6909 112.208 9.67133 103.43L2.63702 42.8718Z" fill="#212121"/>
<path d="M11.631 35.4744C11.631 27.8681 16.9958 21.2841 24.4772 19.9108C72.4218 11.1103 105.965 11.0853 160.345 20.1141C167.98 21.3818 173.528 28.0329 173.528 35.7726V89.9969C173.528 98.8335 166.365 105.997 157.528 105.997H27.631C18.7944 105.997 11.631 98.8335 11.631 89.9969V35.4744Z" fill="#212121"/>
<path d="M73.323 94.271C72.7347 94.271 72.2289 94.0594 71.8058 93.6363C71.3827 93.2132 71.171 92.7074 71.171 92.1191V85.276C71.171 84.6877 71.3827 84.1819 71.8058 83.7588C72.2289 83.3357 72.7347 83.124 73.323 83.124H80.1506C80.7493 83.124 81.2602 83.3357 81.6833 83.7588C82.1064 84.1819 82.318 84.6877 82.318 85.276V86.143H80.2589V85.725C80.2589 85.4359 80.2384 85.276 80.197 85.2451C80.1556 85.2037 79.9957 85.1831 79.7171 85.1831H73.7565C73.4674 85.1831 73.3024 85.2037 73.2611 85.2451C73.2301 85.276 73.2146 85.4359 73.2146 85.725V91.6701C73.2146 91.9591 73.2301 92.1241 73.2611 92.1655C73.3024 92.1965 73.4674 92.2119 73.7565 92.2119H79.7171C79.9957 92.2119 80.1556 92.1965 80.197 92.1655C80.2384 92.1241 80.2589 91.9591 80.2589 91.6701V90.0135H77.7354V87.9544H82.318V92.1191C82.318 92.7074 82.1064 93.2132 81.6833 93.6363C81.2602 94.0594 80.7493 94.271 80.1506 94.271H73.323ZM84.0531 94.271V85.276C84.0531 84.6877 84.2648 84.1819 84.6879 83.7588C85.1112 83.3357 85.6168 83.124 86.2051 83.124H93.0327C93.6314 83.124 94.1423 83.3357 94.5654 83.7588C94.9887 84.1819 95.2001 84.6877 95.2001 85.276V94.271H93.141V90.5244H86.0967V94.271H84.0531ZM86.0967 88.4808H93.141V85.725C93.141 85.4359 93.1205 85.276 93.0791 85.2451C93.038 85.2037 92.8778 85.1831 92.5992 85.1831H86.6386C86.3498 85.1831 86.1845 85.2037 86.1432 85.2451C86.1122 85.276 86.0967 85.4359 86.0967 85.725V88.4808ZM96.9642 94.271V83.124H99.2091L103.25 87.9389L107.275 83.124H109.536V94.271H107.476V86.0966L103.25 91.1282L99.0078 86.112V94.271H96.9642ZM111.358 94.271V83.124H121.623V85.1831H113.417V87.6602H120.013V89.7348H113.417V92.2119H121.623V94.271H111.358Z" fill="#00AA0A"/>
<path opacity="0.7" d="M87.2155 64.6808C85.5253 64.6817 83.8862 65.2601 82.57 66.3202C82.57 66.3202 76.646 70.4284 73.0922 70.1367C70.5844 69.9301 69.1582 67.2842 70.1122 63.5268C70.6467 61.3695 72.8169 55.0482 72.8169 55.0482C73.2203 53.784 74.0149 52.6808 75.0863 51.8983C76.1576 51.1155 77.4502 50.6938 78.777 50.694H89.5725C87.6512 47.4578 84.6931 44.9657 81.178 43.6216C77.6627 42.2778 73.7966 42.161 70.2066 43.2901C66.6168 44.4191 63.5135 46.7282 61.4002 49.8425C59.2869 52.9566 58.2877 56.6937 58.5644 60.4472C58.8411 64.2007 60.3775 67.7505 62.9248 70.5211C65.4718 73.2917 68.8802 75.1205 72.5968 75.7108C76.3136 76.3014 80.1208 75.6186 83.4008 73.7736C86.681 71.9286 89.2417 69.0295 90.6676 65.5465C89.6042 64.9823 88.4194 64.6853 87.2155 64.6808Z" fill="white"/>
<path d="M80.8522 58.6121H78.7345V56.4941H76.7805V58.6121H74.6594V60.5694H76.7805V62.6876H78.7345V60.5694H80.8522V58.6121Z" fill="#00AA0A"/>
<path d="M96.6768 58.3925C97.2001 58.3925 97.6243 57.9683 97.6243 57.4451C97.6243 56.9218 97.2001 56.4976 96.6768 56.4976C96.1537 56.4976 95.7295 56.9218 95.7295 57.4451C95.7295 57.9683 96.1537 58.3925 96.6768 58.3925Z" fill="white"/>
<path d="M96.6768 62.6877C97.2001 62.6877 97.6243 62.2635 97.6243 61.7402C97.6243 61.2169 97.2001 60.7925 96.6768 60.7925C96.1537 60.7925 95.7295 61.2169 95.7295 61.7402C95.7295 62.2635 96.1537 62.6877 96.6768 62.6877Z" fill="white"/>
<path opacity="0.7" d="M94.5296 60.5401C95.0529 60.5401 95.4769 60.1159 95.4769 59.5926C95.4769 59.0693 95.0529 58.6451 94.5296 58.6451C94.0064 58.6451 93.5822 59.0693 93.5822 59.5926C93.5822 60.1159 94.0064 60.5401 94.5296 60.5401Z" fill="white"/>
<path opacity="0.7" d="M98.8241 60.5401C99.3474 60.5401 99.7716 60.1159 99.7716 59.5926C99.7716 59.0693 99.3474 58.6451 98.8241 58.6451C98.301 58.6451 97.8768 59.0693 97.8768 59.5926C97.8768 60.1159 98.301 60.5401 98.8241 60.5401Z" fill="white"/>
<path opacity="0.7" d="M52.0925 44.2628H39.6272V74.041H52.0925V44.2628Z" fill="#00AA0A"/>
<path opacity="0.7" d="M52.0059 74.2142L23.353 44.0032V74.2142H52.0059Z" fill="white"/>
<path opacity="0.7" d="M119.801 44.2903H112.369V74.1484H119.801V44.2903Z" fill="#00AA0A"/>
<path opacity="0.7" d="M102.647 44.2903V51.852L112.369 65.2903H119.801L129.48 51.852V44.2903H102.647Z" fill="white"/>
<path opacity="0.7" d="M128.374 74.1483L141.98 44.0691L155.585 74.1483H128.374Z" fill="#00AA0A"/>
<path opacity="0.7" d="M134.59 74.1483L148.152 44.0691L161.757 74.1483H134.59Z" fill="white"/>
</svg>
