<svg width="140" height="53" viewBox="0 0 140 53" fill="none" xmlns="http://www.w3.org/2000/svg">
<path d="M50.6874 52.4599C50.0932 52.4599 49.5824 52.2461 49.1551 51.8188C48.7278 51.3915 48.514 50.8807 48.514 50.2865V43.3755C48.514 42.7814 48.7278 42.2705 49.1551 41.8432C49.5824 41.4159 50.0932 41.2021 50.6874 41.2021H57.5828C58.1874 41.2021 58.7034 41.4159 59.1307 41.8432C59.558 42.2705 59.7718 42.7814 59.7718 43.3755V44.2511H57.6922V43.829C57.6922 43.537 57.6715 43.3755 57.6297 43.3443C57.5879 43.3025 57.4264 43.2817 57.145 43.2817H51.1252C50.8333 43.2817 50.6666 43.3025 50.6249 43.3443C50.5936 43.3755 50.578 43.537 50.578 43.829V49.8331C50.578 50.125 50.5936 50.2917 50.6249 50.3334C50.6666 50.3647 50.8333 50.3803 51.1252 50.3803H57.145C57.4264 50.3803 57.5879 50.3647 57.6297 50.3334C57.6715 50.2917 57.6922 50.125 57.6922 49.8331V48.1601H55.1436V46.0805H59.7718V50.2865C59.7718 50.8807 59.558 51.3915 59.1307 51.8188C58.7034 52.2461 58.1874 52.4599 57.5828 52.4599H50.6874ZM61.5241 52.4599V43.3755C61.5241 42.7814 61.7379 42.2705 62.1652 41.8432C62.5927 41.4159 63.1033 41.2021 63.6975 41.2021H70.5928C71.1975 41.2021 71.7135 41.4159 72.1408 41.8432C72.5683 42.2705 72.7819 42.7814 72.7819 43.3755V52.4599H70.7023V48.676H63.588V52.4599H61.5241ZM63.588 46.6121H70.7023V43.829C70.7023 43.537 70.6815 43.3755 70.6397 43.3443C70.5982 43.3025 70.4365 43.2817 70.155 43.2817H64.1353C63.8436 43.2817 63.6767 43.3025 63.6349 43.3443C63.6037 43.3755 63.588 43.537 63.588 43.829V46.6121ZM74.5634 52.4599V41.2021H76.8306L80.9116 46.0649L84.9769 41.2021H87.2597V52.4599H85.1801V44.2042L80.9116 49.2858L76.6274 44.2199V52.4599H74.5634ZM89.1004 52.4599V41.2021H99.467V43.2817H91.18V45.7834H97.8408V47.8786H91.18V50.3803H99.467V52.4599H89.1004Z" fill="white"/>
<path opacity="0.7" d="M64.718 22.5757C63.011 22.5765 61.3556 23.1606 60.0264 24.2313C60.0264 24.2313 54.0435 28.3803 50.4544 28.0857C47.9216 27.8771 46.4813 25.2049 47.4447 21.4101C47.9846 19.2314 50.1763 12.8473 50.1763 12.8473C50.5837 11.5705 51.3863 10.4564 52.4683 9.66609C53.5503 8.8756 54.8556 8.44964 56.1956 8.44986H67.0984C65.158 5.18154 62.1705 2.66462 58.6205 1.30722C55.0703 -0.0499664 51.1658 -0.167903 47.5401 0.972391C43.9146 2.11268 40.7805 4.44465 38.6463 7.58989C36.512 10.7349 35.5028 14.5092 35.7822 18.2999C36.0617 22.0907 37.6134 25.6758 40.1859 28.4739C42.7582 31.272 46.2006 33.1191 49.954 33.7152C53.7077 34.3116 57.5528 33.6221 60.8653 31.7588C64.1781 29.8954 66.7643 26.9675 68.2043 23.4499C67.1304 22.8801 65.9338 22.5801 64.718 22.5757Z" fill="white"/>
<path d="M58.2915 16.4468H56.1528V14.3078H54.1793V16.4468H52.0372V18.4236H54.1793V20.5628H56.1528V18.4236H58.2915V16.4468Z" fill="white"/>
<path d="M74.2732 16.225C74.8017 16.225 75.2301 15.7966 75.2301 15.2681C75.2301 14.7396 74.8017 14.3112 74.2732 14.3112C73.745 14.3112 73.3165 14.7396 73.3165 15.2681C73.3165 15.7966 73.745 16.225 74.2732 16.225Z" fill="white"/>
<path d="M74.2732 20.5627C74.8017 20.5627 75.2301 20.1343 75.2301 19.6058C75.2301 19.0773 74.8017 18.6487 74.2732 18.6487C73.745 18.6487 73.3165 19.0773 73.3165 19.6058C73.3165 20.1343 73.745 20.5627 74.2732 20.5627Z" fill="white"/>
<path opacity="0.7" d="M72.1049 18.3939C72.6333 18.3939 73.0615 17.9654 73.0615 17.4369C73.0615 16.9085 72.6333 16.48 72.1049 16.48C71.5764 16.48 71.1479 16.9085 71.1479 17.4369C71.1479 17.9654 71.5764 18.3939 72.1049 18.3939Z" fill="white"/>
<path opacity="0.7" d="M76.4419 18.3939C76.9704 18.3939 77.3988 17.9654 77.3988 17.4369C77.3988 16.9085 76.9704 16.48 76.4419 16.48C75.9137 16.48 75.4852 16.9085 75.4852 17.4369C75.4852 17.9654 75.9137 18.3939 76.4419 18.3939Z" fill="white"/>
<path opacity="0.7" d="M29.246 1.95502H16.6569V32.029H29.246V1.95502Z" fill="white"/>
<path opacity="0.7" d="M29.1585 32.2039L0.221069 1.69275V32.2039H29.1585Z" fill="white"/>
<path opacity="0.7" d="M97.6274 1.98248H90.1215V32.1372H97.6274V1.98248Z" fill="white"/>
<path opacity="0.7" d="M80.3026 1.98242V9.61928L90.1214 23.1911H97.6274L107.403 9.61928V1.98242H80.3026Z" fill="white"/>
<path opacity="0.7" d="M106.286 32.1374L120.026 1.75934L133.766 32.1374H106.286Z" fill="white"/>
<path opacity="0.7" d="M112.563 32.1373L126.26 1.75922L140 32.1373H112.563Z" fill="white"/>
</svg>
