<svg width="90" height="114" viewBox="0 0 90 114" fill="none" xmlns="http://www.w3.org/2000/svg">
<rect width="90" height="114" rx="4" fill="white"/>
<path d="M40.6088 17.9039C40.7124 17.8877 40.8169 17.8758 40.9231 17.8699C41.1134 18.5283 41.1635 19.2386 41.5136 19.8418C42.2816 21.1876 43.4252 22.2692 44.2119 23.603C44.6852 24.4178 44.7863 25.4467 44.4473 26.3303C43.9001 27.7763 43.0063 29.0499 42.1992 30.3583C41.7829 31.0354 41.2689 31.6446 40.8432 32.3158C40.5331 32.8451 40.1211 33.3243 39.5867 33.6352C39.4779 32.9683 39.7209 32.2623 39.4371 31.6217C38.6903 30.0414 37.0914 29.0482 36.4125 27.4263C36.1746 26.6693 36.2528 25.8197 36.596 25.106C37.5824 23.0788 38.743 21.1426 39.8713 19.1927C40.1236 18.7671 40.2647 18.2692 40.6088 17.9039Z" fill="#737373"/>
<path d="M46.2731 31.755C47.6053 31.586 49.0224 31.5775 50.2705 32.1357C52.4166 33.0558 54.0428 35.0965 54.4429 37.399C54.7666 38.6199 54.8473 39.8926 54.7802 41.1509C54.7607 42.455 54.4463 43.7405 53.9969 44.9597C53.341 46.698 52.335 48.3054 51.0513 49.6495C50.2374 50.4532 49.4625 51.3045 48.5432 51.9919C47.3827 52.8806 46.0335 53.5781 44.5713 53.7727C43.8415 53.8678 43.1185 54.0777 42.3768 54.036C40.3853 53.8823 38.4286 53.4082 36.551 52.737C35.1457 52.2196 33.7192 51.7676 32.3013 51.2884C31.2783 51.0352 30.2639 50.6733 29.1993 50.6622C28.7184 50.6546 28.4253 51.1108 28.2775 51.511C27.84 52.7625 27.5086 54.0471 27.1739 55.3283C27.0022 56.025 26.7839 56.7106 26.6751 57.4217C26.5477 58.2221 26.4661 59.0292 26.3761 59.8338C26.2333 61.759 26.5248 63.7114 27.201 65.5177C27.653 66.6995 28.4483 67.7836 29.5604 68.4182C31.0923 69.3766 33.0141 69.3366 34.7226 68.9628C36.4278 68.5278 38.1007 67.9492 39.6793 67.1684C41.0888 66.4786 42.4031 65.6145 43.6962 64.7292C46.3674 62.8915 49.0564 61.081 51.759 59.2892C53.2722 58.3104 54.8541 57.437 56.4956 56.6919C57.2475 56.3478 58.0521 56.1448 58.8507 55.9392C59.4293 55.8117 60.0767 55.8372 60.589 56.1635C60.8923 56.3623 61.1472 56.6239 61.4352 56.8431C61.877 57.2051 62.4377 57.3954 62.8456 57.8032C63.2364 58.2 63.6586 58.6919 63.5686 59.2926C62.7835 59.3605 62.0078 59.0572 61.2254 59.2178C60.0979 59.3571 59.1005 59.9323 58.1039 60.4361C57.2407 60.8694 56.459 61.4429 55.663 61.9841C54.488 62.7845 53.3121 63.5873 52.2127 64.4905C49.4634 66.606 46.8712 68.9246 44.0259 70.9152C42.7166 71.8311 41.3742 72.7019 39.9894 73.5014C38.3437 74.3731 36.6606 75.2321 34.8348 75.6569C33.1135 76.0859 31.2979 76.413 29.5366 76.0273C28.3778 75.7869 27.1467 75.5184 26.2427 74.7011C25.1187 73.6569 24.529 72.1905 24.0847 70.7555C23.84 69.7105 23.5868 68.6544 23.5868 67.5746C23.597 66.9756 23.4228 66.3809 23.5086 65.7827C23.659 64.8855 23.5231 63.9671 23.693 63.0725C23.9003 62.036 23.9912 60.9807 24.2079 59.9459C24.4823 58.8287 24.71 57.6987 25.0362 56.5934C25.4075 55.2867 25.8383 53.9978 26.2724 52.7115C26.4865 52.0717 26.9368 51.4906 26.8952 50.7854C26.3242 50.6571 25.7431 50.8135 25.2079 51.0097C24.6904 51.2077 24.1577 51.3742 23.6735 51.6503C23.0881 51.9638 22.5622 52.3725 22.0176 52.7497C21.8536 52.8687 21.5622 52.9417 21.4407 52.7285C21.3455 52.5288 21.3999 52.2952 21.4789 52.1006C22.1297 50.4439 23.4211 49.0828 24.9615 48.2137C25.5239 47.952 25.9776 47.5195 26.3744 47.0514C27.0056 46.3131 27.7558 45.6674 28.6267 45.2281C29.0523 44.9953 29.5468 44.901 29.9385 44.602C30.3047 44.3479 30.5748 43.9835 30.7923 43.5994C32.7932 40.3259 35.3675 37.3658 38.5144 35.1501C39.0973 34.6573 39.7872 34.3242 40.4583 33.9717C42.2561 32.9249 44.1992 32.0532 46.2731 31.755ZM40.3776 36.6173C39.0633 37.1263 37.9027 37.9402 36.7855 38.7838C35.7931 39.5689 34.9248 40.4933 34.0421 41.3955C33.4287 42.0404 32.9673 42.8093 32.3743 43.4711C32.1543 43.7031 32.2435 44.0412 32.2528 44.3267C33.359 44.3513 34.4661 44.4286 35.5621 44.5833C38.7948 45.1958 41.8152 46.5688 45.0012 47.3598C45.8602 47.6291 46.7616 47.6912 47.6477 47.8186C48.2748 47.9087 48.906 47.7889 49.5228 47.6793C50.1541 47.5654 50.5135 46.986 50.9536 46.5807C51.7488 45.8135 52.0989 44.6937 52.1617 43.6147C52.126 42.6283 52.2433 41.6317 52.0836 40.6521C51.8287 39.602 51.2373 38.6462 50.4931 37.8722C49.9434 37.3641 49.3708 36.8595 48.6877 36.54C47.7913 36.1484 46.8415 35.8697 45.8678 35.7711C44.0046 35.6004 42.1108 35.9232 40.3776 36.6173Z" fill="#737373"/>
<path d="M61.7641 61.2272C62.5984 60.822 63.5559 60.7532 64.4667 60.8585C64.8898 60.9248 65.1999 61.2468 65.4955 61.5297C65.9866 62.0055 66.6102 62.3368 67.0376 62.8797C67.329 63.2621 67.6544 63.6818 67.606 64.1941C67.4955 64.2408 67.3902 64.3207 67.2644 64.3045C66.8677 64.2943 66.4734 64.2289 66.0758 64.2434C65.301 64.2663 64.5406 64.488 63.849 64.8321C62.3358 65.5577 60.9909 66.5815 59.7106 67.6554C58.5865 68.6248 57.4667 69.6027 56.4311 70.6673C55.1176 71.9884 53.7939 73.2993 52.4099 74.5483C51.3589 75.5924 50.2714 76.6001 49.1525 77.572C48.0454 78.5346 46.8296 79.3647 45.5595 80.0962C44.6962 80.5873 43.7719 80.99 42.7948 81.1888C41.37 81.4284 39.8866 81.5431 38.4737 81.1676C38.0166 81.0537 37.5731 80.8923 37.1458 80.696C36.4363 80.3672 35.6258 80.3783 34.9087 80.0707C33.9054 79.6553 32.9394 79.03 32.3523 78.0937C32.1968 77.8668 32.2274 77.5822 32.2325 77.3231C32.7754 77.3095 33.2588 77.5737 33.7762 77.6893C35.5239 77.9195 37.2834 77.5329 38.9316 76.968C39.5383 76.7496 40.1593 76.5652 40.7439 76.29C41.7065 75.849 42.6037 75.284 43.5178 74.7539C45.0318 73.8762 46.4006 72.7743 47.7294 71.6426C50.1745 69.5228 52.6409 67.426 55.1932 65.4354C57.2195 63.8016 59.3393 62.2221 61.7641 61.2272Z" fill="#737373"/>
<path opacity="0.89" d="M59.9891 84.2237C60.1251 84.0861 60.261 83.9493 60.3987 83.8142C60.5346 83.9501 60.6705 84.0869 60.8065 84.2237C60.6705 84.3597 60.5346 84.4964 60.3987 84.6332C60.261 84.4964 60.1251 84.3605 59.9891 84.2237Z" fill="#737373"/>
<path opacity="0.89" d="M78.7468 84.4132C78.8811 84.2764 79.017 84.1405 79.1529 84.0054C79.2897 84.1405 79.4257 84.2772 79.5624 84.414C79.4257 84.5508 79.2897 84.6868 79.1538 84.8235C79.017 84.6868 78.8811 84.55 78.7468 84.4132Z" fill="#737373"/>
<path opacity="0.89" d="M6.36519 89.0997C5.28109 87.657 5.27429 85.4999 6.39662 84.0776C6.54191 84.2034 6.68634 84.33 6.83077 84.4566C6.39323 85.143 6.08822 85.9451 6.14004 86.7709C6.16298 87.4693 6.40597 88.1507 6.81123 88.7174C6.6634 88.8448 6.51472 88.9731 6.36519 89.0997Z" fill="#737373"/>
<path opacity="0.89" d="M49.8678 84.4608C50.0131 84.3308 50.1592 84.2017 50.307 84.0742C51.4226 85.5016 51.4243 87.6553 50.3376 89.0988C50.1881 88.9739 50.0386 88.8482 49.8899 88.7233C50.42 87.9663 50.6749 87.0054 50.5237 86.0878C50.4336 85.5033 50.1889 84.9536 49.8678 84.4608Z" fill="#737373"/>
<path opacity="0.89" d="M9.64139 84.2841C9.83425 84.2832 10.0263 84.2832 10.2191 84.2841C10.22 85.595 10.2183 86.9068 10.2208 88.2186C10.2208 88.5899 10.1478 88.9935 9.87248 89.2645C9.5131 89.6375 8.95745 89.6901 8.46808 89.6638C7.90564 89.6545 7.37293 89.25 7.2217 88.7071C7.03904 88.0793 7.23955 87.4293 7.49698 86.855C7.68219 86.9332 7.86571 87.0147 8.04837 87.0997C7.8725 87.5168 7.66605 87.9646 7.7663 88.4285C7.82068 88.7683 8.13164 89.0436 8.47403 89.0623C8.80453 89.0784 9.1843 89.0852 9.44513 88.8456C9.6193 88.6545 9.63034 88.3775 9.64139 88.1328C9.64224 86.8499 9.63969 85.567 9.64139 84.2841Z" fill="#737373"/>
<path opacity="0.89" d="M10.9403 84.2653C11.1383 84.2644 11.3371 84.2644 11.535 84.2653C11.5367 85.188 11.5308 86.1106 11.5384 87.0333C11.5461 87.2228 11.5546 87.5108 11.7984 87.5448C12.2173 87.6111 12.6446 87.5728 13.0669 87.5779C13.2563 87.5907 13.422 87.4972 13.5749 87.3978C13.5724 87.0325 13.5741 86.668 13.5741 86.3043C13.7721 86.3035 13.9709 86.3035 14.1688 86.3043C14.1756 86.6238 14.1535 86.9458 14.1833 87.2653C14.2028 87.4632 14.4033 87.5771 14.5877 87.5745C15.0431 87.5864 15.4993 87.5788 15.9547 87.5779C16.1433 87.5924 16.309 87.4972 16.4628 87.4012C16.4619 87.035 16.4628 86.6697 16.4628 86.3043C16.6607 86.3035 16.8595 86.3035 17.0575 86.3043C17.0821 86.6612 17.0031 87.0367 17.1102 87.3825C17.3217 87.6926 17.761 87.5439 18.0779 87.5805C19.0337 87.6408 19.992 87.4088 20.8289 86.9492C20.3412 86.7767 19.8604 86.5762 19.3591 86.4454C19.1212 86.3647 18.9853 86.6085 18.868 86.7657C18.6887 86.713 18.5103 86.6603 18.3319 86.6068C18.4568 86.3281 18.5919 86.0095 18.8969 85.8889C19.2172 85.7258 19.5706 85.8889 19.8824 85.9934C20.4313 86.2015 20.981 86.4089 21.5315 86.6136C21.5417 86.7733 21.5987 86.9382 21.5672 87.0979C21.4415 87.2211 21.2936 87.3179 21.1611 87.4343C21.6182 87.696 22.1628 87.5354 22.6615 87.5805C22.9623 87.5652 23.4457 87.679 23.5417 87.2797C23.5825 86.8753 23.4415 86.4794 23.3718 86.0851C23.5587 86.0282 23.7456 85.9713 23.9334 85.9152C24.0243 86.3638 24.1492 86.8175 24.1237 87.2797C24.094 87.764 23.6607 88.1735 23.1738 88.1709C22.6088 88.1786 22.0439 88.1854 21.4797 88.1667C21.1271 88.1582 20.8366 87.9288 20.6394 87.6544C19.947 87.9806 19.1917 88.2109 18.4186 88.1769C17.8655 88.1463 17.2487 88.2933 16.7652 87.9458C16.241 88.2814 15.6013 88.1506 15.0159 88.1769C14.6242 88.1922 14.2079 88.1879 13.8774 87.9458C13.5342 88.1607 13.1264 88.1956 12.7304 88.1777C12.2598 88.1582 11.7474 88.2423 11.315 88.0104C10.9777 87.815 10.9497 87.3817 10.9403 87.0342C10.9386 86.1115 10.942 85.188 10.9403 84.2653Z" fill="#737373"/>
<path opacity="0.89" d="M31.8407 84.2653C32.0386 84.2644 32.2366 84.2644 32.4354 84.2653C32.4371 85.1888 32.4311 86.1123 32.4388 87.0359C32.4481 87.2202 32.4515 87.498 32.6843 87.5405C33.0505 87.6153 33.4286 87.5703 33.799 87.5703C33.6011 87.2899 33.4345 86.9628 33.4966 86.6085C33.556 86.007 34.2621 85.6603 34.8092 85.8116C35.2986 85.9246 35.6648 86.436 35.6002 86.9365C35.5789 87.2321 35.3852 87.4692 35.2204 87.7011C35.5382 87.7444 35.9434 87.8251 36.1788 87.5405C36.336 87.3791 36.2501 87.1361 36.1516 86.9696C35.8508 86.4607 35.443 86.0282 35.0836 85.5618C35.24 85.4437 35.3971 85.3264 35.5543 85.2092C35.8933 85.6569 36.2331 86.1047 36.5764 86.549C36.8134 86.8438 36.8746 87.2568 36.7667 87.6161C36.6291 88.0843 36.1278 88.3392 35.6631 88.3298C35.2688 88.3655 34.9188 88.1684 34.556 88.0545C33.8389 88.1446 33.0955 88.2746 32.3836 88.0885C31.9953 87.984 31.8475 87.5609 31.8483 87.1981C31.8279 86.2211 31.8466 85.2423 31.8407 84.2653ZM34.3181 86.363C34.166 86.4377 34.0318 86.5924 34.0488 86.7725C34.048 87.0758 34.3207 87.295 34.5688 87.4207C34.8542 87.3298 35.0998 87.007 35.0377 86.6952C34.9604 86.4029 34.5926 86.2066 34.3181 86.363Z" fill="#737373"/>
<path opacity="0.89" d="M42.3758 84.2653C42.5738 84.2644 42.7718 84.2644 42.9706 84.2653C42.9723 85.1871 42.9663 86.1089 42.974 87.0308C42.9893 87.199 42.974 87.436 43.1583 87.5218C43.4803 87.611 43.8227 87.5873 44.1541 87.5686C44.3155 87.5669 44.4676 87.4386 44.4939 87.2797C44.5389 86.9551 44.5118 86.6263 44.516 86.3009C44.7174 86.3026 44.9196 86.3043 45.1218 86.3086C45.1235 86.6289 45.0997 86.9509 45.132 87.2712C45.1923 87.6824 45.9017 87.6824 45.979 87.278C46.03 86.9577 45.9986 86.6314 46.002 86.3086C46.2033 86.3052 46.4055 86.3026 46.6077 86.3009C46.6162 86.6544 46.5763 87.0129 46.6358 87.3638C46.8049 87.6824 47.386 87.6527 47.4684 87.2797C47.5228 86.8795 47.3843 86.4845 47.3053 86.097C47.493 86.035 47.6817 85.9747 47.872 85.9178C47.9858 86.5142 48.2628 87.2151 47.8822 87.7682C47.533 88.289 46.7658 88.272 46.2993 87.9237C45.8618 88.2525 45.2501 88.2431 44.8108 87.9245C44.5925 88.069 44.3461 88.1828 44.0785 88.176C43.6367 88.1709 43.1558 88.227 42.7522 88.0112C42.4115 87.8141 42.3843 87.3765 42.3758 87.0265C42.3741 86.1064 42.3767 85.1854 42.3758 84.2653Z" fill="#737373"/>
<path opacity="0.89" d="M66.8599 84.2653C67.0604 84.2644 67.2617 84.2644 67.464 84.2653C67.4733 85.2381 67.4461 86.2134 67.475 87.1854C67.5115 87.5805 67.972 87.6204 68.2804 87.5779C68.4648 87.5788 68.5226 87.374 68.5786 87.2355C68.7188 86.815 68.7995 86.3264 69.1793 86.0435C69.6024 85.747 70.2668 85.8413 70.5727 86.267C70.8598 86.6586 70.8709 87.1854 70.7655 87.6425C70.6891 87.9679 70.4274 88.2635 70.0825 88.2975C69.6517 88.3587 69.266 88.1234 68.8939 87.9475C68.3977 88.3086 67.6381 88.2695 67.17 87.8753C66.6602 88.2483 66.006 88.1803 65.4113 88.1684C65.6144 88.4759 65.6161 88.9033 65.334 89.165C64.7749 89.7291 63.9228 89.6722 63.193 89.6637C62.5337 89.6892 61.8812 89.2567 61.6722 88.6272C61.4164 87.8829 61.6407 87.0758 61.9712 86.3927C62.1454 86.4794 62.3196 86.566 62.4946 86.6518C62.2508 87.2117 62.0205 87.8634 62.2593 88.4649C62.3969 88.8421 62.7903 89.0758 63.1845 89.063C63.6654 89.0554 64.1802 89.1267 64.6263 88.9016C64.7979 88.8294 64.8871 88.6603 64.9806 88.5116C64.6135 88.2644 64.1717 88.199 63.741 88.165C63.7418 87.9687 63.7418 87.7725 63.7427 87.5779C64.5506 87.5771 65.3595 87.5805 66.1683 87.5788C66.4002 87.5669 66.6772 87.5499 66.8259 87.3443C66.8709 87.1854 66.8599 87.0172 66.8641 86.8557C66.8573 85.9917 66.8641 85.1285 66.8599 84.2653ZM69.1283 87.4097C69.4317 87.5371 69.7375 87.7504 70.0833 87.6969C70.4792 87.3392 70.2762 86.3817 69.6517 86.4785C69.2719 86.6077 69.2277 87.0758 69.1283 87.4097Z" fill="#737373"/>
<path opacity="0.89" d="M75.4256 84.2653C75.6236 84.2644 75.8215 84.2644 76.0204 84.2653C76.0221 85.1871 76.0161 86.1089 76.0237 87.0308C76.0382 87.1981 76.0246 87.4301 76.2022 87.5193C76.4978 87.6068 76.8181 87.5983 77.1214 87.5524C77.2676 87.5371 77.4052 87.4258 77.4103 87.2721C77.4375 86.9501 77.4171 86.6263 77.4197 86.3035H78.0195C78.0263 86.6314 77.9855 86.9645 78.0475 87.289C78.1189 87.6586 78.7544 87.6892 78.8546 87.3213C78.9158 86.9874 78.8742 86.6442 78.8818 86.3077C79.0832 86.3044 79.2854 86.3027 79.4876 86.301C79.4978 86.6544 79.4511 87.0155 79.5216 87.3647C79.6796 87.6799 80.2769 87.6552 80.3449 87.2805C80.395 86.9568 80.3644 86.6272 80.3695 86.301C80.5709 86.3027 80.7731 86.3043 80.9753 86.3086C80.9923 86.6629 80.9183 87.0342 81.0195 87.3791C81.2072 87.6544 81.5972 87.5584 81.8818 87.5822C82.1775 87.5541 82.6218 87.6858 82.7654 87.3315C82.8385 86.9127 82.6804 86.4955 82.6091 86.0868C82.7968 86.0291 82.9846 85.9713 83.1724 85.9127C83.2641 86.3613 83.3848 86.8141 83.3627 87.2755C83.3372 87.7708 82.8877 88.1811 82.3933 88.1718C81.8138 88.1616 81.1698 88.2822 80.6635 87.9263C80.2412 88.2669 79.6159 88.2483 79.1877 87.9297C78.7612 88.2525 78.1699 88.2474 77.7366 87.9407C77.2073 88.2542 76.5488 88.2253 75.9702 88.0894C75.582 87.9857 75.4324 87.5626 75.4333 87.199C75.4129 86.2211 75.4316 85.2432 75.4256 84.2653Z" fill="#737373"/>
<path opacity="0.89" d="M40.7974 84.8065C40.9486 84.6561 41.1007 84.5057 41.2536 84.3579C41.4048 84.5117 41.5569 84.6646 41.709 84.8192C41.5586 84.9696 41.4082 85.1209 41.2587 85.2738C41.1049 85.1166 40.9511 84.9611 40.7974 84.8065Z" fill="#737373"/>
<path opacity="0.89" d="M82.7034 84.3579C82.8606 84.5091 83.016 84.6621 83.1715 84.8167C83.0203 84.9679 82.8699 85.12 82.7212 85.2729C82.5674 85.1166 82.4128 84.9628 82.2599 84.8082C82.4069 84.6578 82.5555 84.5083 82.7034 84.3579Z" fill="#737373"/>
<path opacity="0.89" d="M60.5193 84.9874C60.6637 84.8413 60.8014 84.6884 60.9645 84.5635C61.1285 84.6841 61.2686 84.8328 61.4139 84.9764C61.2678 85.1217 61.1217 85.2687 60.9755 85.4148C60.8243 85.2704 60.6722 85.1276 60.5193 84.9874Z" fill="#737373"/>
<path opacity="0.89" d="M59.3715 85.0003C59.5125 84.8507 59.6561 84.7029 59.8014 84.5576C59.9449 84.6995 60.0962 84.8371 60.2245 84.996C60.1004 85.1583 59.9492 85.2985 59.8014 85.4395C59.6578 85.2934 59.5133 85.1464 59.3715 85.0003Z" fill="#737373"/>
<path opacity="0.89" d="M12.5681 85.1039C12.7125 84.9594 12.857 84.8167 13.0031 84.6748C13.1492 84.8218 13.2945 84.9713 13.439 85.1217C13.2911 85.267 13.1433 85.4131 12.9955 85.5592C12.851 85.4089 12.7075 85.2576 12.5681 85.1039Z" fill="#737373"/>
<path opacity="0.89" d="M13.6565 85.1226C13.8001 84.9747 13.9411 84.8243 14.0821 84.6748C14.23 84.8201 14.377 84.9662 14.5248 85.1124C14.3787 85.2619 14.2308 85.4097 14.083 85.5584C13.9403 85.4131 13.7975 85.2687 13.6565 85.1226Z" fill="#737373"/>
<path opacity="0.89" d="M79.2727 85.1786C79.4214 85.0299 79.5718 84.8838 79.7239 84.7385C79.8742 84.8796 80.0221 85.0223 80.1691 85.1676C80.0229 85.3129 79.8776 85.459 79.7332 85.606C79.5803 85.4624 79.4265 85.3197 79.2727 85.1786Z" fill="#737373"/>
<path opacity="0.89" d="M78.1436 85.1829C78.2684 85.0257 78.4163 84.889 78.5573 84.7471C78.7051 84.8949 78.853 85.0444 78.9991 85.1948C78.8513 85.3401 78.7043 85.4854 78.5573 85.6315C78.4112 85.4888 78.2574 85.352 78.1436 85.1829Z" fill="#737373"/>
<path opacity="0.89" d="M38.2926 85.1787C38.4863 85.1328 38.68 85.0869 38.8754 85.0427C39.025 85.6468 39.1762 86.2509 39.3189 86.8566C39.3776 87.1192 39.5007 87.4046 39.7769 87.499C40.1447 87.6306 40.5475 87.5746 40.9315 87.5746C41.1388 87.5907 41.3274 87.414 41.3283 87.2075C41.33 86.8261 41.2221 86.4565 41.1498 86.0843C41.3376 86.0283 41.5245 85.9714 41.7123 85.9136C41.8134 86.5227 42.0997 87.233 41.7055 87.7929C41.3512 88.2789 40.691 88.1718 40.1685 88.1752C39.6741 88.1871 39.1838 87.9518 38.9247 87.5236C38.5534 87.9696 37.8253 88.0716 37.375 87.6901C36.9154 87.3018 36.9069 86.5431 37.2875 86.0971C37.55 85.7538 37.9587 85.5788 38.3478 85.4216C38.3342 85.3605 38.3062 85.2398 38.2926 85.1787ZM37.6826 86.5032C37.5398 86.6859 37.4957 86.9764 37.6622 87.16C37.9502 87.4777 38.5696 87.2857 38.6367 86.8651C38.6698 86.5703 38.5628 86.2857 38.4999 86.0036C38.2034 86.1209 37.8788 86.2356 37.6826 86.5032Z" fill="#737373"/>
<path opacity="0.89" d="M25.3676 85.5635C25.5333 85.4514 25.6989 85.3401 25.8655 85.2288C26.1917 85.7377 26.5375 86.233 26.8663 86.7402C27.026 86.9925 27.1679 87.3018 27.0668 87.6051C26.9844 87.9033 26.6896 88.0733 26.405 88.1361C25.7567 88.2789 25.0405 88.2075 24.4814 87.8286C24.5808 87.6595 24.6803 87.4913 24.7788 87.323C25.2988 87.6527 25.9708 87.6867 26.5367 87.459C26.2537 86.7683 25.7397 86.2058 25.3676 85.5635Z" fill="#737373"/>
<path opacity="0.89" d="M52.9595 85.601C53.0767 85.4472 53.2194 85.3172 53.3562 85.1821C53.5032 85.33 53.6502 85.4795 53.7955 85.6316C53.6476 85.776 53.5007 85.9222 53.3537 86.0674C53.2254 85.9137 53.0155 85.7939 52.9595 85.601Z" fill="#737373"/>
<path opacity="0.89" d="M54.0121 85.6426C54.154 85.4897 54.295 85.3359 54.4377 85.1838C54.5856 85.3291 54.7326 85.4753 54.8812 85.6214C54.7351 85.7701 54.589 85.9187 54.442 86.0666C54.2976 85.9247 54.1548 85.7828 54.0121 85.6426Z" fill="#737373"/>
<path opacity="0.89" d="M72.6831 86.0827C72.8318 85.9306 72.9805 85.7803 73.1317 85.6299C73.2855 85.7837 73.4401 85.9374 73.5939 86.0929C73.4427 86.2442 73.2906 86.3954 73.1393 86.5466C72.9881 86.3903 72.8352 86.2357 72.6831 86.0827Z" fill="#737373"/>
<path opacity="0.89" d="M29.5358 86.1617C29.9852 85.7598 30.625 85.7429 31.19 85.8397C31.1398 86.0334 31.0889 86.2263 31.0387 86.4208C30.6581 86.3401 30.2129 86.3452 29.9147 86.6307C29.6904 86.8168 29.6369 87.1158 29.6224 87.3919C29.9997 87.493 30.3854 87.5644 30.755 87.6893C30.9708 87.7598 31.0863 87.9901 31.0795 88.2076C31.0872 88.6528 30.9767 89.1761 30.568 89.4259C30.0872 89.7318 29.4933 89.6545 28.9529 89.6638C28.2673 89.691 27.5953 89.2203 27.4092 88.5559C27.1858 87.821 27.4287 87.0487 27.7465 86.3809C27.9232 86.4608 28.1008 86.5423 28.2767 86.6256C28.0354 87.1965 27.7711 87.8533 28.0209 88.4675C28.1594 88.8431 28.5519 89.0759 28.9453 89.0631C29.3777 89.0512 29.8518 89.1328 30.2435 88.9068C30.4627 88.7785 30.4788 88.5058 30.5375 88.2874C30.0787 88.1549 29.6173 88.0308 29.1534 87.9153C28.9402 87.3206 29.0243 86.5797 29.5358 86.1617Z" fill="#737373"/>
<path opacity="0.89" d="M60.5006 86.0835C60.6866 86.0274 60.8744 85.9714 61.0613 85.9153C61.1548 86.4335 61.3425 86.9714 61.2083 87.499C61.0757 87.9578 60.5889 88.2177 60.1293 88.177C59.504 88.1345 58.8141 88.312 58.2533 87.9527C57.7988 88.2271 57.2525 88.1863 56.7436 88.1719C56.4921 88.1668 56.2661 88.0521 56.0469 87.9442C55.8141 88.0775 55.5567 88.1761 55.2848 88.1736C54.4072 88.182 53.5295 88.1693 52.651 88.1778C52.3707 88.1769 52.0682 88.1939 51.8184 88.0436C51.5176 87.8753 51.3367 87.5397 51.3197 87.2016C51.3018 86.8261 51.4191 86.4624 51.5134 86.103C51.702 86.1634 51.8915 86.2237 52.0818 86.2832C52.007 86.6086 51.877 86.9391 51.9331 87.2781C51.9764 87.4854 52.199 87.5907 52.3978 87.5788C53.3341 87.5797 54.2704 87.5788 55.2066 87.5788C55.4038 87.5737 55.6952 87.5406 55.7368 87.3018C55.7827 86.9714 55.7478 86.6358 55.7546 86.3036H56.3545C56.3604 86.6443 56.3273 86.9875 56.3706 87.3265C56.487 87.64 56.888 87.5669 57.154 87.5848C57.419 87.5627 57.8379 87.6442 57.9449 87.3205C57.9908 86.9841 57.9577 86.6426 57.9636 86.3036H58.5635C58.5686 86.6426 58.538 86.9849 58.5787 87.3231C58.6212 87.5194 58.8506 87.5771 59.0256 87.5771C59.4649 87.5771 59.9058 87.5933 60.3442 87.5686C60.5702 87.5601 60.707 87.3214 60.6815 87.1141C60.6577 86.7649 60.5685 86.4251 60.5006 86.0835Z" fill="#737373"/>
<path opacity="0.89" d="M49.0631 86.3052C49.2551 86.3035 49.448 86.3035 49.6417 86.3035C49.6366 86.9135 49.6485 87.5244 49.6392 88.1352C49.6256 88.6824 49.3155 89.2346 48.8074 89.4657C48.4463 89.6458 48.0334 89.6229 47.6417 89.6212C47.6417 89.4207 47.6426 89.221 47.6443 89.0214C48.0181 89.0171 48.448 89.0783 48.7607 88.8251C49.0215 88.6238 49.0453 88.2678 49.0597 87.9653C49.0708 87.4114 49.0589 86.8583 49.0631 86.3052Z" fill="#737373"/>
<path opacity="0.89" d="M74.2116 86.3043C74.4121 86.3035 74.6135 86.3035 74.8157 86.3035C74.8097 86.9424 74.8199 87.5821 74.8131 88.221C74.8072 88.6535 74.6653 89.1259 74.283 89.3723C73.8191 89.6883 73.232 89.6153 72.701 89.6212C72.0578 89.6441 71.4232 89.2244 71.2159 88.611C70.9338 87.8837 71.1743 87.0885 71.4963 86.4173C71.6755 86.4997 71.8556 86.5847 72.0349 86.6705C71.814 87.1556 71.5999 87.6892 71.7189 88.2312C71.7894 88.6357 72.136 88.9755 72.5472 89.0205C72.938 89.0571 73.3416 89.063 73.7273 88.9755C74.0315 88.9058 74.2074 88.5966 74.2065 88.3001C74.2218 87.6348 74.2048 86.9696 74.2116 86.3043Z" fill="#737373"/>
<path opacity="0.89" d="M19.3276 89.0938C19.4772 88.9451 19.6258 88.7964 19.7762 88.6477C19.9292 88.7989 20.0821 88.951 20.2359 89.1031C20.0846 89.2603 19.9326 89.4158 19.7788 89.5704C19.6309 89.409 19.4789 89.2509 19.3276 89.0938Z" fill="#737373"/>
<path opacity="0.89" d="M22.5493 88.7097C22.7014 88.855 22.8509 89.002 23.0005 89.1498L22.5621 89.5908C22.4253 89.4429 22.2868 89.2977 22.1475 89.1541C22.2825 89.0071 22.4168 88.8592 22.5493 88.7097Z" fill="#737373"/>
<path opacity="0.89" d="M57.5601 89.1396C57.7087 88.9884 57.8583 88.838 58.0078 88.6885C58.1624 88.8423 58.3171 88.9969 58.4708 89.1524C58.3179 89.3044 58.1658 89.4565 58.0129 89.6086C57.8634 89.4497 57.7121 89.2942 57.5601 89.1396Z" fill="#737373"/>
<path opacity="0.89" d="M15.3057 89.1718C15.4425 89.0265 15.5792 88.8795 15.7152 88.7334C15.8639 88.8787 16.0117 89.0248 16.1604 89.1718C16.0134 89.3188 15.8664 89.4658 15.7186 89.6119C15.5835 89.4624 15.445 89.3162 15.3057 89.1718Z" fill="#737373"/>
<path opacity="0.89" d="M16.3285 89.1805C16.4653 89.0326 16.6029 88.8874 16.7431 88.7429C16.8918 88.8874 17.0396 89.0326 17.1891 89.1771C17.049 89.3232 16.9079 89.4676 16.7669 89.6129C16.6191 89.4702 16.4729 89.3257 16.3285 89.1805Z" fill="#737373"/>
<path opacity="0.89" d="M23.1696 89.1615C23.3072 89.012 23.4465 88.865 23.5876 88.7197C23.7345 88.8659 23.8815 89.0137 24.0294 89.1615C23.8858 89.3034 23.743 89.447 23.5995 89.5897C23.4559 89.447 23.3123 89.3034 23.1696 89.1615Z" fill="#737373"/>
<rect width="90" height="114" rx="4" fill="url(#paint0_linear)" fill-opacity="0.6"/>
<path d="M27.6184 70.8595C27.8965 71.0462 28.1063 71.2522 28.2477 71.4773L28.2895 71.5414C28.4041 71.7481 28.4712 71.9667 28.4907 72.197C28.5103 72.4273 28.4758 72.6688 28.3872 72.9216C28.2987 73.1744 28.1643 73.4194 27.9839 73.6566C27.8053 73.8969 27.5856 74.1268 27.3247 74.3463C27.0656 74.5689 26.7739 74.7701 26.4495 74.9499L25.0898 75.7036C24.5873 75.9821 24.0749 76.1228 23.5525 76.1254C23.0301 76.1281 22.5342 76.006 22.0646 75.759C21.7413 75.5807 21.4505 75.3448 21.1922 75.0514C20.9922 74.8255 20.8137 74.5711 20.6568 74.288C20.611 74.2053 20.5309 74.0459 20.4167 73.8099C20.3008 73.5707 20.1861 73.2101 20.0729 72.7283C19.9628 72.2446 19.8925 71.7203 19.8619 71.1551L20.8802 71.102C20.9401 72.0501 21.1145 72.841 21.4035 73.475C21.4536 73.5803 21.505 73.6806 21.5579 73.776C21.8259 74.2595 22.1625 74.6154 22.5678 74.844C22.8763 75.0181 23.2045 75.1001 23.5524 75.0902C23.9035 75.0785 24.2476 74.9793 24.5847 74.7924L25.9444 74.0387C26.1225 73.94 26.2895 73.8287 26.4453 73.7049C26.603 73.5843 26.7433 73.4587 26.8664 73.3281C26.9894 73.1975 27.0928 73.0654 27.1767 72.9316C27.2623 72.801 27.3228 72.6739 27.3582 72.5503C27.3968 72.425 27.4065 72.3074 27.3872 72.1975C27.3798 72.1392 27.3629 72.0862 27.3365 72.0385C27.3118 71.994 27.2791 71.9539 27.2386 71.9182C27.1316 71.8153 26.9844 71.7597 26.7969 71.7514C26.6111 71.7463 26.4055 71.7729 26.1801 71.8313C25.9565 71.8929 25.724 71.9761 25.4827 72.0807C25.2431 72.1886 25.0168 72.3016 24.8037 72.4197L24.3373 71.4995L28.4496 69.22L28.9494 70.1217L27.6184 70.8595ZM32.482 68.151C32.1831 68.3167 31.8937 68.421 31.614 68.4638C31.3324 68.5035 31.0663 68.4847 30.8156 68.4074C30.7489 68.6772 30.6297 68.9159 30.4578 69.1234C30.2842 69.3277 30.0861 69.4916 29.8635 69.615L28.7662 70.2232L28.2664 69.3215L29.3637 68.7133C29.4114 68.6869 29.4762 68.6426 29.5582 68.5805C29.6385 68.5153 29.7057 68.4302 29.7598 68.3254C29.8122 68.2173 29.8376 68.0869 29.8359 67.9339C29.8375 67.7792 29.7819 67.6001 29.669 67.3966L28.8678 65.951L29.7694 65.4512L30.5601 66.8777C30.7311 67.1862 30.9278 67.3723 31.1503 67.4361C31.3759 67.4981 31.6541 67.4375 31.9849 67.2541C32.0326 67.2277 32.095 67.1827 32.172 67.1192C32.2505 67.0508 32.3159 66.9625 32.3683 66.8545C32.4239 66.7447 32.4508 66.6133 32.4492 66.4604C32.4508 66.3057 32.3951 66.1266 32.2823 65.923L31.4916 64.4966L32.3885 63.9995L33.1792 65.4259C33.3502 65.7344 33.551 65.9204 33.7816 65.9838C34.0122 66.0472 34.2928 65.9873 34.6236 65.8039C34.6745 65.7757 34.7376 65.7283 34.8129 65.6616C34.8864 65.5918 34.9469 65.5021 34.9943 65.3927C35.0449 65.2814 35.0678 65.1503 35.063 64.9991C35.0582 64.8479 35.0012 64.6737 34.8919 64.4765C34.8531 64.4066 34.7982 64.3226 34.7273 64.2247C34.6596 64.1251 34.5827 64.0201 34.4967 63.9098C34.4138 63.7978 34.3268 63.6859 34.2358 63.5742C34.143 63.4593 34.0555 63.354 33.9733 63.2582C33.8893 63.1592 33.814 63.0721 33.7473 62.9968C33.6789 62.9183 33.6268 62.8619 33.5912 62.8277L34.2944 62.0824C34.3114 62.0979 34.3523 62.1418 34.4172 62.2139C34.4804 62.2828 34.5582 62.3707 34.6506 62.4774C34.7413 62.581 34.8399 62.6989 34.9464 62.8311C35.0561 62.9615 35.1636 63.0953 35.2687 63.2324C35.3752 63.3646 35.4752 63.4963 35.5687 63.6274C35.6604 63.7553 35.7353 63.8718 35.7935 63.9768C35.961 64.2789 36.058 64.5702 36.0846 64.8507C36.1094 65.1279 36.0837 65.3854 36.0076 65.623C35.9328 65.8557 35.8164 66.0657 35.6584 66.2531C35.4986 66.4374 35.3193 66.5866 35.1207 66.7008C34.8154 66.8701 34.5204 66.9754 34.2357 67.0168C33.9524 67.0533 33.682 67.0306 33.4246 66.9487C33.3562 67.2153 33.2361 67.4524 33.0642 67.6599C32.8956 67.8657 32.7015 68.0294 32.482 68.151ZM40.964 63.4618L40.7589 63.5755C40.4536 63.7448 40.1386 63.8404 39.814 63.8623C40.0608 64.3076 40.2192 64.7395 40.2891 65.1581C40.3589 65.5767 40.3416 65.973 40.2371 66.3469C40.1343 66.724 39.9432 67.0732 39.6639 67.3943C39.3877 67.7137 39.0239 67.9985 38.5722 68.2489L37.9139 68.6138L37.4141 67.7122L38.0724 67.3472C38.4 67.1656 38.661 66.969 38.8555 66.7573C39.0549 66.5469 39.1876 66.3175 39.2535 66.0689C39.3226 65.8186 39.3241 65.5475 39.258 65.2557C39.195 64.9621 39.0675 64.642 38.8753 64.2953L37.2252 61.3184L38.1269 60.8186L39.0022 62.3977C39.1009 62.5758 39.215 62.6955 39.3446 62.7567C39.4756 62.813 39.6036 62.8377 39.7286 62.8307C39.8537 62.8238 39.9642 62.802 40.0603 62.7654C40.1579 62.7238 40.2241 62.6933 40.2591 62.6739L40.4642 62.5602L40.964 63.4618ZM41.1824 58.2643C41.1993 58.2799 41.2403 58.3237 41.3052 58.3958C41.3701 58.4679 41.4481 58.5598 41.5391 58.6715C41.6315 58.7783 41.7335 58.8985 41.845 59.0321C41.9547 59.1625 42.063 59.2979 42.1699 59.4382C42.275 59.5754 42.3743 59.7095 42.4678 59.8406C42.5612 59.9717 42.637 60.0898 42.6952 60.1947C42.8645 60.5 42.9599 60.7922 42.9815 61.0713C43.0046 61.3454 42.9756 61.6005 42.8945 61.8367C42.8148 62.068 42.6941 62.2742 42.5325 62.4552C42.371 62.6362 42.1884 62.7832 41.9848 62.896L40.7683 63.5703L40.2685 62.6687L41.4851 61.9943C41.5328 61.9679 41.596 61.9245 41.6748 61.8642C41.7551 61.7989 41.8223 61.7139 41.8764 61.609C41.9337 61.5024 41.9625 61.3742 41.9626 61.2245C41.9659 61.073 41.9112 60.8954 41.7983 60.6919C41.7596 60.6219 41.7047 60.538 41.6338 60.4401C41.5643 60.3372 41.4866 60.2307 41.4005 60.1204C41.3158 60.0052 41.2271 59.8901 41.1343 59.7752C41.0398 59.6572 40.9496 59.5471 40.8639 59.4449C40.7782 59.3428 40.7011 59.2524 40.6327 59.174C40.5642 59.0955 40.5113 59.0375 40.4739 59L41.1824 58.2643ZM42.6442 64.7943L43.0004 63.5242L44.2906 63.8942L43.9249 65.1696L42.6442 64.7943ZM51.6055 61.0119C51.1794 61.2482 50.7394 61.3694 50.2855 61.3757C49.8366 61.3834 49.4105 61.2786 49.0074 61.0614C48.8457 60.9722 48.6634 60.8383 48.4605 60.6598C48.2576 60.4812 48.0625 60.2381 47.8753 59.9302C47.8456 59.8843 47.8167 59.8359 47.7885 59.785C47.6351 59.5083 47.4926 59.1611 47.3609 58.7435C47.2324 58.3242 47.1495 57.7922 47.1124 57.1476L48.1376 57.0844C48.1573 57.4726 48.2018 57.8305 48.2711 58.1579C48.3436 58.4836 48.439 58.7758 48.5574 59.0345C48.5987 59.1239 48.6422 59.2099 48.688 59.2926C48.7727 59.4453 48.8793 59.6003 49.0081 59.7575C49.1369 59.9148 49.3005 60.0487 49.4988 60.1591C49.7453 60.2886 50.0074 60.349 50.2854 60.3405C50.5683 60.3333 50.8418 60.2566 51.1058 60.1103L51.4492 59.9199C51.8118 59.7189 52.0864 59.5168 52.2731 59.3135C52.463 59.1085 52.5819 58.8992 52.6297 58.6855C52.6826 58.4733 52.6782 58.2554 52.6166 58.0317C52.555 57.8081 52.4563 57.5739 52.3206 57.329L48.4782 50.3972L49.3656 49.9053L53.2079 56.8371C54.1335 58.5068 53.7138 59.835 51.949 60.8215L51.6055 61.0119ZM56.7609 54.7055C56.4252 54.8874 56.1362 55.0185 55.8938 55.0988C55.6529 55.1742 55.434 55.2144 55.2373 55.2195C55.042 55.2197 54.8647 55.1849 54.7055 55.1152C54.5477 55.0405 54.3984 54.9362 54.2576 54.8022C54.115 54.665 53.9794 54.499 53.8506 54.3043C53.7219 54.1096 53.5888 53.8882 53.4513 53.6401L50.9074 49.0507L51.809 48.5509L54.3529 53.1403C54.5063 53.417 54.6386 53.6368 54.7497 53.7997C54.8639 53.9609 54.9841 54.0689 55.1101 54.1238C55.2376 54.1737 55.3858 54.1747 55.5546 54.1268C55.7249 54.074 55.9604 53.9664 56.2611 53.8038L56.7609 54.7055ZM61.9461 49.3367C61.934 49.36 61.8822 49.4615 61.7905 49.6412C61.6989 49.8209 61.5703 50.0502 61.4047 50.329C61.2406 50.603 61.0413 50.9109 60.8068 51.253C60.5723 51.595 60.3053 51.9384 60.0058 52.2832C59.7095 52.6262 59.3834 52.9566 59.0274 53.2745C58.6697 53.5892 58.2872 53.8594 57.8801 54.0851L56.573 54.8097L56.0732 53.908L57.3803 53.1834C57.7366 52.986 58.073 52.7454 58.3898 52.4618C58.7079 52.1731 59.0012 51.8734 59.2695 51.5625C59.5362 51.2484 59.7768 50.9362 59.9915 50.626C60.2044 50.3125 60.386 50.0289 60.5364 49.7751C60.1591 49.8221 59.7836 49.8722 59.4099 49.9256C59.0394 49.9771 58.7022 50.0289 58.3984 50.0809C58.0928 50.1297 57.8319 50.1766 57.6157 50.2216C57.4027 50.2648 57.2634 50.2984 57.1976 50.3224C57.1436 50.3524 57.089 50.3889 57.0338 50.4319C56.9819 50.4732 56.9405 50.5335 56.9097 50.613C56.8789 50.6924 56.8647 50.798 56.867 50.9297C56.8676 51.0583 56.8943 51.2264 56.9471 51.4342L55.9471 51.6891C55.6702 50.612 55.9245 49.8557 56.71 49.4202C56.7291 49.4096 56.7554 49.3971 56.789 49.3827C56.8208 49.365 56.8713 49.3474 56.9406 49.3298C57.0081 49.3091 57.1015 49.2864 57.2209 49.2618C57.3385 49.234 57.4903 49.2039 57.6761 49.1716C57.8651 49.1375 58.0963 49.1008 58.3697 49.0615C58.6413 49.0191 58.969 48.9726 59.3526 48.9221L61.3878 48.6109L61.9461 49.3367ZM63.9065 54.2059L63.4067 53.3042L64.065 52.9393C64.3926 52.7577 64.6536 52.5611 64.8481 52.3493C65.0475 52.139 65.1802 51.9096 65.2461 51.661C65.3152 51.4106 65.3167 51.1395 65.2506 50.8477C65.1877 50.5542 65.0601 50.2341 64.8679 49.8874L63.2178 46.9105L64.1195 46.4107L65.7696 49.3876C66.0217 49.8424 66.186 50.2814 66.2626 50.7046C66.3442 51.1292 66.336 51.5308 66.2382 51.9093C66.1403 52.2879 65.951 52.6402 65.6703 52.9663C65.3945 53.2938 65.026 53.5853 64.5648 53.8409L63.9065 54.2059ZM69.0048 48.0122C68.8426 48.1021 68.6744 48.1849 68.5002 48.2607C68.3277 48.3396 68.1541 48.4089 67.9792 48.4684C67.8057 48.523 67.6326 48.567 67.4599 48.6003C67.2885 48.6288 67.1246 48.6406 66.9682 48.6359L66.4479 48.6312L66.46 47.5954L66.9803 47.6002C67.1269 47.6021 67.2927 47.5787 67.4778 47.5302C67.6612 47.4784 67.8479 47.4103 68.038 47.3257C68.2027 47.2552 68.3629 47.1768 68.5188 47.0904C68.5474 47.0745 68.6142 47.0375 68.7191 46.9793C68.8223 46.918 68.9457 46.833 69.0892 46.7243C69.2578 46.5934 69.3868 46.4699 69.4763 46.3538C69.5671 46.2328 69.61 46.13 69.6048 46.0456C69.5999 46.0068 69.5868 45.9682 69.5657 45.9301C69.5357 45.876 69.4784 45.8101 69.3937 45.7323C69.3072 45.6513 69.1708 45.5627 68.9844 45.4665L65.8109 43.8142L66.2992 42.895C66.3758 42.9357 66.4558 42.9786 66.5391 43.0239C66.6206 43.066 66.7172 43.1165 66.8287 43.1752C66.9385 43.2308 67.0676 43.2985 67.2158 43.3785C67.3623 43.4553 67.5404 43.5478 67.7501 43.6561C67.9598 43.7643 68.2045 43.8907 68.4841 44.035C68.7636 44.1794 69.0898 44.3478 69.4626 44.5403C69.6091 44.6171 69.7512 44.7047 69.8889 44.803C70.0247 44.8981 70.1456 45.0037 70.2515 45.1196C70.3471 45.2246 70.4284 45.3375 70.4954 45.4584C70.5024 45.4711 70.5255 45.5165 70.5646 45.5946C70.602 45.6695 70.6266 45.7889 70.6385 45.9528C70.6867 46.5123 70.3789 47.0447 69.7151 47.5498C69.6126 47.6274 69.502 47.7054 69.3832 47.7837C69.2645 47.8619 69.1383 47.9381 69.0048 48.0122Z" fill="white"/>
<defs>
<linearGradient id="paint0_linear" x1="45" y1="0" x2="45" y2="114" gradientUnits="userSpaceOnUse">
<stop stop-color="#242424"/>
<stop offset="1" stop-color="#242424"/>
</linearGradient>
</defs>
</svg>
