<svg width="138" height="305" viewBox="0 0 138 305" fill="none" xmlns="http://www.w3.org/2000/svg">
<g filter="url(#filter0_d)">
<path d="M199 152.5C199 140.523 194.378 129.007 186.098 120.353C177.818 111.699 166.517 106.574 154.552 106.045C142.586 105.517 130.878 109.626 121.867 117.516C112.856 125.407 107.237 136.47 106.181 148.4C105.125 160.331 108.714 172.209 116.199 181.56C123.684 190.91 134.488 197.012 146.361 198.593C158.233 200.174 170.258 197.113 179.93 190.048C189.601 182.983 196.173 172.458 198.277 160.667L191.642 159.483C189.843 169.565 184.223 178.564 175.954 184.606C167.684 190.647 157.402 193.264 147.251 191.912C137.099 190.559 127.861 185.342 121.461 177.347C115.061 169.352 111.992 159.196 112.895 148.995C113.798 138.793 118.602 129.334 126.307 122.587C134.012 115.841 144.023 112.327 154.254 112.779C164.486 113.231 174.148 117.613 181.228 125.013C188.308 132.413 192.26 142.259 192.26 152.5L199 152.5Z" fill="#00AA0A"/>
</g>
<defs>
<filter id="filter0_d" x="-0.00012207" y="-5.72205e-05" width="305" height="305" filterUnits="userSpaceOnUse" color-interpolation-filters="sRGB">
<feFlood flood-opacity="0" result="BackgroundImageFix"/>
<feColorMatrix in="SourceAlpha" type="matrix" values="0 0 0 0 0 0 0 0 0 0 0 0 0 0 0 0 0 0 127 0"/>
<feOffset/>
<feGaussianBlur stdDeviation="53"/>
<feColorMatrix type="matrix" values="0 0 0 0 0 0 0 0 0 0.666667 0 0 0 0 0.0392157 0 0 0 1 0"/>
<feBlend mode="normal" in2="BackgroundImageFix" result="effect1_dropShadow"/>
<feBlend mode="normal" in="SourceGraphic" in2="effect1_dropShadow" result="shape"/>
</filter>
</defs>
</svg>
