<svg width="260" height="59" viewBox="0 0 260 59" fill="none" xmlns="http://www.w3.org/2000/svg">
<rect width="260" height="59" fill="#2E2E2E"/>
<g filter="url(#filter0_ii)">
<path d="M91.1696 20.1159C90.6751 20.1159 90.2192 20.0464 89.8019 19.9073C89.3898 19.763 89.0343 19.5621 88.7355 19.3045C88.4368 19.0418 88.2024 18.7302 88.0324 18.3695C87.8675 18.0089 87.7851 17.6097 87.7851 17.1718C87.7851 16.7391 87.8392 16.3527 87.9474 16.0127C88.0555 15.6676 88.1998 15.3482 88.3801 15.0545C88.5655 14.7558 88.7793 14.4724 89.0215 14.2045C89.2687 13.9315 89.5289 13.6508 89.8019 13.3623L89.3151 12.8136L90.7369 11.5232C90.7936 11.5902 90.8605 11.6648 90.9378 11.7473C91.0151 11.8297 91.0924 11.9147 91.1696 12.0023C91.2521 12.0898 91.3319 12.1748 91.4092 12.2573C91.4865 12.3397 91.556 12.4144 91.6178 12.4814C91.9887 12.878 92.3493 13.2644 92.6996 13.6405C93.0551 14.0114 93.3693 14.3848 93.6424 14.7609C93.9205 15.1318 94.1446 15.5053 94.3146 15.8814C94.4743 16.2523 94.5542 16.6335 94.5542 17.025V17.0636C94.549 17.517 94.4589 17.9239 94.2837 18.2845C94.1086 18.64 93.8536 18.9697 93.5187 19.2736C93.2096 19.5364 92.8568 19.7424 92.4601 19.8918C92.0686 20.0412 91.6384 20.1159 91.1696 20.1159ZM91.0769 14.5445C90.8708 14.7764 90.6751 14.9953 90.4896 15.2014C90.3093 15.4074 90.1522 15.6135 90.0183 15.8195C89.8895 16.0256 89.7916 16.2368 89.7246 16.4532C89.6628 16.6335 89.6319 16.8292 89.6319 17.0405C89.6319 17.0817 89.6345 17.1255 89.6396 17.1718C89.6551 17.3624 89.7118 17.5273 89.8096 17.6664C89.9075 17.8003 90.0286 17.9136 90.1728 18.0064C90.3171 18.0939 90.4768 18.1583 90.6519 18.1995C90.8271 18.2408 90.9996 18.2614 91.1696 18.2614C91.3654 18.2614 91.5534 18.233 91.7337 18.1764C91.914 18.1197 92.0711 18.0398 92.2051 17.9368C92.3442 17.8338 92.4549 17.7076 92.5374 17.5582C92.6198 17.4088 92.661 17.2439 92.661 17.0636C92.661 16.8421 92.6172 16.6258 92.5296 16.4145C92.4421 16.2033 92.3236 15.9947 92.1742 15.7886C92.0299 15.5826 91.8625 15.3765 91.6719 15.1705C91.4813 14.9644 91.283 14.7558 91.0769 14.5445ZM100.929 20.1159H100.635C100.424 20.1159 100.223 20.103 100.032 20.0773C99.8468 20.0515 99.6639 19.9794 99.4836 19.8609C99.4218 20.5255 99.2698 21.1282 99.0277 21.6691C98.7856 22.21 98.4611 22.6711 98.0541 23.0523C97.6523 23.4386 97.1706 23.7374 96.6091 23.9486C96.0476 24.1598 95.4165 24.2655 94.7159 24.2655H93.75V22.3414H94.7159C95.2105 22.3414 95.638 22.2898 95.9986 22.1868C96.3592 22.0838 96.6555 21.9189 96.8873 21.6923C97.1191 21.4656 97.2917 21.1694 97.405 20.8036C97.5183 20.443 97.575 20.0026 97.575 19.4823V14.7764H99.4991V17.0868C99.4991 17.3238 99.548 17.5144 99.6459 17.6586C99.7489 17.8029 99.8648 17.9162 99.9936 17.9986C100.128 18.0759 100.256 18.1274 100.38 18.1532C100.504 18.1789 100.589 18.1918 100.635 18.1918H100.929V20.1159ZM97.4668 11.6391L96.1532 12.9682L94.8395 11.6545L96.1532 10.3255L97.4668 11.6391ZM100.782 11.6082L99.4836 12.9218L98.1314 11.6236L99.4605 10.2945L100.782 11.6082ZM99.0741 9.42909L97.8377 10.6655L96.6168 9.44455L97.8532 8.20818L99.0741 9.42909ZM106.359 13.625C106.37 13.6611 106.39 13.7461 106.421 13.88C106.457 14.0139 106.496 14.1788 106.537 14.3745C106.578 14.5652 106.619 14.7789 106.661 15.0159C106.707 15.2529 106.748 15.4924 106.784 15.7345C106.825 15.9715 106.856 16.2033 106.877 16.43C106.903 16.6567 106.916 16.855 106.916 17.025C106.916 17.5556 106.828 18.0167 106.653 18.4082C106.478 18.7945 106.249 19.1139 105.965 19.3664C105.682 19.6188 105.362 19.8068 105.007 19.9305C104.657 20.0541 104.304 20.1159 103.948 20.1159H100.618V18.1918H104.002C104.064 18.1918 104.152 18.1841 104.265 18.1686C104.384 18.148 104.5 18.0991 104.613 18.0218C104.731 17.9445 104.834 17.8286 104.922 17.6741C105.01 17.5144 105.053 17.298 105.053 17.025C105.053 16.9117 105.043 16.7752 105.022 16.6155C105.007 16.4506 104.984 16.2755 104.953 16.09C104.922 15.9045 104.886 15.7165 104.845 15.5259C104.809 15.3302 104.773 15.1473 104.737 14.9773C104.7 14.8021 104.664 14.645 104.628 14.5059C104.592 14.3617 104.564 14.2509 104.543 14.1736L106.359 13.625ZM105.463 24.3195L104.165 23.0059L105.447 21.6768L106.777 23.0059L105.463 24.3195ZM102.225 24.3273L100.927 23.0136L102.202 21.6845L103.531 23.0136L102.225 24.3273ZM109.561 22.3414C109.973 22.3414 110.339 22.3259 110.659 22.295C110.983 22.2692 111.269 22.228 111.516 22.1714C111.769 22.1198 111.988 22.0503 112.173 21.9627C112.364 21.8803 112.529 21.7798 112.668 21.6614C112.884 21.4862 113.046 21.2827 113.155 21.0509C113.268 20.8191 113.335 20.5074 113.355 20.1159H112.165C111.908 20.1159 111.645 20.0953 111.377 20.0541C111.109 20.0129 110.852 19.9433 110.605 19.8455C110.357 19.7424 110.123 19.6111 109.901 19.4514C109.685 19.2917 109.494 19.0959 109.33 18.8641C109.17 18.6271 109.041 18.3489 108.943 18.0295C108.85 17.7102 108.804 17.3444 108.804 16.9323C108.804 16.5768 108.835 16.2626 108.897 15.9895C108.959 15.7114 109.036 15.4667 109.129 15.2555C109.226 15.0442 109.335 14.8614 109.453 14.7068C109.572 14.5471 109.685 14.408 109.793 14.2895C110.102 13.9805 110.453 13.7435 110.844 13.5786C111.236 13.4086 111.658 13.3236 112.111 13.3236C112.673 13.3236 113.152 13.4215 113.549 13.6173C113.95 13.8079 114.278 14.0732 114.53 14.4132C114.788 14.7532 114.976 15.1576 115.094 15.6264C115.213 16.09 115.272 16.5948 115.272 17.1409V19.8841C115.272 20.6517 115.156 21.2956 114.924 21.8159C114.692 22.3414 114.339 22.7921 113.865 23.1682C113.628 23.3536 113.371 23.5133 113.093 23.6473C112.815 23.7864 112.503 23.9023 112.158 23.995C111.813 24.0877 111.426 24.1547 110.999 24.1959C110.576 24.2423 110.097 24.2655 109.561 24.2655V22.3414ZM112.111 15.2477C111.673 15.2477 111.326 15.3842 111.068 15.6573C110.811 15.9303 110.682 16.3553 110.682 16.9323C110.682 17.1589 110.726 17.3521 110.813 17.5118C110.906 17.6715 111.022 17.8029 111.161 17.9059C111.305 18.0038 111.465 18.0759 111.64 18.1223C111.815 18.1686 111.99 18.1918 112.165 18.1918H113.355V17.1409C113.355 16.8473 113.332 16.5974 113.286 16.3914C113.24 16.1802 113.178 16.005 113.1 15.8659C113.028 15.7268 112.943 15.6161 112.845 15.5336C112.753 15.4512 112.66 15.3894 112.567 15.3482C112.48 15.307 112.395 15.2812 112.312 15.2709C112.23 15.2555 112.163 15.2477 112.111 15.2477ZM138.923 20.1159C138.439 20.1159 138.003 20.0489 137.617 19.915C137.231 19.7811 136.898 19.5905 136.62 19.3432C136.466 19.4926 136.301 19.6162 136.126 19.7141C135.956 19.812 135.778 19.8918 135.592 19.9536C135.412 20.0103 135.229 20.0515 135.044 20.0773C134.863 20.103 134.688 20.1159 134.518 20.1159C134.25 20.1159 133.998 20.0953 133.761 20.0541C133.524 20.0129 133.297 19.9202 133.081 19.7759V20.1005C133.081 21.5171 132.697 22.5655 131.93 23.2455C131.167 23.9255 130.034 24.2655 128.53 24.2655H127.023C126.332 24.2655 125.699 24.1521 125.122 23.9255C124.545 23.6988 124.048 23.3742 123.631 22.9518C123.213 22.5345 122.886 22.0271 122.649 21.4295C122.417 20.8371 122.301 20.17 122.301 19.4282C122.301 19.0882 122.322 18.7482 122.363 18.4082C122.41 18.0682 122.479 17.7205 122.572 17.365C122.665 17.0095 122.783 16.6386 122.927 16.2523C123.077 15.8608 123.257 15.4435 123.468 15.0005L125.199 15.8427C125.019 16.2136 124.859 16.5588 124.72 16.8782C124.586 17.1924 124.473 17.4938 124.38 17.7823C124.292 18.0656 124.226 18.3412 124.179 18.6091C124.138 18.8718 124.117 19.1371 124.117 19.405C124.117 19.8171 124.187 20.2009 124.326 20.5564C124.47 20.917 124.669 21.2286 124.921 21.4914C125.179 21.7592 125.488 21.9679 125.848 22.1173C126.193 22.2667 126.572 22.3414 126.984 22.3414H128.53C129.076 22.3414 129.519 22.2898 129.859 22.1868C130.204 22.0889 130.472 21.9447 130.662 21.7541C130.853 21.5635 130.982 21.3291 131.049 21.0509C131.121 20.7727 131.157 20.4559 131.157 20.1005V14.7764H133.081V16.1673C133.081 16.6103 133.122 16.9658 133.205 17.2336C133.287 17.5015 133.395 17.7076 133.529 17.8518C133.663 17.9909 133.815 18.0836 133.985 18.13C134.16 18.1764 134.338 18.1995 134.518 18.1995C134.626 18.1995 134.747 18.1815 134.881 18.1455C135.021 18.1042 135.152 18.0373 135.276 17.9445C135.399 17.8518 135.502 17.7282 135.585 17.5736C135.667 17.4139 135.708 17.2182 135.708 16.9864V14.7764H137.625V17.0636C137.635 17.4552 137.741 17.7436 137.941 17.9291C138.147 18.1094 138.469 18.1995 138.907 18.1995H138.9C138.972 18.1944 139.067 18.1789 139.186 18.1532C139.309 18.1223 139.428 18.0656 139.541 17.9832C139.654 17.8956 139.752 17.7745 139.835 17.62C139.917 17.4603 139.958 17.2491 139.958 16.9864C139.958 16.8164 139.938 16.6 139.896 16.3373C139.855 16.0745 139.806 15.8067 139.75 15.5336C139.693 15.2555 139.636 14.9979 139.58 14.7609C139.523 14.5188 139.477 14.3385 139.441 14.22L141.256 13.6714C141.267 13.7023 141.287 13.7821 141.318 13.9109C141.354 14.0397 141.393 14.1994 141.434 14.39C141.481 14.5755 141.527 14.7841 141.573 15.0159C141.625 15.2426 141.669 15.4744 141.705 15.7114C141.746 15.9432 141.779 16.1724 141.805 16.3991C141.831 16.6206 141.844 16.8164 141.844 16.9864C141.844 17.5118 141.756 17.9703 141.581 18.3618C141.411 18.7482 141.187 19.0727 140.909 19.3355C140.636 19.593 140.324 19.7862 139.974 19.915C139.629 20.0438 139.278 20.1108 138.923 20.1159ZM136.226 11.4305L134.912 12.7595L133.599 11.4459L134.912 10.1168L136.226 11.4305ZM139.541 11.3995L138.243 12.7132L136.891 11.415L138.22 10.0859L139.541 11.3995ZM137.833 9.22045L136.597 10.4568L135.376 9.23591L136.612 7.99955L137.833 9.22045ZM144.308 22.3414C144.721 22.3414 145.086 22.3259 145.406 22.295C145.73 22.2692 146.016 22.228 146.263 22.1714C146.516 22.1198 146.735 22.0503 146.92 21.9627C147.111 21.8803 147.276 21.7798 147.415 21.6614C147.631 21.4862 147.793 21.2827 147.902 21.0509C148.015 20.8191 148.082 20.5074 148.102 20.1159H146.912C146.655 20.1159 146.392 20.0953 146.124 20.0541C145.856 20.0129 145.599 19.9433 145.352 19.8455C145.104 19.7424 144.87 19.6111 144.648 19.4514C144.432 19.2917 144.241 19.0959 144.077 18.8641C143.917 18.6271 143.788 18.3489 143.69 18.0295C143.597 17.7102 143.551 17.3444 143.551 16.9323C143.551 16.5768 143.582 16.2626 143.644 15.9895C143.706 15.7114 143.783 15.4667 143.876 15.2555C143.974 15.0442 144.082 14.8614 144.2 14.7068C144.319 14.5471 144.432 14.408 144.54 14.2895C144.849 13.9805 145.2 13.7435 145.591 13.5786C145.983 13.4086 146.405 13.3236 146.858 13.3236C147.42 13.3236 147.899 13.4215 148.296 13.6173C148.697 13.8079 149.025 14.0732 149.277 14.4132C149.535 14.7532 149.723 15.1576 149.841 15.6264C149.96 16.09 150.019 16.5948 150.019 17.1409V19.8841C150.019 20.6517 149.903 21.2956 149.671 21.8159C149.439 22.3414 149.086 22.7921 148.612 23.1682C148.376 23.3536 148.118 23.5133 147.84 23.6473C147.562 23.7864 147.25 23.9023 146.905 23.995C146.56 24.0877 146.173 24.1547 145.746 24.1959C145.323 24.2423 144.844 24.2655 144.308 24.2655V22.3414ZM146.858 15.2477C146.421 15.2477 146.073 15.3842 145.815 15.6573C145.558 15.9303 145.429 16.3553 145.429 16.9323C145.429 17.1589 145.473 17.3521 145.56 17.5118C145.653 17.6715 145.769 17.8029 145.908 17.9059C146.052 18.0038 146.212 18.0759 146.387 18.1223C146.562 18.1686 146.737 18.1918 146.912 18.1918H148.102V17.1409C148.102 16.8473 148.079 16.5974 148.033 16.3914C147.987 16.1802 147.925 16.005 147.847 15.8659C147.775 15.7268 147.69 15.6161 147.592 15.5336C147.5 15.4512 147.407 15.3894 147.314 15.3482C147.227 15.307 147.142 15.2812 147.059 15.2709C146.977 15.2555 146.91 15.2477 146.858 15.2477ZM158.021 20.1159H157.728C157.517 20.1159 157.316 20.103 157.125 20.0773C156.94 20.0515 156.757 19.9794 156.576 19.8609C156.515 20.5255 156.363 21.1282 156.121 21.6691C155.878 22.21 155.554 22.6711 155.147 23.0523C154.745 23.4386 154.263 23.7374 153.702 23.9486C153.14 24.1598 152.509 24.2655 151.809 24.2655H150.843V22.3414H151.809C152.303 22.3414 152.731 22.2898 153.091 22.1868C153.452 22.0838 153.748 21.9189 153.98 21.6923C154.212 21.4656 154.384 21.1694 154.498 20.8036C154.611 20.443 154.668 20.0026 154.668 19.4823V14.7764H156.592V17.0868C156.592 17.3238 156.641 17.5144 156.739 17.6586C156.842 17.8029 156.958 17.9162 157.086 17.9986C157.22 18.0759 157.349 18.1274 157.473 18.1532C157.596 18.1789 157.681 18.1918 157.728 18.1918H158.021V20.1159ZM157.78 20.1159V18.1918H160.933C161.366 18.1918 161.729 18.1686 162.023 18.1223C162.316 18.0708 162.553 18.0064 162.733 17.9291C162.919 17.8518 163.058 17.7668 163.151 17.6741C163.243 17.5762 163.31 17.4783 163.352 17.3805C162.976 17.432 162.623 17.4577 162.293 17.4577C162.015 17.4577 161.677 17.432 161.281 17.3805C160.884 17.3238 160.495 17.1795 160.114 16.9477C159.733 16.7108 159.439 16.3965 159.233 16.005C159.032 15.6135 158.932 15.1447 158.932 14.5986C158.932 14.1659 159.011 13.7589 159.171 13.3777C159.331 12.9914 159.552 12.6565 159.836 12.3732C160.124 12.0847 160.464 11.858 160.856 11.6932C161.196 11.5541 161.569 11.4845 161.976 11.4845H162.131C162.543 11.5 162.906 11.5721 163.22 11.7009C163.54 11.8297 163.815 11.9997 164.047 12.2109C164.284 12.4221 164.48 12.6694 164.634 12.9527C164.794 13.2309 164.92 13.5323 165.013 13.8568C165.111 14.1814 165.18 14.5214 165.222 14.8768C165.268 15.2271 165.294 15.58 165.299 15.9355L165.268 16.5073C165.227 17.2285 165.083 17.8235 164.835 18.2923C164.588 18.7559 164.266 19.1242 163.869 19.3973C163.478 19.6652 163.03 19.8532 162.525 19.9614C162.02 20.0644 161.489 20.1159 160.933 20.1159H157.78ZM162.115 13.4086C162.064 13.4035 162.015 13.4009 161.968 13.4009C161.834 13.4009 161.69 13.4215 161.536 13.4627C161.386 13.4988 161.245 13.5683 161.111 13.6714C160.982 13.7744 160.876 13.9032 160.794 14.0577C160.717 14.2071 160.678 14.3823 160.678 14.5832C160.678 15.0314 160.915 15.3533 161.389 15.5491C161.662 15.6676 162.004 15.7268 162.417 15.7268C162.715 15.7268 163.05 15.6959 163.421 15.6341C163.411 15.4126 163.393 15.1782 163.367 14.9309C163.341 14.6836 163.285 14.4518 163.197 14.2355C163.109 14.0191 162.981 13.8362 162.811 13.6868C162.641 13.5323 162.409 13.4395 162.115 13.4086ZM160.361 8.50182L161.752 7.09545L163.174 8.51727L161.768 9.92364L160.361 8.50182Z" fill="#919191"/>
</g>
<g filter="url(#filter1_i)">
<path d="M77.7049 50C76.9829 50 76.3622 49.7213 75.8429 49.164C75.3362 48.6067 75.0829 47.9733 75.0829 47.264V38.999C75.0829 38.2643 75.3362 37.6373 75.8429 37.118C76.3622 36.586 76.9829 36.32 77.7049 36.32H86.0079C86.7299 36.32 87.3442 36.586 87.8509 37.118C88.3702 37.6373 88.6299 38.2643 88.6299 38.999V47.264C88.6299 47.9733 88.3702 48.6067 87.8509 49.164C87.3442 49.7213 86.7299 50 86.0079 50H77.7049ZM78.7119 47.378H85.4759C85.8306 47.378 86.0269 47.359 86.0649 47.321C86.1156 47.2703 86.1409 47.0677 86.1409 46.713V41.184L78.7119 47.378ZM77.5719 45.06L85.0009 38.866H78.2369C77.8822 38.866 77.6796 38.8913 77.6289 38.942C77.5909 38.98 77.5719 39.1763 77.5719 39.531V45.06Z" fill="#909090"/>
<path d="M33.8181 33.7622H38.1817C38.5834 33.7622 38.909 33.4366 38.909 33.0349C38.909 32.6332 38.5834 32.3076 38.1817 32.3076H33.8181C33.4164 32.3076 33.0908 32.6332 33.0908 33.0349C33.0908 33.4366 33.4164 33.7622 33.8181 33.7622Z" fill="#909090"/>
<path d="M36 34.9258C31.578 34.9258 28 38.5044 28 42.9258C28 47.3477 31.5785 50.9258 36 50.9258C40.422 50.9258 44 47.3471 44 42.9258C44 38.5038 40.4213 34.9258 36 34.9258ZM36 49.4712C32.3908 49.4712 29.4545 46.5349 29.4545 42.9258C29.4545 39.3166 32.3908 36.3803 36 36.3803C39.6092 36.3803 42.5455 39.3166 42.5455 42.9258C42.5455 46.5349 39.6092 49.4712 36 49.4712Z" fill="#909090"/>
<path d="M36 38.5623C35.5983 38.5623 35.2727 38.8879 35.2727 39.2895V42.9259C35.2727 43.3276 35.5983 43.6532 36 43.6532C36.4017 43.6532 36.7273 43.3276 36.7273 42.9259V39.2895C36.7273 38.8879 36.4017 38.5623 36 38.5623Z" fill="#909090"/>
<path d="M140.705 50C139.983 50 139.362 49.7213 138.843 49.164C138.336 48.6067 138.083 47.9733 138.083 47.264V38.999C138.083 38.2643 138.336 37.6373 138.843 37.118C139.362 36.586 139.983 36.32 140.705 36.32H149.008C149.73 36.32 150.344 36.586 150.851 37.118C151.37 37.6373 151.63 38.2643 151.63 38.999V47.264C151.63 47.9733 151.37 48.6067 150.851 49.164C150.344 49.7213 149.73 50 149.008 50H140.705ZM141.712 47.378H148.476C148.831 47.378 149.027 47.359 149.065 47.321C149.116 47.2703 149.141 47.0677 149.141 46.713V41.184L141.712 47.378ZM140.572 45.06L148.001 38.866H141.237C140.882 38.866 140.68 38.8913 140.629 38.942C140.591 38.98 140.572 39.1763 140.572 39.531V45.06ZM156.551 50C155.829 50 155.208 49.7213 154.689 49.164C154.182 48.6067 153.929 47.9733 153.929 47.264V38.999C153.929 38.2643 154.182 37.6373 154.689 37.118C155.208 36.586 155.829 36.32 156.551 36.32H164.854C165.576 36.32 166.19 36.586 166.697 37.118C167.216 37.6373 167.476 38.2643 167.476 38.999V47.264C167.476 47.9733 167.216 48.6067 166.697 49.164C166.19 49.7213 165.576 50 164.854 50H156.551ZM157.558 47.378H164.322C164.676 47.378 164.873 47.359 164.911 47.321C164.961 47.2703 164.987 47.0677 164.987 46.713V41.184L157.558 47.378ZM156.418 45.06L163.847 38.866H157.083C156.728 38.866 156.525 38.8913 156.475 38.942C156.437 38.98 156.418 39.1763 156.418 39.531V45.06ZM169.717 41.431V38.942H172.206V41.431H169.717ZM169.717 50V47.511H172.206V50H169.717ZM176.905 50C176.183 50 175.563 49.7213 175.043 49.164C174.537 48.6067 174.283 47.9733 174.283 47.264V38.999C174.283 38.2643 174.537 37.6373 175.043 37.118C175.563 36.586 176.183 36.32 176.905 36.32H185.208C185.93 36.32 186.545 36.586 187.051 37.118C187.571 37.6373 187.83 38.2643 187.83 38.999V47.264C187.83 47.9733 187.571 48.6067 187.051 49.164C186.545 49.7213 185.93 50 185.208 50H176.905ZM177.912 47.378H184.676C185.031 47.378 185.227 47.359 185.265 47.321C185.316 47.2703 185.341 47.0677 185.341 46.713V41.184L177.912 47.378ZM176.772 45.06L184.201 38.866H177.437C177.083 38.866 176.88 38.8913 176.829 38.942C176.791 38.98 176.772 39.1763 176.772 39.531V45.06ZM192.751 50C192.029 50 191.408 49.7213 190.889 49.164C190.382 48.6067 190.129 47.9733 190.129 47.264V38.999C190.129 38.2643 190.382 37.6373 190.889 37.118C191.408 36.586 192.029 36.32 192.751 36.32H201.054C201.776 36.32 202.39 36.586 202.897 37.118C203.416 37.6373 203.676 38.2643 203.676 38.999V47.264C203.676 47.9733 203.416 48.6067 202.897 49.164C202.39 49.7213 201.776 50 201.054 50H192.751ZM193.758 47.378H200.522C200.877 47.378 201.073 47.359 201.111 47.321C201.162 47.2703 201.187 47.0677 201.187 46.713V41.184L193.758 47.378ZM192.618 45.06L200.047 38.866H193.283C192.928 38.866 192.726 38.8913 192.675 38.942C192.637 38.98 192.618 39.1763 192.618 39.531V45.06ZM205.918 41.431V38.942H208.407V41.431H205.918ZM205.918 50V47.511H208.407V50H205.918ZM213.105 50C212.383 50 211.763 49.7213 211.243 49.164C210.737 48.6067 210.483 47.9733 210.483 47.264V38.999C210.483 38.2643 210.737 37.6373 211.243 37.118C211.763 36.586 212.383 36.32 213.105 36.32H221.408C222.13 36.32 222.745 36.586 223.251 37.118C223.771 37.6373 224.03 38.2643 224.03 38.999V47.264C224.03 47.9733 223.771 48.6067 223.251 49.164C222.745 49.7213 222.13 50 221.408 50H213.105ZM214.112 47.378H220.876C221.231 47.378 221.427 47.359 221.465 47.321C221.516 47.2703 221.541 47.0677 221.541 46.713V41.184L214.112 47.378ZM212.972 45.06L220.401 38.866H213.637C213.283 38.866 213.08 38.8913 213.029 38.942C212.991 38.98 212.972 39.1763 212.972 39.531V45.06ZM228.951 50C228.229 50 227.608 49.7213 227.089 49.164C226.582 48.6067 226.329 47.9733 226.329 47.264V38.999C226.329 38.2643 226.582 37.6373 227.089 37.118C227.608 36.586 228.229 36.32 228.951 36.32H237.254C237.976 36.32 238.59 36.586 239.097 37.118C239.616 37.6373 239.876 38.2643 239.876 38.999V47.264C239.876 47.9733 239.616 48.6067 239.097 49.164C238.59 49.7213 237.976 50 237.254 50H228.951ZM229.958 47.378H236.722C237.077 47.378 237.273 47.359 237.311 47.321C237.362 47.2703 237.387 47.0677 237.387 46.713V41.184L229.958 47.378ZM228.818 45.06L236.247 38.866H229.483C229.128 38.866 228.926 38.8913 228.875 38.942C228.837 38.98 228.818 39.1763 228.818 39.531V45.06Z" fill="#909090"/>
<path d="M53.4258 48.7841V47.4955H54.3667C54.8349 47.4955 55.2394 47.4386 55.5803 47.325C55.9258 47.2159 56.2099 47.0455 56.4326 46.8136C56.6599 46.5818 56.8258 46.2864 56.9303 45.9273C57.0394 45.5682 57.094 45.1409 57.094 44.6455V40.3909H58.3826V44.6455C58.3826 45.2955 58.2962 45.875 58.1235 46.3841C57.9553 46.8977 57.7031 47.3318 57.3667 47.6864C57.0303 48.0409 56.6099 48.3114 56.1053 48.4977C55.6053 48.6886 55.0258 48.7841 54.3667 48.7841H53.4258ZM56.5144 37.4386L57.6735 36.2659L58.8599 37.4523L57.6871 38.625L56.5144 37.4386ZM60.7036 47.475C61.39 47.475 61.9672 47.4227 62.4354 47.3182C62.9036 47.2136 63.2741 47.0523 63.5468 46.8341C63.7831 46.6432 63.9559 46.4 64.065 46.1045C64.1786 45.8091 64.2354 45.4409 64.2354 45H62.9809C62.6627 45 62.34 44.9523 62.0127 44.8568C61.6854 44.7614 61.3877 44.6045 61.1195 44.3864C60.8559 44.1682 60.64 43.8841 60.4718 43.5341C60.3036 43.1795 60.2195 42.7477 60.2195 42.2386C60.2195 41.9386 60.2445 41.6682 60.2945 41.4273C60.3491 41.1818 60.415 40.9636 60.4922 40.7727C60.5741 40.5818 60.6627 40.4159 60.7581 40.275C60.8536 40.1341 60.9468 40.0136 61.0377 39.9136C61.2877 39.6636 61.5741 39.4705 61.8968 39.3341C62.2195 39.1977 62.565 39.1295 62.9331 39.1295C63.2559 39.1295 63.5582 39.1795 63.84 39.2795C64.1218 39.3795 64.3741 39.5295 64.5968 39.7295C65.2104 40.3023 65.5172 41.2 65.5172 42.4227V45C65.5172 45.6455 65.4218 46.2 65.2309 46.6636C65.0445 47.1318 64.7536 47.5227 64.3582 47.8364C63.9581 48.15 63.4604 48.3818 62.865 48.5318C62.2741 48.6864 61.5536 48.7636 60.7036 48.7636V47.475ZM62.9331 40.4182C62.4831 40.4182 62.1331 40.5773 61.8831 40.8955C61.6331 41.2136 61.5081 41.6614 61.5081 42.2386C61.5081 42.825 61.6854 43.2318 62.04 43.4591C62.1263 43.5136 62.215 43.5591 62.3059 43.5955C62.3968 43.6273 62.4854 43.6523 62.5718 43.6705C62.6581 43.6841 62.7354 43.6955 62.8036 43.7045C62.8763 43.7091 62.9354 43.7114 62.9809 43.7114H64.2354V42.4227C64.2354 42.0909 64.2104 41.8114 64.1604 41.5841C64.1104 41.3523 64.0468 41.1614 63.9695 41.0114C63.8922 40.8614 63.8036 40.7477 63.7036 40.6705C63.6081 40.5886 63.5127 40.5295 63.4172 40.4932C63.3218 40.4568 63.2309 40.4364 63.1445 40.4318C63.0581 40.4227 62.9877 40.4182 62.9331 40.4182ZM66.375 48.7841V47.4955H67.3159C67.7841 47.4955 68.1886 47.4386 68.5295 47.325C68.875 47.2159 69.1591 47.0455 69.3818 46.8136C69.6091 46.5818 69.775 46.2864 69.8795 45.9273C69.9886 45.5682 70.0432 45.1409 70.0432 44.6455V40.3909H71.3318V44.6455C71.3318 45.2955 71.2455 45.875 71.0727 46.3841C70.9045 46.8977 70.6523 47.3318 70.3159 47.6864C69.9795 48.0409 69.5591 48.3114 69.0545 48.4977C68.5545 48.6886 67.975 48.7841 67.3159 48.7841H66.375Z" fill="#909090"/>
<path d="M107.813 46.7114V47.9932H107.608C107.276 47.9932 106.963 47.9455 106.667 47.85C106.372 47.75 106.108 47.6068 105.876 47.4205C105.849 47.3977 105.822 47.375 105.794 47.3523C105.767 47.325 105.74 47.2977 105.713 47.2705C105.231 47.7477 104.533 47.9886 103.619 47.9932H95.8808C95.5581 47.9932 95.2535 47.9386 94.9672 47.8295C94.6853 47.7205 94.4353 47.5636 94.2172 47.3591C94.1262 47.2773 94.0353 47.1773 93.9444 47.0591C93.8535 46.9409 93.7694 46.8023 93.6922 46.6432C93.6194 46.4841 93.5581 46.3045 93.5081 46.1045C93.4626 45.9 93.4399 45.6705 93.4399 45.4159C93.4399 45.1886 93.4626 44.9386 93.5081 44.6659C93.5581 44.3932 93.6103 44.1341 93.6649 43.8886C93.724 43.6432 93.7785 43.4318 93.8285 43.2545C93.8831 43.0773 93.9172 42.9682 93.9308 42.9273L95.1581 43.3159C95.1262 43.4114 95.0853 43.5477 95.0353 43.725C94.9899 43.8977 94.9422 44.0841 94.8922 44.2841C94.8467 44.4841 94.8058 44.6864 94.7694 44.8909C94.7376 45.0909 94.7217 45.2659 94.7217 45.4159C94.7217 45.7159 94.7694 45.9523 94.8649 46.125C94.9603 46.2977 95.0717 46.4273 95.199 46.5136C95.3308 46.6 95.4626 46.6545 95.5944 46.6773C95.7262 46.7 95.8262 46.7114 95.8944 46.7114H103.572C103.904 46.7114 104.167 46.6773 104.363 46.6091C104.563 46.5409 104.713 46.4545 104.813 46.35C104.917 46.2455 104.983 46.1318 105.01 46.0091C105.042 45.8818 105.058 45.7614 105.058 45.6477V43.2818H106.347V45.6136C106.347 45.8727 106.401 46.0773 106.51 46.2273C106.624 46.3727 106.754 46.4818 106.899 46.5545C107.044 46.6273 107.185 46.6727 107.322 46.6909C107.458 46.7045 107.554 46.7114 107.608 46.7114H107.813ZM101.117 42.7773L100.04 41.6864L101.104 40.5818L102.208 41.6864L101.117 42.7773ZM98.5058 42.7636L97.4285 41.6727L98.4922 40.5682L99.5967 41.6727L98.5058 42.7636ZM107.467 48V46.7114H109.799C109.631 46.5386 109.494 46.3636 109.39 46.1864C109.29 46.0091 109.213 45.8386 109.158 45.675C109.104 45.5114 109.067 45.3591 109.049 45.2182C109.031 45.0727 109.022 44.9455 109.022 44.8364C109.022 44.4636 109.097 44.1136 109.247 43.7864C109.397 43.4545 109.597 43.1682 109.847 42.9273C110.101 42.6864 110.394 42.4955 110.726 42.3545C111.063 42.2136 111.415 42.1432 111.783 42.1432C111.997 42.1432 112.201 42.1682 112.397 42.2182C112.592 42.2636 112.79 42.3318 112.99 42.4227C113.19 42.5091 113.399 42.6182 113.617 42.75C113.84 42.8773 114.085 43.0205 114.354 43.1795L113.713 44.2841C113.554 44.1886 113.39 44.0909 113.222 43.9909C113.058 43.8864 112.892 43.7932 112.724 43.7114C112.56 43.6295 112.397 43.5636 112.233 43.5136C112.074 43.4591 111.924 43.4318 111.783 43.4318C111.606 43.4318 111.429 43.4636 111.251 43.5273C111.079 43.5909 110.919 43.6841 110.774 43.8068C110.633 43.925 110.517 44.0727 110.426 44.25C110.34 44.4227 110.297 44.6182 110.297 44.8364C110.297 45.0818 110.344 45.3 110.44 45.4909C110.54 45.6773 110.674 45.8409 110.842 45.9818C111.01 46.1182 111.206 46.2341 111.429 46.3295C111.656 46.4205 111.897 46.4955 112.151 46.5545C112.41 46.6091 112.674 46.65 112.942 46.6773C113.215 46.7 113.483 46.7114 113.747 46.7114H114.606V48H107.467ZM120.003 48C119.526 47.9955 119.131 47.9636 118.817 47.9045C118.508 47.8409 118.244 47.7523 118.026 47.6386C117.812 47.5205 117.64 47.375 117.508 47.2023C117.381 47.025 117.281 46.8205 117.208 46.5886C117.135 46.3523 117.087 46.0886 117.065 45.7977C117.042 45.5068 117.031 45.1841 117.031 44.8295V38.2705H118.319V44.8295C118.319 45.225 118.331 45.5455 118.353 45.7909C118.381 46.0364 118.447 46.2273 118.551 46.3636C118.66 46.4955 118.822 46.5864 119.035 46.6364C119.253 46.6818 119.576 46.7068 120.003 46.7114V48ZM125.053 47.9864C124.626 47.9864 124.246 47.925 123.914 47.8023C123.582 47.675 123.303 47.4932 123.076 47.2568C122.839 47.5114 122.564 47.7 122.251 47.8227C121.937 47.9409 121.621 48 121.303 48H119.735V46.7114H121.303C121.371 46.7114 121.469 46.7023 121.596 46.6841C121.723 46.6614 121.848 46.6091 121.971 46.5273C122.094 46.4409 122.201 46.3136 122.292 46.1455C122.387 45.9773 122.435 45.7477 122.435 45.4568V43.3909H123.723V45.4295C123.723 45.8705 123.826 46.1932 124.03 46.3977C124.239 46.6023 124.58 46.7045 125.053 46.7045C125.121 46.7045 125.217 46.6932 125.339 46.6705C125.467 46.6432 125.592 46.5864 125.714 46.5C125.842 46.4136 125.951 46.2864 126.042 46.1182C126.137 45.95 126.185 45.7205 126.185 45.4295V43.3909H127.467V45.4295C127.467 45.8705 127.573 46.1955 127.787 46.4045C128.001 46.6136 128.344 46.7182 128.817 46.7182C128.889 46.7182 128.987 46.7045 129.11 46.6773C129.232 46.6455 129.353 46.5841 129.471 46.4932C129.594 46.4023 129.698 46.2727 129.785 46.1045C129.871 45.9364 129.914 45.7114 129.914 45.4295C129.914 45.3295 129.905 45.2045 129.887 45.0545C129.873 44.9045 129.853 44.7432 129.826 44.5705C129.803 44.3977 129.776 44.2227 129.744 44.0455C129.712 43.8636 129.68 43.6955 129.648 43.5409C129.617 43.3818 129.587 43.2409 129.56 43.1182C129.532 42.9909 129.51 42.8977 129.492 42.8386L130.712 42.45C130.721 42.4773 130.739 42.55 130.767 42.6682C130.794 42.7818 130.826 42.925 130.862 43.0977C130.898 43.2659 130.935 43.4545 130.971 43.6636C131.012 43.8727 131.048 44.0841 131.08 44.2977C131.117 44.5068 131.146 44.7114 131.169 44.9114C131.192 45.1068 131.203 45.2795 131.203 45.4295C131.203 45.8614 131.132 46.2386 130.992 46.5614C130.851 46.8795 130.667 47.1455 130.439 47.3591C130.217 47.5682 129.962 47.7273 129.676 47.8364C129.389 47.9409 129.103 47.9955 128.817 48C128.38 48 127.994 47.9364 127.657 47.8091C127.326 47.6773 127.044 47.4886 126.812 47.2432C126.576 47.4932 126.301 47.6795 125.987 47.8023C125.678 47.925 125.367 47.9864 125.053 47.9864Z" fill="#909090"/>
</g>
<defs>
<filter id="filter0_ii" x="87.7852" y="7.09546" width="77.5138" height="17.2318" filterUnits="userSpaceOnUse" color-interpolation-filters="sRGB">
<feFlood flood-opacity="0" result="BackgroundImageFix"/>
<feBlend mode="normal" in="SourceGraphic" in2="BackgroundImageFix" result="shape"/>
<feColorMatrix in="SourceAlpha" type="matrix" values="0 0 0 0 0 0 0 0 0 0 0 0 0 0 0 0 0 0 127 0" result="hardAlpha"/>
<feOffset/>
<feGaussianBlur stdDeviation="1.5"/>
<feComposite in2="hardAlpha" operator="arithmetic" k2="-1" k3="1"/>
<feColorMatrix type="matrix" values="0 0 0 0 0 0 0 0 0 0 0 0 0 0 0 0 0 0 0.25 0"/>
<feBlend mode="normal" in2="shape" result="effect1_innerShadow"/>
<feColorMatrix in="SourceAlpha" type="matrix" values="0 0 0 0 0 0 0 0 0 0 0 0 0 0 0 0 0 0 127 0" result="hardAlpha"/>
<feOffset/>
<feGaussianBlur stdDeviation="1"/>
<feComposite in2="hardAlpha" operator="arithmetic" k2="-1" k3="1"/>
<feColorMatrix type="matrix" values="0 0 0 0 0 0 0 0 0 0 0 0 0 0 0 0 0 0 0.64 0"/>
<feBlend mode="normal" in2="effect1_innerShadow" result="effect2_innerShadow"/>
</filter>
<filter id="filter1_i" x="28" y="32.3076" width="211.876" height="18.6182" filterUnits="userSpaceOnUse" color-interpolation-filters="sRGB">
<feFlood flood-opacity="0" result="BackgroundImageFix"/>
<feBlend mode="normal" in="SourceGraphic" in2="BackgroundImageFix" result="shape"/>
<feColorMatrix in="SourceAlpha" type="matrix" values="0 0 0 0 0 0 0 0 0 0 0 0 0 0 0 0 0 0 127 0" result="hardAlpha"/>
<feOffset/>
<feGaussianBlur stdDeviation="1"/>
<feComposite in2="hardAlpha" operator="arithmetic" k2="-1" k3="1"/>
<feColorMatrix type="matrix" values="0 0 0 0 0 0 0 0 0 0 0 0 0 0 0 0 0 0 1 0"/>
<feBlend mode="normal" in2="shape" result="effect1_innerShadow"/>
</filter>
</defs>
</svg>
