<?xml version="1.0" encoding="utf-8"?>
<!-- Generator: Adobe Illustrator 21.0.2, SVG Export Plug-In . SVG Version: 6.00 Build 0)  -->
<svg version="1.1" id="Layer_1" xmlns="http://www.w3.org/2000/svg" xmlns:xlink="http://www.w3.org/1999/xlink" x="0px" y="0px"
	 viewBox="0 0 860 480" style="enable-background:new 0 0 860 480;" xml:space="preserve">
<style type="text/css">
	.st0{fill:#FFFFFF;}
</style>
<image style="overflow:visible;" width="860" height="480" xlink:href="43A65AA0.jpg"  transform="matrix(0.9999 0 0 0.9999 0.3075 0)">
</image>
<g>
	<path class="st0" d="M365.1,288.5c6.9-10,26.5-38.3,34.2-48.8c1.5-2,4.5-2.1,6,0c5.1,6.7,10.1,13.5,15.4,20.5
		c1,1.3,2.9,1.2,3.7-0.2c5-8.8,20-35.1,25.1-44.1c0.8-1.5,2.9-1.5,3.8-0.1c7.8,12.4,34.8,59.7,42.5,72.8c0.9,1.5-0.2,3.3-1.9,3.3
		c-19.8,0-106.5,0-126.9,0C365.1,292,364.1,290,365.1,288.5z"/>
	<circle class="st0" cx="409.2" cy="208.5" r="8.5"/>
</g>
</svg>
