<svg width="151" height="61" viewBox="0 0 151 61" fill="none" xmlns="http://www.w3.org/2000/svg">
<path opacity="0.5" d="M22.3362 11.492C25.9745 6.1321 32.4857 3.49493 38.8284 4.8124L135.285 24.8476C143.377 26.5285 148.857 34.0962 147.929 42.309L147.629 44.9708C146.637 53.7515 138.715 60.0657 129.934 59.074L26.3164 47.3705C14.3565 46.0196 8.11423 32.444 14.8739 22.4856L22.3362 11.492Z" fill="#00AA0A"/>
<path d="M20.7857 22.022C23.8094 16.3266 29.9566 13.0029 36.3779 13.5915L133.878 22.5281C142.114 23.283 148.417 30.1906 148.417 38.4613V40.6199C148.417 49.4564 141.254 56.6199 132.417 56.6199H29.027C16.9616 56.6199 9.23744 43.7738 14.8952 33.1172L20.7857 22.022Z" fill="#00AA0A"/>
</svg>
