<svg width="231" height="88" viewBox="0 0 231 88" fill="none" xmlns="http://www.w3.org/2000/svg">
<path opacity="0.5" d="M36.6557 12.6729C40.1435 7.21385 46.579 4.39669 52.9558 5.53732L214.903 34.5047C223.039 35.96 228.727 43.3724 228.028 51.6078L226.302 71.9477C225.555 80.7526 217.811 87.2846 209.006 86.5374L27.1439 71.1024C15.1511 70.0846 8.53381 56.6878 15.014 46.5453L36.6557 12.6729Z" fill="#00AA0A"/>
<path d="M34.0203 26.4753C37.034 20.7409 43.2081 17.3896 49.6586 17.9869L213.475 33.1551C221.705 33.9171 228 40.8219 228 49.087V69.5C228 78.3366 220.837 85.5 212 85.5H29.4838C17.4479 85.5 9.72135 72.7108 15.3206 62.0566L34.0203 26.4753Z" fill="#00AA0A"/>
<path d="M44.1053 57.408C44.1413 57.408 44.1773 57.474 44.2133 57.606C44.2493 57.726 44.2673 57.87 44.2673 58.038V59.352C44.2673 59.52 44.2493 59.67 44.2133 59.802C44.1773 59.934 44.1413 60 44.1053 60C43.4933 60 42.9473 59.904 42.4673 59.712C41.9873 59.508 41.6213 59.19 41.3693 58.758L41.2793 59.334C41.2433 59.55 41.1713 59.736 41.0633 59.892C40.9673 60.048 40.7753 60.24 40.4873 60.468C40.1273 60.744 39.8333 60.882 39.6053 60.882C39.4853 60.882 39.3413 60.846 39.1733 60.774L36.0773 59.316C36.0653 60 36.1253 60.756 36.2573 61.584C36.4013 62.424 36.6173 63.51 36.9053 64.842L37.0313 65.436L34.7093 66.246C34.3613 63.954 34.1873 62.094 34.1873 60.666C34.1873 59.274 34.3373 58.242 34.6373 57.57C35.2493 56.142 35.8913 55.08 36.5633 54.384C37.2473 53.676 37.9973 53.322 38.8133 53.322C39.9653 53.322 40.7933 54.072 41.2973 55.572C41.4293 56.028 41.5733 56.382 41.7293 56.634C41.8973 56.886 42.1613 57.078 42.5213 57.21C42.8933 57.342 43.4213 57.408 44.1053 57.408ZM39.6053 58.47C39.7253 58.194 39.7853 57.816 39.7853 57.336C39.7853 56.784 39.6773 56.334 39.4613 55.986C39.2573 55.638 38.9573 55.464 38.5613 55.464C38.2253 55.464 37.9373 55.59 37.6973 55.842C37.4573 56.094 37.1453 56.544 36.7613 57.192L39.6053 58.47ZM50.7854 57.408C50.8334 57.408 50.8694 57.474 50.8934 57.606C50.9294 57.726 50.9474 57.87 50.9474 58.038V59.352C50.9474 59.532 50.9294 59.688 50.8934 59.82C50.8694 59.94 50.8334 60 50.7854 60C49.7774 60 49.0334 59.904 48.5534 59.712C48.0734 59.508 47.7494 59.178 47.5814 58.722C47.3534 59.19 46.9694 59.52 46.4294 59.712C45.9014 59.904 45.1274 60 44.1074 60C44.0714 60 44.0354 59.934 43.9994 59.802C43.9634 59.67 43.9454 59.52 43.9454 59.352V58.038C43.9454 57.87 43.9634 57.726 43.9994 57.606C44.0354 57.474 44.0714 57.408 44.1074 57.408C45.2834 57.408 46.1534 57.252 46.7174 56.94L46.3214 53.592L48.3194 53.394L48.4994 57.03C49.0034 57.282 49.7654 57.408 50.7854 57.408ZM45.5654 61.782L47.1854 63.096L45.8714 64.698L44.2694 63.384L45.5654 61.782ZM48.3554 61.782L49.9574 63.096L48.6614 64.698L47.0414 63.384L48.3554 61.782ZM54.8191 46.464C53.2231 47.088 51.9991 47.598 51.1471 47.994L51.2371 46.41C52.3291 45.882 53.4691 45.384 54.6571 44.916L54.8191 46.464ZM53.8651 50.532C55.1131 51.588 56.0011 52.698 56.5291 53.862C57.0571 55.014 57.3211 56.172 57.3211 57.336C57.3211 58.008 57.0811 58.536 56.6011 58.92C56.1211 59.304 55.4071 59.58 54.4591 59.748C53.5111 59.916 52.2871 60 50.7871 60C50.7511 60 50.7151 59.934 50.6791 59.802C50.6431 59.67 50.6251 59.52 50.6251 59.352V58.038C50.6251 57.87 50.6431 57.726 50.6791 57.606C50.7151 57.474 50.7511 57.408 50.7871 57.408C52.8751 57.408 54.4531 57.276 55.5211 57.012C55.4371 55.992 55.0171 54.978 54.2611 53.97C53.5051 52.95 52.4371 51.996 51.0571 51.108L51.1471 49.02C52.1791 48.516 53.2051 48.072 54.2251 47.688C55.2571 47.304 56.3791 46.932 57.5911 46.572L57.8611 48.714C56.1811 49.182 54.7171 49.686 53.4691 50.226C53.6731 50.37 53.8051 50.472 53.8651 50.532ZM64.207 57.408C64.243 57.408 64.279 57.474 64.315 57.606C64.351 57.726 64.369 57.87 64.369 58.038V59.352C64.369 59.52 64.351 59.67 64.315 59.802C64.279 59.934 64.243 60 64.207 60H63.703C62.851 60 62.161 59.874 61.633 59.622C61.117 59.37 60.721 58.944 60.445 58.344C60.181 57.732 60.031 56.898 59.995 55.842L59.689 46.932L61.759 46.572L61.795 55.824C61.795 56.328 61.939 56.718 62.227 56.994C62.515 57.27 62.923 57.408 63.451 57.408H64.207ZM68.9872 52.638C69.1072 54.558 69.1672 56.052 69.1672 57.12C69.1672 57.528 69.0772 57.918 68.8972 58.29C68.7292 58.65 68.4652 58.95 68.1052 59.19C67.2172 59.73 65.9152 60 64.1992 60C64.1632 60 64.1272 59.934 64.0912 59.802C64.0552 59.67 64.0372 59.52 64.0372 59.352V58.038C64.0372 57.87 64.0552 57.726 64.0912 57.606C64.1272 57.474 64.1632 57.408 64.1992 57.408C64.9072 57.408 65.5192 57.378 66.0352 57.318C66.5632 57.246 67.0192 57.114 67.4032 56.922L67.0072 52.98L68.9872 52.638ZM64.4332 61.782L66.0532 63.096L64.7392 64.698L63.1372 63.384L64.4332 61.782ZM67.2232 61.782L68.8252 63.096L67.5292 64.698L65.9092 63.384L67.2232 61.782ZM79.1883 57.408C79.2363 57.408 79.2723 57.474 79.2963 57.606C79.3323 57.726 79.3503 57.87 79.3503 58.038V59.352C79.3503 59.532 79.3323 59.688 79.2963 59.82C79.2723 59.94 79.2363 60 79.1883 60H77.6763C77.3643 61.152 76.7643 62.196 75.8763 63.132C75.0003 64.068 73.8243 64.836 72.3483 65.436L70.9803 63.438C72.1083 63.054 73.1043 62.532 73.9683 61.872C74.8443 61.224 75.4743 60.564 75.8583 59.892C75.3783 59.964 74.8323 60 74.2203 60C73.5483 60 73.0563 59.952 72.7443 59.856C72.4443 59.748 72.1623 59.514 71.8983 59.154C71.7183 58.902 71.5983 58.692 71.5383 58.524C71.4783 58.344 71.4483 58.11 71.4483 57.822C71.4483 57.03 71.5623 56.268 71.7903 55.536C72.0303 54.804 72.3963 54.21 72.8883 53.754C73.3803 53.286 73.9983 53.052 74.7423 53.052C75.6543 53.052 76.3803 53.472 76.9203 54.312C77.4603 55.14 77.7783 56.172 77.8743 57.408H79.1883ZM73.1223 57.678C73.5783 57.798 74.0703 57.858 74.5983 57.858C75.2463 57.858 75.7683 57.81 76.1643 57.714C76.1643 56.874 76.0203 56.244 75.7323 55.824C75.4563 55.404 75.0723 55.194 74.5803 55.194C74.1483 55.194 73.7943 55.416 73.5183 55.86C73.2543 56.304 73.1223 56.91 73.1223 57.678ZM83.9814 52.638C84.1014 54.558 84.1614 56.052 84.1614 57.12C84.1614 57.528 84.0714 57.918 83.8914 58.29C83.7234 58.65 83.4594 58.95 83.0994 59.19C82.2114 59.73 80.9094 60 79.1934 60C79.1574 60 79.1214 59.934 79.0854 59.802C79.0494 59.67 79.0314 59.52 79.0314 59.352V58.038C79.0314 57.87 79.0494 57.726 79.0854 57.606C79.1214 57.474 79.1574 57.408 79.1934 57.408C79.9014 57.408 80.5134 57.378 81.0294 57.318C81.5574 57.246 82.0134 57.114 82.3974 56.922L82.0014 52.98L83.9814 52.638ZM82.5234 47.832L84.3234 49.254L82.9554 50.928L81.1554 49.506L82.5234 47.832ZM96.907 57.408C96.955 57.408 96.991 57.474 97.015 57.606C97.051 57.726 97.069 57.87 97.069 58.038V59.352C97.069 59.532 97.051 59.688 97.015 59.82C96.991 59.94 96.955 60 96.907 60H95.395C95.083 61.152 94.483 62.196 93.595 63.132C92.719 64.068 91.543 64.836 90.067 65.436L88.699 63.438C89.827 63.054 90.823 62.532 91.687 61.872C92.563 61.224 93.193 60.564 93.577 59.892C93.097 59.964 92.551 60 91.939 60C91.267 60 90.775 59.952 90.463 59.856C90.163 59.748 89.881 59.514 89.617 59.154C89.437 58.902 89.317 58.692 89.257 58.524C89.197 58.344 89.167 58.11 89.167 57.822C89.167 57.03 89.281 56.268 89.509 55.536C89.749 54.804 90.115 54.21 90.607 53.754C91.099 53.286 91.717 53.052 92.461 53.052C93.373 53.052 94.099 53.472 94.639 54.312C95.179 55.14 95.497 56.172 95.593 57.408H96.907ZM90.841 57.678C91.297 57.798 91.789 57.858 92.317 57.858C92.965 57.858 93.487 57.81 93.883 57.714C93.883 56.874 93.739 56.244 93.451 55.824C93.175 55.404 92.791 55.194 92.299 55.194C91.867 55.194 91.513 55.416 91.237 55.86C90.973 56.304 90.841 56.91 90.841 57.678ZM101.7 52.638C101.82 54.558 101.88 56.052 101.88 57.12C101.88 57.528 101.79 57.918 101.61 58.29C101.442 58.65 101.178 58.95 100.818 59.19C99.9301 59.73 98.6281 60 96.9121 60C96.8761 60 96.8401 59.934 96.8041 59.802C96.7681 59.67 96.7501 59.52 96.7501 59.352V58.038C96.7501 57.87 96.7681 57.726 96.8041 57.606C96.8401 57.474 96.8761 57.408 96.9121 57.408C97.6201 57.408 98.2321 57.378 98.7481 57.318C99.2761 57.246 99.7321 57.114 100.116 56.922L99.7201 52.98L101.7 52.638ZM97.1461 61.782L98.7661 63.096L97.4521 64.698L95.8501 63.384L97.1461 61.782ZM99.9361 61.782L101.538 63.096L100.242 64.698L98.6221 63.384L99.9361 61.782ZM108.679 50.532C109.891 51.708 110.791 52.884 111.379 54.06C111.979 55.224 112.279 56.316 112.279 57.336C112.279 58.296 111.835 58.998 110.947 59.442C110.071 59.874 108.943 60.09 107.563 60.09C106.711 60.09 106.039 60.012 105.547 59.856C105.067 59.688 104.719 59.406 104.503 59.01C104.287 58.614 104.179 58.068 104.179 57.372C104.179 57.168 104.203 56.718 104.251 56.022L105.835 56.148V56.58C105.835 56.88 105.877 57.09 105.961 57.21C106.045 57.33 106.201 57.408 106.429 57.444C106.669 57.48 107.071 57.498 107.635 57.498C108.043 57.498 108.535 57.462 109.111 57.39C109.699 57.318 110.173 57.228 110.533 57.12C110.365 55.692 109.309 54.066 107.365 52.242L108.679 50.532ZM121.956 57.408C122.004 57.408 122.04 57.474 122.064 57.606C122.1 57.726 122.118 57.87 122.118 58.038V59.352C122.118 59.532 122.1 59.688 122.064 59.82C122.04 59.94 122.004 60 121.956 60H120.444C120.132 61.152 119.532 62.196 118.644 63.132C117.768 64.068 116.592 64.836 115.116 65.436L113.748 63.438C114.876 63.054 115.872 62.532 116.736 61.872C117.612 61.224 118.242 60.564 118.626 59.892C118.146 59.964 117.6 60 116.988 60C116.316 60 115.824 59.952 115.512 59.856C115.212 59.748 114.93 59.514 114.666 59.154C114.486 58.902 114.366 58.692 114.306 58.524C114.246 58.344 114.216 58.11 114.216 57.822C114.216 57.03 114.33 56.268 114.558 55.536C114.798 54.804 115.164 54.21 115.656 53.754C116.148 53.286 116.766 53.052 117.51 53.052C118.422 53.052 119.148 53.472 119.688 54.312C120.228 55.14 120.546 56.172 120.642 57.408H121.956ZM115.89 57.678C116.346 57.798 116.838 57.858 117.366 57.858C118.014 57.858 118.536 57.81 118.932 57.714C118.932 56.874 118.788 56.244 118.5 55.824C118.224 55.404 117.84 55.194 117.348 55.194C116.916 55.194 116.562 55.416 116.286 55.86C116.022 56.304 115.89 56.91 115.89 57.678ZM128.639 57.408C128.687 57.408 128.723 57.474 128.747 57.606C128.783 57.726 128.801 57.87 128.801 58.038V59.352C128.801 59.532 128.783 59.688 128.747 59.82C128.723 59.94 128.687 60 128.639 60C127.631 60 126.887 59.904 126.407 59.712C125.927 59.508 125.603 59.178 125.435 58.722C125.207 59.19 124.823 59.52 124.283 59.712C123.755 59.904 122.981 60 121.961 60C121.925 60 121.889 59.934 121.853 59.802C121.817 59.67 121.799 59.52 121.799 59.352V58.038C121.799 57.87 121.817 57.726 121.853 57.606C121.889 57.474 121.925 57.408 121.961 57.408C123.137 57.408 124.007 57.252 124.571 56.94L124.175 53.592L126.173 53.394L126.353 57.03C126.857 57.282 127.619 57.408 128.639 57.408ZM123.473 48.732L125.093 50.046L123.779 51.648L122.177 50.334L123.473 48.732ZM126.263 48.732L127.865 50.046L126.569 51.648L124.949 50.334L126.263 48.732ZM140.899 52.638C141.019 54.966 141.079 56.49 141.079 57.21C141.079 57.834 140.935 58.356 140.647 58.776C140.371 59.196 140.011 59.508 139.567 59.712C139.123 59.904 138.649 60 138.145 60C136.957 60 136.201 59.646 135.877 58.938C135.661 59.334 135.355 59.61 134.959 59.766C134.575 59.922 134.215 60 133.879 60C133.411 60 132.991 59.916 132.619 59.748C132.247 59.568 131.965 59.292 131.773 58.92C131.269 59.64 130.225 60 128.641 60C128.605 60 128.569 59.934 128.533 59.802C128.497 59.67 128.479 59.52 128.479 59.352V58.038C128.479 57.87 128.497 57.726 128.533 57.606C128.569 57.474 128.605 57.408 128.641 57.408C129.085 57.408 129.481 57.384 129.829 57.336C130.189 57.276 130.531 57.174 130.855 57.03V54.42H132.655L132.619 56.454C132.619 56.802 132.703 57.048 132.871 57.192C133.051 57.336 133.309 57.408 133.645 57.408C134.197 57.408 134.665 57.324 135.049 57.156L134.905 53.772L136.705 53.7L136.777 57.21C136.981 57.342 137.293 57.408 137.713 57.408C138.397 57.408 138.937 57.318 139.333 57.138L138.901 52.98L140.899 52.638ZM143.378 46.932L145.448 46.572L145.502 60L143.774 60.216L143.378 46.932ZM155.091 64.158C153.483 64.158 152.319 63.852 151.599 63.24C150.879 62.628 150.519 61.716 150.519 60.504C150.519 60.228 150.561 59.778 150.645 59.154C150.741 58.53 150.855 57.816 150.987 57.012C151.107 56.388 151.233 55.626 151.365 54.726L152.949 55.068C152.493 57.804 152.265 59.49 152.265 60.126C152.265 60.642 152.535 61.008 153.075 61.224C153.627 61.44 154.299 61.548 155.091 61.548C156.195 61.548 157.119 61.47 157.863 61.314C158.619 61.17 159.225 60.912 159.681 60.54C159.741 60.324 159.771 60.15 159.771 60.018C159.771 59.562 159.561 59.304 159.141 59.244C158.253 59.16 157.593 59.076 157.161 58.992C156.729 58.908 156.387 58.758 156.135 58.542C155.895 58.314 155.775 57.984 155.775 57.552C155.775 56.604 155.955 55.644 156.315 54.672C156.687 53.7 157.173 52.896 157.773 52.26C158.373 51.624 158.997 51.306 159.645 51.306C160.137 51.306 160.593 51.462 161.013 51.774C161.433 52.086 161.853 52.584 162.273 53.268L161.175 54.456C160.623 53.904 160.119 53.628 159.663 53.628C159.147 53.628 158.703 53.91 158.331 54.474C157.959 55.038 157.707 55.746 157.575 56.598C158.547 56.706 159.285 56.838 159.789 56.994C160.293 57.138 160.695 57.426 160.995 57.858C161.295 58.29 161.445 58.95 161.445 59.838C161.445 60.822 161.157 61.632 160.581 62.268C160.005 62.916 159.237 63.39 158.277 63.69C157.317 64.002 156.255 64.158 155.091 64.158ZM168.463 57.408C168.499 57.408 168.535 57.474 168.571 57.606C168.607 57.726 168.625 57.87 168.625 58.038V59.352C168.625 59.52 168.607 59.67 168.571 59.802C168.535 59.934 168.499 60 168.463 60H167.959C167.107 60 166.417 59.874 165.889 59.622C165.373 59.37 164.977 58.944 164.701 58.344C164.437 57.732 164.287 56.898 164.251 55.842L163.945 46.932L166.015 46.572L166.051 55.824C166.051 56.328 166.195 56.718 166.483 56.994C166.771 57.27 167.179 57.408 167.707 57.408H168.463ZM176.375 53.124C177.203 53.496 177.815 53.97 178.211 54.546C178.607 55.122 178.805 55.812 178.805 56.616C178.805 57.504 178.643 58.278 178.319 58.938C178.247 59.094 178.145 59.238 178.013 59.37C177.893 59.502 177.719 59.646 177.491 59.802C177.143 60.03 176.873 60.144 176.681 60.144C176.597 60.144 176.507 60.126 176.411 60.09L173.837 59.1C173.561 59.412 172.985 59.64 172.109 59.784C171.233 59.928 170.015 60 168.455 60C168.419 60 168.383 59.934 168.347 59.802C168.311 59.67 168.293 59.52 168.293 59.352V58.038C168.293 57.87 168.311 57.726 168.347 57.606C168.383 57.474 168.419 57.408 168.455 57.408H169.517C170.045 57.408 170.597 57.384 171.173 57.336C170.813 57.192 170.519 56.982 170.291 56.706C170.075 56.418 169.967 56.106 169.967 55.77C169.967 54.99 170.369 54.114 171.173 53.142L170.381 52.746L171.263 50.82L176.375 53.124ZM174.269 54.528L172.649 53.826C171.977 54.534 171.641 55.122 171.641 55.59C171.641 55.878 171.809 56.118 172.145 56.31C172.481 56.49 172.913 56.592 173.441 56.616L174.269 54.528ZM176.861 57.984C176.957 57.816 177.035 57.63 177.095 57.426C177.167 57.222 177.203 57.042 177.203 56.886C177.203 56.094 176.669 55.5 175.601 55.104L174.719 57.156L176.861 57.984ZM188.472 64.158C186.864 64.158 185.7 63.852 184.98 63.24C184.26 62.628 183.9 61.716 183.9 60.504C183.9 60.228 183.942 59.778 184.026 59.154C184.122 58.53 184.236 57.816 184.368 57.012C184.488 56.388 184.614 55.626 184.746 54.726L186.33 55.068C185.874 57.804 185.646 59.49 185.646 60.126C185.646 60.642 185.916 61.008 186.456 61.224C187.008 61.44 187.68 61.548 188.472 61.548C189.576 61.548 190.5 61.47 191.244 61.314C192 61.17 192.606 60.912 193.062 60.54C193.122 60.324 193.152 60.15 193.152 60.018C193.152 59.562 192.942 59.304 192.522 59.244C191.634 59.16 190.974 59.076 190.542 58.992C190.11 58.908 189.768 58.758 189.516 58.542C189.276 58.314 189.156 57.984 189.156 57.552C189.156 56.604 189.336 55.644 189.696 54.672C190.068 53.7 190.554 52.896 191.154 52.26C191.754 51.624 192.378 51.306 193.026 51.306C193.518 51.306 193.974 51.462 194.394 51.774C194.814 52.086 195.234 52.584 195.654 53.268L194.556 54.456C194.004 53.904 193.5 53.628 193.044 53.628C192.528 53.628 192.084 53.91 191.712 54.474C191.34 55.038 191.088 55.746 190.956 56.598C191.928 56.706 192.666 56.838 193.17 56.994C193.674 57.138 194.076 57.426 194.376 57.858C194.676 58.29 194.826 58.95 194.826 59.838C194.826 60.822 194.538 61.632 193.962 62.268C193.386 62.916 192.618 63.39 191.658 63.69C190.698 64.002 189.636 64.158 188.472 64.158ZM195.004 63.438C197.176 62.322 198.574 61.02 199.198 59.532L198.514 54.186L200.566 53.772C200.71 55.152 200.812 56.232 200.872 57.012C200.944 57.78 200.98 58.44 200.98 58.992C200.98 60.252 200.608 61.41 199.864 62.466C199.132 63.534 197.968 64.524 196.372 65.436L195.004 63.438ZM199.162 48.804L200.962 50.226L199.594 51.9L197.794 50.478L199.162 48.804ZM207.803 57.408C207.839 57.408 207.875 57.474 207.911 57.606C207.947 57.726 207.965 57.87 207.965 58.038V59.352C207.965 59.52 207.947 59.67 207.911 59.802C207.875 59.934 207.839 60 207.803 60H207.299C206.447 60 205.757 59.874 205.229 59.622C204.713 59.37 204.317 58.944 204.041 58.344C203.777 57.732 203.627 56.898 203.591 55.842L203.285 46.932L205.355 46.572L205.391 55.824C205.391 56.328 205.535 56.718 205.823 56.994C206.111 57.27 206.519 57.408 207.047 57.408H207.803ZM212.583 52.638C212.703 54.558 212.763 56.052 212.763 57.12C212.763 57.528 212.673 57.918 212.493 58.29C212.325 58.65 212.061 58.95 211.701 59.19C210.813 59.73 209.511 60 207.795 60C207.759 60 207.723 59.934 207.687 59.802C207.651 59.67 207.633 59.52 207.633 59.352V58.038C207.633 57.87 207.651 57.726 207.687 57.606C207.723 57.474 207.759 57.408 207.795 57.408C208.503 57.408 209.115 57.378 209.631 57.318C210.159 57.246 210.615 57.114 210.999 56.922L210.603 52.98L212.583 52.638ZM209.361 61.782L211.161 63.204L209.793 64.878L207.993 63.456L209.361 61.782Z" fill="white"/>
</svg>
